<?xml version="1.0" encoding="UTF-8"?>
<!DOCTYPE svg PUBLIC "-//W3C//DTD SVG 1.1//EN" "http://www.w3.org/Graphics/SVG/1.1/DTD/svg11.dtd">
<svg xmlns="http://www.w3.org/2000/svg" xmlns:xlink="http://www.w3.org/1999/xlink" version="1.1" width="843px" height="292px" viewBox="-0.5 -0.5 843 292" style="background-color: rgb(255, 255, 255);"><defs/><rect fill="#ffffff" width="100%" height="100%" x="0" y="0"/><g><g data-cell-id="0"><g data-cell-id="1"><g data-cell-id="BbftKv4C66B8lPSLXNzS-2"><g style="filter: drop-shadow(rgb(0, 0, 0) 3px -3px 0px);"><path d="M 29 124 L 149 124 L 149 192 Q 119 170.4 89 192 Q 59 213.6 29 192 L 29 136 Z" fill="rgb(255, 255, 255)" stroke="rgb(0, 0, 0)" stroke-miterlimit="10" pointer-events="all"/></g><g><g fill="rgb(0, 0, 0)" font-family="&quot;Helvetica&quot;" text-anchor="middle" font-size="18px"><text x="88.5" y="159.5">Java 源文件</text></g></g></g><g data-cell-id="BbftKv4C66B8lPSLXNzS-3"><g style="filter: drop-shadow(rgb(0, 0, 0) 3px -3px 0px);"><path d="M 290 94 L 370 94 L 390 114 L 390 194 L 290 194 L 290 94 Z" fill="rgb(255, 255, 255)" stroke="rgb(0, 0, 0)" stroke-miterlimit="10" pointer-events="all"/><path d="M 370 94 L 370 114 L 390 114 Z" fill-opacity="0.05" fill="#000000" stroke="none" pointer-events="all"/><path d="M 370 94 L 370 114 L 390 114" fill="none" stroke="rgb(0, 0, 0)" stroke-miterlimit="10" pointer-events="all"/></g><g><g fill="rgb(0, 0, 0)" font-family="&quot;Helvetica&quot;" text-anchor="middle" font-size="18px"><text x="339.5" y="151.5">字节码文件</text></g></g></g><g data-cell-id="BbftKv4C66B8lPSLXNzS-14"><g><path d="M 642 144 L 712.63 144" fill="none" stroke="rgb(0, 0, 0)" stroke-miterlimit="10" pointer-events="stroke"/><path d="M 717.88 144 L 710.88 147.5 L 712.63 144 L 710.88 140.5 Z" fill="rgb(0, 0, 0)" stroke="rgb(0, 0, 0)" stroke-miterlimit="10" pointer-events="all"/></g></g><g data-cell-id="BbftKv4C66B8lPSLXNzS-5"><g><path d="M 519 161.5 L 519 126.5 L 580.5 91 L 642 126.5 L 642 161.5 L 580.5 197 Z" fill="rgb(255, 255, 255)" stroke="#292929" stroke-width="2" stroke-linejoin="round" stroke-miterlimit="10" pointer-events="all"/><path d="M 519 161.5 L 519 126.5 L 580.5 162 L 580.5 197 Z" fill-opacity="0.1" fill="#000000" stroke="none" pointer-events="all"/><path d="M 642 161.5 L 642 126.5 L 580.5 162 L 580.5 197 Z" fill-opacity="0.3" fill="#000000" stroke="none" pointer-events="all"/><path d="M 519 161.5 L 519 126.5 L 580.5 162 L 580.5 197 Z" fill="none" stroke="#5e5e5e" stroke-linejoin="round" stroke-miterlimit="10" pointer-events="all"/><path d="M 642 161.5 L 642 126.5 L 580.5 162 L 580.5 197 Z" fill="none" stroke="#5e5e5e" stroke-linejoin="round" stroke-miterlimit="10" pointer-events="all"/><path d="M 529.8 142.49 L 570.5 166.2 M 591.2 166.2 L 632 142.49" fill="none" stroke="#5e5e5e" stroke-width="3" stroke-linejoin="round" stroke-linecap="round" stroke-miterlimit="10" pointer-events="all"/><path d="M 519 161.5 L 519 126.5 L 580.5 91 L 642 126.5 L 642 161.5 L 580.5 197 Z" fill="none" stroke="#292929" stroke-width="2" stroke-linejoin="round" stroke-linecap="round" stroke-miterlimit="10" pointer-events="all"/></g><g><g fill="rgb(0, 0, 0)" font-family="&quot;Helvetica&quot;" text-anchor="middle" font-size="18px"><text x="580" y="132.5">JVM</text></g></g></g><g data-cell-id="BbftKv4C66B8lPSLXNzS-9"><g style="filter: drop-shadow(rgb(0, 0, 0) 3px -3px 0px);"><ellipse cx="774" cy="144" rx="55" ry="55" fill="rgb(255, 255, 255)" stroke="rgb(0, 0, 0)" pointer-events="all"/></g><g><g fill="rgb(0, 0, 0)" font-family="&quot;Helvetica&quot;" text-anchor="middle" font-size="18px"><text x="773.5" y="151.5">程序运行结果</text></g></g></g><g data-cell-id="BbftKv4C66B8lPSLXNzS-10"><g><path d="M 149 144 L 283.63 144" fill="none" stroke="rgb(0, 0, 0)" stroke-miterlimit="10" pointer-events="stroke"/><path d="M 288.88 144 L 281.88 147.5 L 283.63 144 L 281.88 140.5 Z" fill="rgb(0, 0, 0)" stroke="rgb(0, 0, 0)" stroke-miterlimit="10" pointer-events="all"/></g><g data-cell-id="BbftKv4C66B8lPSLXNzS-15"/><g data-cell-id="BbftKv4C66B8lPSLXNzS-16"/><g data-cell-id="BbftKv4C66B8lPSLXNzS-20"><g><g fill="rgb(0, 0, 0)" font-family="&quot;Helvetica&quot;" text-anchor="middle" font-size="18px"><rect fill="rgb(255, 255, 255)" stroke="none" x="158" y="152" width="119" height="23" stroke-width="0"/><text x="216" y="167.5">使用 javac.exe</text></g></g></g><g data-cell-id="BbftKv4C66B8lPSLXNzS-21"><g><g fill="rgb(0, 0, 0)" font-family="&quot;Helvetica&quot;" text-anchor="middle" font-size="16px"><rect fill="rgb(255, 255, 255)" stroke="none" x="183" y="123" width="66" height="20" stroke-width="0"/><text x="215" y="138.5">编译程序</text></g></g></g></g><g data-cell-id="BbftKv4C66B8lPSLXNzS-13"><g><path d="M 390 144 L 512.63 144" fill="none" stroke="rgb(0, 0, 0)" stroke-miterlimit="10" pointer-events="stroke"/><path d="M 517.88 144 L 510.88 147.5 L 512.63 144 L 510.88 140.5 Z" fill="rgb(0, 0, 0)" stroke="rgb(0, 0, 0)" stroke-miterlimit="10" pointer-events="all"/></g><g data-cell-id="BbftKv4C66B8lPSLXNzS-17"><g><g fill="rgb(0, 0, 0)" font-family="&quot;Helvetica&quot;" text-anchor="middle" font-size="16px"><rect fill="rgb(255, 255, 255)" stroke="none" x="422" y="123" width="70" height="20" stroke-width="0"/><text x="456" y="138.5">启动 JVM</text></g></g></g><g data-cell-id="BbftKv4C66B8lPSLXNzS-18"/><g data-cell-id="BbftKv4C66B8lPSLXNzS-19"><g><g fill="rgb(0, 0, 0)" font-family="&quot;Helvetica&quot;" text-anchor="middle" font-size="16px"><rect fill="rgb(255, 255, 255)" stroke="none" x="408" y="153" width="98" height="20" stroke-width="0"/><text x="456" y="166.5">使用 java.exe</text></g></g></g></g><g data-cell-id="BbftKv4C66B8lPSLXNzS-28"><g style="filter: drop-shadow(rgba(0, 0, 0, 0.25) 2px 3px 2px);"><path d="M 14 234 L 154 234 L 164 244 L 164 274 L 14 274 L 14 234 Z" fill="#f5f5f5" stroke="#666666" stroke-miterlimit="10" transform="rotate(180,89,254)" pointer-events="all"/><path d="M 154 234 L 154 244 L 164 244 Z" fill-opacity="0.05" fill="#000000" stroke="none" transform="rotate(180,89,254)" pointer-events="all"/><path d="M 154 234 L 154 244 L 164 244" fill="none" stroke="#666666" stroke-miterlimit="10" transform="rotate(180,89,254)" pointer-events="all"/></g><g><g fill="rgb(0, 0, 0)" font-family="&quot;Helvetica&quot;" text-anchor="middle" font-size="18px"><text x="88.5" y="261.5">HelloWorld.java</text></g></g></g><g data-cell-id="BbftKv4C66B8lPSLXNzS-30"><g style="filter: drop-shadow(rgba(0, 0, 0, 0.25) 2px 3px 2px);"><path d="M 265 234 L 405 234 L 415 244 L 415 274 L 265 274 L 265 234 Z" fill="#f5f5f5" stroke="#666666" stroke-miterlimit="10" transform="rotate(180,340,254)" pointer-events="all"/><path d="M 405 234 L 405 244 L 415 244 Z" fill-opacity="0.05" fill="#000000" stroke="none" transform="rotate(180,340,254)" pointer-events="all"/><path d="M 405 234 L 405 244 L 415 244" fill="none" stroke="#666666" stroke-miterlimit="10" transform="rotate(180,340,254)" pointer-events="all"/></g><g><g fill="rgb(0, 0, 0)" font-family="&quot;Helvetica&quot;" text-anchor="middle" font-size="18px"><text x="339.5" y="261.5">HelloWorld.class</text></g></g></g><g data-cell-id="BbftKv4C66B8lPSLXNzS-31"><g><path d="M 340 194 L 340 234" fill="none" stroke="rgb(0, 0, 0)" stroke-miterlimit="10" stroke-dasharray="3 3" pointer-events="stroke"/></g></g><g data-cell-id="BbftKv4C66B8lPSLXNzS-33"><g><path d="M 454 54 L 454 86.5 L 454 119" fill="none" stroke="rgb(0, 0, 0)" stroke-miterlimit="10" stroke-dasharray="3 3" pointer-events="stroke"/></g></g><g data-cell-id="BbftKv4C66B8lPSLXNzS-32"><g style="filter: drop-shadow(rgba(0, 0, 0, 0.25) 2px 3px 2px);"><path d="M 339 14 L 559 14 L 569 24 L 569 54 L 339 54 L 339 14 Z" fill="#f5f5f5" stroke="#666666" stroke-miterlimit="10" transform="rotate(180,454,34)" pointer-events="all"/><path d="M 559 14 L 559 24 L 569 24 Z" fill-opacity="0.05" fill="#000000" stroke="none" transform="rotate(180,454,34)" pointer-events="all"/><path d="M 559 14 L 559 24 L 569 24" fill="none" stroke="#666666" stroke-miterlimit="10" transform="rotate(180,454,34)" pointer-events="all"/></g><g><g fill="rgb(0, 0, 0)" font-family="&quot;Helvetica&quot;" text-anchor="middle" font-size="18px"><text x="453.5" y="41.5">把字节码文件加载进 JVM</text></g></g></g><g data-cell-id="BbftKv4C66B8lPSLXNzS-34"><g><path d="M 89 192 L 89 224 L 89 214 L 89 234" fill="none" stroke="rgb(0, 0, 0)" stroke-miterlimit="10" stroke-dasharray="3 3" pointer-events="stroke"/></g></g></g></g></g></svg>