<?xml version="1.0" encoding="UTF-8"?>
<!DOCTYPE svg PUBLIC "-//W3C//DTD SVG 1.1//EN" "http://www.w3.org/Graphics/SVG/1.1/DTD/svg11.dtd">
<svg xmlns="http://www.w3.org/2000/svg" xmlns:xlink="http://www.w3.org/1999/xlink" version="1.1" width="740px" height="380px" viewBox="-0.5 -0.5 740 380" style="background-color: rgb(255, 255, 255);"><defs/><rect fill="#ffffff" width="100%" height="100%" x="0" y="0"/><g><g data-cell-id="0"><g data-cell-id="1"><g data-cell-id="d0jyHFqpkM-f4XswXfsI-1"><g><rect x="370" y="10" width="360" height="360" fill="none" stroke="none" pointer-events="all"/><path d="M 369.87 10.15 C 369.87 10.15 369.87 10.15 369.87 10.15 M 369.97 11.56 C 370.44 11.26 370.55 10.75 371.28 10.05 M 370.07 12.97 C 370.6 12.01 371.03 11.88 372.69 9.95 M 370.17 14.38 C 370.55 13.57 372.11 12.86 374.1 9.85 M 370.27 15.79 C 371.99 14.3 372.62 12.33 375.51 9.75 M 369.71 17.96 C 373.26 14.19 375.43 12.3 376.92 9.66 M 369.81 19.37 C 371.81 15.71 376.62 12.13 377.68 10.31 M 369.91 20.78 C 372.66 18.25 376.36 13 379.09 10.21 M 370 22.19 C 373.46 18.35 378.42 13.51 380.5 10.11 M 370.1 23.6 C 372.42 18.87 378.58 14.48 381.91 10.02 M 370.2 25.01 C 371.45 20.6 378.49 18.65 383.32 9.92 M 370.3 26.42 C 375.36 20.95 377.17 16.16 384.73 9.82 M 369.74 28.59 C 373.07 22.87 378.89 19.44 386.14 9.72 M 369.84 30 C 372.85 25.35 377.21 19.69 386.9 10.38 M 369.94 31.41 C 376.79 25.13 382.55 17.62 388.31 10.28 M 370.04 32.82 C 376.34 26.29 381.58 19.74 389.72 10.18 M 370.14 34.23 C 375.52 26.28 381.29 20.03 391.13 10.08 M 370.24 35.64 C 375.44 28.78 381.29 20.35 392.54 9.98 M 369.68 37.81 C 380.15 27.63 387.52 19.76 393.95 9.88 M 369.78 39.22 C 377.83 29.36 385.25 20.04 395.36 9.78 M 369.88 40.63 C 378.13 29.52 387.99 20.74 396.77 9.68 M 369.97 42.04 C 382.33 29.37 389.82 18.92 397.53 10.34 M 370.07 43.45 C 381.31 32.39 392.6 18.66 398.94 10.24 M 370.17 44.86 C 380.93 32.72 387.64 24.69 400.35 10.14 M 370.27 46.27 C 381.42 33.12 391.19 23.41 401.76 10.04 M 369.71 48.44 C 383.88 34.39 394.42 17.31 403.17 9.95 M 369.81 49.85 C 381.03 39.2 392.76 25.38 404.58 9.85 M 369.91 51.26 C 382.82 37.35 390.78 24.31 405.99 9.75 M 370.01 52.67 C 380.8 39.35 393.28 24.41 407.4 9.65 M 370.11 54.08 C 386.39 35.05 399.57 19.18 408.16 10.31 M 370.21 55.49 C 380.37 41.65 394.56 28.45 409.57 10.21 M 370.31 56.9 C 380.72 45.39 388.87 35.75 410.98 10.11 M 369.75 59.07 C 384.22 43.29 395.43 26.38 412.39 10.01 M 369.85 60.48 C 383.12 43.32 400.65 25.54 413.8 9.91 M 369.94 61.89 C 380.12 48.81 392.22 37.1 415.21 9.81 M 370.04 63.3 C 388.28 41.3 406.14 21.9 416.62 9.71 M 370.14 64.71 C 385.09 46.06 401.74 28.84 417.38 10.37 M 370.24 66.12 C 387.72 44.32 407.8 23.29 418.79 10.27 M 369.68 68.29 C 382.38 52.42 392.59 38.3 420.2 10.17 M 369.78 69.7 C 383.78 52.25 394.63 38.73 421.61 10.07 M 369.88 71.11 C 381.83 58.58 392.48 46.74 423.02 9.98 M 369.98 72.52 C 382.53 58.88 394.58 42.85 424.43 9.88 M 370.08 73.93 C 381.37 58.45 398.68 42.86 425.84 9.78 M 370.18 75.34 C 385.81 53.28 405.25 36.53 427.25 9.68 M 370.28 76.75 C 392.87 51.89 413.39 25.84 428.01 10.34 M 369.72 78.92 C 385.05 62 397.86 44.48 429.42 10.24 M 369.82 80.33 C 383.06 63.31 397.14 47.71 430.83 10.14 M 369.92 81.74 C 384.07 64.98 395.64 49.56 432.24 10.04 M 370.01 83.15 C 388.52 61.49 407.16 38.36 433.65 9.94 M 370.11 84.56 C 391.88 59.14 411 36.25 435.06 9.84 M 370.21 85.97 C 386.72 65.22 406.66 43.74 436.47 9.74 M 370.31 87.38 C 386.81 67.97 403.27 49.87 437.88 9.65 M 369.75 89.55 C 394.78 59.26 422.19 31.32 438.64 10.3 M 369.85 90.96 C 396.45 60.45 421.84 29.69 440.05 10.2 M 369.95 92.37 C 385.81 73.93 397.12 59.25 441.46 10.1 M 370.05 93.78 C 390.6 70.5 409.9 48.75 442.87 10.01 M 370.15 95.19 C 391.68 67.1 414.88 42.16 444.28 9.91 M 370.25 96.6 C 395.74 67.43 419.46 42.28 445.69 9.81 M 369.69 98.77 C 394.49 70.16 417.99 45.41 447.1 9.71 M 369.79 100.18 C 393.84 71.21 419.33 41.84 447.86 10.37 M 369.89 101.59 C 397.69 71.6 421.72 42.24 449.27 10.27 M 369.98 103 C 391.73 79.85 411.63 58.06 450.68 10.17 M 370.08 104.41 C 403.98 69.45 432.93 32.27 452.09 10.07 M 370.18 105.82 C 391.3 83.42 411.68 57.94 453.5 9.97 M 370.28 107.23 C 395.5 75.06 423.05 46.14 454.91 9.87 M 369.72 109.4 C 390.41 82.92 415.88 56.46 456.32 9.77 M 369.82 110.81 C 402.24 71.01 437.17 29.72 457.73 9.68 M 369.92 112.22 C 396.78 77.48 425.75 46.44 458.49 10.33 M 370.02 113.63 C 398.61 79.8 429.77 47.5 459.9 10.23 M 370.12 115.04 C 393.47 88.25 415.91 59.52 461.31 10.13 M 370.22 116.45 C 400.24 80.41 431.26 46.76 462.72 10.04 M 370.31 117.86 C 404.76 79.62 435.99 42.63 464.13 9.94 M 369.76 120.03 C 396.48 87.72 424.48 61.03 465.54 9.84 M 369.86 121.44 C 397.6 86.25 428.01 55.83 466.95 9.74 M 369.95 122.85 C 400.86 82.97 436.54 45.28 468.36 9.64 M 370.05 124.26 C 405.67 79.6 444.53 39.23 469.12 10.3 M 370.15 125.67 C 408.7 80.96 448.45 36.85 470.53 10.2 M 370.25 127.08 C 395.91 98.03 424.15 68.5 471.94 10.1 M 369.69 129.24 C 396.23 98.22 422.4 67.04 473.35 10 M 369.79 130.66 C 394.65 106.34 413.45 80.02 474.76 9.9 M 369.89 132.07 C 393.8 102.5 418.79 75.15 476.17 9.8 M 369.99 133.48 C 393.91 105.15 416.31 78.59 477.58 9.7 M 370.09 134.89 C 394.62 109.54 417.02 82.33 478.34 10.36 M 370.19 136.3 C 400.02 99.09 430.76 65.19 479.75 10.26 M 370.29 137.71 C 394.55 110.27 422.38 80.04 481.16 10.16 M 369.73 139.87 C 395.78 109.03 426.68 75.51 482.57 10.06 M 369.83 141.29 C 405.16 101.8 434.14 67.35 483.98 9.97 M 369.92 142.7 C 413.83 94.11 456.41 40.73 485.39 9.87 M 370.02 144.11 C 408.63 97.55 450.36 48.66 486.8 9.77 M 370.12 145.52 C 415.85 91.91 460.87 40.02 488.21 9.67 M 370.22 146.93 C 393.86 116.63 421.38 87.33 488.97 10.33 M 370.32 148.34 C 409.2 103.32 449.18 55.5 490.38 10.23 M 369.76 150.5 C 399.04 114.73 429.26 82.9 491.79 10.13 M 369.86 151.92 C 408.71 111.03 443.7 68.37 493.2 10.03 M 369.96 153.33 C 404.55 117.56 435.31 77.37 494.61 9.93 M 370.06 154.74 C 410.01 110.37 449.62 63.97 496.02 9.83 M 370.16 156.15 C 406.79 115.09 442.93 71.65 497.43 9.73 M 370.26 157.56 C 398.33 125.82 426.35 91.59 498.84 9.64 M 369.7 159.72 C 393.99 128.47 421.85 97.45 499.6 10.29 M 369.8 161.14 C 412.99 107.16 458.65 56.78 501.01 10.19 M 369.9 162.55 C 414.2 111.91 462.34 58.61 502.42 10.09 M 369.99 163.96 C 422.61 103.51 477.95 43.43 503.83 10 M 370.09 165.37 C 412.88 116.86 456.86 69.22 505.24 9.9 M 370.19 166.78 C 423.1 105.45 473.87 45.18 506.65 9.8 M 370.29 168.19 C 425.48 104.45 477.93 42.85 508.06 9.7 M 369.73 170.35 C 406.54 130.14 440.85 88.37 508.82 10.36 M 369.83 171.77 C 421.43 112.38 474.59 50.58 510.23 10.26 M 369.93 173.18 C 401.46 136.39 433.75 101.04 511.64 10.16 M 370.03 174.59 C 415.87 121.84 462.33 66.84 513.05 10.06 M 370.13 176 C 400.48 139.03 432.08 101.64 514.46 9.96 M 370.23 177.41 C 413.29 131.18 452.97 83.92 515.87 9.86 M 370.32 178.82 C 403.76 139.01 436.23 101.93 517.28 9.76 M 369.77 180.98 C 418.68 122.83 468.13 63.42 518.69 9.67 M 369.87 182.4 C 415.73 128.8 463.48 72.67 519.45 10.32 M 369.96 183.81 C 403.61 147.47 435.29 111.98 520.86 10.22 M 370.06 185.22 C 425.35 120 482.39 58.68 522.27 10.12 M 370.16 186.63 C 419.79 132.12 469.03 75.93 523.68 10.03 M 370.26 188.04 C 424.95 125.91 476.97 65.3 525.09 9.93 M 369.7 190.2 C 412.88 137.15 456.42 87.81 526.5 9.83 M 369.8 191.61 C 399.47 152.88 432.84 116.46 527.91 9.73 M 369.9 193.03 C 414.12 141.42 457.23 92.69 529.32 9.63 M 370 194.44 C 424.59 131.18 475.5 69.61 530.08 10.29 M 370.1 195.85 C 417.69 143.12 464.68 87.98 531.49 10.19 M 370.2 197.26 C 417.78 144.15 465.41 88.86 532.9 10.09 M 370.29 198.67 C 421.25 141.08 472.26 82.5 534.31 9.99 M 369.74 200.83 C 412.97 150.87 456.31 98.88 535.72 9.89 M 369.84 202.24 C 432.52 131.6 491.33 63.24 537.13 9.79 M 369.93 203.66 C 431.2 130.01 494.39 56.81 538.54 9.7 M 370.03 205.07 C 411.75 154.05 455.08 106.35 539.3 10.35 M 370.13 206.48 C 426.8 140.12 487.38 71.26 540.71 10.25 M 370.23 207.89 C 420.6 149.8 473.05 89.49 542.12 10.15 M 369.67 210.05 C 438.5 130.5 508.82 50.79 543.53 10.06 M 369.77 211.46 C 407.33 167.68 443.74 126.63 544.94 9.96 M 369.87 212.87 C 431.75 140.56 493.34 70.51 546.35 9.86 M 369.97 214.29 C 414.23 167.05 455 117.68 547.76 9.76 M 370.07 215.7 C 421.18 156.11 472.62 96.8 549.17 9.66 M 370.17 217.11 C 411.96 169.53 453.36 119.86 549.93 10.32 M 370.27 218.52 C 418.7 164.16 468.98 107.93 551.34 10.22 M 369.71 220.68 C 409.53 177.3 449.31 132 552.75 10.12 M 369.81 222.09 C 442.4 140.52 511.9 56.1 554.16 10.02 M 369.9 223.5 C 414.99 172.42 459.25 121.51 555.57 9.92 M 370 224.92 C 422.85 164.59 475.05 102.98 556.98 9.82 M 370.1 226.33 C 436.8 150.32 504.88 71.08 558.39 9.72 M 370.2 227.74 C 412.65 182.33 450.86 135.15 559.8 9.63 M 370.3 229.15 C 423.02 166.44 477.77 105.29 560.56 10.28 M 369.74 231.31 C 434.67 153.7 502.71 75.94 561.97 10.18 M 369.84 232.72 C 431.22 161.7 492.07 92.1 563.38 10.08 M 369.94 234.13 C 423.05 171.89 474.88 111.58 564.79 9.99 M 370.04 235.55 C 429.79 168.92 487.27 103.13 566.2 9.89 M 370.14 236.96 C 419.74 184.57 465.45 129.09 567.61 9.79 M 370.24 238.37 C 418.01 182.76 467.34 125.84 569.02 9.69 M 369.68 240.53 C 429.43 176.53 486.64 110.36 569.78 10.35 M 369.78 241.94 C 441.07 164.25 509.19 85.99 571.19 10.25 M 369.88 243.35 C 431.58 171.1 494.79 98.91 572.6 10.15 M 369.97 244.76 C 450.32 153.34 531.03 60.84 574.01 10.05 M 370.07 246.18 C 442.78 162.74 515.78 78.46 575.42 9.95 M 370.17 247.59 C 451.12 157.15 527.03 68.31 576.83 9.85 M 370.27 249 C 433.51 175.02 498.69 100.38 578.24 9.75 M 369.71 251.16 C 441.18 171.71 509.71 92.8 579.65 9.66 M 369.81 252.57 C 450.06 161.22 529.63 68.67 580.41 10.31 M 369.91 253.98 C 428.47 187.1 486.26 120.44 581.82 10.21 M 370.01 255.4 C 451.15 162.13 532.16 67.67 583.23 10.11 M 370.11 256.81 C 441.26 176.08 511.79 94.87 584.64 10.02 M 370.21 258.22 C 421.91 198.25 472.84 138.98 586.05 9.92 M 370.3 259.63 C 416.98 208.71 460.08 157.44 587.46 9.82 M 369.75 261.79 C 427.87 196.83 485.13 129.15 588.87 9.72 M 369.85 263.2 C 448.44 173.44 526.85 83.54 589.63 10.38 M 369.94 264.61 C 423.17 205.06 474.56 143.76 591.04 10.28 M 370.04 266.03 C 425.59 202.37 480.68 139.9 592.45 10.18 M 370.14 267.44 C 436.27 189.74 503.26 116.32 593.86 10.08 M 370.24 268.85 C 437.31 190.69 504.38 115.41 595.27 9.98 M 369.68 271.01 C 422.85 209.93 476.77 146.9 596.68 9.88 M 369.78 272.42 C 457.39 174.12 544.06 73.71 598.09 9.78 M 369.88 273.83 C 458.32 170.6 548.78 66.77 599.5 9.69 M 369.98 275.24 C 448.14 184.7 525.12 93.34 600.26 10.34 M 370.08 276.66 C 443.52 192.71 516.8 107.57 601.67 10.24 M 370.18 278.07 C 440.33 196.05 509.56 116.28 603.08 10.14 M 370.27 279.48 C 435.03 206.21 499.52 130.4 604.49 10.05 M 369.72 281.64 C 459.09 176.68 550.46 74.99 605.9 9.95 M 369.82 283.05 C 450.36 188.93 531.12 96.45 607.31 9.85 M 369.91 284.46 C 418.84 229.37 468.48 170.71 608.72 9.75 M 370.01 285.87 C 434.81 212.9 498.69 139.6 610.13 9.65 M 370.11 287.29 C 424.27 225.48 479.06 164.63 610.89 10.31 M 370.21 288.7 C 461.12 184.17 553.74 77.76 612.3 10.21 M 370.31 290.11 C 420.7 232.69 470.18 176.01 613.71 10.11 M 369.75 292.27 C 434.96 218.2 498.91 141.7 615.12 10.01 M 369.85 293.68 C 461.13 189.75 552.02 84.65 616.53 9.91 M 369.95 295.09 C 438.05 218.32 505.12 142.84 617.94 9.81 M 370.05 296.5 C 445.87 210.76 521.37 125.09 619.35 9.72 M 370.15 297.92 C 462.87 191.59 557.42 84.16 620.1 10.37 M 370.25 299.33 C 430.46 231.58 489.99 164.38 621.52 10.27 M 369.69 301.49 C 438.23 223.18 507.91 143.45 622.93 10.17 M 369.79 302.9 C 422.7 240.66 476.71 180.04 624.34 10.08 M 369.88 304.31 C 444.71 221.86 517.13 137.72 625.75 9.98 M 369.98 305.72 C 458.12 204.41 544.76 105.1 627.16 9.88 M 370.08 307.13 C 426.37 241.12 486.11 175.1 628.57 9.78 M 370.18 308.55 C 463.52 203.71 555.44 95.21 629.98 9.68 M 370.28 309.96 C 446.23 221.55 521.83 135.11 630.73 10.34 M 369.72 312.12 C 450.89 219.82 531.5 127.27 632.15 10.24 M 369.82 313.53 C 463.66 205.05 558.38 96.47 633.56 10.14 M 369.92 314.94 C 443.7 229.85 516.18 147.52 634.97 10.04 M 370.02 316.35 C 443.46 234.65 515.66 151.36 636.38 9.94 M 370.12 317.76 C 444.83 231.52 518.23 148.15 637.79 9.84 M 370.22 319.18 C 452.9 224.28 535.97 127.15 639.2 9.74 M 370.31 320.59 C 474.12 199.21 581.2 77.68 640.61 9.65 M 369.76 322.75 C 451 228.85 532.52 135.87 641.37 10.3 M 369.86 324.16 C 446.56 237.93 520.66 151.65 642.78 10.2 M 369.95 325.57 C 452.04 234.39 531.24 143.31 644.19 10.1 M 370.05 326.98 C 439.4 246.39 509.58 165.1 645.6 10.01 M 370.15 328.39 C 439.58 249.75 507.69 172.2 647.01 9.91 M 370.25 329.81 C 440.23 248.39 511.12 166.08 648.42 9.81 M 369.69 331.97 C 461.02 227.13 552.43 120.55 649.83 9.71 M 369.79 333.38 C 458.75 233.66 544.24 132.8 650.58 10.37 M 369.89 334.79 C 478.63 210.46 585.42 89.28 652 10.27 M 369.99 336.2 C 447.43 251.01 521.87 163.05 653.41 10.17 M 370.09 337.61 C 435.58 263.98 499.92 191.67 654.82 10.07 M 370.19 339.03 C 456.82 236.52 546.34 134.45 656.23 9.97 M 370.28 340.44 C 472.2 223.17 573.7 107.17 657.64 9.87 M 369.73 342.6 C 444.94 254.6 522.89 166.54 659.05 9.77 M 369.83 344.01 C 482.9 212.67 595.47 83.65 660.46 9.68 M 369.92 345.42 C 464.44 240.14 557.01 134.66 661.21 10.33 M 370.02 346.83 C 431.11 276.66 493.34 204.44 662.63 10.23 M 370.12 348.24 C 462.12 241.32 556.11 135.75 664.04 10.13 M 370.22 349.66 C 433.06 274.91 497.19 202.05 665.45 10.04 M 370.32 351.07 C 457.13 250.99 543.85 149.99 666.86 9.94 M 369.76 353.23 C 432.14 281.24 494.11 209.14 668.27 9.84 M 369.86 354.64 C 486.77 219.42 602.73 87.33 669.68 9.74 M 369.96 356.05 C 457.43 253.16 546.59 150.67 671.09 9.64 M 370.06 357.46 C 468.39 245.86 565.48 135.1 671.84 10.3 M 370.16 358.87 C 485 227.3 600.58 96.11 673.26 10.2 M 370.25 360.29 C 476.81 237.62 584.95 113.96 674.67 10.1 M 369.7 362.45 C 438.16 284.52 504.9 207.57 676.08 10 M 369.8 363.86 C 485 231.71 599.16 100.2 677.49 9.9 M 369.89 365.27 C 480.3 239.05 587.42 114.19 678.9 9.8 M 369.99 366.68 C 431.84 295.18 494.88 223.75 680.31 9.71 M 370.09 368.09 C 482.27 239.71 593.35 113.18 681.06 10.36 M 370.19 369.5 C 472.98 252.04 576.39 132.93 682.47 10.26 M 370.95 370.16 C 483.85 242.82 594.19 114.7 683.89 10.16 M 371.7 370.82 C 439.39 294.87 505.22 217.95 685.3 10.07 M 373.11 370.72 C 462.71 266.18 553.29 162.43 686.71 9.97 M 374.52 370.62 C 495.7 230.58 618.93 90.21 688.12 9.87 M 375.93 370.52 C 441.64 295.3 507.88 219.49 689.53 9.77 M 377.34 370.42 C 499.59 231.91 621.66 90.26 690.94 9.67 M 378.75 370.32 C 495.2 235.05 612.69 100.26 691.69 10.33 M 380.16 370.22 C 456.59 280.24 534.24 190.27 693.1 10.23 M 380.92 370.88 C 484.08 253.43 587.42 135.18 694.52 10.13 M 382.33 370.78 C 452.67 290.41 523.97 209.06 695.93 10.03 M 383.74 370.68 C 504.45 233.38 623.33 95.51 697.34 9.93 M 385.15 370.58 C 482.88 259.58 580.44 147.26 698.75 9.83 M 386.56 370.49 C 487.02 255.24 585.41 141.16 700.16 9.74 M 387.97 370.39 C 492.45 249.58 597.06 129.06 701.57 9.64 M 389.38 370.29 C 470.57 277.01 550.57 184.16 702.32 10.29 M 390.79 370.19 C 479.65 265.78 569.15 164.26 703.73 10.19 M 391.55 370.85 C 507.83 236.87 625.39 100.95 705.15 10.1 M 392.96 370.75 C 463.68 291.39 533.75 209.3 706.56 10 M 394.37 370.65 C 504.9 244.61 614.36 117.57 707.97 9.9 M 395.78 370.55 C 519.03 228.94 640.91 87.84 709.38 9.8 M 397.19 370.45 C 489.56 262.8 582.2 154.78 710.79 9.7 M 398.6 370.35 C 499.88 255.66 597.89 141.68 711.54 10.36 M 400.01 370.25 C 464.67 296.87 529.82 221.59 712.95 10.26 M 400.77 370.91 C 511.32 246.01 620.09 119.73 714.36 10.16 M 402.18 370.81 C 488.71 272.99 574.61 174.52 715.78 10.06 M 403.59 370.71 C 509.99 247.68 615.51 125.94 717.19 9.96 M 405 370.61 C 516.94 239.6 629.51 110.76 718.6 9.86 M 406.41 370.52 C 527.79 231.9 648.01 92.65 720.01 9.76 M 407.82 370.42 C 497.61 265.11 587.28 162.41 721.42 9.67 M 409.23 370.32 C 511.76 254.18 612.54 137.92 722.17 10.32 M 410.64 370.22 C 516.36 250.75 620.33 130.92 723.58 10.22 M 411.4 370.88 C 485.88 284.11 562.41 196.72 725 10.12 M 412.81 370.78 C 510.57 260.32 608.41 148.19 726.41 10.03 M 414.22 370.68 C 479.7 296.25 543.93 223.23 727.82 9.93 M 415.63 370.58 C 494.1 280.28 573.29 189.34 729.23 9.83 M 417.04 370.48 C 528.74 242.3 640.95 114.99 729.98 10.48 M 418.45 370.38 C 515.28 258.08 613.5 144.62 730.08 11.9 M 419.86 370.28 C 492.84 286.27 562.94 203.86 730.18 13.31 M 421.27 370.19 C 494.47 285.56 568.07 200.63 730.28 14.72 M 422.03 370.84 C 506.64 273.41 591.14 175.52 730.38 16.13 M 423.44 370.74 C 502.56 278.48 583.45 184.69 730.48 17.54 M 424.85 370.64 C 531.4 247.89 638.12 125.04 729.92 19.7 M 426.26 370.55 C 548.5 233.26 666.86 94.6 730.02 21.11 M 427.67 370.45 C 506.51 282.71 581.85 195.26 730.12 22.53 M 429.08 370.35 C 521.68 263.28 614.11 155.85 730.21 23.94 M 430.49 370.25 C 497.13 295.08 564.53 216.33 730.31 25.35 M 431.25 370.91 C 499.54 292.01 566.79 213.84 730.41 26.76 M 432.66 370.81 C 508.64 283.16 584.93 196.19 730.51 28.17 M 434.07 370.71 C 494.94 300.15 556.36 229.93 729.95 30.33 M 435.48 370.61 C 497.22 299.8 559.09 227.39 730.05 31.75 M 436.89 370.51 C 506.45 290.54 576.2 210.88 730.15 33.16 M 438.3 370.41 C 537.13 256.87 637.1 141.72 730.25 34.57 M 439.71 370.31 C 528.84 268.25 616.88 166.17 730.35 35.98 M 441.12 370.22 C 550.7 240.79 661.81 113.82 730.45 37.39 M 441.88 370.87 C 529.94 267.77 619.21 165.72 730.54 38.8 M 443.29 370.77 C 526.87 276.98 608.82 181.64 729.99 40.96 M 444.7 370.67 C 539.34 260.59 633.5 152.8 730.09 42.38 M 446.11 370.58 C 535.63 267.31 626.2 164.57 730.18 43.79 M 447.52 370.48 C 543.03 262.66 635.12 153.54 730.28 45.2 M 448.93 370.38 C 553.17 251.14 657.79 129.67 730.38 46.61 M 450.34 370.28 C 515.26 296.72 578.78 223.86 730.48 48.02 M 451.75 370.18 C 535.11 275.98 616.34 183.33 729.92 50.18 M 452.51 370.84 C 560.14 247.94 668.56 123.08 730.02 51.59 M 453.92 370.74 C 558.16 248.1 662.35 128.15 730.12 53.01 M 455.33 370.64 C 540.47 271.05 628.01 172.15 730.22 54.42 M 456.74 370.54 C 538.59 275.91 621.29 180.53 730.32 55.83 M 458.15 370.44 C 552.69 262.63 643.8 157.13 730.42 57.24 M 459.56 370.34 C 515.1 306.64 569.45 242.73 730.51 58.65 M 460.97 370.24 C 541.66 274.06 626.58 178.71 729.96 60.81 M 461.73 370.9 C 522.42 298.5 584.62 225.27 730.06 62.22 M 463.14 370.8 C 534.19 290.4 602.8 209.46 730.15 63.64 M 464.55 370.7 C 528.81 297.73 592.29 224.47 730.25 65.05 M 465.96 370.6 C 550.99 268.85 640.39 167.46 730.35 66.46 M 467.37 370.51 C 544.53 282.24 621.49 193.48 730.45 67.87 M 468.78 370.41 C 524.69 305.23 580.55 240.54 730.55 69.28 M 470.19 370.31 C 573.01 251.78 675.77 133.11 729.99 71.44 M 471.6 370.21 C 545.41 284.27 618.5 200.57 730.09 72.85 M 472.36 370.87 C 571.67 255.3 671.38 140.65 730.19 74.27 M 473.77 370.77 C 535.87 296.22 600.75 222.78 730.29 75.68 M 475.18 370.67 C 543.5 292.05 612.59 210.59 730.39 77.09 M 476.59 370.57 C 543.25 293.92 610.86 215.32 730.48 78.5 M 478 370.47 C 562.63 276.49 643.76 182.63 729.93 80.66 M 479.41 370.37 C 534.21 307.55 588.6 246.97 730.03 82.07 M 480.82 370.27 C 582.02 255.47 681.22 140.14 730.12 83.48 M 482.23 370.18 C 578.01 263.8 670.55 156.59 730.22 84.9 M 482.99 370.83 C 539.19 303.74 598.72 237.09 730.32 86.31 M 484.4 370.73 C 569.73 272.42 655.79 172.41 730.42 87.72 M 485.81 370.63 C 581.63 261.25 677.02 153.71 730.52 89.13 M 487.22 370.54 C 559.87 284.84 632.67 201.46 729.96 91.29 M 488.63 370.44 C 571.89 278.1 652.49 184.6 730.06 92.7 M 490.04 370.34 C 561.98 291.8 629.09 210.68 730.16 94.11 M 491.45 370.24 C 580.67 267.27 670.01 163.5 730.26 95.53 M 492.21 370.9 C 567.97 282.67 646 194.83 730.36 96.94 M 493.62 370.8 C 578.37 271.61 662.83 174.83 730.46 98.35 M 495.03 370.7 C 557.46 297.27 621.03 225.66 730.55 99.76 M 496.44 370.6 C 587.65 265 679.98 161.32 730 101.92 M 497.85 370.5 C 571.3 285.11 645.65 202.44 730.1 103.33 M 499.26 370.4 C 578.2 278.54 659.62 186.14 730.19 104.74 M 500.67 370.3 C 569.81 291.3 637.5 213.87 730.29 106.16 M 502.08 370.21 C 590.04 270.85 677.53 170.62 730.39 107.57 M 502.84 370.86 C 583.98 277.85 662.32 187.52 730.49 108.98 M 504.25 370.76 C 557.83 308.54 613.97 243.12 729.93 111.14 M 505.66 370.66 C 549.65 316.87 596.06 264.48 730.03 112.55 M 507.07 370.57 C 594.73 270.85 680.23 168.01 730.13 113.96 M 508.48 370.47 C 570.61 297.05 633.57 222.52 730.23 115.38 M 509.89 370.37 C 578.4 293.72 644.49 217.84 730.33 116.79 M 511.3 370.27 C 599.3 272.92 686.47 171.94 730.43 118.2 M 512.71 370.17 C 592.18 277.85 673.26 184.62 730.52 119.61 M 513.47 370.83 C 598.72 273.35 681.8 179.39 729.97 121.77 M 514.88 370.73 C 574.13 302.26 631.66 235.83 730.07 123.18 M 516.29 370.63 C 574.73 303.66 630.86 236.05 730.16 124.59 M 517.7 370.53 C 601.01 274.6 685.58 178.23 730.26 126.01 M 519.11 370.43 C 584 297.04 645.7 225.4 730.36 127.42 M 520.52 370.33 C 566.85 316.81 613.05 262.43 730.46 128.83 M 521.93 370.24 C 568.76 311.99 619.06 257.28 729.9 130.99 M 522.69 370.89 C 568.19 319.21 612.11 269.68 730 132.4 M 524.1 370.79 C 577.08 306.69 634.45 242.83 730.1 133.81 M 525.51 370.69 C 592.92 296.84 658.4 219.12 730.2 135.22 M 526.92 370.6 C 582.43 305.15 639.39 241.35 730.3 136.64 M 528.33 370.5 C 591.01 299.93 651.19 229.13 730.4 138.05 M 529.74 370.4 C 596.13 294.17 664.19 218.37 730.49 139.46 M 531.15 370.3 C 576.78 313.26 626.11 256.58 729.94 141.62 M 532.56 370.2 C 609.08 284.07 684.04 198.7 730.04 143.03 M 533.32 370.86 C 582.32 315.26 631.14 259.2 730.13 144.44 M 534.73 370.76 C 600.26 298.7 661.93 224.67 730.23 145.85 M 536.14 370.66 C 606.84 288.18 680.26 204.6 730.33 147.27 M 537.55 370.56 C 600.74 299.09 660.42 227.04 730.43 148.68 M 538.96 370.46 C 601.37 297.69 664.97 225.03 730.53 150.09 M 540.37 370.36 C 591.89 313.1 641.43 256.26 729.97 152.25 M 541.78 370.26 C 618.06 281.97 691.06 195.43 730.07 153.66 M 543.19 370.17 C 595.63 309.24 644.73 250.46 730.17 155.07 M 543.95 370.82 C 607.27 298.53 670.39 226.17 730.27 156.48 M 545.36 370.72 C 615.49 288.95 685.75 210.41 730.37 157.9 M 546.77 370.62 C 604.18 303.98 661.04 236.1 730.46 159.31 M 548.18 370.53 C 586.17 325.23 624.93 281.44 729.91 161.47 M 549.59 370.43 C 618.1 291.45 686.75 213.01 730.01 162.88 M 551 370.33 C 600.94 312.98 651.38 254.23 730.1 164.29 M 552.41 370.23 C 591.13 326.33 630.11 279.7 730.2 165.7 M 553.17 370.89 C 601.15 313.21 653.36 254.42 730.3 167.11 M 554.58 370.79 C 599.37 319.97 642 269.4 730.4 168.53 M 555.99 370.69 C 619.68 295 684.41 223.19 730.5 169.94 M 557.4 370.59 C 613.82 306.46 670.91 241.3 729.94 172.1 M 558.81 370.49 C 602.21 320.69 644.63 272.95 730.04 173.51 M 560.22 370.39 C 605.25 318.86 650.93 268.39 730.14 174.92 M 561.63 370.29 C 602.97 320.17 647.51 271.64 730.24 176.33 M 563.04 370.2 C 621.95 303.13 676.7 238.23 730.34 177.74 M 563.8 370.85 C 605 323.81 648.75 273.96 730.44 179.16 M 565.21 370.75 C 603.88 326.39 643.22 282.77 730.53 180.57 M 566.62 370.65 C 619.05 309.37 673.7 247.64 729.98 182.73 M 568.03 370.56 C 615.11 316.44 662.57 264.9 730.08 184.14 M 569.44 370.46 C 609.06 327.19 649.3 282.08 730.17 185.55 M 570.85 370.36 C 614.29 317.53 660.33 266.1 730.27 186.96 M 572.26 370.26 C 630.67 301.16 688.5 234.94 730.37 188.37 M 573.67 370.16 C 618.69 316.5 662.98 263.63 730.47 189.79 M 574.43 370.82 C 628.35 310.26 683.11 246.46 729.91 191.95 M 575.84 370.72 C 615.46 327.43 650.32 286 730.01 193.36 M 577.25 370.62 C 634.91 304.2 692.8 237.97 730.11 194.77 M 578.66 370.52 C 637.66 300.82 694.73 236.89 730.21 196.18 M 580.07 370.42 C 626.87 317.07 672.66 264.96 730.31 197.59 M 581.48 370.32 C 618.71 327.67 655.66 287.31 730.41 199 M 582.89 370.23 C 631.75 315.54 676.5 263.43 730.5 200.42 M 583.65 370.88 C 629.68 318.48 673.84 268.84 729.95 202.58 M 585.06 370.78 C 617.09 333.96 648.42 298.7 730.05 203.99 M 586.47 370.68 C 632.33 318.11 682.86 261.56 730.14 205.4 M 587.88 370.59 C 636.42 314.81 686.34 258.26 730.24 206.81 M 589.29 370.49 C 632.53 323.73 673.19 277.2 730.34 208.22 M 590.7 370.39 C 622.79 332.19 652.13 297.53 730.44 209.64 M 592.11 370.29 C 629.16 329.99 664.51 289.92 730.54 211.05 M 593.52 370.19 C 626.49 329.02 661.74 291.98 729.98 213.21 M 594.28 370.85 C 636.35 322.99 679.99 273.36 730.08 214.62 M 595.69 370.75 C 628.84 336.86 656.51 299.75 730.18 216.03 M 597.1 370.65 C 635.96 329.13 670.38 287.06 730.28 217.44 M 598.51 370.55 C 648.54 313.07 698.42 254.82 730.38 218.85 M 599.92 370.45 C 626.91 339.32 651.54 308.91 730.47 220.27 M 601.33 370.35 C 642.75 323.57 683.63 274.01 729.92 222.43 M 602.74 370.26 C 645.27 322.7 685.85 272.44 730.02 223.84 M 603.5 370.91 C 637.41 331.48 673.43 287.8 730.11 225.25 M 604.91 370.81 C 645.45 319.37 689.33 271.99 730.21 226.66 M 606.32 370.71 C 634.59 339.62 663.23 310.39 730.31 228.07 M 607.73 370.62 C 647.09 328.95 684.5 285.08 730.41 229.48 M 609.14 370.52 C 646.33 327.81 681.21 286.12 730.51 230.9 M 610.55 370.42 C 657.28 314.9 704.69 260 729.95 233.06 M 611.96 370.32 C 658.98 318.26 707.71 261.66 730.05 234.47 M 613.37 370.22 C 658.47 322.43 699.51 269.03 730.15 235.88 M 614.13 370.88 C 656.97 320.51 701.78 270.16 730.25 237.29 M 615.54 370.78 C 652.31 326.56 692.45 281.76 730.35 238.7 M 616.95 370.68 C 655.34 326.71 695.96 279.9 730.44 240.11 M 618.36 370.58 C 641.98 344.02 664.55 320.54 730.54 241.53 M 619.77 370.48 C 646.58 342.57 673.08 311.85 729.99 243.69 M 621.18 370.38 C 648.15 339.46 673.61 310.5 730.08 245.1 M 622.59 370.28 C 660.86 327.38 699.33 283.41 730.18 246.51 M 624 370.19 C 663.06 322.73 705.9 274.97 730.28 247.92 M 624.76 370.84 C 647.26 347.67 668.84 320.47 730.38 249.33 M 626.17 370.74 C 659.16 332.24 688.92 296.33 730.48 250.74 M 627.58 370.64 C 657.01 337.82 687.6 302.44 729.92 252.91 M 628.99 370.55 C 651.6 345.65 672.3 321.09 730.02 254.32 M 630.4 370.45 C 651.21 347.03 674.22 322.86 730.12 255.73 M 631.81 370.35 C 656.49 343.9 677.71 316.11 730.22 257.14 M 633.22 370.25 C 655.82 349.05 673.62 325.07 730.32 258.55 M 633.97 370.91 C 659.9 341.7 686.53 308.89 730.42 259.96 M 635.39 370.81 C 670.23 328.24 703.31 289.72 730.51 261.37 M 636.8 370.71 C 655.46 350.18 674.5 324.13 729.96 263.54 M 638.21 370.61 C 672.27 329.88 705.86 289.98 730.06 264.95 M 639.62 370.51 C 663.43 341.01 688.48 313.76 730.15 266.36 M 641.03 370.41 C 671.98 333.73 705.87 292.75 730.25 267.77 M 642.44 370.31 C 673.84 334.52 706.95 297.66 730.35 269.18 M 643.85 370.22 C 665.96 346.51 686.11 319.9 730.45 270.59 M 644.6 370.87 C 666.24 346.81 688.21 321.55 730.55 272 M 646.02 370.77 C 674.86 338.53 703.25 305.33 729.99 274.17 M 647.43 370.67 C 671.32 344.84 693.83 319.77 730.09 275.58 M 648.84 370.58 C 671.07 344.46 695.07 318.67 730.19 276.99 M 650.25 370.48 C 672.12 344.09 698.43 315.91 730.29 278.4 M 651.66 370.38 C 677.64 338.03 705.57 309.27 730.39 279.81 M 653.07 370.28 C 675.26 346.09 696.33 318.29 730.48 281.22 M 654.48 370.18 C 677.6 345.02 697.5 318 729.93 283.39 M 655.23 370.84 C 673.09 352.46 688.81 333.9 730.03 284.8 M 656.65 370.74 C 676.5 346.33 699.5 320.59 730.12 286.21 M 658.06 370.64 C 675.55 352.54 687.83 335.12 730.22 287.62 M 659.47 370.54 C 682.17 345.25 706.65 316.85 730.32 289.03 M 660.88 370.44 C 689.56 341.66 715.72 310.65 730.42 290.44 M 662.29 370.34 C 680.87 350.05 696.48 329.86 730.52 291.85 M 663.7 370.25 C 688.75 341.13 717.68 311.93 729.96 294.02 M 664.45 370.9 C 681.04 351.56 695.97 333.29 730.06 295.43 M 665.86 370.8 C 690.85 339.69 717.06 310.62 730.16 296.84 M 667.28 370.7 C 684.83 350.35 706.51 328.67 730.26 298.25 M 668.69 370.61 C 684.92 350.64 703.65 330.46 730.36 299.66 M 670.1 370.51 C 682.83 356.56 695.38 339.23 730.45 301.07 M 671.51 370.41 C 683.45 356.77 697.65 342.88 730.55 302.48 M 672.92 370.31 C 690.41 347.89 709.83 327.84 730 304.65 M 674.33 370.21 C 696.5 344.18 718.32 321.53 730.09 306.06 M 675.08 370.87 C 692.21 349.75 706.65 330.14 730.19 307.47 M 676.49 370.77 C 689.73 354.91 706.65 335.57 730.29 308.88 M 677.91 370.67 C 698.72 348.04 715.54 327.09 730.39 310.29 M 679.32 370.57 C 696.91 349.76 720.1 324.21 730.49 311.7 M 680.73 370.47 C 695.15 353.61 710.02 338.88 729.93 313.87 M 682.14 370.37 C 696.88 352.12 714.75 330.61 730.03 315.28 M 683.55 370.28 C 695.76 354.79 709.04 339.18 730.13 316.69 M 684.96 370.18 C 697.26 357.39 704.55 345.23 730.23 318.1 M 685.71 370.83 C 703.22 353.38 717.65 331.46 730.33 319.51 M 687.13 370.73 C 699.81 358.46 711 345.73 730.42 320.92 M 688.54 370.64 C 703.09 351.4 720.5 335.81 730.52 322.33 M 689.95 370.54 C 706.61 351.43 720.07 335.34 729.97 324.5 M 691.36 370.44 C 704.16 355.53 720.19 335.99 730.06 325.91 M 692.77 370.34 C 702.6 358.72 710.73 350.33 730.16 327.32 M 694.18 370.24 C 702.42 361.43 707.19 354.37 730.26 328.73 M 694.93 370.9 C 701.76 360.81 710.14 353.85 730.36 330.14 M 696.34 370.8 C 706 360.85 717.23 348.4 730.46 331.55 M 697.76 370.7 C 705.64 359.02 716.3 349.18 729.9 333.72 M 699.17 370.6 C 708.88 363.03 713.36 352.2 730 335.13 M 700.58 370.5 C 710.8 355.52 725.05 345.82 730.1 336.54 M 701.99 370.4 C 711.02 362.8 718.51 352.79 730.2 337.95 M 703.4 370.3 C 711.16 362.32 717.78 355.56 730.3 339.36 M 704.81 370.21 C 713.5 358.24 721.55 348.06 730.4 340.77 M 705.56 370.86 C 714.49 360.63 719.17 354.73 730.49 342.18 M 706.97 370.76 C 713.9 363.54 722.87 354.32 729.94 344.35 M 708.39 370.66 C 715.71 364.19 723.35 353.21 730.04 345.76 M 709.8 370.57 C 716.28 362.62 722.87 354.02 730.13 347.17 M 711.21 370.47 C 714.22 366.81 720.38 360.41 730.23 348.58 M 712.62 370.37 C 720.71 360.58 728.2 353.96 730.33 349.99 M 714.03 370.27 C 719.37 362.47 726.6 356.36 730.43 351.4 M 715.44 370.17 C 719.1 366.03 720.92 360.9 730.53 352.81 M 716.19 370.83 C 721.33 365.06 728.49 357.95 729.97 354.98 M 717.6 370.73 C 719.82 368.07 724.75 363.45 730.07 356.39 M 719.02 370.63 C 722.69 365.92 727.04 363.45 730.17 357.8 M 720.43 370.53 C 722.15 367.1 723.37 366.1 730.27 359.21 M 721.84 370.43 C 723.68 369.04 725.37 365.83 730.37 360.62 M 723.25 370.33 C 725.74 366.95 727.12 365.59 730.46 362.03 M 724.66 370.24 C 725.95 369.11 727.79 367.43 729.91 364.2 M 725.41 370.89 C 727.05 370.05 728.56 367.12 730.01 365.61 M 726.82 370.79 C 727.4 369.57 728.09 369.1 730.1 367.02 M 728.23 370.69 C 728.62 370.36 729.2 369.75 730.2 368.43" fill="none" stroke="#eeeeee" stroke-width="0.5" stroke-linejoin="round" stroke-linecap="round" stroke-miterlimit="10" pointer-events="all"/></g><g><g fill="rgb(0, 0, 0)" font-family="&quot;Helvetica&quot;" font-weight="bold" text-anchor="middle" font-size="22px"><text x="549.5" y="37.5">十进制转二进制</text></g></g></g><g data-cell-id="d0jyHFqpkM-f4XswXfsI-2"><g><rect x="10" y="10" width="360" height="360" fill="none" stroke="none" pointer-events="all"/><path d="M 9.99 10.01 C 9.99 10.01 9.99 10.01 9.99 10.01 M 10.09 11.42 C 10.78 10.99 11.24 10.11 11.4 9.91 M 10.19 12.83 C 11.06 12.1 12.21 10.75 12.81 9.81 M 10.29 14.24 C 10.97 13.47 12.79 11.14 14.22 9.72 M 9.73 16.41 C 11.16 13.61 14.68 12.35 14.98 10.37 M 9.83 17.82 C 12.66 15.32 15.51 11.58 16.39 10.27 M 9.93 19.23 C 12.93 15 16.61 12.17 17.8 10.17 M 10.02 20.64 C 12.38 16.1 16.22 14.77 19.21 10.08 M 10.12 22.05 C 14.07 16.03 18.05 12.98 20.62 9.98 M 10.22 23.46 C 14.67 20.42 15.03 16.75 22.03 9.88 M 10.32 24.87 C 14.55 20.7 18.46 14.1 23.44 9.78 M 9.76 27.04 C 12.44 23.49 17.19 16.22 24.85 9.68 M 9.86 28.45 C 16.65 20.92 22.87 13.48 25.61 10.34 M 9.96 29.86 C 16.87 22.95 23.58 15.87 27.02 10.24 M 10.06 31.27 C 18.39 23.18 22.73 14.67 28.43 10.14 M 10.16 32.68 C 16.65 23.81 21.64 17.35 29.84 10.04 M 10.26 34.09 C 16.3 29.09 18.87 22.44 31.25 9.94 M 9.7 36.26 C 19.51 25.06 26.39 18.12 32.66 9.84 M 9.8 37.67 C 15.86 29.58 21.57 26.62 34.07 9.75 M 9.9 39.08 C 18.7 32.31 24.84 24.14 35.48 9.65 M 9.99 40.49 C 18.56 29.75 30.13 19.22 36.24 10.3 M 10.09 41.9 C 17.1 33.08 25.29 25.13 37.65 10.2 M 10.19 43.31 C 20.95 30.59 31.01 22.76 39.06 10.11 M 10.29 44.72 C 18.03 32.51 27.67 24.91 40.47 10.01 M 9.73 46.89 C 21.53 31.72 33.76 15.81 41.88 9.91 M 9.83 48.3 C 15.48 39.65 26.34 31.34 43.29 9.81 M 9.93 49.71 C 20.05 38.52 26.99 28.59 44.7 9.71 M 10.03 51.12 C 19.37 42.94 26.93 33.59 45.46 10.37 M 10.13 52.53 C 22.61 40.6 34.93 27.66 46.87 10.27 M 10.23 53.94 C 23.81 36.29 38.49 18.45 48.28 10.17 M 10.33 55.35 C 24.07 41.42 34.72 25.71 49.69 10.07 M 9.77 57.52 C 25.99 39.95 41.43 24.05 51.1 9.97 M 9.87 58.93 C 25.38 43.87 40.36 27.14 52.51 9.87 M 9.97 60.34 C 26.24 42.75 41.52 27.41 53.92 9.77 M 10.06 61.75 C 23.96 47.83 36.63 29.34 55.33 9.68 M 10.16 63.16 C 23.74 49.63 33.5 35.4 56.09 10.33 M 10.26 64.57 C 28.31 41.89 45.2 23.73 57.5 10.23 M 9.7 66.74 C 20.3 51.77 33.27 40.86 58.91 10.13 M 9.8 68.15 C 31.46 45.63 49.29 22.87 60.32 10.04 M 9.9 69.56 C 27.12 46.17 48.12 27.06 61.73 9.94 M 10 70.97 C 28.36 50.5 48.48 28.93 63.14 9.84 M 10.1 72.38 C 27.74 52.15 42.8 33.24 64.55 9.74 M 10.2 73.79 C 32.38 47.78 53.25 23.1 65.96 9.64 M 10.3 75.2 C 31.05 52.06 49.07 25.84 66.72 10.3 M 9.74 77.37 C 27.64 56.8 42.23 41.19 68.13 10.2 M 9.84 78.78 C 31.19 51.88 53.71 27.79 69.54 10.1 M 9.94 80.19 C 25.07 63.32 40.04 47.69 70.95 10 M 10.03 81.6 C 22.76 65.55 38.01 50.55 72.36 9.9 M 10.13 83.01 C 22.08 66.81 35.38 54.52 73.77 9.8 M 10.23 84.42 C 24.08 67.71 39.43 49.43 75.18 9.71 M 9.67 86.59 C 37.2 54.34 61.19 24.18 75.94 10.36 M 9.77 88 C 35.91 60.41 60.4 30.18 77.35 10.26 M 9.87 89.41 C 29.21 67.32 47.36 49.63 78.76 10.16 M 9.97 90.82 C 36.9 63.63 62.33 32.9 80.17 10.07 M 10.07 92.23 C 27.15 72.77 42.32 52.43 81.58 9.97 M 10.17 93.64 C 30.55 68.46 52.27 43.83 82.99 9.87 M 10.27 95.05 C 26.11 77.25 40 60.35 84.4 9.77 M 9.71 97.22 C 27.44 74.18 45.86 54.96 85.81 9.67 M 9.81 98.63 C 38.97 65.35 67.37 29.92 86.57 10.33 M 9.91 100.04 C 38.31 66.66 69.83 31.13 87.98 10.23 M 10 101.45 C 32.47 75.34 57.89 47.01 89.39 10.13 M 10.1 102.86 C 38.2 69.31 63.95 39.88 90.8 10.03 M 10.2 104.27 C 29.06 79.27 49.16 59.31 92.21 9.93 M 10.3 105.68 C 32.62 77.39 56.33 51.31 93.62 9.83 M 9.74 107.85 C 40.34 69.61 75.4 33.9 95.03 9.74 M 9.84 109.26 C 41.65 72.99 75.48 34.89 96.44 9.64 M 9.94 110.67 C 33.69 80.21 61.13 53.04 97.2 10.29 M 10.04 112.08 C 31.19 86.85 49.8 65.79 98.61 10.19 M 10.14 113.49 C 34.49 88.03 56.5 58.16 100.02 10.1 M 10.24 114.9 C 33.27 86.5 57.25 60.4 101.43 10 M 9.68 117.07 C 40.51 82.98 71.48 48.75 102.84 9.9 M 9.78 118.48 C 33.62 89.58 60.59 61.03 104.25 9.8 M 9.88 119.89 C 39.08 87.83 68.34 54.22 105.66 9.7 M 9.97 121.3 C 45.67 83.77 74.71 47.22 106.42 10.36 M 10.07 122.71 C 31.72 99.66 52.85 75.31 107.83 10.26 M 10.17 124.12 C 45.88 82.67 85.25 38.04 109.24 10.16 M 10.27 125.53 C 50.52 79 88.11 33.95 110.65 10.06 M 9.71 127.7 C 45.68 84.85 85.05 43.39 112.06 9.96 M 9.81 129.11 C 31.73 104.45 52.69 77.76 113.47 9.86 M 9.91 130.52 C 40.65 92.44 70.02 56.32 114.88 9.77 M 10.01 131.93 C 36.36 101 60.11 73.91 116.29 9.67 M 10.11 133.34 C 45.69 93.88 76.31 56.51 117.05 10.32 M 10.21 134.75 C 51.55 84.85 94.14 39.2 118.46 10.22 M 10.31 136.16 C 49.38 90.47 91.28 44.16 119.87 10.13 M 9.75 138.33 C 35.11 107.35 59.45 78.18 121.28 10.03 M 9.85 139.74 C 50.07 95.06 87.8 47.78 122.69 9.93 M 9.95 141.15 C 52.36 92.25 96.4 39.71 124.1 9.83 M 10.04 142.56 C 39.38 112.06 66.66 78.69 125.51 9.73 M 10.14 143.97 C 56.69 91.46 101.38 39.46 126.92 9.63 M 10.24 145.38 C 51.07 101.04 88.28 54.97 127.68 10.29 M 9.68 147.55 C 47.9 103.45 85.85 59.39 129.09 10.19 M 9.78 148.96 C 35.53 119.89 64.03 89.85 130.5 10.09 M 9.88 150.37 C 39.72 116.52 66.8 84.35 131.91 9.99 M 9.98 151.78 C 38.47 116.86 69.77 83.64 133.32 9.89 M 10.08 153.19 C 41.58 118.34 69.47 82.78 134.73 9.79 M 10.18 154.6 C 45.86 113.65 80.58 74.7 136.14 9.7 M 10.28 156.01 C 46.58 112.28 83.34 69.23 136.9 10.35 M 9.72 158.18 C 54.51 103.81 100.65 54.85 138.31 10.25 M 9.82 159.59 C 44.55 116.58 83.5 75.36 139.72 10.15 M 9.92 161 C 41.12 125.74 70.96 92.04 141.13 10.06 M 10.01 162.41 C 35.81 128.62 65.27 99.65 142.54 9.96 M 10.11 163.82 C 49.25 118.51 86.01 75.78 143.95 9.86 M 10.21 165.23 C 51.02 118.86 93.8 69.7 145.36 9.76 M 10.31 166.64 C 39.25 131.38 71.07 95.37 146.77 9.66 M 9.75 168.81 C 40.31 134.48 69.89 98.62 147.53 10.32 M 9.85 170.22 C 60.82 113.93 110.27 57.8 148.94 10.22 M 9.95 171.63 C 45.57 131.07 80.23 90.98 150.35 10.12 M 10.05 173.04 C 62.66 110.6 118.26 45.62 151.76 10.02 M 10.15 174.45 C 47.62 131.31 85.16 87.06 153.17 9.92 M 10.25 175.86 C 42.45 137.61 72.37 101.04 154.58 9.82 M 9.69 178.03 C 44.06 139.17 74.99 104.1 155.99 9.73 M 9.79 179.44 C 66.78 113.71 125.38 44.98 157.4 9.63 M 9.89 180.85 C 57.74 127.53 105.01 74.14 158.16 10.28 M 9.98 182.26 C 44.56 143.8 78.14 103.17 159.57 10.18 M 10.08 183.67 C 63.06 121.61 118.58 61.24 160.98 10.09 M 10.18 185.08 C 58.48 130.96 107.65 72.87 162.39 9.99 M 10.28 186.49 C 47.96 143.97 86.56 101.54 163.8 9.89 M 9.72 188.66 C 54.58 139.45 95.83 91.06 165.21 9.79 M 9.82 190.07 C 69.94 123.35 128.25 54.73 166.62 9.69 M 9.92 191.48 C 70.31 124.72 126.87 60.03 167.37 10.35 M 10.02 192.89 C 61.66 134.83 109.13 75.71 168.79 10.25 M 10.12 194.3 C 65.48 131.47 116.72 72.94 170.2 10.15 M 10.22 195.71 C 46.91 154.08 81.22 111.77 171.61 10.05 M 10.31 197.12 C 67.76 130.02 124.52 65.36 173.02 9.95 M 9.76 199.29 C 60.29 140.89 112.89 78.1 174.43 9.85 M 9.86 200.7 C 63.47 137.05 119.59 73.84 175.84 9.76 M 9.95 202.11 C 53.6 153.76 93.43 105.69 177.25 9.66 M 10.05 203.52 C 48.06 162.37 85.56 120.76 178 10.31 M 10.15 204.93 C 49.07 159.11 89.12 111.09 179.42 10.21 M 10.25 206.34 C 60.92 152.06 107.37 95.02 180.83 10.12 M 9.69 208.51 C 49.3 163.01 89.94 117.59 182.24 10.02 M 9.79 209.92 C 61.75 152.36 112.2 92.13 183.65 9.92 M 9.89 211.33 C 77.25 136.54 142.24 59.86 185.06 9.82 M 9.99 212.74 C 72.45 141.39 135.12 68.27 186.47 9.72 M 10.09 214.15 C 62.82 153.96 112.99 94.04 187.22 10.38 M 10.19 215.56 C 55.85 157.43 106.25 102.29 188.63 10.28 M 10.29 216.97 C 56.48 165.94 98.56 116.47 190.05 10.18 M 9.73 219.14 C 81.23 137.43 154.4 54.26 191.46 10.08 M 9.83 220.55 C 53.18 170.1 98.93 120.04 192.87 9.98 M 9.93 221.96 C 48.81 177.16 88.96 132.21 194.28 9.88 M 10.02 223.37 C 55.92 171.2 102.07 116.84 195.69 9.79 M 10.12 224.78 C 85.29 137.72 159.73 53.04 197.1 9.69 M 10.22 226.19 C 53.88 175.1 96.16 125.8 197.85 10.34 M 10.32 227.6 C 73.91 153.63 137.11 80.28 199.26 10.24 M 9.76 229.77 C 48.64 182.31 89.76 135.9 200.68 10.15 M 9.86 231.18 C 57.78 178.06 103.69 123.86 202.09 10.05 M 9.96 232.59 C 61.81 169.63 115.92 110.2 203.5 9.95 M 10.06 234 C 59.86 177.05 111.05 117.74 204.91 9.85 M 10.16 235.41 C 62 174.73 114.21 115.05 206.32 9.75 M 10.26 236.82 C 82.92 154.43 152.34 70.33 207.73 9.65 M 9.7 238.99 C 79.06 159.21 147.95 77.96 208.48 10.31 M 9.8 240.4 C 73.34 170.02 133.48 97.69 209.89 10.21 M 9.9 241.81 C 77.48 160.99 149.51 79.8 211.31 10.11 M 9.99 243.22 C 65.02 179.38 122.96 114.09 212.72 10.01 M 10.09 244.63 C 67.57 178.9 125.48 113.63 214.13 9.91 M 10.19 246.04 C 59.66 187.63 110.96 131.91 215.54 9.81 M 10.29 247.45 C 71.38 173.38 133.31 103.81 216.95 9.72 M 9.73 249.62 C 60.94 189.43 110.69 132.73 217.7 10.37 M 9.83 251.03 C 62.39 192.32 115.06 130.22 219.11 10.27 M 9.93 252.44 C 79.44 171.56 150.7 89.07 220.52 10.17 M 10.03 253.85 C 88.74 159.5 167.54 68.17 221.94 10.08 M 10.13 255.26 C 60.2 199.41 109.05 143.76 223.35 9.98 M 10.23 256.67 C 77.92 181.23 142.58 105.91 224.76 9.88 M 10.32 258.08 C 67.48 190.86 127.62 123.98 226.17 9.78 M 9.77 260.25 C 83.33 174.76 159.03 89.13 227.58 9.68 M 9.87 261.66 C 79.73 181.27 148.01 101.65 228.33 10.34 M 9.96 263.07 C 65.34 198.5 119.02 135.36 229.74 10.24 M 10.06 264.48 C 67.02 199.83 123.79 133.71 231.16 10.14 M 10.16 265.89 C 90.03 173.32 170.32 80.52 232.57 10.04 M 10.26 267.3 C 77.62 190.07 145.3 113.62 233.98 9.94 M 9.7 269.46 C 87.69 180.02 164.14 90.05 235.39 9.84 M 9.8 270.88 C 81.28 188.25 151.94 107.65 236.8 9.75 M 9.9 272.29 C 82.34 190.34 155.42 107.22 238.21 9.65 M 10 273.7 C 82.86 193.25 154.67 108.84 238.96 10.3 M 10.1 275.11 C 58.68 219.71 105.75 163.6 240.37 10.2 M 10.2 276.52 C 99.06 174.08 189.92 70.52 241.79 10.11 M 10.29 277.93 C 76.44 203.8 142.4 128.15 243.2 10.01 M 9.74 280.09 C 98.51 178.02 186.09 76.84 244.61 9.91 M 9.84 281.51 C 82.52 197.82 155.79 112.88 246.02 9.81 M 9.93 282.92 C 61.31 223.64 116.16 161.51 247.43 9.71 M 10.03 284.33 C 72.77 212.5 133.48 141.37 248.18 10.37 M 10.13 285.74 C 70.89 216.2 130.45 144.34 249.59 10.27 M 10.23 287.15 C 77.54 207.36 149.02 127.98 251 10.17 M 9.67 289.31 C 82.83 204.69 155.02 118.95 252.42 10.07 M 9.77 290.72 C 69.07 224.75 127.23 155.2 253.83 9.97 M 9.87 292.14 C 106.67 179.48 203.74 66.88 255.24 9.87 M 9.97 293.55 C 66.95 224.94 124.81 159.48 256.65 9.78 M 10.07 294.96 C 87.61 203.48 163.64 113.56 258.06 9.68 M 10.17 296.37 C 92.55 196.24 178.53 99.2 258.81 10.33 M 10.27 297.78 C 66.56 233.25 124.36 167.91 260.22 10.23 M 9.71 299.94 C 110.55 185.98 210.06 72.23 261.63 10.14 M 9.81 301.35 C 80.29 223.48 147.57 144.38 263.05 10.04 M 9.91 302.77 C 78.97 224.81 148.11 145.38 264.46 9.94 M 10 304.18 C 63.04 242.9 116.71 182.44 265.87 9.84 M 10.1 305.59 C 81.6 223.57 153.39 140.82 267.28 9.74 M 10.2 307 C 109.77 191.2 210.07 76.52 268.69 9.64 M 10.3 308.41 C 78.53 231.51 143.31 155.11 269.44 10.3 M 9.74 310.57 C 113.33 191.71 217.37 71.63 270.85 10.2 M 9.84 311.98 C 101.99 204.19 195.82 97.91 272.26 10.1 M 9.94 313.4 C 66.13 247.33 124.45 179.85 273.68 10 M 10.04 314.81 C 95.52 215.81 181.27 116.54 275.09 9.9 M 10.14 316.22 C 91.46 222.27 171.63 129.68 276.5 9.81 M 10.24 317.63 C 99.57 213.26 189.2 109.54 277.91 9.71 M 9.68 319.79 C 94.1 221.98 179.8 122.13 278.66 10.36 M 9.78 321.2 C 70.69 252.05 129.65 183.63 280.07 10.26 M 9.88 322.62 C 66.33 255.88 123.93 190.75 281.48 10.17 M 9.97 324.03 C 95.48 227.33 180.12 131.13 282.89 10.07 M 10.07 325.44 C 108.97 211.91 209.34 96.31 284.31 9.97 M 10.17 326.85 C 90.34 234.47 169.52 142.65 285.72 9.87 M 10.27 328.26 C 82.57 243.52 156.29 159.36 287.13 9.77 M 9.71 330.42 C 70.82 262.76 129.04 194.22 288.54 9.67 M 9.81 331.83 C 79.34 249.24 150.69 169.27 289.29 10.33 M 9.91 333.25 C 116.02 208.22 224.34 85.3 290.7 10.23 M 10.01 334.66 C 118.29 211.54 227.68 87.89 292.11 10.13 M 10.11 336.07 C 107.17 225.02 203.44 113.1 293.52 10.03 M 10.21 337.48 C 123.27 208.56 233.47 79.96 294.94 9.93 M 10.3 338.89 C 116.59 220.26 220.53 99.2 296.35 9.83 M 9.75 341.05 C 109.84 225.62 208.84 112.06 297.76 9.74 M 9.85 342.46 C 82.62 260.68 156.48 176.47 299.17 9.64 M 9.94 343.88 C 71.47 274.71 131.38 204.32 299.92 10.29 M 10.04 345.29 C 69.8 278.19 130.64 207.61 301.33 10.19 M 10.14 346.7 C 97.06 245.32 185.67 142.77 302.74 10.1 M 10.24 348.11 C 83.9 266.23 156.74 182.4 304.15 10 M 9.68 350.27 C 87.22 265.15 161.86 177.36 305.57 9.9 M 9.78 351.68 C 93.66 255.21 176.43 158.01 306.98 9.8 M 9.88 353.09 C 91.65 259.85 172.43 165.15 308.39 9.7 M 9.98 354.51 C 102.58 249.61 193.45 144.9 309.14 10.36 M 10.08 355.92 C 97.81 256.73 183.64 156.12 310.55 10.26 M 10.18 357.33 C 94.34 257.81 180.26 158.89 311.96 10.16 M 10.27 358.74 C 82.99 275.51 155.29 192.69 313.37 10.06 M 9.72 360.9 C 116.95 237.25 224.97 114.07 314.79 9.96 M 9.82 362.31 C 130.24 223.81 251.58 84.51 316.2 9.86 M 9.91 363.72 C 103.83 258.24 195.41 151.9 317.61 9.77 M 10.01 365.14 C 86.44 277.28 163.92 189.14 319.02 9.67 M 10.11 366.55 C 126.76 236.04 239.85 103.91 319.77 10.32 M 10.21 367.96 C 92.69 273.86 174.86 180.66 321.18 10.22 M 10.31 369.37 C 114.37 247.37 218.79 127.49 322.59 10.13 M 10.41 370.78 C 112.67 251.34 216.04 134.08 324 10.03 M 11.82 370.68 C 106.61 262.76 202.15 154.03 325.42 9.93 M 13.23 370.58 C 113.33 254.92 212.68 140.2 326.83 9.83 M 14.64 370.48 C 140.41 228.37 264.91 83.65 328.24 9.73 M 16.05 370.38 C 127.82 241.92 239.89 112.91 329.65 9.63 M 17.46 370.29 C 125.75 244.68 236.06 117.41 330.4 10.29 M 18.87 370.19 C 139.72 232.45 258.16 95.67 331.81 10.19 M 19.63 370.84 C 81.61 297.29 145.31 225.41 333.22 10.09 M 21.04 370.74 C 145.43 231.18 266.98 90.14 334.63 9.99 M 22.45 370.65 C 108.65 271.57 195.45 173.09 336.05 9.89 M 23.86 370.55 C 89.21 294.89 155.73 219.48 337.46 9.8 M 25.27 370.45 C 113.11 270.8 198.95 170.86 338.87 9.7 M 26.68 370.35 C 134.74 243.36 244.49 118.78 339.62 10.35 M 28.09 370.25 C 120.95 266 211.03 162.03 341.03 10.25 M 28.85 370.91 C 142.96 239.72 258.53 108.24 342.44 10.16 M 30.26 370.81 C 109.26 278.97 189.45 187.37 343.85 10.06 M 31.67 370.71 C 132.32 258.13 231.16 142.85 345.26 9.96 M 33.08 370.61 C 147.55 235.53 264.2 102.2 346.68 9.86 M 34.49 370.51 C 137.12 249.74 240.95 132.05 348.09 9.76 M 35.9 370.41 C 155.07 235.59 273.43 99.36 349.5 9.66 M 37.31 370.31 C 115.87 280.26 193.69 190.34 350.25 10.32 M 38.72 370.22 C 147.23 247.08 257.5 121.85 351.66 10.22 M 39.48 370.87 C 104.3 295.98 170.17 220.34 353.07 10.12 M 40.89 370.77 C 161.06 232.56 282.58 91.71 354.48 10.02 M 42.3 370.68 C 127.6 272.71 213.39 173.47 355.89 9.92 M 43.71 370.58 C 110.5 293.8 176.76 217.93 357.31 9.83 M 45.12 370.48 C 113.51 294.08 182.61 215.75 358.72 9.73 M 46.53 370.38 C 124.07 282.57 200.53 194.68 360.13 9.63 M 47.94 370.28 C 162.47 237.12 278.98 103.71 360.88 10.28 M 49.35 370.18 C 113.8 295.77 178.64 219.33 362.29 10.19 M 50.11 370.84 C 171.57 232.22 292.99 91.17 363.7 10.09 M 51.52 370.74 C 119.4 294.05 186.32 217.56 365.11 9.99 M 52.93 370.64 C 148.26 263.88 241.99 155.05 366.52 9.89 M 54.34 370.54 C 164.11 247.53 272.75 121.65 367.94 9.79 M 55.75 370.44 C 142.36 269.57 229.95 170.31 369.35 9.69 M 57.16 370.34 C 171.78 240.03 284.87 108.66 370.1 10.35 M 58.57 370.25 C 146.29 269.18 234.81 166.95 370.2 11.76 M 59.33 370.9 C 147.96 268.94 236.06 167.39 370.3 13.17 M 60.74 370.8 C 138.73 281.02 217.26 192.35 370.4 14.58 M 62.15 370.7 C 148.42 271.27 236.18 171.68 370.5 15.99 M 63.56 370.61 C 159.47 257.92 255.49 147.43 369.94 18.16 M 64.97 370.51 C 140.02 280.45 217.58 192.86 370.04 19.57 M 66.38 370.41 C 187.42 233.04 306.86 95.76 370.14 20.98 M 67.79 370.31 C 171.68 250.34 275.59 131.47 370.23 22.39 M 69.2 370.21 C 142.8 283.65 216.12 198.74 370.33 23.8 M 69.96 370.87 C 165.53 260.82 261.75 150.75 370.43 25.21 M 71.37 370.77 C 136.81 295.9 201.15 220.52 370.53 26.62 M 72.78 370.67 C 147.1 284.39 222.66 197.32 369.97 28.79 M 74.19 370.57 C 165.38 266.9 256.93 163.26 370.07 30.2 M 75.6 370.47 C 171.81 260.11 267.38 149.56 370.17 31.61 M 77.01 370.37 C 176.2 258.71 272.3 146.14 370.27 33.02 M 78.42 370.28 C 167.44 265.65 258.69 161.82 370.37 34.43 M 79.83 370.18 C 192.83 241.59 305.15 113.96 370.47 35.84 M 80.59 370.83 C 187.17 248.9 292.54 126.39 369.91 38.01 M 82 370.73 C 193.01 244.79 304.65 116.83 370.01 39.42 M 83.41 370.64 C 177.34 261.84 271.85 154.42 370.11 40.83 M 84.82 370.54 C 184.56 258.07 281.73 144.89 370.2 42.24 M 86.23 370.44 C 170.51 274.07 254.83 178.57 370.3 43.65 M 87.64 370.34 C 181.12 264.48 271.34 158.81 370.4 45.06 M 89.05 370.24 C 179.63 265.6 269.4 160.93 370.5 46.47 M 89.81 370.9 C 175.08 272.72 260.33 173.11 369.94 48.64 M 91.22 370.8 C 151.38 300.62 212.08 232.53 370.04 50.05 M 92.63 370.7 C 182.91 266.81 272.91 162.97 370.14 51.46 M 94.04 370.6 C 152.81 299.51 215.21 228.41 370.24 52.87 M 95.45 370.5 C 197.6 253.91 296.94 139.87 370.34 54.28 M 96.86 370.4 C 155.4 306.57 210.91 240.84 370.44 55.69 M 98.27 370.31 C 176.59 281.37 252.49 193.87 370.53 57.1 M 99.68 370.21 C 198.05 259.1 293.42 147.89 369.98 59.27 M 100.44 370.86 C 176.07 280.86 252.37 192.58 370.08 60.68 M 101.85 370.76 C 203.55 251.87 305.96 134.11 370.17 62.09 M 103.26 370.67 C 182.5 281.12 261.34 190.63 370.27 63.5 M 104.67 370.57 C 204.74 254.07 306.21 140.43 370.37 64.91 M 106.08 370.47 C 208.51 253.68 311.73 134.48 370.47 66.32 M 107.49 370.37 C 168.8 300.22 230.52 228.67 369.91 68.49 M 108.9 370.27 C 208.3 251.89 311.17 135.81 370.01 69.9 M 110.31 370.17 C 195.68 273.69 279.97 174.7 370.11 71.31 M 111.07 370.83 C 182.88 288.51 254.78 205.44 370.21 72.72 M 112.48 370.73 C 189 282.75 265.15 193.98 370.31 74.13 M 113.89 370.63 C 163.77 310.14 217.42 251.16 370.41 75.54 M 115.3 370.53 C 206.34 263.5 298.08 156.15 370.51 76.95 M 116.71 370.43 C 192.75 280.99 271.78 191.76 369.95 79.12 M 118.12 370.33 C 189.32 288.59 257.64 206.94 370.05 80.53 M 119.53 370.24 C 196.22 284.73 271.03 197.13 370.15 81.94 M 120.29 370.89 C 184.9 297.42 247.65 222.79 370.24 83.35 M 121.7 370.79 C 198.36 281.03 277.45 192.43 370.34 84.76 M 123.11 370.7 C 206.41 278.54 286.61 185.79 370.44 86.17 M 124.52 370.6 C 189.72 297.29 252.19 226.57 370.54 87.58 M 125.93 370.5 C 190.31 294.54 257.08 219.48 369.98 89.75 M 127.34 370.4 C 195.05 290.89 266.24 209.94 370.08 91.16 M 128.75 370.3 C 216.84 268.67 305.38 169.33 370.18 92.57 M 130.16 370.2 C 214.83 271.04 302.32 170.75 370.28 93.98 M 130.92 370.86 C 201.05 288.07 273.2 206.62 370.38 95.39 M 132.33 370.76 C 201.82 292.71 270.76 211.94 370.48 96.8 M 133.74 370.66 C 217.73 274.29 302.82 175.16 369.92 98.97 M 135.15 370.56 C 211 283.13 286.51 195.73 370.02 100.38 M 136.56 370.46 C 211.52 284.17 285.76 198.65 370.12 101.79 M 137.97 370.36 C 222.73 273.64 304.97 176.53 370.21 103.2 M 139.38 370.27 C 194.69 305.41 249.23 241.68 370.31 104.61 M 140.79 370.17 C 225.42 273.37 308.57 175.76 370.41 106.02 M 141.55 370.82 C 219.9 281.27 297.63 192.61 370.51 107.43 M 142.96 370.72 C 232.49 268.09 321.1 163.39 369.95 109.6 M 144.37 370.63 C 190.84 318.98 235.64 267.1 370.05 111.01 M 145.78 370.53 C 224.86 280.35 303.63 188.37 370.15 112.42 M 147.19 370.43 C 203.54 302 261.76 237.21 370.25 113.83 M 148.6 370.33 C 204.75 303.25 261.16 237.67 370.35 115.24 M 150.01 370.23 C 233.32 274.87 316.76 177.23 370.45 116.65 M 150.76 370.89 C 198.94 314.65 247.58 260.87 370.54 118.06 M 152.18 370.79 C 234.15 276.58 318.27 179.06 369.99 120.23 M 153.59 370.69 C 213.29 301.54 276.04 232.74 370.09 121.64 M 155 370.59 C 239.55 273.07 323.69 175.19 370.18 123.05 M 156.41 370.49 C 234.76 280.3 313.1 190.41 370.28 124.46 M 157.82 370.39 C 230.12 283.88 302.69 201.54 370.38 125.87 M 159.23 370.3 C 235.19 282.19 309.89 195.18 370.48 127.28 M 160.64 370.2 C 244.02 274.82 325.14 183.55 369.92 129.44 M 161.39 370.85 C 218.2 308.46 274.34 243.5 370.02 130.86 M 162.81 370.75 C 238.13 284.66 313.89 198.37 370.12 132.27 M 164.22 370.66 C 217.42 308.35 272.76 245.29 370.22 133.68 M 165.63 370.56 C 246.91 279.34 327.34 184.31 370.32 135.09 M 167.04 370.46 C 217.27 310.25 271.43 248.22 370.42 136.5 M 168.45 370.36 C 247.19 283.8 321.49 196.71 370.51 137.91 M 169.86 370.26 C 234.8 293.42 303.96 215.15 369.96 140.07 M 171.27 370.16 C 248.05 280.24 323.56 193.55 370.06 141.49 M 172.02 370.82 C 241.75 289.83 311.8 209.51 370.15 142.9 M 173.44 370.72 C 239.01 296.59 305.67 221.71 370.25 144.31 M 174.85 370.62 C 246.36 289.82 318.5 206.32 370.35 145.72 M 176.26 370.52 C 253.11 280.6 330.19 194.82 370.45 147.13 M 177.67 370.42 C 215.72 323.17 256.29 279.12 370.55 148.54 M 179.08 370.33 C 231.82 309.7 285.32 250.03 369.99 150.7 M 180.49 370.23 C 244.2 296.54 306.94 225.25 370.09 152.12 M 181.24 370.88 C 221.45 324.61 264.04 275.86 370.19 153.53 M 182.66 370.78 C 255.25 286.39 327.88 205.88 370.29 154.94 M 184.07 370.69 C 234.8 313.68 283.57 254.24 370.39 156.35 M 185.48 370.59 C 231.45 316.69 279.19 260.09 370.49 157.76 M 186.89 370.49 C 243.11 307.66 299.16 241.93 369.93 159.92 M 188.3 370.39 C 234.36 315.34 281.85 261.05 370.03 161.33 M 189.71 370.29 C 240.51 311.58 291.79 252.81 370.13 162.75 M 191.12 370.19 C 253.47 295.97 317.12 222.71 370.22 164.16 M 191.87 370.85 C 237.91 318.53 283.93 265.34 370.32 165.57 M 193.29 370.75 C 251.46 303.28 311.71 233.86 370.42 166.98 M 194.7 370.65 C 246.64 313.58 295.43 254.4 370.52 168.39 M 196.11 370.55 C 247.12 314.43 297.72 258.09 369.96 170.55 M 197.52 370.45 C 259.46 297.86 319.03 227.33 370.06 171.96 M 198.93 370.35 C 253.97 303.65 313.05 239.83 370.16 173.38 M 200.34 370.26 C 262.19 297.23 321.74 226.6 370.26 174.79 M 201.09 370.91 C 252.53 312.95 302.5 255.09 370.36 176.2 M 202.5 370.81 C 241.35 328.93 277.44 285.56 370.46 177.61 M 203.92 370.72 C 252.63 318.82 297.88 265.11 370.55 179.02 M 205.33 370.62 C 238.77 332.04 273.39 290.3 370 181.18 M 206.74 370.52 C 255.29 315.52 300.84 261.85 370.1 182.6 M 208.15 370.42 C 263.07 310.68 314.87 251.64 370.19 184.01 M 209.56 370.32 C 247.73 328.13 283.46 285.85 370.29 185.42 M 210.97 370.22 C 243.78 331.68 278.55 292.64 370.39 186.83 M 211.72 370.88 C 265.02 311.08 318.58 248.27 370.49 188.24 M 213.13 370.78 C 261.33 311.74 310.3 255.44 369.93 190.4 M 214.55 370.68 C 270.62 309.99 322.97 247.21 370.03 191.81 M 215.96 370.58 C 277.08 301.94 336.31 231.49 370.13 193.23 M 217.37 370.48 C 275.84 305.6 331.83 238.95 370.23 194.64 M 218.78 370.38 C 261.89 319.35 305.74 269.75 370.33 196.05 M 220.19 370.29 C 253.2 332.43 283.89 293.65 370.43 197.46 M 221.6 370.19 C 259.02 326.77 297.21 282.96 370.52 198.87 M 222.35 370.84 C 264.2 320.32 309.43 270.47 369.97 201.03 M 223.76 370.74 C 264.73 320.36 310.18 272.34 370.07 202.44 M 225.18 370.65 C 274.88 313.63 325.82 254.08 370.16 203.86 M 226.59 370.55 C 269.89 319.38 317.46 266.69 370.26 205.27 M 228 370.45 C 269.14 321.34 314.42 269.69 370.36 206.68 M 229.41 370.35 C 265 329.98 300.46 289.31 370.46 208.09 M 230.82 370.25 C 265.84 331.63 303.36 288.35 369.9 210.25 M 231.57 370.91 C 261.53 336.19 291.05 302.72 370 211.66 M 232.98 370.81 C 275.42 319.97 319.23 270.86 370.1 213.07 M 234.39 370.71 C 266.67 334.13 296.72 296.77 370.2 214.49 M 235.81 370.61 C 284.68 312.04 336.04 257.66 370.3 215.9 M 237.22 370.51 C 287.55 312.22 340.47 252.58 370.4 217.31 M 238.63 370.41 C 282.5 316.3 330.81 265.52 370.49 218.72 M 240.04 370.32 C 285.14 315.02 334.14 259.55 369.94 220.88 M 241.45 370.22 C 285.32 316.55 329.74 267.49 370.04 222.29 M 242.2 370.87 C 289.07 314.52 339.48 261.74 370.13 223.7 M 243.61 370.77 C 289.67 317.31 336.59 264.77 370.23 225.12 M 245.02 370.68 C 284.47 322.34 329.2 275.31 370.33 226.53 M 246.44 370.58 C 292 320.58 340.58 266.82 370.43 227.94 M 247.85 370.48 C 289.97 320 332.34 272.46 370.53 229.35 M 249.26 370.38 C 274.06 338.47 303.06 307.05 369.97 231.51 M 250.67 370.28 C 285.89 331.8 319.61 289.34 370.07 232.92 M 252.08 370.18 C 277.04 343.33 301.56 313.45 370.17 234.33 M 252.83 370.84 C 293.33 325.47 330.07 281.8 370.27 235.75 M 254.24 370.74 C 290.93 328.35 328.93 285.13 370.37 237.16 M 255.65 370.64 C 293.47 330.82 328.98 288.84 370.47 238.57 M 257.07 370.54 C 299.12 321.56 341.91 271.24 369.91 240.73 M 258.48 370.44 C 283.04 342.24 306.41 314.81 370.01 242.14 M 259.89 370.35 C 297.03 330.08 334.12 287.79 370.11 243.55 M 261.3 370.25 C 305.3 321.34 348.6 268.82 370.2 244.96 M 262.05 370.9 C 281.99 345.8 304.21 322.4 370.3 246.38 M 263.46 370.8 C 307.96 324.47 350.68 272.06 370.4 247.79 M 264.87 370.71 C 300.14 330.96 331.62 294.86 370.5 249.2 M 266.28 370.61 C 289.64 340.29 314.1 312.44 369.94 251.36 M 267.7 370.51 C 299.66 333.27 333.07 297.7 370.04 252.77 M 269.11 370.41 C 293.19 344.38 315.62 317.56 370.14 254.18 M 270.52 370.31 C 309.53 329.27 343.02 285.43 370.24 255.59 M 271.93 370.21 C 292.55 345.35 313.78 322.32 370.34 257.01 M 272.68 370.87 C 308.75 329.55 346.88 285.29 370.44 258.42 M 274.09 370.77 C 294.07 347.69 314.18 320.63 370.53 259.83 M 275.5 370.67 C 310.2 329.5 345.8 288.07 369.98 261.99 M 276.92 370.57 C 303.47 341.81 327.41 315.94 370.08 263.4 M 278.33 370.47 C 309.34 331.7 345.33 293.77 370.17 264.81 M 279.74 370.37 C 301.43 342.82 326.21 315.75 370.27 266.22 M 281.15 370.28 C 308.69 340.31 333.69 311.67 370.37 267.64 M 282.56 370.18 C 315.98 333.78 346.39 293.1 370.47 269.05 M 283.31 370.83 C 306.53 347.24 327.75 318.96 369.91 271.21 M 284.72 370.73 C 312.55 336.56 343.46 300.45 370.01 272.62 M 286.13 370.64 C 319.29 331.62 351.39 294.29 370.11 274.03 M 287.55 370.54 C 314.49 342.82 338.14 312.91 370.21 275.44 M 288.96 370.44 C 317.38 334.72 349.46 303.98 370.31 276.86 M 290.37 370.34 C 317.61 340.37 343.44 310.49 370.41 278.27 M 291.78 370.24 C 311.9 346.12 337.92 317.73 370.5 279.68 M 292.53 370.9 C 309.56 350.39 329.88 330.5 369.95 281.84 M 293.94 370.8 C 310.2 349.43 330.24 329.37 370.05 283.25 M 295.35 370.7 C 320.16 343.87 341.08 319.71 370.14 284.66 M 296.76 370.6 C 322.39 344.6 346.53 315.82 370.24 286.07 M 298.18 370.5 C 324.92 339.77 351.66 310.37 370.34 287.49 M 299.59 370.4 C 317.53 346.61 340.01 326.38 370.44 288.9 M 301 370.31 C 315.02 351.93 331.61 334.51 370.54 290.31 M 302.41 370.21 C 321.88 346.51 340.84 324.5 369.98 292.47 M 303.16 370.86 C 322.51 347.62 340.98 327.12 370.08 293.88 M 304.57 370.76 C 331.06 342.82 355.33 315.32 370.18 295.29 M 305.98 370.67 C 324.35 349.66 343.85 328.13 370.28 296.7 M 307.39 370.57 C 322.25 353.65 335.52 341.54 370.38 298.12 M 308.81 370.47 C 322.02 356.2 332.42 343.21 370.47 299.53 M 310.22 370.37 C 326.21 350.02 345.24 327.42 369.92 301.69 M 311.63 370.27 C 333.36 344.93 354.23 316.26 370.02 303.1 M 313.04 370.17 C 331.51 348.25 346.74 329.52 370.11 304.51 M 313.79 370.83 C 332.7 347.95 350.57 324.93 370.21 305.92 M 315.2 370.73 C 328.42 353.41 344.3 339.43 370.31 307.33 M 316.61 370.63 C 329.22 355.59 345.42 340.42 370.41 308.75 M 318.02 370.53 C 338.96 348.03 356.66 325.81 370.51 310.16 M 319.44 370.43 C 333.88 351.62 349.07 335.67 369.95 312.32 M 320.85 370.34 C 335.53 352.4 352.77 330.4 370.05 313.73 M 322.26 370.24 C 335.96 354.88 346.93 342.57 370.15 315.14 M 323.01 370.89 C 337.83 353.02 356.04 332.58 370.25 316.55 M 324.42 370.79 C 341.07 351.52 358.23 335.89 370.35 317.96 M 325.83 370.7 C 336.99 358.07 351.85 340.42 370.45 319.38 M 327.24 370.6 C 338.18 356.72 350.57 343.71 370.54 320.79 M 328.65 370.5 C 337.35 359.14 348.77 349.22 369.99 322.95 M 330.07 370.4 C 338.29 358.2 349.15 347.79 370.09 324.36 M 331.48 370.3 C 343.82 357.9 355.61 343.03 370.18 325.77 M 332.89 370.2 C 345.54 356.43 359.39 338.71 370.28 327.18 M 333.64 370.86 C 345.15 356.78 357.27 344.08 370.38 328.59 M 335.05 370.76 C 347.54 357.96 357.6 343.31 370.48 330.01 M 336.46 370.66 C 348.61 356.47 357.96 345.08 369.92 332.17 M 337.87 370.56 C 348.57 358.49 356.47 349.89 370.02 333.58 M 339.28 370.46 C 349.35 358.52 363.77 344.55 370.12 334.99 M 340.7 370.37 C 351.83 355.27 364.85 343.18 370.22 336.4 M 342.11 370.27 C 350.76 360.15 360.12 349.92 370.32 337.81 M 343.52 370.17 C 350.99 360.48 361.82 350.71 370.42 339.22 M 344.27 370.82 C 353.68 362.59 360.37 351.15 370.51 340.64 M 345.68 370.73 C 352.54 360.67 362.14 353.61 369.96 342.8 M 347.09 370.63 C 353.21 365.31 354.78 358.79 370.06 344.21 M 348.5 370.53 C 352.86 364.83 362.62 354.23 370.15 345.62 M 349.91 370.43 C 356.01 364.66 358.96 359.71 370.25 347.03 M 351.33 370.33 C 356.62 362.49 363.6 356.04 370.35 348.44 M 352.74 370.23 C 360.35 361.57 364.82 352.63 370.45 349.85 M 353.49 370.89 C 361.03 362.65 363.51 358.6 370.55 351.27 M 354.9 370.79 C 358.85 364.63 363.1 359.32 369.99 353.43 M 356.31 370.69 C 358.03 367.44 363.04 363.45 370.09 354.84 M 357.72 370.59 C 360.74 364.32 367.75 361.85 370.19 356.25 M 359.13 370.49 C 362.03 368.22 367.04 363.75 370.29 357.66 M 360.55 370.39 C 364.05 366.05 369.18 362.03 370.39 359.07 M 361.96 370.3 C 364.1 367.98 368.5 363.58 370.48 360.49 M 363.37 370.2 C 365.82 367.56 367.22 364.44 369.93 362.65 M 364.12 370.85 C 366.14 368.48 368.71 366.95 370.03 364.06 M 365.53 370.75 C 367.36 368.39 368.35 367.49 370.12 365.47 M 366.94 370.66 C 367.41 370.24 368.39 369.24 370.22 366.88 M 368.35 370.56 C 368.87 369.9 369.5 369.59 370.32 368.29" fill="none" stroke="#eeeeee" stroke-width="0.5" stroke-linejoin="round" stroke-linecap="round" stroke-miterlimit="10" pointer-events="all"/></g><g><g fill="rgb(0, 0, 0)" font-family="&quot;Helvetica&quot;" font-weight="bold" text-anchor="middle" font-size="22px"><text x="189.5" y="37.5">十进制转十进制</text></g></g></g><g data-cell-id="d0jyHFqpkM-f4XswXfsI-3"><g><path d="M 170 90 L 203.63 90" fill="none" stroke="rgb(0, 0, 0)" stroke-miterlimit="10" pointer-events="stroke"/><path d="M 208.88 90 L 201.88 93.5 L 203.63 90 L 201.88 86.5 Z" fill="rgb(0, 0, 0)" stroke="rgb(0, 0, 0)" stroke-miterlimit="10" pointer-events="all"/></g></g><g data-cell-id="d0jyHFqpkM-f4XswXfsI-4"><g style="filter: drop-shadow(rgb(0, 0, 0) 3px -3px 0px);"><rect x="30" y="70" width="140" height="40" rx="6" ry="6" fill="rgb(255, 255, 255)" stroke="rgb(0, 0, 0)" pointer-events="all"/></g><g><g fill="rgb(0, 0, 0)" font-family="&quot;Helvetica&quot;" text-anchor="middle" font-size="18px"><text x="99.5" y="97.5">十进制：12345</text></g></g></g><g data-cell-id="d0jyHFqpkM-f4XswXfsI-5"><g style="filter: drop-shadow(rgb(0, 0, 0) 3px -3px 0px);"><rect x="210" y="70" width="140" height="40" rx="6" ry="6" fill="rgb(255, 255, 255)" stroke="rgb(0, 0, 0)" pointer-events="all"/></g><g><g fill="rgb(0, 0, 0)" font-family="&quot;Helvetica&quot;" text-anchor="middle" font-size="18px"><text x="279.5" y="97.5">十进制：12345</text></g></g></g><g data-cell-id="d0jyHFqpkM-f4XswXfsI-6"><g><rect x="210" y="120" width="60" height="40" fill="none" stroke="none" pointer-events="all"/></g><g><g fill="rgb(0, 0, 0)" font-family="&quot;Helvetica&quot;" text-anchor="middle" font-size="18px"><text x="239.5" y="147.5">余数</text></g></g></g><g data-cell-id="d0jyHFqpkM-f4XswXfsI-7"><g><rect x="225" y="320" width="30" height="40" fill="none" stroke="none" pointer-events="all"/></g><g><g fill="rgb(0, 0, 0)" font-family="&quot;Helvetica&quot;" text-anchor="middle" font-size="18px"><text x="239.5" y="347.5">1</text></g></g></g><g data-cell-id="d0jyHFqpkM-f4XswXfsI-8"><g><rect x="225" y="280" width="30" height="40" fill="none" stroke="none" pointer-events="all"/></g><g><g fill="rgb(0, 0, 0)" font-family="&quot;Helvetica&quot;" text-anchor="middle" font-size="18px"><text x="239.5" y="307.5">2</text></g></g></g><g data-cell-id="d0jyHFqpkM-f4XswXfsI-9"><g><rect x="225" y="240" width="30" height="40" fill="none" stroke="none" pointer-events="all"/></g><g><g fill="rgb(0, 0, 0)" font-family="&quot;Helvetica&quot;" text-anchor="middle" font-size="18px"><text x="239.5" y="267.5">3</text></g></g></g><g data-cell-id="d0jyHFqpkM-f4XswXfsI-10"><g><rect x="225" y="200" width="30" height="40" fill="none" stroke="none" pointer-events="all"/></g><g><g fill="rgb(0, 0, 0)" font-family="&quot;Helvetica&quot;" text-anchor="middle" font-size="18px"><text x="239.5" y="227.5">4</text></g></g></g><g data-cell-id="d0jyHFqpkM-f4XswXfsI-11"><g><rect x="225" y="160" width="30" height="40" fill="none" stroke="none" pointer-events="all"/></g><g><g fill="rgb(0, 0, 0)" font-family="&quot;Helvetica&quot;" text-anchor="middle" font-size="18px"><text x="239.5" y="187.5">5</text></g></g></g><g data-cell-id="d0jyHFqpkM-f4XswXfsI-12"><g><path d="M 265 350 L 265 176.37" fill="none" stroke="rgb(0, 0, 0)" stroke-miterlimit="10" pointer-events="stroke"/><path d="M 265 171.12 L 268.5 178.12 L 265 176.37 L 261.5 178.12 Z" fill="rgb(0, 0, 0)" stroke="rgb(0, 0, 0)" stroke-miterlimit="10" pointer-events="all"/></g></g><g data-cell-id="d0jyHFqpkM-f4XswXfsI-13"><g><rect x="90" y="120" width="70" height="40" fill="none" stroke="none" transform="translate(125,0)scale(-1,1)translate(-125,0)rotate(-180,125,140)" pointer-events="all"/><path d="M 90 120 L 160 120 M 160 160 M 90 160 L 90 120" fill="none" stroke="rgb(0, 0, 0)" stroke-linecap="square" stroke-miterlimit="10" transform="translate(125,0)scale(-1,1)translate(-125,0)rotate(-180,125,140)" pointer-events="all"/></g><g><g fill="rgb(0, 0, 0)" font-family="&quot;Helvetica&quot;" text-anchor="middle" font-size="18px"><text x="124.5" y="147.5">12345</text></g></g></g><g data-cell-id="d0jyHFqpkM-f4XswXfsI-14"><g><rect x="100" y="160" width="60" height="40" fill="none" stroke="none" transform="translate(130,0)scale(-1,1)translate(-130,0)rotate(-180,130,180)" pointer-events="all"/><path d="M 100 160 L 160 160 M 160 200 M 100 200 L 100 160" fill="none" stroke="rgb(0, 0, 0)" stroke-linecap="square" stroke-miterlimit="10" transform="translate(130,0)scale(-1,1)translate(-130,0)rotate(-180,130,180)" pointer-events="all"/></g><g><g fill="rgb(0, 0, 0)" font-family="&quot;Helvetica&quot;" text-anchor="middle" font-size="18px"><text x="129.5" y="187.5">1234</text></g></g></g><g data-cell-id="d0jyHFqpkM-f4XswXfsI-15"><g><rect x="110" y="200" width="50" height="40" fill="none" stroke="none" transform="translate(135,0)scale(-1,1)translate(-135,0)rotate(-180,135,220)" pointer-events="all"/><path d="M 110 200 L 160 200 M 160 240 M 110 240 L 110 200" fill="none" stroke="rgb(0, 0, 0)" stroke-linecap="square" stroke-miterlimit="10" transform="translate(135,0)scale(-1,1)translate(-135,0)rotate(-180,135,220)" pointer-events="all"/></g><g><g fill="rgb(0, 0, 0)" font-family="&quot;Helvetica&quot;" text-anchor="middle" font-size="18px"><text x="134.5" y="227.5">123</text></g></g></g><g data-cell-id="d0jyHFqpkM-f4XswXfsI-16"><g><rect x="120" y="240" width="40" height="40" fill="none" stroke="none" transform="translate(140,0)scale(-1,1)translate(-140,0)rotate(-180,140,260)" pointer-events="all"/><path d="M 120 240 L 160 240 M 160 280 M 120 280 L 120 240" fill="none" stroke="rgb(0, 0, 0)" stroke-linecap="square" stroke-miterlimit="10" transform="translate(140,0)scale(-1,1)translate(-140,0)rotate(-180,140,260)" pointer-events="all"/></g><g><g fill="rgb(0, 0, 0)" font-family="&quot;Helvetica&quot;" text-anchor="middle" font-size="18px"><text x="139.5" y="267.5">12</text></g></g></g><g data-cell-id="d0jyHFqpkM-f4XswXfsI-17"><g><rect x="130" y="280" width="30" height="40" fill="none" stroke="none" transform="translate(145,0)scale(-1,1)translate(-145,0)rotate(-180,145,300)" pointer-events="all"/><path d="M 130 280 L 160 280 M 160 320 M 130 320 L 130 280" fill="none" stroke="rgb(0, 0, 0)" stroke-linecap="square" stroke-miterlimit="10" transform="translate(145,0)scale(-1,1)translate(-145,0)rotate(-180,145,300)" pointer-events="all"/></g><g><g fill="rgb(0, 0, 0)" font-family="&quot;Helvetica&quot;" text-anchor="middle" font-size="18px"><text x="144.5" y="307.5">1</text></g></g></g><g data-cell-id="d0jyHFqpkM-f4XswXfsI-18"><g><rect x="50" y="120" width="40" height="40" fill="none" stroke="none" pointer-events="all"/></g><g><g fill="rgb(0, 0, 0)" font-family="&quot;Helvetica&quot;" text-anchor="middle" font-size="18px"><text x="69.5" y="147.5">10</text></g></g></g><g data-cell-id="d0jyHFqpkM-f4XswXfsI-19"><g><rect x="60" y="160" width="40" height="40" fill="none" stroke="none" pointer-events="all"/></g><g><g fill="rgb(0, 0, 0)" font-family="&quot;Helvetica&quot;" text-anchor="middle" font-size="18px"><text x="79.5" y="187.5">10</text></g></g></g><g data-cell-id="d0jyHFqpkM-f4XswXfsI-20"><g><rect x="70" y="200" width="40" height="40" fill="none" stroke="none" pointer-events="all"/></g><g><g fill="rgb(0, 0, 0)" font-family="&quot;Helvetica&quot;" text-anchor="middle" font-size="18px"><text x="89.5" y="227.5">10</text></g></g></g><g data-cell-id="d0jyHFqpkM-f4XswXfsI-21"><g><rect x="80" y="240" width="40" height="40" fill="none" stroke="none" pointer-events="all"/></g><g><g fill="rgb(0, 0, 0)" font-family="&quot;Helvetica&quot;" text-anchor="middle" font-size="18px"><text x="99.5" y="267.5">10</text></g></g></g><g data-cell-id="d0jyHFqpkM-f4XswXfsI-22"><g><rect x="90" y="280" width="40" height="40" fill="none" stroke="none" pointer-events="all"/></g><g><g fill="rgb(0, 0, 0)" font-family="&quot;Helvetica&quot;" text-anchor="middle" font-size="18px"><text x="109.5" y="307.5">10</text></g></g></g><g data-cell-id="d0jyHFqpkM-f4XswXfsI-23"><g><rect x="130" y="320" width="30" height="40" fill="none" stroke="none" pointer-events="all"/></g><g><g fill="rgb(0, 0, 0)" font-family="&quot;Helvetica&quot;" text-anchor="middle" font-size="18px"><text x="144.5" y="347.5">0</text></g></g></g><g data-cell-id="d0jyHFqpkM-f4XswXfsI-24"><g><path d="M 530 90 L 563.63 90" fill="none" stroke="rgb(0, 0, 0)" stroke-miterlimit="10" pointer-events="stroke"/><path d="M 568.88 90 L 561.88 93.5 L 563.63 90 L 561.88 86.5 Z" fill="rgb(0, 0, 0)" stroke="rgb(0, 0, 0)" stroke-miterlimit="10" pointer-events="all"/></g></g><g data-cell-id="d0jyHFqpkM-f4XswXfsI-25"><g style="filter: drop-shadow(rgb(0, 0, 0) 3px -3px 0px);"><rect x="390" y="70" width="140" height="40" rx="6" ry="6" fill="rgb(255, 255, 255)" stroke="rgb(0, 0, 0)" pointer-events="all"/></g><g><g fill="rgb(0, 0, 0)" font-family="&quot;Helvetica&quot;" text-anchor="middle" font-size="18px"><text x="459.5" y="97.5">十进制：20</text></g></g></g><g data-cell-id="d0jyHFqpkM-f4XswXfsI-26"><g style="filter: drop-shadow(rgb(0, 0, 0) 3px -3px 0px);"><rect x="570" y="70" width="140" height="40" rx="6" ry="6" fill="rgb(255, 255, 255)" stroke="rgb(0, 0, 0)" pointer-events="all"/></g><g><g fill="rgb(0, 0, 0)" font-family="&quot;Helvetica&quot;" text-anchor="middle" font-size="18px"><text x="639.5" y="97.5">二进制：10100</text></g></g></g><g data-cell-id="d0jyHFqpkM-f4XswXfsI-27"><g><rect x="570" y="120" width="60" height="40" fill="none" stroke="none" pointer-events="all"/></g><g><g fill="rgb(0, 0, 0)" font-family="&quot;Helvetica&quot;" text-anchor="middle" font-size="18px"><text x="599.5" y="147.5">余数</text></g></g></g><g data-cell-id="d0jyHFqpkM-f4XswXfsI-28"><g><rect x="585" y="320" width="30" height="40" fill="none" stroke="none" pointer-events="all"/></g><g><g fill="rgb(0, 0, 0)" font-family="&quot;Helvetica&quot;" text-anchor="middle" font-size="18px"><text x="599.5" y="347.5">1</text></g></g></g><g data-cell-id="d0jyHFqpkM-f4XswXfsI-29"><g><rect x="585" y="280" width="30" height="40" fill="none" stroke="none" pointer-events="all"/></g><g><g fill="rgb(0, 0, 0)" font-family="&quot;Helvetica&quot;" text-anchor="middle" font-size="18px"><text x="599.5" y="307.5">0</text></g></g></g><g data-cell-id="d0jyHFqpkM-f4XswXfsI-30"><g><rect x="585" y="240" width="30" height="40" fill="none" stroke="none" pointer-events="all"/></g><g><g fill="rgb(0, 0, 0)" font-family="&quot;Helvetica&quot;" text-anchor="middle" font-size="18px"><text x="599.5" y="267.5">1</text></g></g></g><g data-cell-id="d0jyHFqpkM-f4XswXfsI-31"><g><rect x="585" y="200" width="30" height="40" fill="none" stroke="none" pointer-events="all"/></g><g><g fill="rgb(0, 0, 0)" font-family="&quot;Helvetica&quot;" text-anchor="middle" font-size="18px"><text x="599.5" y="227.5">0</text></g></g></g><g data-cell-id="d0jyHFqpkM-f4XswXfsI-32"><g><rect x="585" y="160" width="30" height="40" fill="none" stroke="none" pointer-events="all"/></g><g><g fill="rgb(0, 0, 0)" font-family="&quot;Helvetica&quot;" text-anchor="middle" font-size="18px"><text x="599.5" y="187.5">0</text></g></g></g><g data-cell-id="d0jyHFqpkM-f4XswXfsI-33"><g><path d="M 625 350 L 625 176.37" fill="none" stroke="rgb(0, 0, 0)" stroke-miterlimit="10" pointer-events="stroke"/><path d="M 625 171.12 L 628.5 178.12 L 625 176.37 L 621.5 178.12 Z" fill="rgb(0, 0, 0)" stroke="rgb(0, 0, 0)" stroke-miterlimit="10" pointer-events="all"/></g></g><g data-cell-id="d0jyHFqpkM-f4XswXfsI-34"><g><rect x="450" y="120" width="70" height="40" fill="none" stroke="none" transform="translate(485,0)scale(-1,1)translate(-485,0)rotate(-180,485,140)" pointer-events="all"/><path d="M 450 120 L 520 120 M 520 160 M 450 160 L 450 120" fill="none" stroke="rgb(0, 0, 0)" stroke-linecap="square" stroke-miterlimit="10" transform="translate(485,0)scale(-1,1)translate(-485,0)rotate(-180,485,140)" pointer-events="all"/></g><g><g fill="rgb(0, 0, 0)" font-family="&quot;Helvetica&quot;" text-anchor="middle" font-size="18px"><text x="484.5" y="147.5">20</text></g></g></g><g data-cell-id="d0jyHFqpkM-f4XswXfsI-35"><g><rect x="460" y="160" width="60" height="40" fill="none" stroke="none" transform="translate(490,0)scale(-1,1)translate(-490,0)rotate(-180,490,180)" pointer-events="all"/><path d="M 460 160 L 520 160 M 520 200 M 460 200 L 460 160" fill="none" stroke="rgb(0, 0, 0)" stroke-linecap="square" stroke-miterlimit="10" transform="translate(490,0)scale(-1,1)translate(-490,0)rotate(-180,490,180)" pointer-events="all"/></g><g><g fill="rgb(0, 0, 0)" font-family="&quot;Helvetica&quot;" text-anchor="middle" font-size="18px"><text x="489.5" y="187.5">10</text></g></g></g><g data-cell-id="d0jyHFqpkM-f4XswXfsI-36"><g><rect x="470" y="200" width="50" height="40" fill="none" stroke="none" transform="translate(495,0)scale(-1,1)translate(-495,0)rotate(-180,495,220)" pointer-events="all"/><path d="M 470 200 L 520 200 M 520 240 M 470 240 L 470 200" fill="none" stroke="rgb(0, 0, 0)" stroke-linecap="square" stroke-miterlimit="10" transform="translate(495,0)scale(-1,1)translate(-495,0)rotate(-180,495,220)" pointer-events="all"/></g><g><g fill="rgb(0, 0, 0)" font-family="&quot;Helvetica&quot;" text-anchor="middle" font-size="18px"><text x="494.5" y="227.5">5</text></g></g></g><g data-cell-id="d0jyHFqpkM-f4XswXfsI-37"><g><rect x="480" y="240" width="40" height="40" fill="none" stroke="none" transform="translate(500,0)scale(-1,1)translate(-500,0)rotate(-180,500,260)" pointer-events="all"/><path d="M 480 240 L 520 240 M 520 280 M 480 280 L 480 240" fill="none" stroke="rgb(0, 0, 0)" stroke-linecap="square" stroke-miterlimit="10" transform="translate(500,0)scale(-1,1)translate(-500,0)rotate(-180,500,260)" pointer-events="all"/></g><g><g fill="rgb(0, 0, 0)" font-family="&quot;Helvetica&quot;" text-anchor="middle" font-size="18px"><text x="499.5" y="267.5">2</text></g></g></g><g data-cell-id="d0jyHFqpkM-f4XswXfsI-38"><g><rect x="490" y="280" width="30" height="40" fill="none" stroke="none" transform="translate(505,0)scale(-1,1)translate(-505,0)rotate(-180,505,300)" pointer-events="all"/><path d="M 490 280 L 520 280 M 520 320 M 490 320 L 490 280" fill="none" stroke="rgb(0, 0, 0)" stroke-linecap="square" stroke-miterlimit="10" transform="translate(505,0)scale(-1,1)translate(-505,0)rotate(-180,505,300)" pointer-events="all"/></g><g><g fill="rgb(0, 0, 0)" font-family="&quot;Helvetica&quot;" text-anchor="middle" font-size="18px"><text x="504.5" y="307.5">1</text></g></g></g><g data-cell-id="d0jyHFqpkM-f4XswXfsI-39"><g><rect x="410" y="120" width="40" height="40" fill="none" stroke="none" pointer-events="all"/></g><g><g fill="rgb(0, 0, 0)" font-family="&quot;Helvetica&quot;" text-anchor="middle" font-size="18px"><text x="429.5" y="147.5">2</text></g></g></g><g data-cell-id="d0jyHFqpkM-f4XswXfsI-40"><g><rect x="420" y="160" width="40" height="40" fill="none" stroke="none" pointer-events="all"/></g><g><g fill="rgb(0, 0, 0)" font-family="&quot;Helvetica&quot;" text-anchor="middle" font-size="18px"><text x="439.5" y="187.5">2</text></g></g></g><g data-cell-id="d0jyHFqpkM-f4XswXfsI-41"><g><rect x="430" y="200" width="40" height="40" fill="none" stroke="none" pointer-events="all"/></g><g><g fill="rgb(0, 0, 0)" font-family="&quot;Helvetica&quot;" text-anchor="middle" font-size="18px"><text x="449.5" y="227.5">2</text></g></g></g><g data-cell-id="d0jyHFqpkM-f4XswXfsI-42"><g><rect x="440" y="240" width="40" height="40" fill="none" stroke="none" pointer-events="all"/></g><g><g fill="rgb(0, 0, 0)" font-family="&quot;Helvetica&quot;" text-anchor="middle" font-size="18px"><text x="459.5" y="267.5">2</text></g></g></g><g data-cell-id="d0jyHFqpkM-f4XswXfsI-43"><g><rect x="450" y="280" width="40" height="40" fill="none" stroke="none" pointer-events="all"/></g><g><g fill="rgb(0, 0, 0)" font-family="&quot;Helvetica&quot;" text-anchor="middle" font-size="18px"><text x="469.5" y="307.5">2</text></g></g></g><g data-cell-id="d0jyHFqpkM-f4XswXfsI-44"><g><rect x="490" y="320" width="30" height="40" fill="none" stroke="none" pointer-events="all"/></g><g><g fill="rgb(0, 0, 0)" font-family="&quot;Helvetica&quot;" text-anchor="middle" font-size="18px"><text x="504.5" y="347.5">0</text></g></g></g><g data-cell-id="d0jyHFqpkM-f4XswXfsI-45"><g><path d="M 30 50 L 710 50" fill="none" stroke="rgb(0, 0, 0)" stroke-miterlimit="10" stroke-dasharray="3 3" pointer-events="stroke"/></g></g><g data-cell-id="d0jyHFqpkM-f4XswXfsI-46"><g><path d="M 370 20 L 370 360" fill="none" stroke="rgb(0, 0, 0)" stroke-miterlimit="10" stroke-dasharray="3 3" pointer-events="stroke"/></g></g></g></g></g></svg>