<?xml version="1.0" encoding="UTF-8"?>
<!DOCTYPE svg PUBLIC "-//W3C//DTD SVG 1.1//EN" "http://www.w3.org/Graphics/SVG/1.1/DTD/svg11.dtd">
<svg xmlns="http://www.w3.org/2000/svg" xmlns:xlink="http://www.w3.org/1999/xlink" version="1.1" width="740px" height="380px" viewBox="-0.5 -0.5 740 380" style="background-color: rgb(255, 255, 255);"><defs/><rect fill="#ffffff" width="100%" height="100%" x="0" y="0"/><g><g><rect x="370" y="10" width="360" height="360" fill="none" stroke="none" pointer-events="all"/><path d="M 370.19 9.78 C 370.19 9.78 370.19 9.78 370.19 9.78 M 370.29 11.19 C 370.76 10.89 370.87 10.37 371.6 9.68 M 369.73 13.35 C 370.26 12.4 370.69 12.27 372.36 10.34 M 369.83 14.77 C 370.22 13.95 371.78 13.24 373.77 10.24 M 369.93 16.18 C 371.65 14.69 372.28 12.71 375.18 10.14 M 370.03 17.59 C 373.26 14.16 375.24 12.45 376.59 10.04 M 370.13 19 C 372.14 15.34 376.94 11.76 378 9.94 M 370.23 20.41 C 372.98 17.88 376.68 12.63 379.41 9.84 M 370.33 21.82 C 373.78 17.98 378.74 13.14 380.82 9.74 M 369.77 23.98 C 372.21 18.99 378.72 14.35 382.23 9.64 M 369.87 25.4 C 371.12 20.99 378.16 19.04 382.99 10.3 M 369.97 26.81 C 375.03 21.34 376.83 16.54 384.4 10.2 M 370.06 28.22 C 373.23 22.67 378.89 19.44 385.81 10.1 M 370.16 29.63 C 373.17 24.98 377.53 19.32 387.22 10.01 M 370.26 31.04 C 377.11 24.76 382.87 17.25 388.63 9.91 M 369.7 33.2 C 376.19 26.46 381.62 19.69 390.04 9.81 M 369.8 34.61 C 375.39 26.43 381.36 19.95 391.45 9.71 M 369.9 36.03 C 375.11 29.17 380.96 20.73 392.21 10.37 M 370 37.44 C 380.24 27.52 387.37 19.92 393.62 10.27 M 370.1 38.85 C 377.93 29.25 385.13 20.17 395.03 10.17 M 370.2 40.26 C 378.25 29.39 387.9 20.85 396.44 10.07 M 370.3 41.67 C 382.65 29 390.14 18.55 397.85 9.97 M 369.74 43.83 C 381.23 32.49 392.78 18.46 399.26 9.87 M 369.84 45.24 C 380.79 32.88 387.7 24.61 400.67 9.77 M 369.94 46.66 C 381.3 33.25 391.28 23.3 402.08 9.67 M 370.03 48.07 C 383.95 34.31 394.24 17.52 402.84 10.33 M 370.13 49.48 C 381.14 39.06 392.66 25.48 404.25 10.23 M 370.23 50.89 C 382.94 37.21 390.7 24.4 405.66 10.13 M 369.67 53.05 C 380.46 39.74 392.95 24.79 407.07 10.03 M 369.77 54.46 C 386.3 35.15 399.74 18.98 408.48 9.94 M 369.87 55.87 C 380.24 41.8 394.63 28.37 409.89 9.84 M 369.97 57.29 C 380.55 45.6 388.86 35.78 411.3 9.74 M 370.07 58.7 C 384.55 42.92 395.75 26.01 412.71 9.64 M 370.17 60.11 C 383.23 43.2 400.54 25.68 413.47 10.3 M 370.27 61.52 C 380.29 48.61 392.25 37.07 414.88 10.2 M 369.71 63.68 C 387.94 41.68 405.8 22.29 416.29 10.1 M 369.81 65.09 C 384.98 46.2 401.84 28.73 417.7 10 M 369.91 66.5 C 387.63 44.43 407.95 23.12 419.11 9.9 M 370.01 67.92 C 382.71 52.05 392.91 37.93 420.52 9.8 M 370.1 69.33 C 384.1 51.88 394.95 38.36 421.93 9.7 M 370.2 70.74 C 382 58.37 392.51 46.7 422.69 10.36 M 370.3 72.15 C 382.7 58.69 394.6 42.84 424.1 10.26 M 369.74 74.31 C 381.03 58.83 398.34 43.24 425.51 10.16 M 369.84 75.72 C 385.47 53.67 404.91 36.92 426.92 10.06 M 369.94 77.13 C 392.79 51.99 413.56 25.66 428.33 9.97 M 370.04 78.55 C 385.37 61.63 398.18 44.11 429.74 9.87 M 370.14 79.96 C 383.38 62.94 397.46 47.34 431.15 9.77 M 370.24 81.37 C 384.39 64.61 395.97 49.19 432.56 9.67 M 369.68 83.53 C 388.19 61.87 406.82 38.75 433.32 10.33 M 369.78 84.94 C 391.55 59.52 410.66 36.64 434.73 10.23 M 369.88 86.35 C 386.39 65.61 406.33 44.12 436.14 10.13 M 369.98 87.76 C 386.47 68.35 402.93 50.26 437.55 10.03 M 370.07 89.18 C 395.1 58.89 422.51 30.95 438.96 9.93 M 370.17 90.59 C 396.77 60.08 422.16 29.32 440.37 9.83 M 370.27 92 C 386.13 73.56 397.44 58.88 441.78 9.73 M 369.71 94.16 C 390.44 70.69 409.92 48.74 443.19 9.64 M 369.81 95.57 C 391.34 67.48 414.54 42.54 443.95 10.29 M 369.91 96.98 C 395.41 67.81 419.13 42.67 445.36 10.19 M 370.01 98.4 C 394.61 70.01 417.91 45.5 446.77 10.09 M 370.11 99.81 C 394.16 70.84 419.65 41.47 448.18 10 M 370.21 101.22 C 398.01 71.23 422.05 41.87 449.59 9.9 M 370.31 102.63 C 392.05 79.48 411.95 57.69 451 9.8 M 369.75 104.79 C 403.9 69.54 433.11 32.07 452.41 9.7 M 369.85 106.2 C 390.97 83.81 411.34 58.32 453.17 10.36 M 369.95 107.61 C 395.16 75.44 422.72 46.52 454.58 10.26 M 370.04 109.03 C 390.56 82.75 415.86 56.5 455.99 10.16 M 370.14 110.44 C 402.31 70.94 436.98 29.95 457.4 10.06 M 370.24 111.85 C 397.11 77.11 426.07 46.06 458.81 9.96 M 369.68 114.01 C 398.49 79.94 429.86 47.4 460.22 9.86 M 369.78 115.42 C 393.29 88.43 415.9 59.52 461.63 9.76 M 369.88 116.83 C 400.12 80.55 431.36 46.64 463.04 9.66 M 369.98 118.24 C 404.43 80.01 435.66 43.01 463.8 10.32 M 370.08 119.66 C 396.62 87.56 424.44 61.07 465.21 10.22 M 370.18 121.07 C 397.72 86.1 427.94 55.9 466.62 10.12 M 370.28 122.48 C 400.96 82.85 436.43 45.42 468.03 10.03 M 369.72 124.64 C 405.58 79.7 444.69 39.04 469.44 9.93 M 369.82 126.05 C 408.63 81.05 448.64 36.64 470.85 9.83 M 369.92 127.46 C 395.75 98.23 424.16 68.5 472.26 9.73 M 370.01 128.87 C 396.55 97.85 422.72 66.67 473.67 9.63 M 370.11 130.29 C 394.83 106.14 413.49 79.97 474.43 10.29 M 370.21 131.7 C 393.97 102.3 418.81 75.12 475.84 10.19 M 370.31 133.11 C 394.08 104.94 416.34 78.54 477.25 10.09 M 369.75 135.27 C 394.43 109.77 416.97 82.39 478.66 9.99 M 369.85 136.68 C 399.88 99.26 430.79 65.15 480.07 9.89 M 369.95 138.09 C 394.36 110.48 422.34 80.08 481.48 9.79 M 370.05 139.5 C 396.1 108.66 427 75.14 482.89 9.69 M 370.15 140.92 C 405.29 101.64 434.08 67.41 483.65 10.35 M 370.25 142.33 C 413.9 94.03 456.23 40.94 485.06 10.25 M 369.69 144.49 C 408.29 97.94 450.03 49.04 486.47 10.15 M 369.79 145.9 C 415.51 92.3 460.54 40.41 487.88 10.05 M 369.89 147.31 C 393.67 116.85 421.32 87.39 489.29 9.96 M 369.99 148.72 C 409.08 103.45 449.27 55.39 490.7 9.86 M 370.08 150.13 C 399.37 114.36 429.59 82.53 492.11 9.76 M 370.18 151.55 C 409.03 110.66 444.02 68 493.52 9.66 M 370.28 152.96 C 404.7 117.38 435.28 77.39 494.28 10.32 M 369.72 155.12 C 409.68 110.76 449.28 64.36 495.69 10.22 M 369.82 156.53 C 406.45 115.47 442.6 72.04 497.1 10.12 M 369.92 157.94 C 398 126.2 426.01 91.97 498.51 10.02 M 370.02 159.35 C 394.31 128.1 422.17 97.08 499.92 9.92 M 370.12 160.76 C 413.14 106.51 458.9 56.25 501.33 9.82 M 370.22 162.18 C 414.52 111.54 462.67 58.24 502.74 9.72 M 370.32 163.59 C 422.93 103.14 478.27 43.06 504.15 9.63 M 369.76 165.75 C 412.55 117.24 456.52 69.6 504.91 10.28 M 369.86 167.16 C 422.77 105.84 473.53 45.56 506.32 10.18 M 369.96 168.57 C 425.15 104.84 477.59 43.23 507.73 10.08 M 370.05 169.98 C 406.86 129.77 441.17 88 509.14 9.99 M 370.15 171.39 C 421.75 112.01 474.91 50.21 510.55 9.89 M 370.25 172.81 C 401.79 136.02 434.07 100.67 511.96 9.79 M 369.69 174.97 C 415.75 121.97 462.43 66.73 513.37 9.69 M 369.79 176.38 C 400.15 139.41 431.75 102.03 514.13 10.35 M 369.89 177.79 C 412.96 131.56 452.63 84.3 515.54 10.25 M 369.99 179.2 C 403.43 139.4 435.89 102.31 516.95 10.15 M 370.09 180.61 C 418.78 122.72 468.01 63.56 518.36 10.05 M 370.19 182.02 C 416.06 128.43 463.81 72.3 519.77 9.95 M 370.29 183.44 C 403.93 147.1 435.61 111.61 521.18 9.85 M 369.73 185.6 C 425.26 120.12 482.54 58.51 522.59 9.75 M 369.83 187.01 C 419.66 132.26 469.11 75.83 524 9.66 M 369.93 188.42 C 424.61 126.29 476.63 65.68 524.76 10.31 M 370.02 189.83 C 413.02 136.99 456.37 87.87 526.17 10.21 M 370.12 191.24 C 399.66 152.67 432.89 116.4 527.58 10.11 M 370.22 192.66 C 414.26 141.25 457.19 92.73 528.99 10.02 M 370.32 194.07 C 424.91 130.81 475.83 69.24 530.4 9.92 M 369.76 196.23 C 417.56 143.28 464.74 87.92 531.81 9.82 M 369.86 197.64 C 417.64 144.32 465.46 88.8 533.22 9.72 M 369.96 199.05 C 420.92 141.46 471.92 82.88 533.98 10.38 M 370.06 200.46 C 413.12 150.7 456.29 98.91 535.39 10.28 M 370.16 201.87 C 432.61 131.5 491.18 63.41 536.8 10.18 M 370.26 203.29 C 431.28 129.92 494.22 57 538.21 10.08 M 369.7 205.45 C 411.57 154.25 455.07 106.35 539.62 9.98 M 369.8 206.86 C 426.69 140.25 487.49 71.13 541.03 9.88 M 369.9 208.27 C 420.46 149.96 473.1 89.43 542.44 9.78 M 369.99 209.68 C 438.82 130.13 509.14 50.42 543.85 9.68 M 370.09 211.09 C 407.51 167.47 443.77 126.58 544.61 10.34 M 370.19 212.5 C 431.84 140.45 493.21 70.67 546.02 10.24 M 370.29 213.92 C 414.39 166.87 455.01 117.67 547.43 10.14 M 369.73 216.08 C 420.85 156.49 472.29 97.18 548.84 10.05 M 369.83 217.49 C 411.77 169.73 453.34 119.89 550.25 9.95 M 369.93 218.9 C 418.54 164.34 469 107.91 551.66 9.85 M 370.03 220.31 C 409.85 176.93 449.64 131.63 553.07 9.75 M 370.13 221.72 C 442.72 140.15 512.23 55.73 554.48 9.65 M 370.23 223.13 C 415.16 172.23 459.26 121.5 555.24 10.31 M 370.33 224.55 C 422.99 164.44 475 103.04 556.65 10.21 M 369.77 226.71 C 436.47 150.7 504.54 71.46 558.06 10.11 M 369.87 228.12 C 412.32 182.72 450.53 135.54 559.47 10.01 M 369.97 229.53 C 422.87 166.62 477.8 105.26 560.88 9.91 M 370.06 230.94 C 434.99 153.33 503.03 75.57 562.29 9.81 M 370.16 232.35 C 431.54 161.33 492.39 91.73 563.7 9.71 M 370.26 233.76 C 423.19 171.72 474.84 111.62 564.45 10.37 M 369.7 235.93 C 429.46 169.31 486.94 103.52 565.87 10.27 M 369.8 237.34 C 419.4 184.96 465.11 129.47 567.28 10.17 M 369.9 238.75 C 417.67 183.15 467.01 126.23 568.69 10.07 M 370 240.16 C 429.75 176.16 486.96 109.99 570.1 9.98 M 370.1 241.57 C 441.4 163.88 509.52 85.62 571.51 9.88 M 370.2 242.98 C 431.9 170.73 495.11 98.54 572.92 9.78 M 370.3 244.39 C 450.64 152.97 531.35 60.47 574.33 9.68 M 369.74 246.56 C 442.44 163.12 515.45 78.84 575.08 10.34 M 369.84 247.97 C 450.78 157.53 526.7 68.69 576.5 10.24 M 369.94 249.38 C 433.18 175.41 498.36 100.76 577.91 10.14 M 370.03 250.79 C 441.28 171.59 509.59 92.93 579.32 10.04 M 370.13 252.2 C 450.38 160.85 529.95 68.3 580.73 9.94 M 370.23 253.61 C 428.79 186.73 486.59 120.07 582.14 9.84 M 369.67 255.78 C 451.07 162.22 532.32 67.48 583.55 9.74 M 369.77 257.19 C 441.14 176.22 511.88 94.76 584.96 9.65 M 369.87 258.6 C 421.58 198.63 472.5 139.36 585.71 10.3 M 369.97 260.01 C 416.64 209.09 459.75 157.82 587.13 10.2 M 370.07 261.42 C 428.02 196.67 485.11 129.18 588.54 10.1 M 370.17 262.83 C 448.76 173.07 527.17 83.17 589.95 10.01 M 370.27 264.24 C 423.49 204.69 474.88 143.39 591.36 9.91 M 369.71 266.41 C 425.42 202.58 480.67 139.92 592.77 9.81 M 369.81 267.82 C 436.12 189.9 503.31 116.26 594.18 9.71 M 369.91 269.23 C 436.98 191.08 504.05 115.8 594.93 10.37 M 370 270.64 C 423.02 209.74 476.78 146.88 596.35 10.27 M 370.1 272.05 C 457.46 174.04 543.89 73.91 597.76 10.17 M 370.2 273.46 C 458.39 170.52 548.59 66.99 599.17 10.07 M 370.3 274.87 C 448.47 184.33 525.45 92.97 600.58 9.97 M 369.74 277.04 C 443.4 192.86 516.88 107.48 601.99 9.87 M 369.84 278.45 C 440.19 196.21 509.63 116.21 603.4 9.77 M 369.94 279.86 C 434.88 206.39 499.55 130.37 604.81 9.68 M 370.04 281.27 C 459.16 176.59 550.29 75.2 605.56 10.33 M 370.14 282.68 C 450.45 188.82 530.99 96.6 606.98 10.23 M 370.24 284.09 C 419.03 229.16 468.53 170.65 608.39 10.13 M 369.68 286.26 C 434.48 213.28 498.35 139.98 609.8 10.04 M 369.78 287.67 C 424.09 225.7 479.02 164.67 611.21 9.94 M 369.88 289.08 C 461.04 184.27 553.9 77.58 612.62 9.84 M 369.97 290.49 C 420.5 232.91 470.11 176.08 614.03 9.74 M 370.07 291.9 C 435.28 217.83 499.23 141.33 615.44 9.64 M 370.17 293.31 C 461.2 189.66 551.86 84.84 616.19 10.3 M 370.27 294.72 C 438.19 218.15 505.08 142.88 617.61 10.2 M 369.71 296.89 C 445.54 211.15 521.04 125.48 619.02 10.1 M 369.81 298.3 C 462.78 191.69 557.57 83.98 620.43 10 M 369.91 299.71 C 430.28 231.79 489.96 164.4 621.84 9.9 M 370.01 301.12 C 438.55 222.81 508.23 143.08 623.25 9.8 M 370.11 302.53 C 423.02 240.29 477.03 179.67 624.66 9.7 M 370.21 303.94 C 444.85 221.71 517.08 137.79 625.41 10.36 M 370.31 305.35 C 458.22 204.3 544.63 105.24 626.82 10.26 M 369.75 307.52 C 426.03 241.5 485.77 175.48 628.24 10.16 M 369.85 308.93 C 463.19 204.1 555.11 95.59 629.65 10.06 M 369.95 310.34 C 446.09 221.72 521.88 135.06 631.06 9.97 M 370.04 311.75 C 451.21 219.45 531.82 126.9 632.47 9.87 M 370.14 313.16 C 463.98 204.68 558.7 96.1 633.88 9.77 M 370.24 314.57 C 444.02 229.48 516.5 147.15 635.29 9.67 M 369.68 316.74 C 443.12 235.04 515.32 151.74 636.04 10.33 M 369.78 318.15 C 444.5 231.91 517.89 148.54 637.45 10.23 M 369.88 319.56 C 452.57 224.67 535.63 127.54 638.87 10.13 M 369.98 320.97 C 473.79 199.59 580.87 78.06 640.28 10.03 M 370.08 322.38 C 451.33 228.48 532.84 135.5 641.69 9.93 M 370.18 323.79 C 446.88 237.56 520.98 151.28 643.1 9.83 M 370.28 325.2 C 452.36 234.02 531.56 142.94 644.51 9.73 M 369.72 327.37 C 439.23 246.58 509.57 165.1 645.92 9.64 M 369.82 328.78 C 439.24 250.13 507.36 172.58 646.67 10.29 M 369.92 330.19 C 439.9 248.77 510.79 166.47 648.08 10.19 M 370.01 331.6 C 461.13 227.01 552.32 120.67 649.5 10.09 M 370.11 333.01 C 459.07 233.29 544.56 132.43 650.91 10 M 370.21 334.42 C 478.95 210.09 585.74 88.91 652.32 9.9 M 370.31 335.83 C 447.75 250.64 522.19 162.68 653.73 9.8 M 369.75 338 C 435.39 264.19 499.88 191.71 655.14 9.7 M 369.85 339.41 C 456.49 236.9 546.01 134.83 655.89 10.36 M 369.95 340.82 C 471.87 223.55 573.36 107.55 657.3 10.26 M 370.05 342.23 C 445.09 254.43 522.86 166.57 658.71 10.16 M 370.15 343.64 C 482.97 212.59 595.28 83.87 660.13 10.06 M 370.25 345.05 C 464.76 239.77 557.33 134.29 661.54 9.96 M 369.69 347.22 C 430.91 276.89 493.28 204.5 662.95 9.86 M 369.79 348.63 C 461.99 241.46 556.18 135.65 664.36 9.76 M 369.89 350.04 C 432.87 275.13 497.13 202.11 665.77 9.67 M 369.98 351.45 C 456.79 251.38 543.51 150.37 666.52 10.32 M 370.08 352.86 C 432.33 281.03 494.16 209.08 667.93 10.22 M 370.18 354.27 C 486.84 219.34 602.54 87.54 669.34 10.12 M 370.28 355.68 C 457.55 253.02 546.52 150.75 670.76 10.03 M 369.72 357.85 C 468.26 246.01 565.57 135 672.17 9.93 M 369.82 359.26 C 484.91 227.4 600.73 95.92 673.58 9.83 M 369.92 360.67 C 476.71 237.73 585.08 113.81 674.99 9.73 M 370.02 362.08 C 438.48 284.15 505.22 207.2 676.4 9.63 M 370.12 363.49 C 485.08 231.62 599 100.38 677.15 10.29 M 370.22 364.9 C 480.39 238.94 587.29 114.34 678.56 10.19 M 370.32 366.31 C 432.03 294.97 494.95 223.69 679.97 10.09 M 369.76 368.48 C 482.17 239.82 593.48 113.02 681.39 9.99 M 369.86 369.89 C 472.86 252.17 576.48 132.82 682.8 9.89 M 370.61 370.55 C 483.75 242.93 594.32 114.55 684.21 9.79 M 372.02 370.45 C 439.71 294.5 505.55 217.58 685.62 9.7 M 373.43 370.35 C 462.85 266.02 553.23 162.49 686.37 10.35 M 374.84 370.25 C 495.76 230.5 618.75 90.43 687.78 10.25 M 375.6 370.91 C 441.31 295.69 507.54 219.88 689.19 10.15 M 377.01 370.81 C 499.26 232.3 621.33 90.64 690.61 10.06 M 378.42 370.71 C 495.11 235.15 612.85 100.08 692.02 9.96 M 379.83 370.61 C 456.42 280.43 534.23 190.28 693.43 9.86 M 381.24 370.51 C 484.4 253.06 587.74 134.81 694.84 9.76 M 382.65 370.41 C 452.99 290.04 524.29 208.69 696.25 9.66 M 384.06 370.31 C 504.52 233.3 623.16 95.71 697 10.32 M 385.47 370.21 C 483 259.45 580.35 147.36 698.41 10.22 M 386.23 370.87 C 486.68 255.63 585.08 141.54 699.82 10.12 M 387.64 370.77 C 492.11 249.96 596.72 129.45 701.24 10.02 M 389.05 370.67 C 470.4 277.2 550.58 184.15 702.65 9.92 M 390.46 370.57 C 479.5 265.95 569.19 164.22 704.06 9.82 M 391.87 370.48 C 508.15 236.5 625.71 100.58 705.47 9.72 M 393.28 370.38 C 464 291.02 534.08 208.93 706.88 9.63 M 394.69 370.28 C 504.99 244.5 614.22 117.74 707.63 10.28 M 396.1 370.18 C 519.1 228.87 640.72 88.06 709.04 10.18 M 396.86 370.84 C 489.22 263.19 581.86 155.17 710.45 10.08 M 398.27 370.74 C 499.75 255.81 597.97 141.59 711.87 9.99 M 399.68 370.64 C 464.47 297.09 529.76 221.65 713.28 9.89 M 401.09 370.54 C 511.64 245.64 620.41 119.36 714.69 9.79 M 402.5 370.44 C 489.04 272.62 574.93 174.14 716.1 9.69 M 403.91 370.34 C 510.08 247.57 615.38 126.08 716.85 10.35 M 405.32 370.24 C 517.02 239.49 629.37 110.92 718.26 10.25 M 406.08 370.9 C 527.45 232.29 647.68 93.03 719.67 10.15 M 407.49 370.8 C 497.27 265.5 586.95 162.79 721.08 10.05 M 408.9 370.7 C 511.64 254.32 612.63 137.81 722.5 9.95 M 410.31 370.6 C 516.24 250.88 620.43 130.8 723.91 9.85 M 411.72 370.51 C 486.21 283.74 562.73 196.35 725.32 9.75 M 413.13 370.41 C 510.89 259.95 608.74 147.82 726.73 9.66 M 414.54 370.31 C 479.89 296.03 543.98 223.17 727.48 10.31 M 415.95 370.21 C 494.25 280.1 573.27 189.36 728.89 10.21 M 416.71 370.87 C 528.63 242.41 641.08 114.84 730.3 10.11 M 418.12 370.77 C 515.15 258.23 613.57 144.53 730.4 11.53 M 419.53 370.67 C 492.65 286.49 562.91 203.9 730.5 12.94 M 420.94 370.57 C 494.14 285.95 567.74 201.01 729.94 15.1 M 422.35 370.47 C 506.78 273.25 591.1 175.57 730.04 16.51 M 423.76 370.37 C 502.71 278.31 583.43 184.71 730.14 17.92 M 425.17 370.27 C 531.72 247.52 638.44 124.67 730.24 19.33 M 426.58 370.18 C 548.82 232.89 667.18 94.23 730.34 20.74 M 427.34 370.83 C 506.34 282.9 581.85 195.26 730.44 22.16 M 428.75 370.73 C 521.55 263.43 614.18 155.77 730.54 23.57 M 430.16 370.63 C 496.8 295.47 564.19 216.72 729.98 25.73 M 431.57 370.54 C 499.72 291.8 566.81 213.81 730.08 27.14 M 432.98 370.44 C 508.8 282.98 584.92 196.21 730.18 28.55 M 434.39 370.34 C 495.27 299.78 556.69 229.56 730.27 29.96 M 435.8 370.24 C 497.54 299.43 559.41 227.02 730.37 31.37 M 436.56 370.9 C 506.27 290.75 576.18 210.91 730.47 32.79 M 437.97 370.8 C 536.8 257.26 636.77 142.1 729.91 34.95 M 439.38 370.7 C 528.51 268.63 616.54 166.56 730.01 36.36 M 440.79 370.6 C 550.37 241.17 661.47 114.2 730.11 37.77 M 442.2 370.5 C 530.05 267.63 619.13 165.81 730.21 39.18 M 443.61 370.4 C 527.19 276.61 609.14 181.27 730.31 40.59 M 445.02 370.3 C 539.66 260.22 633.82 152.43 730.41 42 M 446.43 370.2 C 535.95 266.94 626.52 164.2 730.51 43.42 M 447.19 370.86 C 542.69 263.05 634.78 153.92 729.95 45.58 M 448.6 370.76 C 552.83 251.52 657.45 130.05 730.05 46.99 M 450.01 370.66 C 514.93 297.1 578.45 224.24 730.15 48.4 M 451.42 370.57 C 534.97 276.14 616.39 183.27 730.24 49.81 M 452.83 370.47 C 560.46 247.57 668.89 122.71 730.34 51.22 M 454.24 370.37 C 558.48 247.73 662.68 127.78 730.44 52.64 M 455.65 370.27 C 540.79 270.68 628.33 171.78 730.54 54.05 M 457.06 370.17 C 538.72 275.77 621.22 180.61 729.98 56.21 M 457.82 370.83 C 552.35 263.02 643.47 157.51 730.08 57.62 M 459.23 370.73 C 514.76 307.02 569.11 243.12 730.18 59.03 M 460.64 370.63 C 541.53 274.22 626.65 178.63 730.28 60.44 M 462.05 370.53 C 522.74 298.13 584.94 224.9 730.38 61.85 M 463.46 370.43 C 534.52 290.03 603.12 209.09 730.48 63.27 M 464.87 370.33 C 528.98 297.53 592.3 224.46 729.92 65.43 M 466.28 370.23 C 551.1 268.73 640.28 167.59 730.02 66.84 M 467.04 370.89 C 544.19 282.62 621.15 193.87 730.12 68.25 M 468.45 370.79 C 524.35 305.61 580.22 240.92 730.21 69.66 M 469.86 370.69 C 572.93 251.87 675.96 132.9 730.31 71.07 M 471.27 370.59 C 545.26 284.44 618.53 200.53 730.41 72.48 M 472.68 370.5 C 571.99 254.92 671.7 140.28 730.51 73.9 M 474.09 370.4 C 536.03 296.04 600.74 222.79 729.95 76.06 M 475.5 370.3 C 543.64 291.89 612.55 210.63 730.05 77.47 M 476.91 370.2 C 543.39 293.75 610.84 215.35 730.15 78.88 M 477.67 370.86 C 562.51 276.63 643.85 182.52 730.25 80.29 M 479.08 370.76 C 534.01 307.77 588.54 247.04 730.35 81.7 M 480.49 370.66 C 581.95 255.55 681.4 139.92 730.45 83.11 M 481.9 370.56 C 577.92 263.9 670.71 156.4 730.55 84.53 M 483.31 370.46 C 539.36 303.54 598.74 237.08 729.99 86.69 M 484.72 370.36 C 569.82 272.31 655.66 172.56 730.09 88.1 M 486.13 370.26 C 581.7 261.17 676.83 153.93 730.19 89.51 M 487.54 370.17 C 560.19 284.47 632.99 201.09 730.28 90.92 M 488.3 370.82 C 571.78 278.23 652.59 184.48 730.38 92.33 M 489.71 370.72 C 561.84 291.97 629.14 210.63 730.48 93.74 M 491.12 370.62 C 580.34 267.65 669.67 163.88 729.92 95.91 M 492.53 370.53 C 568.08 282.55 645.9 194.95 730.02 97.32 M 493.94 370.43 C 578.46 271.5 662.68 175.01 730.12 98.73 M 495.35 370.33 C 557.61 297.1 621.01 225.69 730.22 100.14 M 496.76 370.23 C 587.97 264.63 680.31 160.95 730.32 101.55 M 497.52 370.89 C 571.17 285.26 645.73 202.34 730.42 102.96 M 498.93 370.79 C 578.1 278.66 659.74 186 730.52 104.37 M 500.34 370.69 C 569.48 291.69 637.16 214.25 729.96 106.54 M 501.75 370.59 C 589.71 271.24 677.19 171 730.06 107.95 M 503.16 370.49 C 584.07 277.74 662.18 187.67 730.16 109.36 M 504.57 370.39 C 558.15 308.17 614.29 242.75 730.25 110.77 M 505.98 370.29 C 549.97 316.5 596.38 264.11 730.35 112.18 M 507.39 370.2 C 595.05 270.48 680.55 167.64 730.45 113.59 M 508.15 370.85 C 570.46 297.21 633.62 222.48 730.55 115 M 509.56 370.75 C 578.07 294.11 644.16 218.22 729.99 117.17 M 510.97 370.65 C 598.97 273.31 686.13 172.32 730.09 118.58 M 512.38 370.56 C 591.85 278.24 672.93 185 730.19 119.99 M 513.79 370.46 C 599.05 272.98 682.12 179.02 730.29 121.4 M 515.2 370.36 C 574.45 301.89 631.99 235.46 730.39 122.81 M 516.61 370.26 C 575.05 303.29 631.18 235.68 730.49 124.22 M 518.02 370.16 C 601.08 274.53 685.39 178.45 729.93 126.39 M 518.78 370.82 C 583.66 297.43 645.36 225.78 730.03 127.8 M 520.19 370.72 C 566.52 317.19 612.72 262.81 730.13 129.21 M 521.6 370.62 C 568.58 312.2 619.04 257.3 730.22 130.62 M 523.01 370.52 C 568.51 318.84 612.43 269.31 730.32 132.03 M 524.42 370.42 C 577.4 306.32 634.78 242.46 730.42 133.44 M 525.83 370.32 C 593.25 296.47 658.72 218.75 730.52 134.85 M 527.24 370.22 C 582.58 304.99 639.35 241.4 729.96 137.02 M 528 370.88 C 590.67 300.31 650.86 229.51 730.06 138.43 M 529.41 370.78 C 595.8 294.56 663.85 218.76 730.16 139.84 M 530.82 370.68 C 576.61 313.46 626.09 256.59 730.26 141.25 M 532.23 370.59 C 608.99 284.17 684.2 198.52 730.36 142.66 M 533.64 370.49 C 582.64 314.89 631.46 258.83 730.46 144.07 M 535.05 370.39 C 600.58 298.33 662.25 224.3 730.56 145.48 M 536.46 370.29 C 606.92 288.09 680.1 204.79 730 147.65 M 537.87 370.19 C 600.85 298.96 660.32 227.15 730.1 149.06 M 538.63 370.85 C 601.04 298.08 664.63 225.41 730.19 150.47 M 540.04 370.75 C 591.73 313.28 641.45 256.25 730.29 151.88 M 541.45 370.65 C 617.98 282.05 691.25 195.21 730.39 153.29 M 542.86 370.55 C 595.47 309.42 644.76 250.44 730.49 154.7 M 544.27 370.45 C 607.37 298.42 670.26 226.32 729.93 156.87 M 545.68 370.35 C 615.57 288.86 685.58 210.61 730.03 158.28 M 547.09 370.25 C 604.3 303.85 660.94 236.2 730.13 159.69 M 547.84 370.91 C 585.97 325.45 624.87 281.51 730.23 161.1 M 549.26 370.81 C 618.02 291.55 686.92 212.82 730.33 162.51 M 550.67 370.71 C 600.8 313.15 651.42 254.2 730.43 163.92 M 552.08 370.61 C 590.94 326.54 630.07 279.74 730.53 165.33 M 553.49 370.52 C 601.29 313.05 653.31 254.47 729.97 167.5 M 554.9 370.42 C 599.52 319.79 641.99 269.41 730.07 168.91 M 556.31 370.32 C 619.75 294.91 684.24 223.38 730.17 170.32 M 557.72 370.22 C 614.14 306.09 671.24 240.93 730.26 171.73 M 558.48 370.88 C 602.03 320.88 644.62 272.95 730.36 173.14 M 559.89 370.78 C 605.09 319.05 650.94 268.38 730.46 174.55 M 561.3 370.68 C 602.64 320.55 647.17 272.02 729.9 176.72 M 562.71 370.58 C 621.61 303.51 676.37 238.62 730 178.13 M 564.12 370.48 C 605.15 323.63 648.75 273.97 730.1 179.54 M 565.53 370.38 C 604.04 326.2 643.24 282.75 730.2 180.95 M 566.94 370.28 C 619.38 309 674.02 247.27 730.3 182.36 M 568.35 370.19 C 615.44 316.07 662.89 264.53 730.4 183.77 M 569.11 370.84 C 608.89 327.39 649.28 282.1 730.5 185.18 M 570.52 370.74 C 613.96 317.92 660 266.48 729.94 187.35 M 571.93 370.64 C 630.33 301.54 688.16 235.33 730.04 188.76 M 573.34 370.55 C 618.36 316.88 662.64 264.02 730.14 190.17 M 574.75 370.45 C 628.67 309.89 683.43 246.09 730.23 191.58 M 576.16 370.35 C 615.78 327.06 650.64 285.63 730.33 192.99 M 577.57 370.25 C 635.23 303.83 693.12 237.6 730.43 194.4 M 578.32 370.91 C 637.58 300.91 694.9 236.69 730.53 195.81 M 579.74 370.81 C 626.54 317.45 672.32 265.35 729.97 197.98 M 581.15 370.71 C 618.37 328.06 655.32 287.7 730.07 199.39 M 582.56 370.61 C 631.42 315.92 676.17 263.82 730.17 200.8 M 583.97 370.51 C 630.01 318.11 674.16 268.47 730.27 202.21 M 585.38 370.41 C 617.41 333.59 648.74 298.33 730.37 203.62 M 586.79 370.31 C 632.66 317.74 683.18 261.19 730.47 205.03 M 588.2 370.22 C 636.51 314.7 686.2 258.42 729.91 207.2 M 588.95 370.87 C 632.2 324.11 672.85 277.58 730.01 208.61 M 590.37 370.77 C 622.45 332.57 651.8 297.91 730.11 210.02 M 591.78 370.67 C 628.83 330.37 664.18 290.3 730.2 211.43 M 593.19 370.58 C 626.33 329.22 661.74 291.98 730.3 212.84 M 594.6 370.48 C 636.68 322.62 680.31 272.99 730.4 214.25 M 596.01 370.38 C 629.17 336.49 656.83 299.38 730.5 215.66 M 597.42 370.28 C 636.1 328.97 670.34 287.1 729.94 217.83 M 598.83 370.18 C 648.56 313.05 698.12 255.06 730.04 219.24 M 599.58 370.84 C 626.58 339.71 651.21 309.29 730.14 220.65 M 601 370.74 C 642.63 323.72 683.72 273.91 730.24 222.06 M 602.41 370.64 C 645.16 322.83 685.95 272.33 730.34 223.47 M 603.82 370.54 C 637.74 331.11 673.76 287.43 730.44 224.88 M 605.23 370.44 C 645.77 319 689.65 271.62 730.54 226.29 M 606.64 370.34 C 634.76 339.42 663.25 310.35 729.98 228.46 M 608.05 370.24 C 647.2 328.81 684.41 285.17 730.08 229.87 M 608.8 370.9 C 646 328.19 680.88 286.51 730.17 231.28 M 610.21 370.8 C 657.19 314.99 704.86 259.79 730.27 232.69 M 611.63 370.7 C 658.91 318.35 707.91 261.45 730.37 234.1 M 613.04 370.61 C 658.38 322.54 699.66 268.86 730.47 235.51 M 614.45 370.51 C 657.05 320.43 701.62 270.36 729.91 237.68 M 615.86 370.41 C 652.42 326.44 692.34 281.89 730.01 239.09 M 617.27 370.31 C 655.44 326.61 695.82 280.06 730.11 240.5 M 618.68 370.21 C 642.17 343.8 664.6 320.47 730.21 241.91 M 619.43 370.87 C 646.4 342.78 673.05 311.88 730.31 243.32 M 620.84 370.77 C 647.98 339.66 673.6 310.52 730.41 244.73 M 622.26 370.67 C 660.76 327.49 699.47 283.25 730.51 246.14 M 623.67 370.57 C 662.73 323.12 705.57 275.35 729.95 248.31 M 625.08 370.47 C 647.44 347.45 668.88 320.41 730.05 249.72 M 626.49 370.37 C 659.29 332.1 688.84 296.43 730.15 251.13 M 627.9 370.27 C 657.33 337.45 687.92 302.07 730.24 252.54 M 629.31 370.18 C 651.92 345.28 672.62 320.72 730.34 253.95 M 630.06 370.83 C 651.02 347.25 674.17 322.92 730.44 255.36 M 631.47 370.73 C 656.31 344.1 677.69 316.14 730.54 256.77 M 632.89 370.63 C 655.48 349.44 673.28 325.45 729.98 258.94 M 634.3 370.54 C 660.05 341.54 686.5 308.94 730.08 260.35 M 635.71 370.44 C 670.32 328.15 703.15 289.91 730.18 261.76 M 637.12 370.34 C 655.78 349.81 674.82 323.76 730.28 263.17 M 638.53 370.24 C 672.59 329.51 706.18 289.61 730.38 264.58 M 639.28 370.9 C 663.28 341.18 688.52 313.72 730.48 265.99 M 640.69 370.8 C 671.65 334.11 705.54 293.13 729.92 268.16 M 642.11 370.7 C 673.5 334.91 706.62 298.05 730.02 269.57 M 643.52 370.6 C 665.63 346.9 685.78 320.29 730.12 270.98 M 644.93 370.5 C 666.4 346.63 688.21 321.55 730.21 272.39 M 646.34 370.4 C 675.19 338.16 703.58 304.96 730.31 273.8 M 647.75 370.3 C 671.64 344.47 694.15 319.4 730.41 275.21 M 649.16 370.21 C 671.4 344.09 695.39 318.3 730.51 276.62 M 649.91 370.86 C 671.79 344.47 698.09 316.3 729.95 278.79 M 651.32 370.76 C 677.3 338.41 705.24 309.66 730.05 280.2 M 652.74 370.66 C 674.93 346.47 695.99 318.67 730.15 281.61 M 654.15 370.57 C 677.46 345.18 697.55 317.94 730.25 283.02 M 655.56 370.47 C 673.42 352.09 689.14 333.53 730.35 284.43 M 656.97 370.37 C 676.82 345.96 699.82 320.22 730.45 285.84 M 658.38 370.27 C 675.87 352.17 688.15 334.75 730.54 287.25 M 659.79 370.17 C 682.26 345.13 706.52 316.99 729.99 289.42 M 660.54 370.83 C 689.23 342.05 715.39 311.04 730.09 290.83 M 661.95 370.73 C 680.54 350.43 696.15 330.25 730.18 292.24 M 663.37 370.63 C 688.68 341.22 717.86 311.72 730.28 293.65 M 664.78 370.53 C 681.36 351.19 696.29 332.92 730.38 295.06 M 666.19 370.43 C 691.17 339.32 717.38 310.25 730.48 296.47 M 667.6 370.33 C 684.95 350.2 706.43 328.75 729.92 298.64 M 669.01 370.24 C 685.07 350.47 703.62 330.5 730.02 300.05 M 669.76 370.89 C 682.5 356.94 695.05 339.62 730.12 301.46 M 671.17 370.79 C 683.11 357.15 697.31 343.27 730.22 302.87 M 672.58 370.69 C 690.28 348.04 709.91 327.74 730.32 304.28 M 674 370.6 C 696.43 344.27 718.5 321.33 730.42 305.69 M 675.41 370.5 C 692.53 349.38 706.97 329.77 730.52 307.1 M 676.82 370.4 C 689.86 354.75 706.61 335.62 729.96 309.27 M 678.23 370.3 C 698.81 347.96 715.38 327.28 730.06 310.68 M 679.64 370.2 C 696.99 349.68 719.92 324.42 730.15 312.09 M 680.39 370.86 C 695.01 353.77 710.07 338.83 730.25 313.5 M 681.8 370.76 C 696.77 352.25 714.86 330.48 730.35 314.91 M 683.21 370.66 C 695.62 354.95 709.09 339.11 730.45 316.32 M 684.63 370.56 C 697.08 357.6 704.52 345.26 730.55 317.73 M 686.04 370.46 C 703.29 353.29 717.47 331.66 729.99 319.9 M 687.45 370.36 C 699.95 358.29 710.97 345.77 730.09 321.31 M 688.86 370.26 C 703.17 351.31 720.34 335.99 730.19 322.72 M 690.27 370.17 C 706.93 351.06 720.39 334.97 730.29 324.13 M 691.02 370.82 C 704.07 355.63 720.36 335.8 730.39 325.54 M 692.43 370.72 C 702.42 358.94 710.7 350.37 730.49 326.95 M 693.84 370.63 C 702.09 361.81 706.85 354.75 729.93 329.12 M 695.26 370.53 C 701.94 360.59 710.19 353.79 730.03 330.53 M 696.67 370.43 C 706.14 360.7 717.19 348.46 730.13 331.94 M 698.08 370.33 C 705.96 358.65 716.62 348.81 730.22 333.35 M 699.49 370.23 C 709.2 362.66 713.68 351.83 730.32 334.76 M 700.24 370.89 C 710.72 355.61 725.22 345.62 730.42 336.17 M 701.65 370.79 C 710.86 362.99 718.52 352.79 730.52 337.58 M 703.06 370.69 C 710.82 362.71 717.45 355.94 729.96 339.75 M 704.47 370.59 C 713.17 358.62 721.21 348.45 730.06 341.16 M 705.89 370.49 C 714.62 360.49 719.1 354.82 730.16 342.57 M 707.3 370.39 C 714.22 363.16 723.2 353.95 730.26 343.98 M 708.71 370.29 C 716.04 363.82 723.67 352.84 730.36 345.39 M 710.12 370.2 C 716.6 362.25 723.19 353.65 730.46 346.8 M 710.87 370.85 C 714.04 367.01 720.36 360.44 730.55 348.21 M 712.28 370.75 C 720.37 360.97 727.87 354.35 730 350.38 M 713.69 370.65 C 719.04 362.85 726.27 356.74 730.1 351.79 M 715.1 370.56 C 718.76 366.41 720.59 361.28 730.19 353.2 M 716.52 370.46 C 721.66 364.69 728.81 357.58 730.29 354.61 M 717.93 370.36 C 720.15 367.7 725.07 363.08 730.39 356.02 M 719.34 370.26 C 723.01 365.55 727.36 363.08 730.49 357.43 M 720.75 370.16 C 722.36 366.96 723.49 366.03 729.93 359.6 M 721.5 370.82 C 723.35 369.42 725.03 366.21 730.03 361.01 M 722.91 370.72 C 725.41 367.33 726.78 365.98 730.13 362.42 M 724.32 370.62 C 725.77 369.36 727.85 367.46 730.23 363.83 M 725.73 370.52 C 727.37 369.68 728.88 366.75 730.33 365.24 M 727.15 370.42 C 727.73 369.2 728.41 368.73 730.43 366.65 M 728.56 370.32 C 728.94 369.99 729.52 369.38 730.52 368.06" fill="none" stroke="#eeeeee" stroke-width="0.5" stroke-linejoin="round" stroke-linecap="round" stroke-miterlimit="10" pointer-events="all"/></g><g><g fill="rgb(0, 0, 0)" font-family="Helvetica" font-weight="bold" text-anchor="middle" font-size="22px"><text x="549.5" y="37.5">十进制转二进制</text></g></g><g><rect x="10" y="10" width="360" height="360" fill="none" stroke="none" pointer-events="all"/><path d="M 10.31 9.64 C 10.31 9.64 10.31 9.64 10.31 9.64 M 9.75 11.81 C 10.45 11.38 10.9 10.49 11.07 10.3 M 9.85 13.22 C 10.73 12.48 11.87 11.14 12.48 10.2 M 9.95 14.63 C 10.64 13.86 12.45 11.52 13.89 10.1 M 10.05 16.04 C 11.49 13.24 15.01 11.98 15.3 10 M 10.15 17.45 C 12.98 14.95 15.84 11.21 16.71 9.9 M 10.25 18.86 C 13.25 14.63 16.93 11.8 18.12 9.8 M 9.69 21.03 C 12.22 16.16 16.33 14.74 19.53 9.71 M 9.79 22.44 C 13.74 16.42 17.72 13.36 20.29 10.36 M 9.89 23.85 C 14.33 20.81 14.7 17.14 21.7 10.26 M 9.99 25.26 C 14.22 21.09 18.13 14.49 23.11 10.16 M 10.08 26.67 C 12.57 23.35 17.12 16.31 24.52 10.07 M 10.18 28.08 C 16.97 20.55 23.19 13.11 25.93 9.97 M 10.28 29.49 C 17.19 22.58 23.9 15.5 27.34 9.87 M 9.72 31.66 C 18.29 23.31 22.87 14.53 28.75 9.77 M 9.82 33.07 C 16.53 23.94 21.74 17.23 30.16 9.67 M 9.92 34.48 C 15.96 29.47 18.54 22.82 30.92 10.33 M 10.02 35.89 C 19.59 24.96 26.23 18.3 32.33 10.23 M 10.12 37.3 C 16.04 29.37 21.6 26.59 33.74 10.13 M 10.22 38.71 C 18.84 32.15 24.81 24.19 35.15 10.03 M 10.32 40.12 C 18.88 29.38 30.45 18.85 36.56 9.93 M 9.76 42.29 C 16.93 33.27 25.29 25.13 37.97 9.83 M 9.86 43.7 C 20.84 30.73 31.12 22.64 39.38 9.74 M 9.96 45.11 C 17.9 32.66 27.73 24.83 40.79 9.64 M 10.06 46.52 C 21.59 31.65 33.56 16.04 41.55 10.29 M 10.15 47.93 C 15.66 39.46 26.37 31.31 42.96 10.19 M 10.25 49.34 C 20.2 38.34 26.99 28.6 44.37 10.1 M 9.7 51.51 C 19.18 43.16 26.89 33.63 45.78 10 M 9.79 52.92 C 22.49 40.75 35.01 27.57 47.19 9.9 M 9.89 54.33 C 23.73 36.38 38.66 18.24 48.6 9.8 M 9.99 55.74 C 23.93 41.57 34.79 25.63 50.01 9.7 M 10.09 57.15 C 26.06 39.86 41.26 24.23 50.77 10.36 M 10.19 58.56 C 25.48 43.76 40.23 27.29 52.18 10.26 M 10.29 59.97 C 26.34 42.63 41.39 27.55 53.59 10.16 M 9.73 62.14 C 23.62 48.22 36.3 29.72 55 10.06 M 9.83 63.55 C 23.59 49.81 33.53 35.37 56.41 9.96 M 9.93 64.96 C 28.22 41.99 45.36 23.54 57.82 9.86 M 10.03 66.37 C 20.62 51.4 33.59 40.49 59.23 9.76 M 10.12 67.78 C 31.78 45.26 49.61 22.5 60.64 9.67 M 10.22 69.19 C 27.2 46.08 47.96 27.25 61.4 10.32 M 10.32 70.6 C 28.46 50.4 48.35 29.09 62.81 10.22 M 9.76 72.77 C 27.41 52.53 42.46 33.62 64.22 10.12 M 9.86 74.18 C 32.05 48.17 52.92 23.49 65.63 10.03 M 9.96 75.59 C 30.95 52.17 49.21 25.67 67.04 9.93 M 10.06 77 C 27.96 56.43 42.55 40.82 68.45 9.83 M 10.16 78.41 C 31.51 51.51 54.03 27.42 69.86 9.73 M 10.26 79.82 C 25.39 62.95 40.36 47.32 71.27 9.63 M 9.7 81.99 C 22.42 65.94 37.67 50.93 72.03 10.29 M 9.8 83.4 C 21.74 67.19 35.05 54.91 73.44 10.19 M 9.9 84.81 C 23.74 68.1 39.09 49.81 74.85 10.09 M 10 86.22 C 37.52 53.97 61.51 23.81 76.26 9.99 M 10.09 87.63 C 36.24 60.04 60.72 29.81 77.67 9.89 M 10.19 89.04 C 29.54 66.95 47.68 49.26 79.08 9.79 M 10.29 90.45 C 37.22 63.26 62.65 32.53 80.49 9.7 M 9.73 92.62 C 26.81 73.16 41.99 52.81 81.24 10.35 M 9.83 94.03 C 30.21 68.84 51.94 44.22 82.66 10.25 M 9.93 95.44 C 25.77 77.64 39.67 60.74 84.07 10.15 M 10.03 96.85 C 27.6 74 45.85 54.96 85.48 10.06 M 10.13 98.26 C 39.3 64.98 67.69 29.55 86.89 9.96 M 10.23 99.67 C 38.63 66.29 70.15 30.76 88.3 9.86 M 10.33 101.08 C 32.79 74.97 58.22 46.64 89.71 9.76 M 9.77 103.25 C 38.09 69.44 64.06 39.75 91.12 9.66 M 9.87 104.66 C 28.73 79.65 48.83 59.69 91.87 10.32 M 9.97 106.07 C 32.28 77.78 55.99 51.69 93.29 10.22 M 10.06 107.48 C 40.41 69.53 75.22 34.11 94.7 10.12 M 10.16 108.89 C 41.72 72.9 75.31 35.09 96.11 10.02 M 10.26 110.3 C 34.01 79.84 61.45 52.67 97.52 9.92 M 9.7 112.46 C 31.01 87.05 49.77 65.82 98.93 9.82 M 9.8 113.88 C 34.33 88.22 56.51 58.15 100.34 9.73 M 9.9 115.29 C 33.1 86.69 57.25 60.39 101.75 9.63 M 10 116.7 C 40.62 82.86 71.38 48.88 102.51 10.28 M 10.1 118.11 C 33.77 89.41 60.55 61.06 103.92 10.18 M 10.2 119.52 C 39.2 87.68 68.26 54.3 105.33 10.09 M 10.3 120.93 C 46 83.4 75.03 46.85 106.74 9.99 M 9.74 123.09 C 31.53 99.88 52.8 75.36 108.15 9.89 M 9.84 124.51 C 45.79 82.77 85.41 37.85 109.56 9.79 M 9.94 125.92 C 50.43 79.08 88.29 33.74 110.97 9.69 M 10.04 127.33 C 45.76 84.75 84.9 43.57 111.72 10.35 M 10.13 128.74 C 31.91 104.23 52.74 77.7 113.14 10.25 M 10.23 130.15 C 40.78 92.3 69.95 56.4 114.55 10.15 M 9.68 132.31 C 36.02 101.39 59.78 74.3 115.96 10.05 M 9.77 133.72 C 45.56 94.03 76.38 56.44 117.37 9.95 M 9.87 135.14 C 51.47 84.94 94.31 39 118.78 9.85 M 9.97 136.55 C 49.28 90.57 91.43 43.99 120.19 9.76 M 10.07 137.96 C 35.43 106.98 59.77 77.81 121.6 9.66 M 10.17 139.37 C 50.16 94.96 87.66 47.95 122.35 10.31 M 10.27 140.78 C 52.43 92.16 96.22 39.91 123.77 10.21 M 9.71 142.94 C 39.05 112.44 66.33 79.08 125.18 10.12 M 9.81 144.35 C 56.35 91.84 101.05 39.85 126.59 10.02 M 9.91 145.77 C 50.96 101.17 88.38 54.85 128 9.92 M 10.01 147.18 C 48.22 103.08 86.18 59.02 129.41 9.82 M 10.1 148.59 C 35.85 119.52 64.35 89.48 130.82 9.72 M 10.2 150 C 39.89 116.33 66.81 84.33 131.57 10.38 M 10.3 151.41 C 38.63 116.67 69.78 83.64 132.98 10.28 M 9.74 153.57 C 41.25 118.72 69.14 83.16 134.4 10.18 M 9.84 154.98 C 45.52 114.03 80.25 75.09 135.81 10.08 M 9.94 156.4 C 46.44 112.44 83.4 69.16 137.22 9.98 M 10.04 157.81 C 54.84 103.44 100.97 54.48 138.63 9.88 M 10.14 159.22 C 44.87 116.21 83.82 74.99 140.04 9.78 M 10.24 160.63 C 41.44 125.37 71.28 91.67 141.45 9.69 M 9.68 162.79 C 35.47 129.01 64.93 100.03 142.2 10.34 M 9.78 164.2 C 48.91 118.89 85.68 76.16 143.61 10.24 M 9.88 165.62 C 50.68 119.24 93.46 70.09 145.03 10.14 M 9.98 167.03 C 38.92 131.77 70.74 95.76 146.44 10.05 M 10.07 168.44 C 40.63 134.11 70.21 98.25 147.85 9.95 M 10.17 169.85 C 61.14 113.56 110.6 57.43 149.26 9.85 M 10.27 171.26 C 45.89 130.7 80.55 90.61 150.67 9.75 M 9.71 173.42 C 62.58 110.69 118.43 45.43 152.08 9.65 M 9.81 174.83 C 47.28 131.69 84.83 87.45 152.83 10.31 M 9.91 176.25 C 42.11 138 72.04 101.42 154.24 10.21 M 10.01 177.66 C 44.23 138.96 75.02 104.07 155.66 10.11 M 10.11 179.07 C 66.84 113.64 125.19 45.2 157.07 10.01 M 10.21 180.48 C 58.06 127.16 105.34 73.77 158.48 9.91 M 10.31 181.89 C 44.89 143.43 78.46 102.8 159.89 9.81 M 9.75 184.05 C 62.96 121.73 118.72 61.08 161.3 9.72 M 9.85 185.46 C 58.15 131.35 107.32 73.25 162.05 10.37 M 9.95 186.88 C 47.63 144.36 86.23 101.93 163.46 10.27 M 10.04 188.29 C 54.72 139.28 95.79 91.1 164.87 10.17 M 10.14 189.7 C 70.01 123.25 128.09 54.92 166.29 10.08 M 10.24 191.11 C 70.63 124.35 127.19 59.66 167.7 9.98 M 9.68 193.27 C 61.53 134.98 109.21 75.62 169.11 9.88 M 9.78 194.68 C 65.37 131.6 116.83 72.82 170.52 9.78 M 9.88 196.09 C 46.72 154.3 81.19 111.81 171.93 9.68 M 9.98 197.51 C 67.43 130.4 124.19 65.74 172.68 10.34 M 10.08 198.92 C 60.4 140.77 112.79 78.21 174.09 10.24 M 10.18 200.33 C 63.57 136.94 119.47 73.97 175.5 10.14 M 10.28 201.74 C 53.75 153.58 93.41 105.7 176.92 10.04 M 9.72 203.9 C 47.87 162.59 85.51 120.82 178.33 9.94 M 9.82 205.31 C 48.89 159.31 89.1 111.11 179.74 9.84 M 9.92 206.72 C 60.77 152.23 107.42 94.98 181.15 9.75 M 10.02 208.14 C 49.62 162.64 90.27 117.22 182.56 9.65 M 10.11 209.55 C 61.88 152.21 112.13 92.21 183.31 10.3 M 10.21 210.96 C 77.32 136.46 142.06 60.07 184.72 10.2 M 10.31 212.37 C 72.53 141.29 134.97 68.44 186.14 10.11 M 9.75 214.53 C 62.68 154.12 113.05 93.98 187.55 10.01 M 9.85 215.94 C 55.69 157.61 106.26 102.27 188.96 9.91 M 9.95 217.35 C 56.31 166.14 98.55 116.49 190.37 9.81 M 10.05 218.77 C 81.56 137.06 154.72 53.89 191.78 9.71 M 10.15 220.18 C 53.34 169.91 98.94 120.03 192.53 10.37 M 10.25 221.59 C 48.98 176.95 89 132.17 193.94 10.27 M 9.69 223.75 C 55.59 171.58 101.73 117.23 195.35 10.17 M 9.79 225.16 C 84.96 138.11 159.4 53.42 196.77 10.07 M 9.89 226.57 C 53.7 175.31 96.13 125.83 198.18 9.97 M 9.99 227.98 C 73.8 153.76 137.22 80.16 199.59 9.87 M 10.08 229.4 C 48.96 181.94 90.09 135.53 201 9.78 M 10.18 230.81 C 58.1 177.69 104.01 123.49 202.41 9.68 M 10.28 232.22 C 61.95 169.46 115.88 110.26 203.16 10.33 M 9.72 234.38 C 59.53 177.44 110.71 118.12 204.57 10.23 M 9.82 235.79 C 61.66 175.11 113.88 115.43 205.98 10.14 M 9.92 237.2 C 82.59 154.82 152 70.71 207.4 10.04 M 10.02 238.61 C 79.38 158.84 148.27 77.59 208.81 9.94 M 10.12 240.03 C 73.66 169.65 133.8 97.32 210.22 9.84 M 10.22 241.44 C 77.81 160.62 149.84 79.43 211.63 9.74 M 10.32 242.85 C 65.35 179.01 123.28 113.72 213.04 9.64 M 9.76 245.01 C 67.24 179.28 125.15 114.01 213.79 10.3 M 9.86 246.42 C 59.32 188.02 110.63 132.3 215.2 10.2 M 9.96 247.83 C 71.04 173.77 132.98 104.2 216.61 10.1 M 10.05 249.24 C 61.26 189.06 111.01 132.36 218.03 10 M 10.15 250.66 C 62.71 191.95 115.38 129.85 219.44 9.9 M 10.25 252.07 C 79.76 171.19 151.02 88.7 220.85 9.8 M 9.69 254.23 C 88.65 159.6 167.7 67.98 222.26 9.71 M 9.79 255.64 C 59.86 199.79 108.71 144.15 223.01 10.36 M 9.89 257.05 C 77.58 181.62 142.25 106.29 224.42 10.26 M 9.99 258.46 C 67.15 191.24 127.29 124.36 225.83 10.16 M 10.09 259.88 C 83.42 174.65 158.9 89.27 227.24 10.07 M 10.19 261.29 C 80.05 180.9 148.33 101.28 228.66 9.97 M 10.29 262.7 C 65.66 198.13 119.34 134.99 230.07 9.87 M 9.73 264.86 C 66.85 200.02 123.79 133.71 231.48 9.77 M 9.83 266.27 C 89.94 173.43 170.47 80.36 232.89 9.67 M 9.93 267.68 C 77.28 190.46 144.97 114.01 233.64 10.33 M 10.02 269.09 C 87.78 179.91 164 90.2 235.05 10.23 M 10.12 270.51 C 81.4 188.11 151.85 107.76 236.46 10.13 M 10.22 271.92 C 82.46 190.22 155.33 107.33 237.87 10.03 M 10.32 273.33 C 83.19 192.87 154.99 108.47 239.29 9.93 M 9.76 275.49 C 58.48 219.94 105.68 163.67 240.7 9.83 M 9.86 276.9 C 98.98 174.17 190.1 70.32 242.11 9.74 M 9.96 278.31 C 76.3 203.96 142.44 128.11 243.52 9.64 M 10.06 279.72 C 98.59 177.93 185.92 77.03 244.27 10.29 M 10.16 281.14 C 82.64 197.68 155.7 112.98 245.68 10.19 M 10.26 282.55 C 61.48 223.44 116.19 161.48 247.09 10.1 M 9.7 284.71 C 72.6 212.7 133.49 141.37 248.5 10 M 9.8 286.12 C 70.72 216.4 130.45 144.35 249.92 9.9 M 9.9 287.53 C 77.4 207.53 149.06 127.93 251.33 9.8 M 10 288.94 C 83.15 204.32 155.35 118.58 252.74 9.7 M 10.09 290.35 C 69.23 224.56 127.23 155.19 253.49 10.36 M 10.19 291.77 C 106.73 179.41 203.53 67.11 254.9 10.26 M 10.29 293.18 C 67.12 224.74 124.82 159.46 256.31 10.16 M 9.73 295.34 C 87.28 203.86 163.31 113.94 257.72 10.06 M 9.83 296.75 C 92.44 196.37 178.64 99.07 259.13 9.96 M 9.93 298.16 C 66.38 233.46 124.31 167.96 260.55 9.86 M 10.03 299.57 C 110.87 185.61 210.38 71.86 261.96 9.77 M 10.13 300.98 C 80.61 223.11 147.89 144.01 263.37 9.67 M 10.23 302.4 C 79.12 224.65 148.08 145.42 264.12 10.32 M 10.33 303.81 C 63.22 242.69 116.75 182.38 265.53 10.22 M 9.77 305.97 C 81.27 223.96 153.06 141.2 266.94 10.13 M 9.87 307.38 C 109.43 191.59 209.74 76.9 268.35 10.03 M 9.97 308.79 C 78.36 231.7 143.32 155.11 269.76 9.93 M 10.06 310.2 C 113.66 191.34 217.69 71.26 271.18 9.83 M 10.16 311.61 C 102.31 203.82 196.14 97.54 272.59 9.73 M 10.26 313.03 C 66.45 246.96 124.78 179.48 274 9.63 M 9.7 315.19 C 95.19 216.2 180.93 116.93 274.75 10.29 M 9.8 316.6 C 91.13 222.65 171.3 130.06 276.16 10.19 M 9.9 318.01 C 99.23 213.64 188.87 109.92 277.57 10.09 M 10 319.42 C 94.42 221.61 180.12 121.76 278.98 9.99 M 10.1 320.83 C 71.01 251.68 129.97 183.26 280.4 9.89 M 10.2 322.24 C 66.65 255.51 124.25 190.37 281.81 9.8 M 10.3 323.66 C 95.8 226.96 180.44 130.76 283.22 9.7 M 9.74 325.82 C 108.64 212.3 209 96.69 283.97 10.35 M 9.84 327.23 C 90.01 234.85 169.18 143.04 285.38 10.25 M 9.94 328.64 C 82.24 243.9 155.96 159.74 286.79 10.16 M 10.03 330.05 C 71 262.56 129.08 194.18 288.2 10.06 M 10.13 331.46 C 79.66 248.87 151.01 168.9 289.61 9.96 M 10.23 332.87 C 116.34 207.85 224.66 84.93 291.03 9.86 M 9.67 335.04 C 118.21 211.63 227.85 87.7 292.44 9.76 M 9.77 336.45 C 107.06 225.14 203.56 112.97 293.85 9.66 M 9.87 337.86 C 122.93 208.95 233.14 80.34 294.6 10.32 M 9.97 339.27 C 116.25 220.64 220.19 99.58 296.01 10.22 M 10.07 340.68 C 109.94 225.51 208.7 112.21 297.42 10.12 M 10.17 342.09 C 82.78 260.5 156.48 176.48 298.83 10.02 M 10.27 343.51 C 71.79 274.34 131.7 203.95 300.24 9.92 M 9.71 345.67 C 69.6 278.41 130.57 207.68 301.66 9.82 M 9.81 347.08 C 96.93 245.48 185.73 142.7 303.07 9.73 M 9.91 348.49 C 83.73 266.42 156.73 182.41 304.48 9.63 M 10 349.9 C 87.37 264.97 161.85 177.37 305.23 10.28 M 10.1 351.31 C 93.8 255.06 176.37 158.07 306.64 10.18 M 10.2 352.72 C 91.79 259.69 172.4 165.19 308.05 10.09 M 10.3 354.14 C 102.9 249.24 193.77 144.53 309.46 9.99 M 9.74 356.3 C 97.66 256.9 183.68 156.07 310.87 9.89 M 9.84 357.71 C 94.2 257.99 180.3 158.85 312.29 9.79 M 9.94 359.12 C 82.81 275.72 155.26 192.72 313.7 9.69 M 10.04 360.53 C 117.05 237.15 224.84 114.23 314.45 10.35 M 10.14 361.94 C 130.3 223.74 251.38 84.73 315.86 10.25 M 10.24 363.35 C 103.96 258.1 195.34 151.98 317.27 10.15 M 9.68 365.52 C 86.11 277.67 163.58 189.52 318.68 10.05 M 9.78 366.93 C 126.66 236.15 240 103.73 320.09 9.95 M 9.88 368.34 C 92.53 274.05 174.87 180.64 321.5 9.85 M 9.98 369.75 C 114.25 247.51 218.89 127.37 322.92 9.76 M 10.73 370.41 C 113 250.97 216.36 133.71 324.33 9.66 M 12.14 370.31 C 106.74 262.62 202.08 154.12 325.08 10.31 M 13.55 370.21 C 113.44 254.79 212.59 140.31 326.49 10.21 M 14.31 370.87 C 140.07 228.75 264.58 84.03 327.9 10.12 M 15.72 370.77 C 127.48 242.3 239.56 113.29 329.31 10.02 M 17.13 370.67 C 125.65 244.8 236.2 117.27 330.72 9.92 M 18.54 370.57 C 139.64 232.54 258.33 95.48 332.13 9.82 M 19.95 370.47 C 81.93 296.92 145.63 225.04 333.55 9.72 M 21.36 370.37 C 145.5 231.11 266.79 90.37 334.3 10.38 M 22.77 370.28 C 108.79 271.41 195.41 173.13 335.71 10.28 M 24.18 370.18 C 89.4 294.68 155.78 219.43 337.12 10.18 M 24.94 370.83 C 112.78 271.19 198.62 171.24 338.53 10.08 M 26.35 370.73 C 134.64 243.48 244.61 118.64 339.94 9.98 M 27.76 370.64 C 120.8 266.16 211.07 161.98 341.35 9.88 M 29.17 370.54 C 143.28 239.35 258.85 107.87 342.76 9.79 M 30.58 370.44 C 109.58 278.6 189.77 187 344.18 9.69 M 31.99 370.34 C 132.44 258.01 231.07 142.96 344.93 10.34 M 33.4 370.24 C 147.62 235.43 264.03 102.38 346.34 10.24 M 34.16 370.9 C 136.79 250.12 240.62 132.43 347.75 10.15 M 35.57 370.8 C 154.74 235.98 273.09 99.74 349.16 10.05 M 36.98 370.7 C 115.7 280.46 193.69 190.34 350.57 9.95 M 38.39 370.6 C 147.13 247.19 257.61 121.7 351.98 9.85 M 39.8 370.5 C 104.62 295.61 170.49 219.97 353.39 9.75 M 41.21 370.4 C 161.39 232.19 282.91 91.34 354.81 9.65 M 42.62 370.3 C 127.75 272.55 213.35 173.51 355.56 10.31 M 44.03 370.21 C 110.69 293.59 176.81 217.88 356.97 10.21 M 44.79 370.86 C 113.17 294.47 182.28 216.14 358.38 10.11 M 46.2 370.76 C 123.74 282.95 200.2 195.06 359.79 10.01 M 47.61 370.66 C 162.38 237.22 279.13 103.53 361.2 9.91 M 49.02 370.57 C 113.6 295.99 178.58 219.4 362.61 9.82 M 50.43 370.47 C 171.9 231.85 293.32 90.8 364.02 9.72 M 51.84 370.37 C 119.58 293.84 186.36 217.51 364.78 10.37 M 53.25 370.27 C 148.39 263.74 241.91 155.13 366.19 10.27 M 54.66 370.17 C 164.21 247.42 272.62 121.8 367.6 10.18 M 55.42 370.83 C 142.02 269.96 229.61 170.69 369.01 10.08 M 56.83 370.73 C 171.68 240.14 285.01 108.49 370.42 9.98 M 58.24 370.63 C 146.14 269.35 234.85 166.9 370.52 11.39 M 59.65 370.53 C 148.09 268.78 236.01 167.46 369.96 13.55 M 61.06 370.43 C 138.89 280.84 217.26 192.35 370.06 14.96 M 62.47 370.33 C 148.56 271.11 236.14 171.74 370.16 16.38 M 63.88 370.24 C 159.79 257.55 255.81 147.05 370.26 17.79 M 64.64 370.89 C 139.85 280.65 217.57 192.86 370.36 19.2 M 66.05 370.79 C 187.34 233.12 307.04 95.54 370.46 20.61 M 67.46 370.69 C 171.57 250.47 275.71 131.34 370.56 22.02 M 68.87 370.6 C 142.46 284.04 215.79 199.13 370 24.18 M 70.28 370.5 C 165.65 260.69 261.65 150.86 370.1 25.59 M 71.69 370.4 C 136.99 295.69 201.19 220.48 370.2 27.01 M 73.1 370.3 C 147.42 284.02 222.98 196.95 370.29 28.42 M 74.51 370.2 C 165.7 266.53 257.25 162.89 370.39 29.83 M 75.27 370.86 C 171.69 260.25 267.48 149.45 370.49 31.24 M 76.68 370.76 C 175.86 259.09 271.97 146.53 369.93 33.4 M 78.09 370.66 C 167.1 266.04 258.36 162.2 370.03 34.81 M 79.5 370.56 C 192.5 241.98 304.81 114.34 370.13 36.23 M 80.91 370.46 C 187.5 248.53 292.86 126.02 370.23 37.64 M 82.32 370.36 C 193.33 244.42 304.97 116.46 370.33 39.05 M 83.73 370.27 C 177.66 261.47 272.17 154.05 370.43 40.46 M 85.14 370.17 C 184.88 257.7 282.06 144.52 370.53 41.87 M 85.9 370.82 C 170.18 274.45 254.49 178.95 369.97 44.03 M 87.31 370.72 C 180.79 264.86 271 159.19 370.07 45.44 M 88.72 370.63 C 179.29 265.98 269.07 161.32 370.17 46.86 M 90.13 370.53 C 175.4 272.35 260.65 172.74 370.26 48.27 M 91.54 370.43 C 151.7 300.25 212.4 232.16 370.36 49.68 M 92.95 370.33 C 183.24 266.44 273.23 162.6 370.46 51.09 M 94.36 370.23 C 152.98 299.31 215.24 228.37 369.9 53.25 M 95.11 370.89 C 197.27 254.29 296.61 140.26 370 54.66 M 96.53 370.79 C 155.07 306.95 210.58 241.23 370.1 56.07 M 97.94 370.69 C 176.26 281.75 252.16 194.26 370.2 57.49 M 99.35 370.59 C 197.95 259.21 293.56 147.73 370.3 58.9 M 100.76 370.49 C 176.39 280.48 252.7 192.21 370.4 60.31 M 102.17 370.39 C 203.87 251.5 306.28 133.74 370.5 61.72 M 103.58 370.3 C 182.63 280.97 261.28 190.7 369.94 63.88 M 104.99 370.2 C 204.82 253.98 306.04 140.63 370.04 65.29 M 105.74 370.85 C 208.18 254.06 311.39 134.86 370.14 66.7 M 107.16 370.75 C 168.62 300.42 230.49 228.7 370.24 68.12 M 108.57 370.66 C 208.22 251.98 311.34 135.61 370.33 69.53 M 109.98 370.56 C 195.56 273.83 280.07 174.59 370.43 70.94 M 111.39 370.46 C 183.2 288.14 255.1 205.07 370.53 72.35 M 112.8 370.36 C 189.13 282.61 265.08 194.06 369.97 74.51 M 114.21 370.26 C 163.95 309.92 217.48 251.1 370.07 75.92 M 115.62 370.16 C 206.43 263.4 297.92 156.33 370.17 77.33 M 116.37 370.82 C 192.62 281.14 271.85 191.68 370.27 78.75 M 117.79 370.72 C 189.17 288.76 257.68 206.91 370.37 80.16 M 119.2 370.62 C 196.09 284.88 271.1 197.07 370.47 81.57 M 120.61 370.52 C 185.05 297.24 247.64 222.8 369.91 83.73 M 122.02 370.42 C 198.48 280.89 277.36 192.53 370.01 85.14 M 123.43 370.32 C 206.52 278.42 286.5 185.92 370.11 86.55 M 124.84 370.23 C 189.87 297.11 252.18 226.59 370.21 87.96 M 125.59 370.88 C 190.16 294.72 257.1 219.45 370.3 89.38 M 127 370.78 C 194.9 291.06 266.28 209.9 370.4 90.79 M 128.42 370.68 C 216.75 268.78 305.53 169.16 370.5 92.2 M 129.83 370.59 C 214.5 271.42 301.98 171.13 369.94 94.36 M 131.24 370.49 C 201.18 287.92 273.13 206.7 370.04 95.77 M 132.65 370.39 C 201.95 292.56 270.7 212.01 370.14 97.18 M 134.06 370.29 C 218.05 273.92 303.14 174.79 370.24 98.59 M 135.47 370.19 C 211.32 282.76 286.83 195.36 370.34 100.01 M 136.22 370.85 C 211.4 284.31 285.85 198.54 370.44 101.42 M 137.63 370.75 C 222.63 273.75 305.11 176.36 370.54 102.83 M 139.05 370.65 C 194.36 305.79 248.9 242.06 369.98 104.99 M 140.46 370.55 C 225.08 273.75 308.24 176.15 370.08 106.4 M 141.87 370.45 C 219.99 281.15 297.51 192.76 370.18 107.81 M 143.28 370.35 C 232.81 267.72 321.42 163.02 370.27 109.22 M 144.69 370.26 C 191.16 318.61 235.96 266.73 370.37 110.64 M 145.44 370.91 C 224.76 280.46 303.75 188.23 370.47 112.05 M 146.85 370.81 C 203.2 302.39 261.42 237.59 369.91 114.21 M 148.27 370.71 C 204.42 303.63 260.83 238.06 370.01 115.62 M 149.68 370.62 C 232.99 275.25 316.42 177.61 370.11 117.03 M 151.09 370.52 C 199.11 314.44 247.61 260.84 370.21 118.44 M 152.5 370.42 C 234.47 276.21 318.59 178.69 370.31 119.86 M 153.91 370.32 C 213.61 301.17 276.37 232.37 370.41 121.27 M 155.32 370.22 C 239.87 272.7 324.01 174.82 370.51 122.68 M 156.07 370.88 C 234.42 280.68 312.76 190.79 369.95 124.84 M 157.48 370.78 C 229.79 284.27 302.36 201.92 370.05 126.25 M 158.9 370.68 C 234.85 282.58 309.56 195.57 370.15 127.66 M 160.31 370.58 C 243.94 274.91 325.31 183.34 370.24 129.07 M 161.72 370.48 C 218.52 308.09 274.66 243.13 370.34 130.49 M 163.13 370.38 C 238.45 284.29 314.21 198 370.44 131.9 M 164.54 370.29 C 217.74 307.98 273.09 244.92 370.54 133.31 M 165.95 370.19 C 246.97 279.27 327.15 184.53 369.98 135.47 M 166.7 370.84 C 216.93 310.64 271.09 248.6 370.08 136.88 M 168.11 370.74 C 246.86 284.19 321.16 197.1 370.18 138.29 M 169.53 370.65 C 234.68 293.55 304.06 215.03 370.28 139.7 M 170.94 370.55 C 247.97 280.34 323.73 193.35 370.38 141.12 M 172.35 370.45 C 242.07 289.46 312.12 209.14 370.48 142.53 M 173.76 370.35 C 239.12 296.46 305.56 221.84 369.92 144.69 M 175.17 370.25 C 246.44 289.73 318.34 206.51 370.02 146.1 M 175.92 370.91 C 252.78 280.98 329.86 195.21 370.12 147.51 M 177.33 370.81 C 215.39 323.56 255.96 279.51 370.22 148.92 M 178.74 370.71 C 231.67 309.88 285.34 249.99 370.31 150.33 M 180.16 370.61 C 244.08 296.67 307.04 225.14 370.41 151.75 M 181.57 370.51 C 221.77 324.24 264.36 275.49 370.51 153.16 M 182.98 370.41 C 255.32 286.3 327.7 206.08 369.95 155.32 M 184.39 370.32 C 234.95 313.52 283.54 254.27 370.05 156.73 M 185.8 370.22 C 231.6 316.51 279.17 260.1 370.15 158.14 M 186.55 370.87 C 242.98 307.81 299.22 241.86 370.25 159.55 M 187.96 370.77 C 234.2 315.53 281.85 261.05 370.35 160.96 M 189.37 370.68 C 240.36 311.75 291.82 252.77 370.45 162.38 M 190.79 370.58 C 253.37 296.08 317.25 222.57 370.55 163.79 M 192.2 370.48 C 238.06 318.36 283.91 265.36 369.99 165.95 M 193.61 370.38 C 251.57 303.16 311.59 234 370.09 167.36 M 195.02 370.28 C 246.77 313.43 295.38 254.46 370.19 168.77 M 196.43 370.18 C 247.45 314.06 298.04 257.72 370.28 170.18 M 197.18 370.84 C 259.36 297.98 319.17 227.17 370.38 171.59 M 198.59 370.74 C 253.86 303.79 313.15 239.71 370.48 173.01 M 200 370.64 C 261.86 297.62 321.4 226.99 369.92 175.17 M 201.42 370.54 C 252.66 312.81 302.43 255.17 370.02 176.58 M 202.83 370.44 C 241.53 328.73 277.47 285.52 370.12 177.99 M 204.24 370.34 C 252.76 318.66 297.83 265.16 370.22 179.4 M 205.65 370.25 C 239.09 331.67 273.72 289.93 370.32 180.81 M 206.4 370.9 C 255.15 315.69 300.89 261.8 370.42 182.22 M 207.81 370.8 C 262.95 310.82 314.96 251.54 370.52 183.64 M 209.22 370.7 C 247.39 328.51 283.13 286.24 369.96 185.8 M 210.63 370.61 C 243.44 332.07 278.21 293.02 370.06 187.21 M 212.05 370.51 C 265.12 310.96 318.46 248.4 370.16 188.62 M 213.46 370.41 C 261.65 311.37 310.62 255.07 370.25 190.03 M 214.87 370.31 C 270.95 309.62 323.29 246.84 370.35 191.44 M 216.28 370.21 C 277.4 301.57 336.63 231.12 370.45 192.85 M 217.03 370.87 C 275.75 305.7 331.98 238.77 370.55 194.27 M 218.44 370.77 C 261.55 319.73 305.41 270.14 369.99 196.43 M 219.85 370.67 C 252.86 332.81 283.55 294.04 370.09 197.84 M 221.26 370.57 C 258.69 327.15 296.87 283.34 370.19 199.25 M 222.68 370.47 C 264.53 319.95 309.75 270.1 370.29 200.66 M 224.09 370.37 C 265.06 319.99 310.51 271.97 370.39 202.07 M 225.5 370.28 C 275.2 313.26 326.14 253.71 370.49 203.48 M 226.91 370.18 C 270 319.26 317.37 266.79 369.93 205.65 M 227.66 370.83 C 268.81 321.73 314.08 270.07 370.03 207.06 M 229.07 370.73 C 264.67 330.37 300.12 289.7 370.13 208.47 M 230.48 370.64 C 265.67 331.82 303.35 288.35 370.22 209.88 M 231.9 370.54 C 261.85 335.82 291.37 302.35 370.32 211.29 M 233.31 370.44 C 275.74 319.6 319.55 270.49 370.42 212.7 M 234.72 370.34 C 266.99 333.76 297.04 296.4 370.52 214.12 M 236.13 370.24 C 284.76 311.94 335.88 257.85 369.96 216.28 M 236.88 370.9 C 287.22 312.6 340.13 252.96 370.06 217.69 M 238.29 370.8 C 282.16 316.69 330.47 265.91 370.16 219.1 M 239.7 370.7 C 285.04 315.12 334.28 259.38 370.26 220.51 M 241.11 370.6 C 285.21 316.67 329.87 267.35 370.36 221.92 M 242.53 370.5 C 289.39 314.15 339.8 261.37 370.46 223.33 M 243.94 370.4 C 289.99 316.94 336.92 264.4 370.56 224.75 M 245.35 370.31 C 284.58 322.23 329.09 275.45 370 226.91 M 246.76 370.21 C 292.07 320.49 340.41 267 370.1 228.32 M 247.51 370.86 C 289.64 320.38 332.01 272.84 370.2 229.73 M 248.92 370.76 C 273.87 338.68 303.01 307.1 370.29 231.14 M 250.33 370.67 C 285.74 331.97 319.65 289.29 370.39 232.55 M 251.74 370.57 C 276.85 343.57 301.5 313.52 370.49 233.96 M 253.16 370.47 C 293.43 325.35 329.96 281.93 369.93 236.13 M 254.57 370.37 C 291.04 328.22 328.84 285.24 370.03 237.54 M 255.98 370.27 C 293.57 330.69 328.88 288.95 370.13 238.95 M 257.39 370.17 C 299.44 321.19 342.23 270.87 370.23 240.36 M 258.14 370.83 C 282.84 342.46 306.37 314.85 370.33 241.77 M 259.55 370.73 C 296.92 330.22 334.24 287.68 370.43 243.18 M 260.96 370.63 C 305.23 321.42 348.79 268.6 370.53 244.59 M 262.37 370.53 C 282.18 345.58 304.27 322.33 369.97 246.76 M 263.79 370.43 C 308.02 324.4 350.48 272.28 370.07 248.17 M 265.2 370.34 C 300.25 330.82 331.52 294.96 370.17 249.58 M 266.61 370.24 C 289.96 339.92 314.42 312.06 370.26 250.99 M 267.36 370.89 C 299.52 333.42 333.14 297.61 370.36 252.4 M 268.77 370.79 C 293.01 344.6 315.59 317.59 370.46 253.81 M 270.18 370.7 C 309.2 329.66 342.69 285.81 369.9 255.98 M 271.59 370.6 C 292.21 345.73 313.44 322.71 370 257.39 M 273 370.5 C 308.83 329.46 346.72 285.49 370.1 258.8 M 274.42 370.4 C 294.25 347.49 314.22 320.59 370.2 260.21 M 275.83 370.3 C 310.52 329.13 346.12 287.7 370.3 261.62 M 277.24 370.2 C 303.79 341.44 327.73 315.57 370.4 263.03 M 277.99 370.86 C 309.23 331.82 345.46 293.62 370.5 264.44 M 279.4 370.76 C 301.09 343.21 325.88 316.13 369.94 266.61 M 280.81 370.66 C 308.35 340.7 333.36 312.05 370.04 268.02 M 282.22 370.56 C 315.64 334.16 346.06 293.49 370.14 269.43 M 283.63 370.46 C 306.85 346.87 328.07 318.59 370.23 270.84 M 285.05 370.36 C 312.87 336.19 343.78 300.08 370.33 272.25 M 286.46 370.27 C 319.61 331.25 351.71 293.92 370.43 273.66 M 287.87 370.17 C 314.81 342.45 338.46 312.54 370.53 275.07 M 288.62 370.82 C 317.04 335.1 349.13 304.36 369.97 277.24 M 290.03 370.72 C 317.27 340.75 343.11 310.88 370.07 278.65 M 291.44 370.63 C 311.56 346.51 337.59 318.12 370.17 280.06 M 292.85 370.53 C 309.88 350.02 330.2 330.13 370.27 281.47 M 294.26 370.43 C 310.52 349.06 330.56 329 370.37 282.88 M 295.68 370.33 C 320.48 343.5 341.4 319.34 370.47 284.29 M 297.09 370.23 C 322.49 344.47 346.42 315.93 369.91 286.46 M 297.84 370.89 C 324.59 340.15 351.33 310.76 370.01 287.87 M 299.25 370.79 C 317.2 346.99 339.67 326.77 370.11 289.28 M 300.66 370.69 C 314.68 352.31 331.27 334.89 370.2 290.69 M 302.07 370.59 C 321.73 346.66 340.9 324.42 370.3 292.1 M 303.48 370.49 C 322.83 347.25 341.3 326.75 370.4 293.51 M 304.89 370.39 C 331.38 342.45 355.65 314.95 370.5 294.92 M 306.31 370.3 C 324.48 349.51 343.79 328.2 369.94 297.09 M 307.72 370.2 C 322.43 353.44 335.56 341.49 370.04 298.5 M 308.47 370.85 C 321.69 356.59 332.08 343.59 370.14 299.91 M 309.88 370.75 C 326.07 350.18 345.31 327.34 370.24 301.32 M 311.29 370.66 C 333.27 345.02 354.39 316.06 370.34 302.73 M 312.7 370.56 C 331.37 348.4 346.79 329.45 370.44 304.14 M 314.11 370.46 C 333.02 347.58 350.89 324.56 370.54 305.55 M 315.52 370.36 C 328.58 353.23 344.29 339.44 369.98 307.72 M 316.94 370.26 C 329.37 355.41 345.41 340.42 370.08 309.13 M 318.35 370.16 C 339.04 347.95 356.48 326.02 370.18 310.54 M 319.1 370.82 C 333.74 351.77 349.14 335.58 370.27 311.95 M 320.51 370.72 C 335.41 352.53 352.88 330.27 370.37 313.36 M 321.92 370.62 C 335.79 355.08 346.93 342.58 370.47 314.77 M 323.33 370.52 C 337.93 352.91 355.92 332.72 369.91 316.94 M 324.74 370.42 C 341.16 351.4 358.1 336.04 370.01 318.35 M 326.16 370.33 C 337.12 357.91 351.81 340.47 370.11 319.76 M 327.57 370.23 C 338.34 356.54 350.56 343.73 370.21 321.17 M 328.32 370.88 C 337.16 359.36 348.72 349.28 370.31 322.58 M 329.73 370.78 C 338.12 358.38 349.16 347.77 370.41 323.99 M 331.14 370.69 C 343.7 358.04 355.7 342.93 370.51 325.4 M 332.55 370.59 C 345.2 356.82 359.06 339.09 369.95 327.57 M 333.96 370.49 C 345.25 356.67 357.15 344.22 370.05 328.98 M 335.37 370.39 C 347.63 357.84 357.47 343.45 370.15 330.39 M 336.79 370.29 C 348.93 356.1 358.28 344.71 370.24 331.8 M 338.2 370.19 C 348.89 358.12 356.79 349.52 370.34 333.21 M 338.95 370.85 C 349.27 358.61 363.95 344.35 370.44 334.62 M 340.36 370.75 C 351.76 355.35 365.04 342.96 370.54 336.03 M 341.77 370.65 C 350.43 360.53 359.78 350.3 369.98 338.2 M 343.18 370.55 C 350.65 360.86 361.48 351.1 370.08 339.61 M 344.59 370.45 C 353.8 362.45 360.28 351.24 370.18 341.02 M 346 370.36 C 352.86 360.3 362.46 353.24 370.28 342.43 M 347.42 370.26 C 353.53 364.94 355.1 358.42 370.38 343.84 M 348.17 370.91 C 352.72 365 362.67 354.18 370.48 345.25 M 349.58 370.81 C 355.68 365.04 358.62 360.09 369.92 347.42 M 350.99 370.72 C 356.29 362.88 363.27 356.42 370.02 348.83 M 352.4 370.62 C 360.01 361.95 364.49 353.01 370.12 350.24 M 353.81 370.52 C 361.13 362.53 363.39 358.74 370.21 351.65 M 355.22 370.42 C 359.17 364.26 363.42 358.95 370.31 353.06 M 356.63 370.32 C 358.35 367.07 363.36 363.08 370.41 354.47 M 358.05 370.22 C 361.06 363.95 368.08 361.48 370.51 355.88 M 358.8 370.88 C 361.7 368.61 366.71 364.13 369.95 358.05 M 360.21 370.78 C 363.72 366.44 368.85 362.41 370.05 359.46 M 361.62 370.68 C 363.77 368.37 368.17 363.96 370.15 360.87 M 363.03 370.58 C 365.73 367.68 367.27 364.25 370.25 362.28 M 364.44 370.48 C 366.46 368.11 369.04 366.58 370.35 363.69 M 365.85 370.38 C 367.68 368.02 368.68 367.12 370.45 365.1 M 367.26 370.29 C 367.73 369.87 368.71 368.87 370.54 366.51 M 368.68 370.19 C 369.02 369.75 369.44 369.54 369.99 368.68" fill="none" stroke="#eeeeee" stroke-width="0.5" stroke-linejoin="round" stroke-linecap="round" stroke-miterlimit="10" pointer-events="all"/></g><g><g fill="rgb(0, 0, 0)" font-family="Helvetica" font-weight="bold" text-anchor="middle" font-size="22px"><text x="189.5" y="37.5">十进制转十进制</text></g></g><g><path d="M 170 90 L 203.63 90" fill="none" stroke="rgb(0, 0, 0)" stroke-miterlimit="10" pointer-events="stroke"/><path d="M 208.88 90 L 201.88 93.5 L 203.63 90 L 201.88 86.5 Z" fill="rgb(0, 0, 0)" stroke="rgb(0, 0, 0)" stroke-miterlimit="10" pointer-events="all"/></g><g style="filter: drop-shadow(rgb(0, 0, 0) 3px -3px 0px);"><rect x="30" y="70" width="140" height="40" rx="6" ry="6" fill="rgb(255, 255, 255)" stroke="rgb(0, 0, 0)" pointer-events="all"/></g><g><g fill="rgb(0, 0, 0)" font-family="Helvetica" text-anchor="middle" font-size="18px"><text x="99.5" y="97.5">十进制：12345</text></g></g><g style="filter: drop-shadow(rgb(0, 0, 0) 3px -3px 0px);"><rect x="210" y="70" width="140" height="40" rx="6" ry="6" fill="rgb(255, 255, 255)" stroke="rgb(0, 0, 0)" pointer-events="all"/></g><g><g fill="rgb(0, 0, 0)" font-family="Helvetica" text-anchor="middle" font-size="18px"><text x="279.5" y="97.5">十进制：12345</text></g></g><g><rect x="210" y="120" width="60" height="40" fill="none" stroke="none" pointer-events="all"/></g><g><g fill="rgb(0, 0, 0)" font-family="Helvetica" text-anchor="middle" font-size="18px"><text x="239.5" y="147.5">余数</text></g></g><g><rect x="225" y="320" width="30" height="40" fill="none" stroke="none" pointer-events="all"/></g><g><g fill="rgb(0, 0, 0)" font-family="Helvetica" text-anchor="middle" font-size="18px"><text x="239.5" y="347.5">1</text></g></g><g><rect x="225" y="280" width="30" height="40" fill="none" stroke="none" pointer-events="all"/></g><g><g fill="rgb(0, 0, 0)" font-family="Helvetica" text-anchor="middle" font-size="18px"><text x="239.5" y="307.5">2</text></g></g><g><rect x="225" y="240" width="30" height="40" fill="none" stroke="none" pointer-events="all"/></g><g><g fill="rgb(0, 0, 0)" font-family="Helvetica" text-anchor="middle" font-size="18px"><text x="239.5" y="267.5">3</text></g></g><g><rect x="225" y="200" width="30" height="40" fill="none" stroke="none" pointer-events="all"/></g><g><g fill="rgb(0, 0, 0)" font-family="Helvetica" text-anchor="middle" font-size="18px"><text x="239.5" y="227.5">4</text></g></g><g><rect x="225" y="160" width="30" height="40" fill="none" stroke="none" pointer-events="all"/></g><g><g fill="rgb(0, 0, 0)" font-family="Helvetica" text-anchor="middle" font-size="18px"><text x="239.5" y="187.5">5</text></g></g><g><path d="M 265 350 L 265 176.37" fill="none" stroke="rgb(0, 0, 0)" stroke-miterlimit="10" pointer-events="stroke"/><path d="M 265 171.12 L 268.5 178.12 L 265 176.37 L 261.5 178.12 Z" fill="rgb(0, 0, 0)" stroke="rgb(0, 0, 0)" stroke-miterlimit="10" pointer-events="all"/></g><g><rect x="90" y="120" width="70" height="40" fill="none" stroke="none" transform="translate(125,0)scale(-1,1)translate(-125,0)rotate(-180,125,140)" pointer-events="all"/><path d="M 90 120 L 160 120 M 160 160 M 90 160 L 90 120" fill="none" stroke="rgb(0, 0, 0)" stroke-linecap="square" stroke-miterlimit="10" transform="translate(125,0)scale(-1,1)translate(-125,0)rotate(-180,125,140)" pointer-events="all"/></g><g><g fill="rgb(0, 0, 0)" font-family="Helvetica" text-anchor="middle" font-size="18px"><text x="124.5" y="147.5">12345</text></g></g><g><rect x="100" y="160" width="60" height="40" fill="none" stroke="none" transform="translate(130,0)scale(-1,1)translate(-130,0)rotate(-180,130,180)" pointer-events="all"/><path d="M 100 160 L 160 160 M 160 200 M 100 200 L 100 160" fill="none" stroke="rgb(0, 0, 0)" stroke-linecap="square" stroke-miterlimit="10" transform="translate(130,0)scale(-1,1)translate(-130,0)rotate(-180,130,180)" pointer-events="all"/></g><g><g fill="rgb(0, 0, 0)" font-family="Helvetica" text-anchor="middle" font-size="18px"><text x="129.5" y="187.5">1234</text></g></g><g><rect x="110" y="200" width="50" height="40" fill="none" stroke="none" transform="translate(135,0)scale(-1,1)translate(-135,0)rotate(-180,135,220)" pointer-events="all"/><path d="M 110 200 L 160 200 M 160 240 M 110 240 L 110 200" fill="none" stroke="rgb(0, 0, 0)" stroke-linecap="square" stroke-miterlimit="10" transform="translate(135,0)scale(-1,1)translate(-135,0)rotate(-180,135,220)" pointer-events="all"/></g><g><g fill="rgb(0, 0, 0)" font-family="Helvetica" text-anchor="middle" font-size="18px"><text x="134.5" y="227.5">123</text></g></g><g><rect x="120" y="240" width="40" height="40" fill="none" stroke="none" transform="translate(140,0)scale(-1,1)translate(-140,0)rotate(-180,140,260)" pointer-events="all"/><path d="M 120 240 L 160 240 M 160 280 M 120 280 L 120 240" fill="none" stroke="rgb(0, 0, 0)" stroke-linecap="square" stroke-miterlimit="10" transform="translate(140,0)scale(-1,1)translate(-140,0)rotate(-180,140,260)" pointer-events="all"/></g><g><g fill="rgb(0, 0, 0)" font-family="Helvetica" text-anchor="middle" font-size="18px"><text x="139.5" y="267.5">12</text></g></g><g><rect x="130" y="280" width="30" height="40" fill="none" stroke="none" transform="translate(145,0)scale(-1,1)translate(-145,0)rotate(-180,145,300)" pointer-events="all"/><path d="M 130 280 L 160 280 M 160 320 M 130 320 L 130 280" fill="none" stroke="rgb(0, 0, 0)" stroke-linecap="square" stroke-miterlimit="10" transform="translate(145,0)scale(-1,1)translate(-145,0)rotate(-180,145,300)" pointer-events="all"/></g><g><g fill="rgb(0, 0, 0)" font-family="Helvetica" text-anchor="middle" font-size="18px"><text x="144.5" y="307.5">1</text></g></g><g><rect x="50" y="120" width="40" height="40" fill="none" stroke="none" pointer-events="all"/></g><g><g fill="rgb(0, 0, 0)" font-family="Helvetica" text-anchor="middle" font-size="18px"><text x="69.5" y="147.5">10</text></g></g><g><rect x="60" y="160" width="40" height="40" fill="none" stroke="none" pointer-events="all"/></g><g><g fill="rgb(0, 0, 0)" font-family="Helvetica" text-anchor="middle" font-size="18px"><text x="79.5" y="187.5">10</text></g></g><g><rect x="70" y="200" width="40" height="40" fill="none" stroke="none" pointer-events="all"/></g><g><g fill="rgb(0, 0, 0)" font-family="Helvetica" text-anchor="middle" font-size="18px"><text x="89.5" y="227.5">10</text></g></g><g><rect x="80" y="240" width="40" height="40" fill="none" stroke="none" pointer-events="all"/></g><g><g fill="rgb(0, 0, 0)" font-family="Helvetica" text-anchor="middle" font-size="18px"><text x="99.5" y="267.5">10</text></g></g><g><rect x="90" y="280" width="40" height="40" fill="none" stroke="none" pointer-events="all"/></g><g><g fill="rgb(0, 0, 0)" font-family="Helvetica" text-anchor="middle" font-size="18px"><text x="109.5" y="307.5">10</text></g></g><g><rect x="130" y="320" width="30" height="40" fill="none" stroke="none" pointer-events="all"/></g><g><g fill="rgb(0, 0, 0)" font-family="Helvetica" text-anchor="middle" font-size="18px"><text x="144.5" y="347.5">0</text></g></g><g><path d="M 530 90 L 563.63 90" fill="none" stroke="rgb(0, 0, 0)" stroke-miterlimit="10" pointer-events="stroke"/><path d="M 568.88 90 L 561.88 93.5 L 563.63 90 L 561.88 86.5 Z" fill="rgb(0, 0, 0)" stroke="rgb(0, 0, 0)" stroke-miterlimit="10" pointer-events="all"/></g><g style="filter: drop-shadow(rgb(0, 0, 0) 3px -3px 0px);"><rect x="390" y="70" width="140" height="40" rx="6" ry="6" fill="rgb(255, 255, 255)" stroke="rgb(0, 0, 0)" pointer-events="all"/></g><g><g fill="rgb(0, 0, 0)" font-family="Helvetica" text-anchor="middle" font-size="18px"><text x="459.5" y="97.5">十进制：20</text></g></g><g style="filter: drop-shadow(rgb(0, 0, 0) 3px -3px 0px);"><rect x="570" y="70" width="140" height="40" rx="6" ry="6" fill="rgb(255, 255, 255)" stroke="rgb(0, 0, 0)" pointer-events="all"/></g><g><g fill="rgb(0, 0, 0)" font-family="Helvetica" text-anchor="middle" font-size="18px"><text x="639.5" y="97.5">二进制：10100</text></g></g><g><rect x="570" y="120" width="60" height="40" fill="none" stroke="none" pointer-events="all"/></g><g><g fill="rgb(0, 0, 0)" font-family="Helvetica" text-anchor="middle" font-size="18px"><text x="599.5" y="147.5">余数</text></g></g><g><rect x="585" y="320" width="30" height="40" fill="none" stroke="none" pointer-events="all"/></g><g><g fill="rgb(0, 0, 0)" font-family="Helvetica" text-anchor="middle" font-size="18px"><text x="599.5" y="347.5">1</text></g></g><g><rect x="585" y="280" width="30" height="40" fill="none" stroke="none" pointer-events="all"/></g><g><g fill="rgb(0, 0, 0)" font-family="Helvetica" text-anchor="middle" font-size="18px"><text x="599.5" y="307.5">0</text></g></g><g><rect x="585" y="240" width="30" height="40" fill="none" stroke="none" pointer-events="all"/></g><g><g fill="rgb(0, 0, 0)" font-family="Helvetica" text-anchor="middle" font-size="18px"><text x="599.5" y="267.5">1</text></g></g><g><rect x="585" y="200" width="30" height="40" fill="none" stroke="none" pointer-events="all"/></g><g><g fill="rgb(0, 0, 0)" font-family="Helvetica" text-anchor="middle" font-size="18px"><text x="599.5" y="227.5">0</text></g></g><g><rect x="585" y="160" width="30" height="40" fill="none" stroke="none" pointer-events="all"/></g><g><g fill="rgb(0, 0, 0)" font-family="Helvetica" text-anchor="middle" font-size="18px"><text x="599.5" y="187.5">0</text></g></g><g><path d="M 625 350 L 625 176.37" fill="none" stroke="rgb(0, 0, 0)" stroke-miterlimit="10" pointer-events="stroke"/><path d="M 625 171.12 L 628.5 178.12 L 625 176.37 L 621.5 178.12 Z" fill="rgb(0, 0, 0)" stroke="rgb(0, 0, 0)" stroke-miterlimit="10" pointer-events="all"/></g><g><rect x="450" y="120" width="70" height="40" fill="none" stroke="none" transform="translate(485,0)scale(-1,1)translate(-485,0)rotate(-180,485,140)" pointer-events="all"/><path d="M 450 120 L 520 120 M 520 160 M 450 160 L 450 120" fill="none" stroke="rgb(0, 0, 0)" stroke-linecap="square" stroke-miterlimit="10" transform="translate(485,0)scale(-1,1)translate(-485,0)rotate(-180,485,140)" pointer-events="all"/></g><g><g fill="rgb(0, 0, 0)" font-family="Helvetica" text-anchor="middle" font-size="18px"><text x="484.5" y="147.5">20</text></g></g><g><rect x="460" y="160" width="60" height="40" fill="none" stroke="none" transform="translate(490,0)scale(-1,1)translate(-490,0)rotate(-180,490,180)" pointer-events="all"/><path d="M 460 160 L 520 160 M 520 200 M 460 200 L 460 160" fill="none" stroke="rgb(0, 0, 0)" stroke-linecap="square" stroke-miterlimit="10" transform="translate(490,0)scale(-1,1)translate(-490,0)rotate(-180,490,180)" pointer-events="all"/></g><g><g fill="rgb(0, 0, 0)" font-family="Helvetica" text-anchor="middle" font-size="18px"><text x="489.5" y="187.5">10</text></g></g><g><rect x="470" y="200" width="50" height="40" fill="none" stroke="none" transform="translate(495,0)scale(-1,1)translate(-495,0)rotate(-180,495,220)" pointer-events="all"/><path d="M 470 200 L 520 200 M 520 240 M 470 240 L 470 200" fill="none" stroke="rgb(0, 0, 0)" stroke-linecap="square" stroke-miterlimit="10" transform="translate(495,0)scale(-1,1)translate(-495,0)rotate(-180,495,220)" pointer-events="all"/></g><g><g fill="rgb(0, 0, 0)" font-family="Helvetica" text-anchor="middle" font-size="18px"><text x="494.5" y="227.5">5</text></g></g><g><rect x="480" y="240" width="40" height="40" fill="none" stroke="none" transform="translate(500,0)scale(-1,1)translate(-500,0)rotate(-180,500,260)" pointer-events="all"/><path d="M 480 240 L 520 240 M 520 280 M 480 280 L 480 240" fill="none" stroke="rgb(0, 0, 0)" stroke-linecap="square" stroke-miterlimit="10" transform="translate(500,0)scale(-1,1)translate(-500,0)rotate(-180,500,260)" pointer-events="all"/></g><g><g fill="rgb(0, 0, 0)" font-family="Helvetica" text-anchor="middle" font-size="18px"><text x="499.5" y="267.5">2</text></g></g><g><rect x="490" y="280" width="30" height="40" fill="none" stroke="none" transform="translate(505,0)scale(-1,1)translate(-505,0)rotate(-180,505,300)" pointer-events="all"/><path d="M 490 280 L 520 280 M 520 320 M 490 320 L 490 280" fill="none" stroke="rgb(0, 0, 0)" stroke-linecap="square" stroke-miterlimit="10" transform="translate(505,0)scale(-1,1)translate(-505,0)rotate(-180,505,300)" pointer-events="all"/></g><g><g fill="rgb(0, 0, 0)" font-family="Helvetica" text-anchor="middle" font-size="18px"><text x="504.5" y="307.5">1</text></g></g><g><rect x="410" y="120" width="40" height="40" fill="none" stroke="none" pointer-events="all"/></g><g><g fill="rgb(0, 0, 0)" font-family="Helvetica" text-anchor="middle" font-size="18px"><text x="429.5" y="147.5">2</text></g></g><g><rect x="420" y="160" width="40" height="40" fill="none" stroke="none" pointer-events="all"/></g><g><g fill="rgb(0, 0, 0)" font-family="Helvetica" text-anchor="middle" font-size="18px"><text x="439.5" y="187.5">2</text></g></g><g><rect x="430" y="200" width="40" height="40" fill="none" stroke="none" pointer-events="all"/></g><g><g fill="rgb(0, 0, 0)" font-family="Helvetica" text-anchor="middle" font-size="18px"><text x="449.5" y="227.5">2</text></g></g><g><rect x="440" y="240" width="40" height="40" fill="none" stroke="none" pointer-events="all"/></g><g><g fill="rgb(0, 0, 0)" font-family="Helvetica" text-anchor="middle" font-size="18px"><text x="459.5" y="267.5">2</text></g></g><g><rect x="450" y="280" width="40" height="40" fill="none" stroke="none" pointer-events="all"/></g><g><g fill="rgb(0, 0, 0)" font-family="Helvetica" text-anchor="middle" font-size="18px"><text x="469.5" y="307.5">2</text></g></g><g><rect x="490" y="320" width="30" height="40" fill="none" stroke="none" pointer-events="all"/></g><g><g fill="rgb(0, 0, 0)" font-family="Helvetica" text-anchor="middle" font-size="18px"><text x="504.5" y="347.5">0</text></g></g><g><path d="M 30 50 L 710 50" fill="none" stroke="rgb(0, 0, 0)" stroke-miterlimit="10" stroke-dasharray="3 3" pointer-events="stroke"/></g><g><path d="M 370 20 L 370 360" fill="none" stroke="rgb(0, 0, 0)" stroke-miterlimit="10" stroke-dasharray="3 3" pointer-events="stroke"/></g></g></svg>