<?xml version="1.0" encoding="UTF-8"?>
<!DOCTYPE svg PUBLIC "-//W3C//DTD SVG 1.1//EN" "http://www.w3.org/Graphics/SVG/1.1/DTD/svg11.dtd">
<svg xmlns="http://www.w3.org/2000/svg" xmlns:xlink="http://www.w3.org/1999/xlink" version="1.1" width="791px" height="140px" viewBox="-0.5 -0.5 791 140" style="background-color: rgb(255, 255, 255);"><defs/><rect fill="#ffffff" width="100%" height="100%" x="0" y="0"/><g><g><rect x="10" y="10" width="480" height="100" fill="none" stroke="none" pointer-events="all"/><path d="M 9.78 10.25 C 9.78 10.25 9.78 10.25 9.78 10.25 M 9.78 10.25 C 9.78 10.25 9.78 10.25 9.78 10.25 M 9.88 11.66 C 10.17 11.37 10.72 10.87 11.19 10.16 M 9.88 11.66 C 10.3 11.1 10.79 10.43 11.19 10.16 M 9.98 13.08 C 10.86 12.29 11.78 10.73 12.6 10.06 M 9.98 13.08 C 10.56 12.35 11.32 11.43 12.6 10.06 M 10.08 14.49 C 10.92 13.47 13.03 12.22 14.01 9.96 M 10.08 14.49 C 11.38 13.04 12.89 11.04 14.01 9.96 M 10.17 15.9 C 11.99 14.73 12.9 12.27 15.42 9.86 M 10.17 15.9 C 11.94 13.76 14.49 11.57 15.42 9.86 M 10.27 17.31 C 12.52 14.39 12.72 14.08 16.83 9.76 M 10.27 17.31 C 12.15 14.67 14.14 12.01 16.83 9.76 M 9.72 19.47 C 11.97 14.24 15.36 12.73 18.24 9.66 M 9.72 19.47 C 11.45 16.22 14.07 13.8 18.24 9.66 M 9.81 20.88 C 13.71 17.49 16.14 13.22 19 10.32 M 9.81 20.88 C 12.18 18.21 13.82 16.36 19 10.32 M 9.91 22.29 C 11.71 19.88 15.24 13.35 20.41 10.22 M 9.91 22.29 C 14.68 18.06 17.23 13.43 20.41 10.22 M 10.01 23.71 C 15.2 18.17 16.09 16.15 21.82 10.12 M 10.01 23.71 C 14.56 18.48 17.85 13.23 21.82 10.12 M 10.11 25.12 C 14.72 20.24 15.02 18.32 23.23 10.02 M 10.11 25.12 C 14.36 19.79 16.84 16.98 23.23 10.02 M 10.21 26.53 C 15.5 21.3 17.7 17.17 24.64 9.92 M 10.21 26.53 C 13.62 23.82 16.88 19.2 24.64 9.92 M 10.31 27.94 C 16.49 20.66 20.17 16.27 26.05 9.82 M 10.31 27.94 C 13.38 23.24 17.22 20.83 26.05 9.82 M 9.75 30.1 C 13.02 24.94 17.15 22.64 27.46 9.73 M 9.75 30.1 C 13.73 25.84 16.64 21.01 27.46 9.73 M 9.85 31.51 C 13.53 26.82 21.48 21.06 28.87 9.63 M 9.85 31.51 C 15.3 24.22 22.9 17.65 28.87 9.63 M 9.95 32.92 C 15.78 26.91 18.33 20.73 29.63 10.28 M 9.95 32.92 C 14.87 28.44 18.9 23.6 29.63 10.28 M 10.05 34.34 C 19.91 23.96 25.51 15.23 31.04 10.18 M 10.05 34.34 C 18.84 24.52 25.24 15.97 31.04 10.18 M 10.14 35.75 C 18.25 28 24.55 17.91 32.45 10.09 M 10.14 35.75 C 15.64 29.8 20.76 23.36 32.45 10.09 M 10.24 37.16 C 17.11 27.4 25.37 17.93 33.86 9.99 M 10.24 37.16 C 18.17 27.89 25.17 19.68 33.86 9.99 M 9.69 39.32 C 15.38 34.32 21.33 24.87 35.27 9.89 M 9.69 39.32 C 18.12 29.82 27.34 19.63 35.27 9.89 M 9.78 40.73 C 16.38 31.26 24.64 20.77 36.68 9.79 M 9.78 40.73 C 18.4 31.86 27.2 21.26 36.68 9.79 M 9.88 42.14 C 16.71 34.31 25.36 24.47 38.09 9.69 M 9.88 42.14 C 16.4 33.02 24.22 25.24 38.09 9.69 M 9.98 43.55 C 17.73 32.9 28.59 22.44 38.85 10.35 M 9.98 43.55 C 16.11 36.84 22.89 29.34 38.85 10.35 M 10.08 44.97 C 15.29 36.01 21.76 28.19 40.26 10.25 M 10.08 44.97 C 17.66 37.44 23.66 29 40.26 10.25 M 10.18 46.38 C 19.99 35.11 31.31 21.09 41.67 10.15 M 10.18 46.38 C 22.28 32.18 33.62 20.17 41.67 10.15 M 10.28 47.79 C 19.11 40.59 25.77 31.52 43.08 10.05 M 10.28 47.79 C 22.44 32.37 35.08 19.4 43.08 10.05 M 9.72 49.95 C 17.01 38.49 25.58 29.34 44.49 9.95 M 9.72 49.95 C 19.42 39.56 27.98 28.46 44.49 9.95 M 9.82 51.36 C 17.55 43.05 25.88 33.41 45.9 9.85 M 9.82 51.36 C 20.74 37.54 33.07 26.23 45.9 9.85 M 9.92 52.77 C 23.22 38.94 35.1 26.89 47.31 9.76 M 9.92 52.77 C 23.18 38.55 35.18 22.72 47.31 9.76 M 10.02 54.18 C 19.42 42.91 32.62 29.44 48.72 9.66 M 10.02 54.18 C 20.92 39.89 32.99 26.89 48.72 9.66 M 10.11 55.6 C 19.94 46.14 30.57 34.43 49.48 10.31 M 10.11 55.6 C 22.04 43.24 31.24 30.13 49.48 10.31 M 10.21 57.01 C 22.06 45.97 31.04 33.28 50.89 10.21 M 10.21 57.01 C 23.74 41.74 36.18 27.94 50.89 10.21 M 10.31 58.42 C 19.22 49.74 28.15 38.79 52.3 10.12 M 10.31 58.42 C 22.03 43.51 34.3 29.81 52.3 10.12 M 9.75 60.58 C 21.38 51 28.92 37.87 53.71 10.02 M 9.75 60.58 C 20.21 49.16 30.49 38.25 53.71 10.02 M 9.85 61.99 C 19.59 52.5 27.67 39.98 55.12 9.92 M 9.85 61.99 C 19.29 50.91 28.92 40.72 55.12 9.92 M 9.95 63.4 C 24.93 48.73 38.5 30.9 56.53 9.82 M 9.95 63.4 C 26.55 45.2 43.67 25.86 56.53 9.82 M 10.05 64.82 C 29.56 42.09 44.53 24.26 57.94 9.72 M 10.05 64.82 C 22.07 50.88 32.93 38.17 57.94 9.72 M 10.15 66.23 C 23.47 50.31 38.67 31.21 58.7 10.38 M 10.15 66.23 C 26.15 47.56 42.68 28.23 58.7 10.38 M 10.25 67.64 C 22.67 55.28 34.84 39.83 60.11 10.28 M 10.25 67.64 C 31.11 45.1 49.24 22.37 60.11 10.28 M 9.69 69.8 C 25.98 50.22 40.92 32.71 61.52 10.18 M 9.69 69.8 C 24.82 53.92 39.7 36.63 61.52 10.18 M 9.79 71.21 C 22.4 56.17 37.35 38.5 62.93 10.08 M 9.79 71.21 C 20.34 57.23 33.61 45.06 62.93 10.08 M 9.89 72.62 C 20.35 58.09 33.82 43.49 64.34 9.98 M 9.89 72.62 C 29.86 50.5 49.79 26.85 64.34 9.98 M 9.99 74.03 C 26.06 56.57 43.34 37.83 65.75 9.88 M 9.99 74.03 C 26.91 55.95 40.87 37.74 65.75 9.88 M 10.08 75.45 C 25.46 58.76 38.25 39.24 67.16 9.79 M 10.08 75.45 C 26.41 56.15 42.35 36.8 67.16 9.79 M 10.18 76.86 C 30.01 54.6 49.76 33.72 68.57 9.69 M 10.18 76.86 C 30.52 54.3 48.75 32.16 68.57 9.69 M 10.28 78.27 C 28.37 57.78 46.98 35.37 69.33 10.34 M 10.28 78.27 C 33.82 51.61 56.95 24.76 69.33 10.34 M 9.72 80.43 C 31.61 54.97 54.41 29.17 70.74 10.24 M 9.72 80.43 C 27.24 59.33 44.59 39.49 70.74 10.24 M 9.82 81.84 C 26.14 61.68 44.28 42.25 72.15 10.15 M 9.82 81.84 C 29.47 58.91 50.43 35.03 72.15 10.15 M 9.92 83.25 C 32.18 60.69 50.59 38.3 73.56 10.05 M 9.92 83.25 C 28.45 63.8 47.06 42.99 73.56 10.05 M 10.02 84.66 C 34.72 58.28 54.64 31.9 74.97 9.95 M 10.02 84.66 C 25.09 67.23 41.15 49.93 74.97 9.95 M 10.12 86.08 C 32.57 61.15 51.46 39.7 76.38 9.85 M 10.12 86.08 C 36.35 56.11 62.76 26.4 76.38 9.85 M 10.22 87.49 C 26.39 68.47 43.66 49.67 77.79 9.75 M 10.22 87.49 C 30.64 64.05 52.81 39.8 77.79 9.75 M 10.32 88.9 C 24.66 70.48 36.2 56.04 79.2 9.65 M 10.32 88.9 C 29.87 64.69 50.46 42.24 79.2 9.65 M 9.76 91.06 C 24.27 73.12 40.76 57.4 79.96 10.31 M 9.76 91.06 C 27.23 69.32 45.06 49.78 79.96 10.31 M 9.86 92.47 C 27.32 70.01 45.74 50.64 81.37 10.21 M 9.86 92.47 C 30.84 69.21 49.22 47.05 81.37 10.21 M 9.96 93.88 C 30.98 68.37 55.96 42.25 82.78 10.11 M 9.96 93.88 C 28.94 71.44 49.61 49.51 82.78 10.11 M 10.06 95.29 C 25.16 75.84 43.06 57.78 84.19 10.01 M 10.06 95.29 C 37.53 63.46 66.39 29.67 84.19 10.01 M 10.15 96.71 C 41.36 64.65 67.29 31.41 85.6 9.91 M 10.15 96.71 C 25.52 77.69 40.98 59.71 85.6 9.91 M 10.25 98.12 C 35.56 68.77 59.86 40.53 87.01 9.82 M 10.25 98.12 C 27.14 78.37 45.83 57.18 87.01 9.82 M 9.7 100.28 C 36.44 70.54 64.87 35.76 88.42 9.72 M 9.7 100.28 C 26.46 81.1 43.35 59.75 88.42 9.72 M 9.79 101.69 C 30.96 80.52 52.21 56.58 89.18 10.37 M 9.79 101.69 C 28.83 77.43 50.83 52.99 89.18 10.37 M 9.89 103.1 C 42 66.26 73.31 29.1 90.59 10.27 M 9.89 103.1 C 38.04 69.97 66.38 36.82 90.59 10.27 M 9.99 104.51 C 38.34 74.67 64.3 39.27 92 10.18 M 9.99 104.51 C 30.35 81.18 52.16 55.6 92 10.18 M 10.09 105.92 C 41.79 70.65 72.71 34 93.41 10.08 M 10.09 105.92 C 36.5 75.79 63.66 45.13 93.41 10.08 M 10.19 107.34 C 30.43 83.64 49.53 62.95 94.82 9.98 M 10.19 107.34 C 30.11 86.82 49.77 63.58 94.82 9.98 M 10.29 108.75 C 30.9 84.28 51.71 61.08 96.23 9.88 M 10.29 108.75 C 37.78 77.24 63.57 45.23 96.23 9.88 M 10.39 110.16 C 41.21 77.12 71.8 40.47 97.64 9.78 M 10.39 110.16 C 38.23 76.74 66.33 43.32 97.64 9.78 M 11.8 110.06 C 42.03 76.86 74.79 41.82 99.05 9.68 M 11.8 110.06 C 34.08 85.98 55.78 59.54 99.05 9.68 M 13.21 109.96 C 42.33 77.05 67.22 45.15 99.81 10.34 M 13.21 109.96 C 41.65 77.31 69.68 46.34 99.81 10.34 M 13.96 110.62 C 47.12 73.96 77.16 37.51 101.22 10.24 M 13.96 110.62 C 39.72 82.44 64.04 53.53 101.22 10.24 M 15.37 110.52 C 39.34 81.69 62.54 54.24 102.63 10.14 M 15.37 110.52 C 45.94 74.42 76.7 39.93 102.63 10.14 M 16.78 110.42 C 33.61 88.15 50.43 68.05 104.04 10.04 M 16.78 110.42 C 39.5 82.24 64.48 56.05 104.04 10.04 M 18.19 110.32 C 50.29 72.85 82.21 40.09 105.45 9.94 M 18.19 110.32 C 47.52 77.03 77.44 43.25 105.45 9.94 M 19.61 110.22 C 40.39 85.75 64 58.68 106.86 9.84 M 19.61 110.22 C 53 74.64 83.39 36.53 106.86 9.84 M 21.02 110.12 C 43.09 85.73 65.43 57.09 108.27 9.75 M 21.02 110.12 C 54.8 72.25 87.88 33.11 108.27 9.75 M 22.43 110.02 C 54.26 71.56 86.53 36.79 109.68 9.65 M 22.43 110.02 C 57.88 71.35 90.61 31.52 109.68 9.65 M 23.84 109.93 C 46.13 85.15 62.91 62.87 110.44 10.3 M 23.84 109.93 C 58.58 71.45 92.1 29.8 110.44 10.3 M 24.59 110.58 C 49.43 84.48 72.4 55.38 111.85 10.2 M 24.59 110.58 C 47.54 84.8 70.07 58.85 111.85 10.2 M 26 110.48 C 52.13 77.73 79.82 49.72 113.26 10.11 M 26 110.48 C 47.65 86.27 70.82 59.22 113.26 10.11 M 27.41 110.38 C 58.07 75.96 85.99 43.14 114.67 10.01 M 27.41 110.38 C 58.58 73.81 90.18 39.07 114.67 10.01 M 28.82 110.29 C 53.27 85.41 73.46 59.82 116.08 9.91 M 28.82 110.29 C 47.74 90.12 66.75 69.29 116.08 9.91 M 30.24 110.19 C 65.54 70.45 100.28 33.43 117.49 9.81 M 30.24 110.19 C 62.21 74 94.51 36.4 117.49 9.81 M 31.65 110.09 C 53.1 84 78.98 57.78 118.9 9.71 M 31.65 110.09 C 59.87 78.26 87.04 47.18 118.9 9.71 M 33.06 109.99 C 65.21 71.98 99.69 34.86 119.66 10.37 M 33.06 109.99 C 55.93 83.37 78.56 58.09 119.66 10.37 M 34.47 109.89 C 55.96 84.38 77.57 61.2 121.07 10.27 M 34.47 109.89 C 69.36 70 104.83 31.4 121.07 10.27 M 35.22 110.55 C 58.35 82.72 81.31 56.49 122.48 10.17 M 35.22 110.55 C 59.09 83.83 84.18 54.94 122.48 10.17 M 36.63 110.45 C 61.41 85.87 82.71 60.77 123.89 10.07 M 36.63 110.45 C 59.56 81.68 83.98 54.81 123.89 10.07 M 38.04 110.35 C 61.72 80.94 89.37 52.51 125.3 9.97 M 38.04 110.35 C 69.43 73.62 102.05 35.99 125.3 9.97 M 39.45 110.25 C 73.88 72.76 106.84 34.67 126.71 9.87 M 39.45 110.25 C 72.21 74.58 103.18 37.39 126.71 9.87 M 40.87 110.15 C 73.79 72.02 107.66 34.63 128.12 9.78 M 40.87 110.15 C 70.33 78.03 98.08 45.12 128.12 9.78 M 42.28 110.05 C 59.42 87 80.72 67.62 129.53 9.68 M 42.28 110.05 C 61.95 88.54 80.86 65.35 129.53 9.68 M 43.69 109.95 C 69.35 83.66 94.11 52.88 130.29 10.33 M 43.69 109.95 C 67.28 83.46 89.74 56.15 130.29 10.33 M 44.44 110.61 C 75.03 74.77 108.16 33.84 131.7 10.23 M 44.44 110.61 C 64.64 87.58 83.84 65.6 131.7 10.23 M 45.85 110.51 C 67.77 84.58 90.59 56.72 133.11 10.14 M 45.85 110.51 C 78.19 71.97 110.02 34.33 133.11 10.14 M 47.26 110.41 C 78.26 71.8 113.27 34.91 134.52 10.04 M 47.26 110.41 C 76.77 76.25 106.37 42.38 134.52 10.04 M 48.67 110.31 C 69.93 89.7 88.21 66.65 135.93 9.94 M 48.67 110.31 C 77.89 77.85 105.75 45.09 135.93 9.94 M 50.08 110.22 C 82.87 74.55 111.74 38.38 137.34 9.84 M 50.08 110.22 C 75.11 80.66 101.11 50.05 137.34 9.84 M 51.5 110.12 C 82.51 76.56 109.8 40.28 138.75 9.74 M 51.5 110.12 C 75.19 84.93 97.74 58.96 138.75 9.74 M 52.91 110.02 C 85.14 70.67 116.74 36.41 140.16 9.64 M 52.91 110.02 C 71.61 89.14 88.45 67.65 140.16 9.64 M 54.32 109.92 C 73.7 87.33 94.73 59.86 140.92 10.3 M 54.32 109.92 C 74.17 87.77 92.63 66.17 140.92 10.3 M 55.07 110.58 C 79.08 80.56 104.76 51.48 142.33 10.2 M 55.07 110.58 C 90.64 70.9 124.29 31.61 142.33 10.2 M 56.48 110.48 C 75.63 86.99 99 60.96 143.74 10.1 M 56.48 110.48 C 85.21 76.74 116.31 42.66 143.74 10.1 M 57.89 110.38 C 85.42 78.67 112.91 49.38 145.15 10 M 57.89 110.38 C 88.37 76.61 118.17 42.65 145.15 10 M 59.3 110.28 C 84.07 80.83 110.15 52.05 146.56 9.9 M 59.3 110.28 C 79.75 88.45 98.89 64.35 146.56 9.9 M 60.71 110.18 C 81.87 89.78 99.33 67.86 147.97 9.81 M 60.71 110.18 C 88.46 78.08 116.54 44.91 147.97 9.81 M 62.13 110.08 C 85.62 86.72 105.44 60.99 149.38 9.71 M 62.13 110.08 C 94.05 72.83 126.02 38.02 149.38 9.71 M 63.54 109.98 C 94.75 77.9 121.96 41.36 150.14 10.36 M 63.54 109.98 C 81.8 88.82 99.72 69.12 150.14 10.36 M 64.95 109.89 C 99.54 73.16 133.02 33.98 151.55 10.26 M 64.95 109.89 C 91.74 76.6 121.49 44.58 151.55 10.26 M 65.7 110.54 C 84.68 91.51 103.1 69.52 152.96 10.17 M 65.7 110.54 C 85.73 89.02 103.51 66.48 152.96 10.17 M 67.11 110.44 C 93.28 81.79 120.17 48.92 154.37 10.07 M 67.11 110.44 C 101.41 72.51 135.6 32.29 154.37 10.07 M 68.52 110.34 C 91.99 81.91 117.69 53.43 155.78 9.97 M 68.52 110.34 C 85.46 90.61 103.55 69.57 155.78 9.97 M 69.93 110.25 C 90.6 86.32 109.01 68.71 157.19 9.87 M 69.93 110.25 C 94.29 81.55 120.02 51.89 157.19 9.87 M 71.34 110.15 C 89.98 89.89 107.71 68.39 158.6 9.77 M 71.34 110.15 C 103.32 73.19 135.64 36.44 158.6 9.77 M 72.76 110.05 C 92.47 88.61 110.19 66.74 160.01 9.67 M 72.76 110.05 C 93.82 85.56 116.76 60.35 160.01 9.67 M 74.17 109.95 C 109.78 72.18 141.31 31.31 160.77 10.33 M 74.17 109.95 C 101.26 78.87 126.17 48.84 160.77 10.33 M 74.92 110.61 C 99.69 84.21 120.2 57.83 162.18 10.23 M 74.92 110.61 C 92.62 90.34 108.26 71.53 162.18 10.23 M 76.33 110.51 C 110.93 71.05 145.27 33.26 163.59 10.13 M 76.33 110.51 C 110.78 69.73 145.31 29.82 163.59 10.13 M 77.74 110.41 C 95.18 87.73 115.91 67.39 165 10.03 M 77.74 110.41 C 107.16 77.3 134.6 45.37 165 10.03 M 79.15 110.31 C 111.6 74.78 142.8 38.26 166.41 9.93 M 79.15 110.31 C 98.02 88.2 116.51 65.05 166.41 9.93 M 80.56 110.21 C 108.34 74.43 139.33 40.72 167.82 9.84 M 80.56 110.21 C 107.89 78.9 135.88 47.6 167.82 9.84 M 81.97 110.11 C 116.84 70.38 148.06 33.4 169.23 9.74 M 81.97 110.11 C 110.81 79.84 136.61 48.59 169.23 9.74 M 83.39 110.01 C 116.44 72.31 151.7 31.5 170.64 9.64 M 83.39 110.01 C 113.23 75.43 143.4 42.17 170.64 9.64 M 84.8 109.92 C 112.29 76.7 144.81 39.63 171.4 10.29 M 84.8 109.92 C 103.69 87.41 123.17 67.03 171.4 10.29 M 85.55 110.57 C 103.68 89.66 124.9 65.13 172.81 10.2 M 85.55 110.57 C 106.36 86.36 128.71 60.88 172.81 10.2 M 86.96 110.47 C 111.12 82.92 133.74 56.57 174.22 10.1 M 86.96 110.47 C 108.56 85.12 129.16 60.04 174.22 10.1 M 88.37 110.37 C 116.15 78.81 140.78 50.19 175.63 10 M 88.37 110.37 C 121.73 73.24 153.88 36.01 175.63 10 M 89.78 110.28 C 122.43 72.85 154.54 37.45 177.04 9.9 M 89.78 110.28 C 117.16 77.5 143.24 47.3 177.04 9.9 M 91.19 110.18 C 123.73 69.65 158.94 28.61 178.45 9.8 M 91.19 110.18 C 120.35 77.22 148.1 44.25 178.45 9.8 M 92.6 110.08 C 125.17 70.4 157.75 36.12 179.86 9.7 M 92.6 110.08 C 119.46 82.34 144.53 53.66 179.86 9.7 M 94.02 109.98 C 122.31 75.14 152.45 44.97 180.62 10.36 M 94.02 109.98 C 115.03 86.71 135.45 62.13 180.62 10.36 M 94.77 110.64 C 115.38 85.34 139.25 61.93 182.03 10.26 M 94.77 110.64 C 118.4 85.2 140.02 58.44 182.03 10.26 M 96.18 110.54 C 130.46 74.33 160.6 32.26 183.44 10.16 M 96.18 110.54 C 120.87 82.94 145.34 54.8 183.44 10.16 M 97.59 110.44 C 123.79 79.7 147.51 53.82 184.85 10.06 M 97.59 110.44 C 120.49 81.33 145.96 55.13 184.85 10.06 M 99 110.34 C 126.66 79.52 156.61 45.85 186.26 9.96 M 99 110.34 C 125.48 78.35 154.15 46.36 186.26 9.96 M 100.41 110.24 C 132.14 75.13 158.06 43.91 187.67 9.86 M 100.41 110.24 C 133.95 72.35 165.92 34.25 187.67 9.86 M 101.82 110.14 C 130.71 76.41 162.57 40.74 189.08 9.77 M 101.82 110.14 C 129.51 77.94 158.31 45.34 189.08 9.77 M 103.24 110.04 C 122.63 89.47 141.97 65.97 190.49 9.67 M 103.24 110.04 C 137.81 70.7 172.48 29.72 190.49 9.67 M 104.65 109.95 C 135.32 72.39 165.83 37.74 191.25 10.32 M 104.65 109.95 C 136.19 74.92 164.85 39.39 191.25 10.32 M 105.4 110.6 C 135.03 74.75 167.18 41.22 192.66 10.22 M 105.4 110.6 C 135.55 77.36 165.72 44.54 192.66 10.22 M 106.81 110.5 C 131.06 81.03 160.24 50.16 194.07 10.13 M 106.81 110.5 C 131.98 80.02 159.78 51.27 194.07 10.13 M 108.22 110.4 C 133.12 83.24 154.83 52.84 195.48 10.03 M 108.22 110.4 C 141.68 70.2 175.89 31.05 195.48 10.03 M 109.63 110.31 C 144.05 70.22 179.02 30.59 196.89 9.93 M 109.63 110.31 C 143.7 70.49 177.96 32.28 196.89 9.93 M 111.04 110.21 C 138.34 77.13 168.57 47.07 198.3 9.83 M 111.04 110.21 C 141.51 77.13 170.74 42.37 198.3 9.83 M 112.45 110.11 C 138.63 77.31 169.86 43.61 199.71 9.73 M 112.45 110.11 C 141.16 77.51 168.16 45.37 199.71 9.73 M 113.87 110.01 C 147.74 72.67 179.71 37.83 201.12 9.63 M 113.87 110.01 C 143.52 74.86 173.75 40.86 201.12 9.63 M 115.28 109.91 C 131.85 88.65 151.48 66.56 201.88 10.29 M 115.28 109.91 C 139.66 82.11 163.48 54.17 201.88 10.29 M 116.03 110.57 C 139.56 82.31 163.78 52.7 203.29 10.19 M 116.03 110.57 C 147.72 74.59 178.1 37.97 203.29 10.19 M 117.44 110.47 C 146.28 79.27 172.36 48.15 204.7 10.09 M 117.44 110.47 C 145.5 78.05 173.67 44.82 204.7 10.09 M 118.85 110.37 C 144.75 82.79 166.92 52.81 206.11 9.99 M 118.85 110.37 C 145.76 79.93 172.23 50.15 206.11 9.99 M 120.26 110.27 C 144.81 83.4 167.84 56.94 207.52 9.89 M 120.26 110.27 C 154.74 70.18 190.05 30.42 207.52 9.89 M 121.67 110.17 C 152.69 74.34 183.24 40.36 208.93 9.8 M 121.67 110.17 C 146.35 80.11 172.78 49.98 208.93 9.8 M 123.08 110.07 C 147.4 85.99 169.54 58.83 210.34 9.7 M 123.08 110.07 C 153.14 77.88 181.28 44.35 210.34 9.7 M 124.5 109.97 C 145.64 83.94 169.12 57.96 211.1 10.35 M 124.5 109.97 C 144.95 85.03 167.1 61.5 211.1 10.35 M 125.25 110.63 C 147.98 83.27 169.15 58.64 212.51 10.25 M 125.25 110.63 C 148.07 85.39 169.27 59.54 212.51 10.25 M 126.66 110.53 C 154.06 81.73 177.15 51.89 213.92 10.16 M 126.66 110.53 C 148.03 88.48 167.35 64.42 213.92 10.16 M 128.07 110.43 C 158.04 72.23 191.69 37.36 215.33 10.06 M 128.07 110.43 C 159.24 74.72 190.64 37.19 215.33 10.06 M 129.48 110.33 C 160.33 75.6 190.96 36.9 216.74 9.96 M 129.48 110.33 C 156.72 78.72 184.97 46.6 216.74 9.96 M 130.89 110.24 C 159.74 79.31 185.63 48.98 218.15 9.86 M 130.89 110.24 C 160.42 76.88 190.04 44.29 218.15 9.86 M 132.3 110.14 C 157.37 81.86 184.36 52.85 219.56 9.76 M 132.3 110.14 C 165.05 74.57 197.13 36.36 219.56 9.76 M 133.71 110.04 C 158.39 79.3 185.24 51.13 220.97 9.66 M 133.71 110.04 C 163.25 74.98 195.3 40.28 220.97 9.66 M 135.13 109.94 C 163.14 80.04 189.75 48.57 221.73 10.32 M 135.13 109.94 C 153 89.12 172.32 67.18 221.73 10.32 M 135.88 110.6 C 153.3 90.94 171.62 68.94 223.14 10.22 M 135.88 110.6 C 158.22 85.31 182.53 58.47 223.14 10.22 M 137.29 110.5 C 154.7 90.32 175.54 70.13 224.55 10.12 M 137.29 110.5 C 160.43 83.5 183.44 56.31 224.55 10.12 M 138.7 110.4 C 174.25 73.57 206.95 35.41 225.96 10.02 M 138.7 110.4 C 157.59 88.3 175.44 66.79 225.96 10.02 M 140.11 110.3 C 168.02 79 195.2 44.45 227.37 9.92 M 140.11 110.3 C 169.67 74.69 202.29 38.6 227.37 9.92 M 141.52 110.2 C 161.3 88.21 180.19 64.98 228.78 9.83 M 141.52 110.2 C 160.55 87.28 179.57 64.64 228.78 9.83 M 142.93 110.1 C 173.47 75.09 204.01 37.83 230.19 9.73 M 142.93 110.1 C 165.23 85.46 187.08 58.63 230.19 9.73 M 144.34 110 C 175.51 71.42 209.69 34.64 231.6 9.63 M 144.34 110 C 179.32 69.28 213.86 29.67 231.6 9.63 M 145.76 109.91 C 182.3 72.2 215.62 31.03 232.36 10.28 M 145.76 109.91 C 175.91 75.23 205.9 42.35 232.36 10.28 M 146.51 110.56 C 164.68 89.11 186.15 66.63 233.77 10.19 M 146.51 110.56 C 175.47 76.86 204.6 43.82 233.77 10.19 M 147.92 110.46 C 170.57 81.26 195.06 54.45 235.18 10.09 M 147.92 110.46 C 180.05 71.5 214.58 33.58 235.18 10.09 M 149.33 110.36 C 176.82 76.21 204.88 47.18 236.59 9.99 M 149.33 110.36 C 175.25 80.85 201.49 49.58 236.59 9.99 M 150.74 110.27 C 169.49 88.49 190.85 64.87 238 9.89 M 150.74 110.27 C 177.69 79.42 206.39 47.84 238 9.89 M 152.15 110.17 C 180.31 74.35 214.07 37.02 239.41 9.79 M 152.15 110.17 C 174.41 82.99 199.18 55.07 239.41 9.79 M 153.56 110.07 C 187.18 69.64 224.47 28.87 240.82 9.69 M 153.56 110.07 C 176.88 84.23 200.6 56.18 240.82 9.69 M 154.97 109.97 C 177.07 85.28 200.4 60.53 241.57 10.35 M 154.97 109.97 C 179.54 82.49 203.33 54.59 241.57 10.35 M 155.73 110.63 C 182.98 76.91 215 43.46 242.99 10.25 M 155.73 110.63 C 187.11 75.82 217.31 39.15 242.99 10.25 M 157.14 110.53 C 178 87.42 193.45 65.31 244.4 10.15 M 157.14 110.53 C 180.18 83.82 202.22 57.48 244.4 10.15 M 158.55 110.43 C 189.88 75.89 219.98 40.16 245.81 10.05 M 158.55 110.43 C 182.52 82.68 208.04 54.6 245.81 10.05 M 159.96 110.33 C 187.11 79.98 213.12 48.4 247.22 9.95 M 159.96 110.33 C 181.16 86.45 200.64 63.86 247.22 9.95 M 161.37 110.23 C 187.82 81.26 215.99 49.2 248.63 9.86 M 161.37 110.23 C 189.33 79.48 216.35 48.9 248.63 9.86 M 162.78 110.13 C 183.79 82.31 208.2 57.78 250.04 9.76 M 162.78 110.13 C 186.37 82.04 211.61 53.74 250.04 9.76 M 164.19 110.03 C 184.68 84.57 208.02 59.05 251.45 9.66 M 164.19 110.03 C 191.11 77.23 219.89 45.48 251.45 9.66 M 165.6 109.94 C 188.2 85.98 206.57 61.32 252.2 10.31 M 165.6 109.94 C 183.58 90.52 201.07 70.44 252.2 10.31 M 166.36 110.59 C 199.01 71.72 232.15 33.92 253.62 10.22 M 166.36 110.59 C 197.89 74.28 229.88 37.64 253.62 10.22 M 167.77 110.49 C 200.64 74.74 231.17 37.72 255.03 10.12 M 167.77 110.49 C 189.62 84.31 213.92 57.55 255.03 10.12 M 169.18 110.39 C 190.8 85.78 212.59 60.84 256.44 10.02 M 169.18 110.39 C 191.83 82.98 213.81 57.26 256.44 10.02 M 170.59 110.3 C 195.05 79.57 222.39 49.7 257.85 9.92 M 170.59 110.3 C 188.55 90.98 205.42 69.48 257.85 9.92 M 172 110.2 C 191.73 88.96 209.99 67.16 259.26 9.82 M 172 110.2 C 193.68 84.71 216.35 59.71 259.26 9.82 M 173.41 110.1 C 196.54 82.09 219.11 57.08 260.67 9.72 M 173.41 110.1 C 198.25 82.88 220.49 55.16 260.67 9.72 M 174.82 110 C 204.52 72.99 237.64 39.23 262.08 9.62 M 174.82 110 C 201 78.32 229.14 46.48 262.08 9.62 M 176.23 109.9 C 204.6 76.99 232.5 44.67 262.83 10.28 M 176.23 109.9 C 208.31 71.67 242.83 33.99 262.83 10.28 M 176.99 110.56 C 210.18 73.17 239.21 40.64 264.25 10.18 M 176.99 110.56 C 198.93 84.71 221.57 59.73 264.25 10.18 M 178.4 110.46 C 213.06 71.55 243.14 32.4 265.66 10.08 M 178.4 110.46 C 207.61 76.26 237.34 42.05 265.66 10.08 M 179.81 110.36 C 202.43 88.11 220.96 63.53 267.07 9.98 M 179.81 110.36 C 201.08 84.52 222.08 59.77 267.07 9.98 M 181.22 110.26 C 202.54 87.37 219.43 63.45 268.48 9.88 M 181.22 110.26 C 203.28 84.88 223.47 62.95 268.48 9.88 M 182.63 110.16 C 215.78 70.44 251.85 31.37 269.89 9.79 M 182.63 110.16 C 203.28 85.13 223.48 62.33 269.89 9.79 M 184.04 110.06 C 214.48 76.38 243.55 45.56 271.3 9.69 M 184.04 110.06 C 205.85 85.2 227.46 61.08 271.3 9.69 M 185.45 109.97 C 217.18 73.08 250.25 37.97 272.05 10.34 M 185.45 109.97 C 216.86 74.07 248.94 36.04 272.05 10.34 M 186.21 110.62 C 221.85 70.59 254.87 30.5 273.46 10.24 M 186.21 110.62 C 205.09 88.55 223.95 65.49 273.46 10.24 M 187.62 110.52 C 216.12 80.27 245.36 48.57 274.88 10.15 M 187.62 110.52 C 220.23 73.58 252.4 37.84 274.88 10.15 M 189.03 110.42 C 209.18 89.77 228.08 69.21 276.29 10.05 M 189.03 110.42 C 216.51 79.95 243.21 49.37 276.29 10.05 M 190.44 110.33 C 218.4 76.14 248.29 43.39 277.7 9.95 M 190.44 110.33 C 220.81 75.33 251.93 42.19 277.7 9.95 M 191.85 110.23 C 210.95 85.49 231.88 63.62 279.11 9.85 M 191.85 110.23 C 221.14 77.6 252.42 43.77 279.11 9.85 M 193.26 110.13 C 215.25 85.44 238.04 59.72 280.52 9.75 M 193.26 110.13 C 228.67 70.8 262.82 30.83 280.52 9.75 M 194.67 110.03 C 227.51 73.59 260.22 35.58 281.93 9.65 M 194.67 110.03 C 213 87.44 232.14 66 281.93 9.65 M 196.08 109.93 C 224.84 79.25 250.06 46.98 282.68 10.31 M 196.08 109.93 C 228.25 71.79 262.43 33.02 282.68 10.31 M 196.84 110.59 C 213.23 90.32 233.89 66.9 284.09 10.21 M 196.84 110.59 C 224.76 78.04 254.85 44.38 284.09 10.21 M 198.25 110.49 C 224.47 80.53 251.8 47.11 285.51 10.11 M 198.25 110.49 C 233.41 70.82 267.64 32.07 285.51 10.11 M 199.66 110.39 C 215.8 89.65 236.54 68.22 286.92 10.01 M 199.66 110.39 C 233.6 71.51 268.08 33.63 286.92 10.01 M 201.07 110.29 C 234.9 71.19 266.85 35.75 288.33 9.91 M 201.07 110.29 C 222.64 83.59 244.64 58.87 288.33 9.91 M 202.48 110.19 C 226.19 84.09 246.46 60.35 289.74 9.82 M 202.48 110.19 C 228.5 77.91 256.99 46.85 289.74 9.82 M 203.89 110.09 C 224.67 83.05 251.55 59.08 291.15 9.72 M 203.89 110.09 C 222.05 87.96 240.76 67.7 291.15 9.72 M 205.3 109.99 C 235.33 76.14 265.42 37.81 291.9 10.37 M 205.3 109.99 C 238.72 71.53 272.59 32.12 291.9 10.37 M 206.71 109.9 C 226.86 87.31 249.71 60.3 293.31 10.27 M 206.71 109.9 C 230.11 82.01 255.49 54.24 293.31 10.27 M 207.47 110.55 C 236.57 76.87 264.76 46.06 294.72 10.18 M 207.47 110.55 C 235.86 76.97 265.21 43.42 294.72 10.18 M 208.88 110.45 C 238.88 75.19 271.68 39.46 296.14 10.08 M 208.88 110.45 C 231.58 84.53 251.47 60.63 296.14 10.08 M 210.29 110.35 C 236.84 80.14 261.25 50.32 297.55 9.98 M 210.29 110.35 C 243.23 74.69 274.67 38.72 297.55 9.98 M 211.7 110.26 C 232.11 87.1 252.92 60.45 298.96 9.88 M 211.7 110.26 C 238.61 79.26 264.21 47.71 298.96 9.88 M 213.11 110.16 C 236.17 84.09 255.91 62.51 300.37 9.78 M 213.11 110.16 C 246.64 71.42 279.76 31.79 300.37 9.78 M 214.52 110.06 C 236.25 82.86 260.67 59.03 301.78 9.68 M 214.52 110.06 C 232.86 88.49 252.2 64.7 301.78 9.68 M 215.93 109.96 C 249.74 69.63 285.64 33.21 302.53 10.34 M 215.93 109.96 C 248.43 71.2 281.64 34.8 302.53 10.34 M 216.69 110.62 C 247.77 71.07 280.84 33.5 303.94 10.24 M 216.69 110.62 C 245.81 75.16 277.51 40.01 303.94 10.24 M 218.1 110.52 C 242.89 84.57 264.42 58.42 305.36 10.14 M 218.1 110.52 C 238.19 89.02 256.65 68.33 305.36 10.14 M 219.51 110.42 C 245.52 79.33 271.31 50.67 306.77 10.04 M 219.51 110.42 C 240.72 88.41 261.88 63.17 306.77 10.04 M 220.92 110.32 C 242.78 86.95 260.05 65.28 308.18 9.94 M 220.92 110.32 C 243.23 83.96 264.62 57.16 308.18 9.94 M 222.33 110.22 C 248.58 76.46 277.5 43.85 309.59 9.85 M 222.33 110.22 C 255.78 72.2 290.82 32.67 309.59 9.85 M 223.74 110.12 C 250.26 77.32 279.86 45.82 311 9.75 M 223.74 110.12 C 253.92 76.17 283.42 40.75 311 9.75 M 225.15 110.02 C 249.6 82.12 274.56 54.74 312.41 9.65 M 225.15 110.02 C 252.2 78.52 281.31 46.03 312.41 9.65 M 226.56 109.93 C 247.1 84.89 272.54 60.75 313.16 10.3 M 226.56 109.93 C 261.13 72.65 295.3 32.52 313.16 10.3 M 227.32 110.58 C 259.36 70.75 293.6 33.14 314.57 10.21 M 227.32 110.58 C 256.02 78.25 284.51 45.87 314.57 10.21 M 228.73 110.48 C 263.01 71.92 295.4 34.3 315.99 10.11 M 228.73 110.48 C 247.02 88.84 265.73 67.75 315.99 10.11 M 230.14 110.38 C 246.05 88.97 265.86 66.7 317.4 10.01 M 230.14 110.38 C 253.94 83.09 277.05 56.39 317.4 10.01 M 231.55 110.29 C 260.41 74.86 291.45 41.69 318.81 9.91 M 231.55 110.29 C 256.87 82.92 280.48 52.54 318.81 9.91 M 232.96 110.19 C 259.05 81.19 285.97 49.94 320.22 9.81 M 232.96 110.19 C 251.79 87.09 271.75 66.61 320.22 9.81 M 234.37 110.09 C 254.92 86.54 276.15 61.07 321.63 9.71 M 234.37 110.09 C 252.16 88.59 271.64 68.23 321.63 9.71 M 235.78 109.99 C 266.15 74.36 299.94 37.94 322.38 10.37 M 235.78 109.99 C 253.57 88.37 273.09 66.37 322.38 10.37 M 237.19 109.89 C 262.02 82.46 284.23 57.04 323.79 10.27 M 237.19 109.89 C 257.31 86.27 278.55 63.68 323.79 10.27 M 237.95 110.55 C 264.76 84.17 288.84 54.81 325.2 10.17 M 237.95 110.55 C 262.8 80.11 289.27 52.47 325.2 10.17 M 239.36 110.45 C 257.91 91.51 272.62 70.37 326.62 10.07 M 239.36 110.45 C 266.16 81.6 292.06 50.91 326.62 10.07 M 240.77 110.35 C 263.55 80.77 289.43 50.05 328.03 9.97 M 240.77 110.35 C 264.32 86.17 287.18 60.01 328.03 9.97 M 242.18 110.25 C 276.19 70.11 309.3 33.81 329.44 9.88 M 242.18 110.25 C 262.52 84.11 284.96 59.52 329.44 9.88 M 243.59 110.15 C 274.6 70.46 308.39 33.73 330.85 9.78 M 243.59 110.15 C 270.1 79.31 295.89 48.78 330.85 9.78 M 245 110.05 C 274.95 73.76 305.3 38.08 332.26 9.68 M 245 110.05 C 278.08 72.23 311.83 31.69 332.26 9.68 M 246.41 109.96 C 278.55 76.35 306.07 38.84 333.01 10.33 M 246.41 109.96 C 265.23 87.7 284.09 65 333.01 10.33 M 247.17 110.61 C 278.03 76.93 309.33 40.31 334.42 10.24 M 247.17 110.61 C 274.98 78.41 304.05 46.59 334.42 10.24 M 248.58 110.51 C 277.05 77.01 302.63 46.03 335.83 10.14 M 248.58 110.51 C 282.69 72.52 314.9 33.59 335.83 10.14 M 249.99 110.41 C 273.89 83.01 295.53 54.07 337.25 10.04 M 249.99 110.41 C 278 78.33 304.4 44.98 337.25 10.04 M 251.4 110.32 C 286.2 70.33 318.28 30.3 338.66 9.94 M 251.4 110.32 C 278.4 78.18 305.34 48.57 338.66 9.94 M 252.81 110.22 C 276.06 82.87 300.33 55.77 340.07 9.84 M 252.81 110.22 C 285.44 73.13 316.63 37.71 340.07 9.84 M 254.22 110.12 C 275.97 87.42 296.17 64.46 341.48 9.74 M 254.22 110.12 C 286.35 73.31 316.54 37.78 341.48 9.74 M 255.63 110.02 C 290.85 71.47 323.16 33.38 342.89 9.64 M 255.63 110.02 C 281.15 79.77 306.94 50.08 342.89 9.64 M 257.04 109.92 C 282.23 79.83 305.7 51.35 343.64 10.3 M 257.04 109.92 C 278.13 84.79 300.19 58.46 343.64 10.3 M 257.8 110.58 C 280.55 83.68 308.28 54.36 345.05 10.2 M 257.8 110.58 C 280.15 85.89 302.53 60.54 345.05 10.2 M 259.21 110.48 C 288.44 78.1 319.26 41.62 346.46 10.1 M 259.21 110.48 C 283.34 81.67 308.66 53.6 346.46 10.1 M 260.62 110.38 C 289.4 75.43 321.97 42.42 347.88 10 M 260.62 110.38 C 284.34 84.47 306.37 57.45 347.88 10 M 262.03 110.28 C 294.19 74.96 324.71 34.78 349.29 9.9 M 262.03 110.28 C 291.29 76.73 321.74 41.78 349.29 9.9 M 263.44 110.18 C 296.81 71.66 329.07 33.9 350.7 9.81 M 263.44 110.18 C 284.55 88.34 303.29 65.65 350.7 9.81 M 264.85 110.08 C 291.7 81.69 314.28 53.51 352.11 9.71 M 264.85 110.08 C 289.62 80.93 315.86 51.57 352.11 9.71 M 266.26 109.99 C 288.32 80.29 312.08 55.76 352.86 10.36 M 266.26 109.99 C 295.86 77 323.97 43.37 352.86 10.36 M 267.67 109.89 C 286.81 90.1 301.95 66.71 354.27 10.26 M 267.67 109.89 C 285.42 89.4 303.71 68.54 354.27 10.26 M 268.43 110.54 C 301.92 71.53 337.31 31.65 355.68 10.17 M 268.43 110.54 C 289.6 85.67 312.19 60.27 355.68 10.17 M 269.84 110.44 C 302.57 71.45 339.92 31.51 357.09 10.07 M 269.84 110.44 C 298.74 77.5 326.55 46.39 357.09 10.07 M 271.25 110.35 C 300.34 76.67 332.64 43.3 358.51 9.97 M 271.25 110.35 C 300.45 76.15 332.51 40.44 358.51 9.97 M 272.66 110.25 C 295.16 86.17 313.89 60.93 359.92 9.87 M 272.66 110.25 C 294.06 86.18 314.53 60.1 359.92 9.87 M 274.07 110.15 C 291.47 86.79 310.46 66.63 361.33 9.77 M 274.07 110.15 C 296.56 83.78 318.4 57.32 361.33 9.77 M 275.48 110.05 C 309.98 70.59 343 32.2 362.74 9.67 M 275.48 110.05 C 294.47 90.46 312.96 68.45 362.74 9.67 M 276.89 109.95 C 310.47 73.9 339.2 38.34 363.49 10.33 M 276.89 109.95 C 303.04 77.66 330.55 46.9 363.49 10.33 M 277.65 110.61 C 306.8 77 340.43 40.52 364.9 10.23 M 277.65 110.61 C 312.51 70.45 348.1 30.06 364.9 10.23 M 279.06 110.51 C 297.15 89.07 313.36 68.85 366.31 10.13 M 279.06 110.51 C 307.15 77.69 334.66 45.8 366.31 10.13 M 280.47 110.41 C 305.59 83.62 330.87 52.28 367.72 10.03 M 280.47 110.41 C 313.98 70.14 348.74 32.19 367.72 10.03 M 281.88 110.31 C 302.64 89.41 320.29 67.33 369.14 9.93 M 281.88 110.31 C 314.71 73.64 347.56 34.35 369.14 9.93 M 283.29 110.21 C 308.21 81.14 331.91 55.75 370.55 9.84 M 283.29 110.21 C 312.73 76.23 343.73 41.17 370.55 9.84 M 284.7 110.11 C 312.28 76.44 345.92 41.88 371.96 9.74 M 284.7 110.11 C 307.86 83.22 330.69 56.59 371.96 9.74 M 286.11 110.01 C 319 71.45 350.62 35.85 373.37 9.64 M 286.11 110.01 C 305.44 87.94 324.91 66.48 373.37 9.64 M 287.52 109.92 C 306.39 91.06 323.56 67.96 374.12 10.29 M 287.52 109.92 C 308.3 85.94 329.92 61.16 374.12 10.29 M 288.28 110.57 C 322.02 74.92 351.36 37.52 375.53 10.2 M 288.28 110.57 C 318.64 76.97 346.54 42.54 375.53 10.2 M 289.69 110.47 C 312.5 82.21 339.85 55.63 376.94 10.1 M 289.69 110.47 C 313.15 83.98 336.68 57.27 376.94 10.1 M 291.1 110.37 C 318.64 82.55 344.22 49.71 378.35 10 M 291.1 110.37 C 308.71 89.76 328.54 67.33 378.35 10 M 292.51 110.28 C 319.11 79.66 343.47 48.34 379.77 9.9 M 292.51 110.28 C 324.92 73.13 357.16 37.43 379.77 9.9 M 293.92 110.18 C 319.52 79.46 345.05 52.85 381.18 9.8 M 293.92 110.18 C 324.93 73.58 356.61 37.86 381.18 9.8 M 295.33 110.08 C 322.28 81.2 348.4 52.33 382.59 9.7 M 295.33 110.08 C 316.25 85.11 339.79 60 382.59 9.7 M 296.74 109.98 C 318.22 83.46 341.98 57.78 383.34 10.36 M 296.74 109.98 C 317.45 87.38 337.59 63.97 383.34 10.36 M 298.15 109.88 C 323.97 78.11 353.89 43.11 384.75 10.26 M 298.15 109.88 C 328.77 76.12 358.33 42.55 384.75 10.26 M 298.91 110.54 C 325.59 81.73 349.55 49.32 386.16 10.16 M 298.91 110.54 C 327.3 77.25 356.67 44.08 386.16 10.16 M 300.32 110.44 C 328.43 73.72 360.61 42.78 387.57 10.06 M 300.32 110.44 C 326.89 80.4 354.78 50.54 387.57 10.06 M 301.73 110.34 C 323.88 85.58 346.24 59.12 388.99 9.96 M 301.73 110.34 C 326.37 80.26 352.82 51.58 388.99 9.96 M 303.14 110.24 C 334.2 75.91 361.98 42.85 390.4 9.87 M 303.14 110.24 C 330.92 78.32 358.93 45.44 390.4 9.87 M 304.55 110.14 C 334.72 77.87 364.5 42.87 391.81 9.77 M 304.55 110.14 C 337.19 73.5 368.26 37.46 391.81 9.77 M 305.96 110.04 C 324.81 89.41 343.51 70.2 393.22 9.67 M 305.96 110.04 C 327.56 85.39 347.35 61.53 393.22 9.67 M 307.37 109.95 C 337.03 79.97 361.75 44.84 393.97 10.32 M 307.37 109.95 C 339.29 72.85 370.54 36.71 393.97 10.32 M 308.13 110.6 C 332.04 83.82 353.39 56.09 395.38 10.23 M 308.13 110.6 C 325.1 88.85 343.76 69.52 395.38 10.23 M 309.54 110.5 C 342.61 74.6 375.1 34.95 396.79 10.13 M 309.54 110.5 C 335.58 81.66 360.66 51.15 396.79 10.13 M 310.95 110.4 C 340.87 75.5 372.39 42.16 398.2 10.03 M 310.95 110.4 C 332.71 85.47 353.69 62.27 398.2 10.03 M 312.36 110.31 C 346.39 71.63 377.01 33.28 399.62 9.93 M 312.36 110.31 C 342.6 75.8 372.87 41.29 399.62 9.93 M 313.77 110.21 C 335.85 82.58 360.58 55.25 401.03 9.83 M 313.77 110.21 C 334.5 85.4 356.52 60.63 401.03 9.83 M 315.18 110.11 C 338.01 84.46 358.53 59.91 402.44 9.73 M 315.18 110.11 C 340.62 78.85 366.86 48.95 402.44 9.73 M 316.59 110.01 C 337.25 85.4 354.9 63.73 403.85 9.63 M 316.59 110.01 C 337.59 88.01 356.99 65.19 403.85 9.63 M 318 109.91 C 353.48 70.46 387.97 32.65 404.6 10.29 M 318 109.91 C 344.63 78.19 373.14 46.69 404.6 10.29 M 318.76 110.57 C 352.24 71.55 386.93 34.67 406.01 10.19 M 318.76 110.57 C 340.82 86.74 361.93 61.14 406.01 10.19 M 320.17 110.47 C 339.8 86.93 361.37 65.87 407.42 10.09 M 320.17 110.47 C 350.02 76.23 377.6 43.8 407.42 10.09 M 321.58 110.37 C 339.71 88.48 361.91 66.67 408.83 9.99 M 321.58 110.37 C 345.91 82.82 369.96 54.06 408.83 9.99 M 322.99 110.27 C 350.93 76.35 383.92 41.93 410.25 9.9 M 322.99 110.27 C 346.5 82.5 370.88 54.66 410.25 9.9 M 324.4 110.17 C 345.4 84.02 366.89 57.76 411.66 9.8 M 324.4 110.17 C 354.95 74.24 386.46 38.85 411.66 9.8 M 325.81 110.07 C 348.47 82.15 373.23 56.75 413.07 9.7 M 325.81 110.07 C 349.75 83.16 371.5 55.86 413.07 9.7 M 327.22 109.98 C 353.32 81.3 376.91 53.23 413.82 10.35 M 327.22 109.98 C 348.03 87.34 366.05 65.58 413.82 10.35 M 327.98 110.63 C 353.43 78.92 382.86 46.86 415.23 10.26 M 327.98 110.63 C 362.89 72.05 396.82 30.43 415.23 10.26 M 329.39 110.53 C 349.12 92.11 365.2 69.52 416.64 10.16 M 329.39 110.53 C 355.87 82.83 379.38 54.33 416.64 10.16 M 330.8 110.43 C 357.72 76.33 389.35 45.48 418.05 10.06 M 330.8 110.43 C 361.71 74.82 391.66 39.97 418.05 10.06 M 332.21 110.34 C 359.77 80.41 387.7 47.86 419.46 9.96 M 332.21 110.34 C 352.83 86.71 372.32 62.32 419.46 9.96 M 333.62 110.24 C 368.58 72.93 401.05 36.09 420.88 9.86 M 333.62 110.24 C 368.05 70.32 400.83 31.6 420.88 9.86 M 335.03 110.14 C 352.78 90.38 371.65 68.5 422.29 9.76 M 335.03 110.14 C 357.18 83.44 380.58 54.92 422.29 9.76 M 336.44 110.04 C 356.3 88.27 378.89 60.69 423.7 9.66 M 336.44 110.04 C 369.14 72.47 401.27 36.25 423.7 9.66 M 337.85 109.94 C 367.27 73.65 396.98 38.77 424.45 10.32 M 337.85 109.94 C 360.96 85.25 380.75 60.32 424.45 10.32 M 338.61 110.6 C 362.7 81.14 390.7 49.74 425.86 10.22 M 338.61 110.6 C 366.62 77.82 393.44 45.92 425.86 10.22 M 340.02 110.5 C 364.96 83.94 387.63 54.81 427.27 10.12 M 340.02 110.5 C 368.05 77.05 395.72 45.09 427.27 10.12 M 341.43 110.4 C 365.08 79.7 390.43 52.74 428.68 10.02 M 341.43 110.4 C 363.75 83.54 387.04 57.88 428.68 10.02 M 342.84 110.3 C 371.52 75.79 403.59 38.26 430.09 9.92 M 342.84 110.3 C 370.76 77.27 399.32 45.14 430.09 9.92 M 344.25 110.2 C 371.52 78.68 396.68 51.09 431.51 9.83 M 344.25 110.2 C 363.46 89.51 381.1 68.62 431.51 9.83 M 345.66 110.1 C 369.33 84.26 392.48 53.96 432.92 9.73 M 345.66 110.1 C 377.91 70.55 412.33 32.28 432.92 9.73 M 347.07 110.01 C 365.12 90.33 384.69 69.19 434.33 9.63 M 347.07 110.01 C 376.42 78.96 403.45 46.47 434.33 9.63 M 348.48 109.91 C 376.92 78.46 405.63 44.48 435.08 10.28 M 348.48 109.91 C 374.06 81.34 400.4 51.23 435.08 10.28 M 349.24 110.56 C 369.08 87.42 387.64 65.29 436.49 10.19 M 349.24 110.56 C 385.38 69.7 418.73 31.09 436.49 10.19 M 350.65 110.46 C 378.22 77.29 408.05 44.83 437.9 10.09 M 350.65 110.46 C 381.19 75.09 412.6 39.17 437.9 10.09 M 352.06 110.37 C 383 74.72 416.69 35.19 439.31 9.99 M 352.06 110.37 C 384.13 70.59 417.74 33.68 439.31 9.99 M 353.47 110.27 C 378.87 81.29 406.33 48.52 440.72 9.89 M 353.47 110.27 C 384.06 76.26 413.67 42.44 440.72 9.89 M 354.88 110.17 C 386.84 71.31 420.9 34.45 442.14 9.79 M 354.88 110.17 C 374.16 87.72 392.59 65.21 442.14 9.79 M 356.29 110.07 C 390.99 67.84 426.13 28.25 443.55 9.69 M 356.29 110.07 C 382.05 77.91 409.53 47.5 443.55 9.69 M 357.7 109.97 C 376.44 89.73 393.53 69.7 444.3 10.35 M 357.7 109.97 C 377.98 85.36 398.81 63.46 444.3 10.35 M 358.46 110.63 C 389.11 74.93 424.12 37.24 445.71 10.25 M 358.46 110.63 C 392.74 72.81 426.48 33.28 445.71 10.25 M 359.87 110.53 C 389.68 78.94 417.76 48.55 447.12 10.15 M 359.87 110.53 C 388.79 77.87 417.96 44.29 447.12 10.15 M 361.28 110.43 C 386.8 80.57 413.2 47.96 448.53 10.05 M 361.28 110.43 C 381.66 89.48 400.77 67.23 448.53 10.05 M 362.69 110.33 C 395.64 72.48 432.39 33.89 449.94 9.95 M 362.69 110.33 C 383.05 87.98 400.12 67.62 449.94 9.95 M 364.1 110.23 C 391.19 83 415.55 52.6 451.35 9.86 M 364.1 110.23 C 390.54 80.14 419.02 48.72 451.35 9.86 M 365.51 110.13 C 385.3 85.95 407.08 59.4 452.77 9.76 M 365.51 110.13 C 395.25 75.29 425.48 39.84 452.77 9.76 M 366.92 110.03 C 396.2 79.33 422.42 45.66 454.18 9.66 M 366.92 110.03 C 388.88 83.39 410.73 58.42 454.18 9.66 M 368.33 109.94 C 392.14 81.74 413.06 55.17 454.93 10.31 M 368.33 109.94 C 386.69 88.54 405.1 67.74 454.93 10.31 M 369.09 110.59 C 389.22 86.52 408.78 65.02 456.34 10.22 M 369.09 110.59 C 396.25 76.64 426.19 44.09 456.34 10.22 M 370.5 110.49 C 391.21 87.35 410.44 65.24 457.75 10.12 M 370.5 110.49 C 391.43 86.38 412.25 63.57 457.75 10.12 M 371.91 110.39 C 404.08 74.13 434.72 40.41 459.16 10.02 M 371.91 110.39 C 398.17 78.27 425.64 47.23 459.16 10.02 M 373.32 110.3 C 393.21 86.8 411.85 68.68 460.57 9.92 M 373.32 110.3 C 397.94 83.6 421.08 57.46 460.57 9.92 M 374.73 110.2 C 398.38 85.34 417.97 58.87 461.98 9.82 M 374.73 110.2 C 394.03 86.84 415 63.99 461.98 9.82 M 376.14 110.1 C 405.41 75.71 434.22 40.82 463.4 9.72 M 376.14 110.1 C 402.37 78.41 429.06 46.85 463.4 9.72 M 377.55 110 C 409.79 73.28 445.88 32.51 464.81 9.62 M 377.55 110 C 396.21 87.19 417.57 63.3 464.81 9.62 M 378.96 109.9 C 398.36 85.44 421.48 58.73 465.56 10.28 M 378.96 109.9 C 408.81 75.12 440.83 38.28 465.56 10.28 M 379.72 110.56 C 403.62 87.73 421.92 61.92 466.97 10.18 M 379.72 110.56 C 407.39 77.24 437.8 43.8 466.97 10.18 M 381.13 110.46 C 412.23 75.51 444.65 35.99 468.38 10.08 M 381.13 110.46 C 399.81 87.52 420.66 65.24 468.38 10.08 M 382.54 110.36 C 402.51 88.21 420.42 68.47 469.79 9.98 M 382.54 110.36 C 403.65 87.3 423.07 63.21 469.79 9.98 M 383.95 110.26 C 406.23 84.53 430.03 56.18 471.2 9.89 M 383.95 110.26 C 406.44 83.88 427.9 59.81 471.2 9.89 M 385.36 110.16 C 413.81 78.39 445.22 41.32 472.61 9.79 M 385.36 110.16 C 411.79 78.25 440.15 46.09 472.61 9.79 M 386.77 110.06 C 411.92 81.99 437.69 50.18 474.03 9.69 M 386.77 110.06 C 421.51 68.78 455.3 29.91 474.03 9.69 M 388.18 109.97 C 416.01 78.4 443.94 45.82 474.78 10.34 M 388.18 109.97 C 409.71 85.44 431.34 60.52 474.78 10.34 M 388.94 110.62 C 421.62 72.94 456.41 34.19 476.19 10.25 M 388.94 110.62 C 408.33 89.88 426.64 69.56 476.19 10.25 M 390.35 110.52 C 420.21 75 448.26 44.3 477.6 10.15 M 390.35 110.52 C 408.55 90.61 426.06 70.58 477.6 10.15 M 391.76 110.42 C 410.01 91.15 426.89 70.66 479.01 10.05 M 391.76 110.42 C 426.48 69.05 460.29 29.11 479.01 10.05 M 393.17 110.33 C 412.91 89.31 432.84 66.46 480.42 9.95 M 393.17 110.33 C 426.8 70.36 462.47 30.88 480.42 9.95 M 394.58 110.23 C 426.9 71 463.22 31.72 481.83 9.85 M 394.58 110.23 C 419.11 82.35 443.67 56.21 481.83 9.85 M 395.99 110.13 C 421.95 80.91 445.16 54.72 483.25 9.75 M 395.99 110.13 C 428.19 72.62 461.22 35.43 483.25 9.75 M 397.4 110.03 C 431.93 74.48 463.58 35.01 484.66 9.65 M 397.4 110.03 C 426.32 76.86 455.51 43.62 484.66 9.65 M 398.81 109.93 C 422.66 80.28 447.1 54.53 485.41 10.31 M 398.81 109.93 C 427.45 78.02 456.24 45.69 485.41 10.31 M 399.57 110.59 C 427.67 80.47 453.92 48.25 486.82 10.21 M 399.57 110.59 C 421.42 87.58 443.56 62.9 486.82 10.21 M 400.98 110.49 C 423.46 84.81 447.64 56.7 488.23 10.11 M 400.98 110.49 C 432.43 74.82 462.39 40.38 488.23 10.11 M 402.39 110.39 C 432.55 75.3 467.05 35.99 489.64 10.01 M 402.39 110.39 C 425.65 82.98 449.52 57.43 489.64 10.01 M 403.8 110.29 C 430.98 79.87 460.31 45 490.4 10.67 M 403.8 110.29 C 424.95 86.56 442.5 65.8 490.4 10.67 M 405.21 110.19 C 425.51 86.4 443.89 66.07 490.5 12.08 M 405.21 110.19 C 426.55 86.18 447.59 62.5 490.5 12.08 M 406.62 110.09 C 425.4 86.12 445.88 65.06 490.59 13.49 M 406.62 110.09 C 422.92 90.5 441.55 69.49 490.59 13.49 M 408.03 110 C 441.8 72.61 474.57 34.82 490.69 14.9 M 408.03 110 C 426.29 89.55 444.7 68.08 490.69 14.9 M 409.44 109.9 C 426.37 92.81 443.51 70 490.79 16.31 M 409.44 109.9 C 430.48 86.48 450.32 62.07 490.79 16.31 M 410.2 110.55 C 435.04 86.37 453.7 59.2 490.23 18.48 M 410.2 110.55 C 441.98 75.93 472.06 41.02 490.23 18.48 M 411.61 110.45 C 441.16 78.7 468.46 44.04 490.33 19.89 M 411.61 110.45 C 442.58 75.67 471.99 40.98 490.33 19.89 M 413.02 110.36 C 436.15 83.18 459.64 56.76 490.43 21.3 M 413.02 110.36 C 441.26 79.7 466.34 48.36 490.43 21.3 M 414.43 110.26 C 435.01 86.89 454.24 65.71 490.53 22.71 M 414.43 110.26 C 437.34 82.67 461.52 54.08 490.53 22.71 M 415.84 110.16 C 431.21 89.43 448.17 69.43 490.63 24.12 M 415.84 110.16 C 437.07 85.47 458.46 61.19 490.63 24.12 M 417.25 110.06 C 439.36 84.24 462.78 56.85 490.73 25.53 M 417.25 110.06 C 435.47 90.03 452.09 69.76 490.73 25.53 M 418.66 109.96 C 434.08 94.28 449.63 78.77 490.83 26.94 M 418.66 109.96 C 445.16 80.05 470.11 49.31 490.83 26.94 M 419.41 110.62 C 437.39 93.63 453.2 74.32 490.27 29.11 M 419.41 110.62 C 437.36 89.94 455.28 68.91 490.27 29.11 M 420.83 110.52 C 443.91 84.97 465.88 58.82 490.37 30.52 M 420.83 110.52 C 443.89 83.06 467.96 55.57 490.37 30.52 M 422.24 110.42 C 449.68 80.94 472.65 52.1 490.47 31.93 M 422.24 110.42 C 444.83 85.5 466.33 60.39 490.47 31.93 M 423.65 110.32 C 439.82 93.04 458.56 72.61 490.57 33.34 M 423.65 110.32 C 446.58 84.82 468.95 57.91 490.57 33.34 M 425.06 110.22 C 447.71 82.62 473.21 56.47 490.66 34.75 M 425.06 110.22 C 444.37 90.11 462.89 68.69 490.66 34.75 M 426.47 110.12 C 440.2 93.43 454.44 78.7 490.76 36.16 M 426.47 110.12 C 444.7 89.42 463.94 68.63 490.76 36.16 M 427.88 110.03 C 444.39 89.53 463.67 67.89 490.86 37.57 M 427.88 110.03 C 445.52 90.86 462.17 70.59 490.86 37.57 M 429.29 109.93 C 446.52 94.79 460.34 75 490.3 39.74 M 429.29 109.93 C 446.67 89.15 463.74 69.36 490.3 39.74 M 430.04 110.58 C 448.77 90 465.93 66.82 490.4 41.15 M 430.04 110.58 C 450.24 87.69 470.35 64.41 490.4 41.15 M 431.46 110.48 C 447.48 90.92 462.89 72.17 490.5 42.56 M 431.46 110.48 C 443.68 95.87 457.89 81.36 490.5 42.56 M 432.87 110.39 C 446.03 95.77 459.1 79.24 490.6 43.97 M 432.87 110.39 C 452.31 87.53 473.56 64.37 490.6 43.97 M 434.28 110.29 C 448.1 93.89 460.53 80.03 490.7 45.38 M 434.28 110.29 C 454.78 86.2 476.5 62.62 490.7 45.38 M 435.69 110.19 C 456.59 85.56 479.03 64.45 490.8 46.79 M 435.69 110.19 C 453.24 90.32 472.32 70.22 490.8 46.79 M 437.1 110.09 C 448.5 93.4 462.91 80.4 490.24 48.96 M 437.1 110.09 C 456.45 86.36 476.67 64.53 490.24 48.96 M 438.51 109.99 C 452.4 92.11 465.37 77.77 490.34 50.37 M 438.51 109.99 C 455.47 90.51 471.4 72.2 490.34 50.37 M 439.92 109.89 C 456.78 90.42 475.17 67.25 490.44 51.78 M 439.92 109.89 C 454.13 93.69 467.32 77.14 490.44 51.78 M 440.68 110.55 C 460.2 91.42 475.1 71.95 490.54 53.19 M 440.68 110.55 C 455.76 92.77 469.17 76.39 490.54 53.19 M 442.09 110.45 C 461.97 90.39 481.28 66.91 490.63 54.6 M 442.09 110.45 C 458.66 91.75 473.6 72.75 490.63 54.6 M 443.5 110.35 C 458.66 92.84 471 77.28 490.73 56.01 M 443.5 110.35 C 457.46 92.81 472.81 77.18 490.73 56.01 M 444.91 110.25 C 460.66 93.57 475.48 76.55 490.83 57.42 M 444.91 110.25 C 459.14 93.17 474.28 76.54 490.83 57.42 M 446.32 110.15 C 457.33 97.17 469.33 85.16 490.27 59.59 M 446.32 110.15 C 457.98 96.04 469.56 83.41 490.27 59.59 M 447.73 110.05 C 462.91 93.55 479.22 75.73 490.37 61 M 447.73 110.05 C 457.54 98.34 468.39 86.6 490.37 61 M 449.14 109.96 C 457.15 98.94 468.83 86.68 490.47 62.41 M 449.14 109.96 C 464.81 91.25 480.72 73.39 490.47 62.41 M 449.89 110.61 C 464.29 92.65 483.02 74.78 490.57 63.82 M 449.89 110.61 C 460.42 97.84 472.49 84.99 490.57 63.82 M 451.31 110.51 C 464.25 93.51 477.5 81.39 490.67 65.23 M 451.31 110.51 C 464.53 94.99 479.15 78.11 490.67 65.23 M 452.72 110.41 C 461.85 96.8 474.91 83.87 490.77 66.64 M 452.72 110.41 C 467.11 92.94 481.96 76.12 490.77 66.64 M 454.13 110.32 C 465.03 98.84 476.21 84.85 490.87 68.05 M 454.13 110.32 C 469.17 94.1 482.29 78.67 490.87 68.05 M 455.54 110.22 C 465.61 96.29 480.74 82.49 490.31 70.22 M 455.54 110.22 C 466.98 96.97 478.33 85.35 490.31 70.22 M 456.95 110.12 C 468.32 98.17 477 86.34 490.41 71.63 M 456.95 110.12 C 467.31 98.35 477.14 87.88 490.41 71.63 M 458.36 110.02 C 468.97 95.7 483.24 81.36 490.51 73.04 M 458.36 110.02 C 464 102.26 470.57 93.82 490.51 73.04 M 459.77 109.92 C 466.66 98.3 477.36 90.81 490.6 74.45 M 459.77 109.92 C 468.8 100.55 477.7 90.3 490.6 74.45 M 460.52 110.58 C 469.78 99.46 482.09 85.61 490.7 75.86 M 460.52 110.58 C 472.05 97.24 482.03 85.8 490.7 75.86 M 461.94 110.48 C 473.26 97.17 481.92 86.59 490.8 77.27 M 461.94 110.48 C 470.57 100 480.71 88.1 490.8 77.27 M 463.35 110.38 C 471.33 104.51 474.85 96.64 490.24 79.44 M 463.35 110.38 C 471.46 101.53 479.55 91.58 490.24 79.44 M 464.76 110.28 C 471.95 101.55 481.08 89.36 490.34 80.85 M 464.76 110.28 C 475.87 98.51 484.26 87.49 490.34 80.85 M 466.17 110.18 C 473.58 101.46 484.56 91.11 490.44 82.26 M 466.17 110.18 C 473.27 102.52 479.38 94.67 490.44 82.26 M 467.58 110.08 C 476.07 101.34 482.27 92.91 490.54 83.67 M 467.58 110.08 C 472.94 103.16 479.98 95.52 490.54 83.67 M 468.99 109.99 C 477.39 100.56 483.15 92.02 490.64 85.08 M 468.99 109.99 C 477.95 100.46 485.65 92.32 490.64 85.08 M 470.4 109.89 C 478.51 101.54 486.07 92.65 490.74 86.49 M 470.4 109.89 C 475.01 104.36 478.55 100.81 490.74 86.49 M 471.15 110.54 C 478.88 103.17 482.51 95.17 490.84 87.9 M 471.15 110.54 C 475.73 105.51 480.96 98.16 490.84 87.9 M 472.57 110.44 C 475.94 108.03 480.15 103.16 490.28 90.07 M 472.57 110.44 C 476.68 105.01 480.64 101.15 490.28 90.07 M 473.98 110.35 C 476.62 106.67 481.1 100.59 490.38 91.48 M 473.98 110.35 C 480.43 102.86 486.35 97.63 490.38 91.48 M 475.39 110.25 C 479.94 105.49 482.24 104.08 490.48 92.89 M 475.39 110.25 C 480.63 104.98 485.56 98.43 490.48 92.89 M 476.8 110.15 C 483.21 105.56 484.76 99.5 490.57 94.3 M 476.8 110.15 C 480.72 106.16 483.92 100.69 490.57 94.3 M 478.21 110.05 C 481.65 105.29 487.93 101.03 490.67 95.71 M 478.21 110.05 C 482.75 105.52 486.39 100.19 490.67 95.71 M 479.62 109.95 C 483.92 106.04 486.64 101.58 490.77 97.12 M 479.62 109.95 C 481.82 106.77 485.04 102.81 490.77 97.12 M 480.37 110.61 C 482.96 105.86 487.14 103.48 490.87 98.53 M 480.37 110.61 C 485.19 105.52 489.13 101.38 490.87 98.53 M 481.78 110.51 C 484.84 107.18 487.84 104.24 490.31 100.7 M 481.78 110.51 C 484.67 107.53 486.48 105.57 490.31 100.7 M 483.2 110.41 C 486.68 108.1 488.22 103.79 490.41 102.11 M 483.2 110.41 C 484.47 108.75 486.12 106.22 490.41 102.11 M 484.61 110.31 C 486.48 108.44 486.42 107.01 490.51 103.52 M 484.61 110.31 C 486.58 108.25 487.68 106.45 490.51 103.52 M 486.02 110.21 C 486.65 109.4 488.78 107.15 490.61 104.93 M 486.02 110.21 C 486.91 108.72 488.13 107.55 490.61 104.93 M 487.43 110.11 C 488.16 109.54 488.67 108.47 490.71 106.34 M 487.43 110.11 C 488.27 109.09 489.29 108.08 490.71 106.34 M 488.84 110.02 C 489.42 109.16 489.91 108.97 490.81 107.75 M 488.84 110.02 C 489.4 109.27 490.31 108.66 490.81 107.75" fill="none" stroke="#eeeeee" stroke-width="0.5" stroke-linejoin="round" stroke-linecap="round" stroke-miterlimit="10" pointer-events="all"/></g><g><g fill="rgb(0, 0, 0)" font-family="Helvetica" text-anchor="middle" font-size="18px"><text x="249.5" y="33.5">CPU</text></g></g><g style="filter: drop-shadow(rgb(0, 0, 0) 3px -3px 0px);"><rect x="37" y="50" width="100" height="40" rx="6" ry="6" fill="rgb(255, 255, 255)" stroke="rgb(0, 0, 0)" pointer-events="all"/></g><g><g fill="rgb(0, 0, 0)" font-family="Helvetica" text-anchor="middle" font-size="18px"><text x="86.5" y="77.5">运算单元</text></g></g><g><path d="M 190.63 70 L 143.37 70" fill="none" stroke="rgb(0, 0, 0)" stroke-miterlimit="10" pointer-events="stroke"/><path d="M 195.88 70 L 188.88 73.5 L 190.63 70 L 188.88 66.5 Z" fill="rgb(0, 0, 0)" stroke="rgb(0, 0, 0)" stroke-miterlimit="10" pointer-events="all"/><path d="M 138.12 70 L 145.12 66.5 L 143.37 70 L 145.12 73.5 Z" fill="rgb(0, 0, 0)" stroke="rgb(0, 0, 0)" stroke-miterlimit="10" pointer-events="all"/></g><g><path d="M 247 96.37 L 247 120 L 567 120 L 567 96.37" fill="none" stroke="rgb(0, 0, 0)" stroke-miterlimit="10" pointer-events="stroke"/><path d="M 247 91.12 L 250.5 98.12 L 247 96.37 L 243.5 98.12 Z" fill="rgb(0, 0, 0)" stroke="rgb(0, 0, 0)" stroke-miterlimit="10" pointer-events="all"/><path d="M 567 91.12 L 570.5 98.12 L 567 96.37 L 563.5 98.12 Z" fill="rgb(0, 0, 0)" stroke="rgb(0, 0, 0)" stroke-miterlimit="10" pointer-events="all"/></g><g style="filter: drop-shadow(rgb(0, 0, 0) 3px -3px 0px);"><rect x="197" y="50" width="100" height="40" rx="6" ry="6" fill="rgb(255, 255, 255)" stroke="rgb(0, 0, 0)" pointer-events="all"/></g><g><g fill="rgb(0, 0, 0)" font-family="Helvetica" text-anchor="middle" font-size="18px"><text x="246.5" y="77.5">寄存器</text></g></g><g><path d="M 357 70 L 303.37 70" fill="none" stroke="rgb(0, 0, 0)" stroke-miterlimit="10" pointer-events="stroke"/><path d="M 298.12 70 L 305.12 66.5 L 303.37 70 L 305.12 73.5 Z" fill="rgb(0, 0, 0)" stroke="rgb(0, 0, 0)" stroke-miterlimit="10" pointer-events="all"/></g><g style="filter: drop-shadow(rgb(0, 0, 0) 3px -3px 0px);"><rect x="357" y="50" width="100" height="40" rx="6" ry="6" fill="rgb(255, 255, 255)" stroke="rgb(0, 0, 0)" pointer-events="all"/></g><g><g fill="rgb(0, 0, 0)" font-family="Helvetica" text-anchor="middle" font-size="18px"><text x="406.5" y="77.5">缓存</text></g></g><g><path d="M 517 70 L 463.37 70" fill="none" stroke="rgb(0, 0, 0)" stroke-miterlimit="10" pointer-events="stroke"/><path d="M 458.12 70 L 465.12 66.5 L 463.37 70 L 465.12 73.5 Z" fill="rgb(0, 0, 0)" stroke="rgb(0, 0, 0)" stroke-miterlimit="10" pointer-events="all"/></g><g style="filter: drop-shadow(rgb(0, 0, 0) 3px -3px 0px);"><rect x="517" y="50" width="100" height="40" rx="6" ry="6" fill="rgb(255, 255, 255)" stroke="rgb(0, 0, 0)" pointer-events="all"/></g><g><g fill="rgb(0, 0, 0)" font-family="Helvetica" text-anchor="middle" font-size="18px"><text x="566.5" y="77.5">内存</text></g></g><g><path d="M 670.63 70 L 623.37 70" fill="none" stroke="rgb(0, 0, 0)" stroke-miterlimit="10" pointer-events="stroke"/><path d="M 675.88 70 L 668.88 73.5 L 670.63 70 L 668.88 66.5 Z" fill="rgb(0, 0, 0)" stroke="rgb(0, 0, 0)" stroke-miterlimit="10" pointer-events="all"/><path d="M 618.12 70 L 625.12 66.5 L 623.37 70 L 625.12 73.5 Z" fill="rgb(0, 0, 0)" stroke="rgb(0, 0, 0)" stroke-miterlimit="10" pointer-events="all"/></g><g style="filter: drop-shadow(rgb(0, 0, 0) 3px -3px 0px);"><rect x="677" y="50" width="100" height="40" rx="6" ry="6" fill="rgb(255, 255, 255)" stroke="rgb(0, 0, 0)" pointer-events="all"/></g><g><g fill="rgb(0, 0, 0)" font-family="Helvetica" text-anchor="middle" font-size="18px"><text x="726.5" y="77.5">硬盘</text></g></g></g></svg>