<?xml version="1.0" encoding="UTF-8"?>
<!DOCTYPE svg PUBLIC "-//W3C//DTD SVG 1.1//EN" "http://www.w3.org/Graphics/SVG/1.1/DTD/svg11.dtd">
<svg xmlns="http://www.w3.org/2000/svg" xmlns:xlink="http://www.w3.org/1999/xlink" version="1.1" width="791px" height="140px" viewBox="-0.5 -0.5 791 140" style="background-color: rgb(255, 255, 255);"><defs/><rect fill="#ffffff" width="100%" height="100%" x="0" y="0"/><g><g data-cell-id="0"><g data-cell-id="1"><g data-cell-id="Dz_opyrQ9mkDWGh6BsnE-21"><g><rect x="10" y="10" width="480" height="100" fill="none" stroke="none" pointer-events="all"/><path d="M 10.11 9.87 C 10.11 9.87 10.11 9.87 10.11 9.87 M 10.11 9.87 C 10.11 9.87 10.11 9.87 10.11 9.87 M 10.21 11.28 C 10.5 10.99 11.05 10.49 11.52 9.77 M 10.21 11.28 C 10.64 10.72 11.12 10.04 11.52 9.77 M 10.31 12.69 C 11.2 11.91 12.11 10.34 12.94 9.67 M 10.31 12.69 C 10.9 11.96 11.66 11.05 12.94 9.67 M 9.75 14.86 C 10.6 13.84 12.7 12.59 13.69 10.33 M 9.75 14.86 C 11.06 13.41 12.57 11.41 13.69 10.33 M 9.85 16.27 C 11.67 15.1 12.58 12.64 15.1 10.23 M 9.85 16.27 C 11.62 14.13 14.17 11.94 15.1 10.23 M 9.95 17.68 C 12.2 14.76 12.4 14.45 16.51 10.13 M 9.95 17.68 C 11.83 15.04 13.82 12.38 16.51 10.13 M 10.05 19.09 C 12.13 14.26 15.26 12.86 17.92 10.03 M 10.05 19.09 C 11.65 16.08 14.07 13.85 17.92 10.03 M 10.15 20.5 C 14.05 17.1 16.47 12.83 19.33 9.93 M 10.15 20.5 C 12.51 17.82 14.16 15.97 19.33 9.93 M 10.25 21.91 C 12.04 19.49 15.57 12.97 20.74 9.83 M 10.25 21.91 C 15.01 17.68 17.56 13.05 20.74 9.83 M 9.69 24.08 C 15.16 18.24 16.11 16.1 22.15 9.74 M 9.69 24.08 C 14.49 18.56 17.97 13.01 22.15 9.74 M 9.79 25.49 C 14.56 20.43 15.01 18.32 23.57 9.64 M 9.79 25.49 C 14.23 19.93 16.91 16.9 23.57 9.64 M 9.89 26.9 C 15.18 21.67 17.38 17.54 24.32 10.29 M 9.89 26.9 C 13.3 24.19 16.55 19.57 24.32 10.29 M 9.99 28.31 C 16.16 21.03 19.85 16.64 25.73 10.19 M 9.99 28.31 C 13.06 23.61 16.9 21.2 25.73 10.19 M 10.08 29.72 C 13.22 24.71 17.21 22.55 27.14 10.1 M 10.08 29.72 C 13.94 25.61 16.72 20.93 27.14 10.1 M 10.18 31.13 C 13.7 26.63 21.47 21.07 28.55 10 M 10.18 31.13 C 15.42 24.08 22.82 17.75 28.55 10 M 10.28 32.54 C 16.12 26.53 18.66 20.34 29.96 9.9 M 10.28 32.54 C 15.2 28.06 19.24 23.21 29.96 9.9 M 9.72 34.71 C 19.84 24.05 25.69 15.02 31.37 9.8 M 9.72 34.71 C 18.76 24.61 25.41 15.77 31.37 9.8 M 9.82 36.12 C 18.14 28.13 24.65 17.8 32.78 9.7 M 9.82 36.12 C 15.48 29.99 20.75 23.38 32.78 9.7 M 9.92 37.53 C 16.79 27.77 25.05 18.3 33.54 10.36 M 9.92 37.53 C 17.85 28.26 24.84 20.05 33.54 10.36 M 10.02 38.94 C 15.55 34.12 21.34 24.84 34.95 10.26 M 10.02 38.94 C 18.24 29.69 27.24 19.75 34.95 10.26 M 10.12 40.35 C 16.51 31.12 24.56 20.85 36.36 10.16 M 10.12 40.35 C 18.52 31.7 27.13 21.33 36.36 10.16 M 10.22 41.76 C 16.86 34.14 25.31 24.53 37.77 10.06 M 10.22 41.76 C 16.57 32.82 24.23 25.23 37.77 10.06 M 10.32 43.17 C 18.06 32.51 28.92 22.05 39.18 9.96 M 10.32 43.17 C 16.44 36.46 23.23 28.96 39.18 9.96 M 9.76 45.34 C 15.11 36.21 21.73 28.22 40.59 9.86 M 9.76 45.34 C 17.49 37.63 23.65 29.01 40.59 9.86 M 9.86 46.75 C 19.88 35.22 31.43 20.95 42 9.77 M 9.86 46.75 C 22.21 32.27 33.8 19.98 42 9.77 M 9.96 48.16 C 18.95 40.78 25.77 31.53 43.41 9.67 M 9.96 48.16 C 22.38 32.44 35.27 19.18 43.41 9.67 M 10.05 49.57 C 17.19 38.29 25.61 29.32 44.17 10.32 M 10.05 49.57 C 19.58 39.37 27.96 28.47 44.17 10.32 M 10.15 50.98 C 17.75 42.82 25.94 33.35 45.58 10.22 M 10.15 50.98 C 20.87 37.39 33 26.32 45.58 10.22 M 10.25 52.39 C 23.35 38.8 35.02 26.99 46.99 10.13 M 10.25 52.39 C 23.29 38.42 35.06 22.86 46.99 10.13 M 9.69 54.56 C 19.1 43.28 32.3 29.81 48.4 10.03 M 9.69 54.56 C 20.6 40.26 32.66 27.26 48.4 10.03 M 9.79 55.97 C 19.78 46.33 30.58 34.44 49.81 9.93 M 9.79 55.97 C 21.9 43.41 31.29 30.09 49.81 9.93 M 9.89 57.38 C 21.91 46.14 31.06 33.25 51.22 9.83 M 9.89 57.38 C 23.63 41.87 36.28 27.83 51.22 9.83 M 9.99 58.79 C 19.04 49.95 28.1 38.84 52.63 9.73 M 9.99 58.79 C 21.89 43.66 34.35 29.74 52.63 9.73 M 10.09 60.2 C 21.71 50.61 29.25 37.48 54.04 9.63 M 10.09 60.2 C 20.55 48.78 30.82 37.86 54.04 9.63 M 10.19 61.61 C 19.78 52.27 27.73 39.91 54.8 10.29 M 10.19 61.61 C 19.49 50.68 28.98 40.65 54.8 10.29 M 10.29 63.02 C 25.06 48.57 38.43 30.98 56.21 10.19 M 10.29 63.02 C 26.64 45.09 43.53 26.02 56.21 10.19 M 9.73 65.19 C 29.24 42.46 44.21 24.63 57.62 10.09 M 9.73 65.19 C 21.75 51.25 32.61 38.54 57.62 10.09 M 9.83 66.6 C 23.34 50.45 38.74 31.11 59.03 9.99 M 9.83 66.6 C 26.05 47.68 42.8 28.09 59.03 9.99 M 9.93 68.01 C 22.5 55.47 34.83 39.84 60.44 9.89 M 9.93 68.01 C 31.05 45.17 49.44 22.15 60.44 9.89 M 10.02 69.42 C 26.32 49.84 41.25 32.32 61.85 9.8 M 10.02 69.42 C 25.15 53.54 40.04 36.25 61.85 9.8 M 10.12 70.83 C 22.73 55.78 37.69 38.12 63.26 9.7 M 10.12 70.83 C 20.68 56.85 33.94 44.67 63.26 9.7 M 10.22 72.24 C 20.54 57.87 33.87 43.43 64.02 10.35 M 10.22 72.24 C 29.95 50.39 49.64 27.02 64.02 10.35 M 10.32 73.65 C 26.21 56.4 43.3 37.88 65.43 10.25 M 10.32 73.65 C 27.05 55.78 40.83 37.78 65.43 10.25 M 9.76 75.82 C 25.14 59.13 37.93 39.61 66.84 10.16 M 9.76 75.82 C 26.09 56.52 42.03 37.17 66.84 10.16 M 9.86 77.23 C 29.69 54.97 49.44 34.09 68.25 10.06 M 9.86 77.23 C 30.2 54.68 48.43 32.53 68.25 10.06 M 9.96 78.64 C 28.25 57.93 47.05 35.28 69.66 9.96 M 9.96 78.64 C 33.76 51.68 57.15 24.54 69.66 9.96 M 10.06 80.05 C 31.94 54.59 54.74 28.79 71.07 9.86 M 10.06 80.05 C 27.58 58.94 44.93 39.1 71.07 9.86 M 10.16 81.46 C 26.48 61.3 44.61 41.86 72.48 9.76 M 10.16 81.46 C 29.81 58.53 50.76 34.64 72.48 9.76 M 10.26 82.87 C 32.52 60.31 50.92 37.91 73.89 9.66 M 10.26 82.87 C 28.79 63.41 47.39 42.61 73.89 9.66 M 9.7 85.03 C 34.4 58.65 54.32 32.27 74.65 10.32 M 9.7 85.03 C 24.77 67.6 40.83 50.3 74.65 10.32 M 9.8 86.45 C 32.25 61.52 51.14 40.07 76.06 10.22 M 9.8 86.45 C 36.02 56.48 62.44 26.77 76.06 10.22 M 9.9 87.86 C 26.06 68.84 43.34 50.04 77.47 10.12 M 9.9 87.86 C 30.32 64.42 52.49 40.17 77.47 10.12 M 9.99 89.27 C 24.34 70.85 35.88 56.41 78.88 10.02 M 9.99 89.27 C 29.55 65.06 50.14 42.61 78.88 10.02 M 10.09 90.68 C 24.6 72.74 41.1 57.02 80.29 9.92 M 10.09 90.68 C 27.57 68.94 45.4 49.39 80.29 9.92 M 10.19 92.09 C 27.65 69.62 46.08 50.25 81.7 9.83 M 10.19 92.09 C 31.17 68.82 49.56 46.66 81.7 9.83 M 10.29 93.5 C 31.32 67.99 56.29 41.87 83.11 9.73 M 10.29 93.5 C 29.27 71.06 49.95 49.13 83.11 9.73 M 9.73 95.66 C 24.98 76.03 43.03 57.8 84.52 9.63 M 9.73 95.66 C 37.46 63.54 66.57 29.47 84.52 9.63 M 9.83 97.08 C 41.04 65.02 66.96 31.78 85.28 10.28 M 9.83 97.08 C 25.19 78.06 40.66 60.08 85.28 10.28 M 9.93 98.49 C 35.23 69.14 59.53 40.9 86.69 10.19 M 9.93 98.49 C 26.82 78.74 45.51 57.55 86.69 10.19 M 10.03 99.9 C 36.55 70.41 64.75 35.9 88.1 10.09 M 10.03 99.9 C 26.66 80.88 43.4 59.7 88.1 10.09 M 10.13 101.31 C 31.29 80.13 52.54 56.19 89.51 9.99 M 10.13 101.31 C 29.17 77.05 51.17 52.61 89.51 9.99 M 10.23 102.72 C 42.33 65.88 73.64 28.72 90.92 9.89 M 10.23 102.72 C 38.38 69.58 66.72 36.44 90.92 9.89 M 10.33 104.13 C 38.67 74.29 64.64 38.89 92.33 9.79 M 10.33 104.13 C 30.69 80.8 52.49 55.22 92.33 9.79 M 9.77 106.29 C 41.72 70.73 72.89 33.79 93.74 9.69 M 9.77 106.29 C 36.39 75.92 63.75 45.02 93.74 9.69 M 9.87 107.71 C 30.11 84.01 49.21 63.32 94.5 10.35 M 9.87 107.71 C 29.79 87.19 49.45 63.95 94.5 10.35 M 9.97 109.12 C 30.57 84.65 51.39 61.45 95.91 10.25 M 9.97 109.12 C 37.46 77.61 63.25 45.6 95.91 10.25 M 10.06 110.53 C 40.89 77.49 71.48 40.84 97.32 10.15 M 10.06 110.53 C 37.91 77.11 66.01 43.69 97.32 10.15 M 11.47 110.43 C 41.7 77.23 74.47 42.19 98.73 10.05 M 11.47 110.43 C 33.76 86.35 55.46 59.91 98.73 10.05 M 12.89 110.33 C 42.22 77.18 67.32 45.04 100.14 9.95 M 12.89 110.33 C 41.55 77.44 69.79 46.22 100.14 9.95 M 14.3 110.23 C 47.46 73.57 77.5 37.13 101.55 9.85 M 14.3 110.23 C 40.05 82.06 64.37 53.15 101.55 9.85 M 15.71 110.13 C 39.67 81.31 62.88 53.86 102.96 9.76 M 15.71 110.13 C 46.28 74.04 77.03 39.55 102.96 9.76 M 17.12 110.03 C 33.95 87.77 50.77 67.66 104.37 9.66 M 17.12 110.03 C 39.83 81.85 64.81 55.66 104.37 9.66 M 18.53 109.94 C 50.39 72.74 82.07 40.24 105.13 10.31 M 18.53 109.94 C 47.63 76.91 77.33 43.37 105.13 10.31 M 19.28 110.59 C 40.07 86.12 63.68 59.05 106.54 10.21 M 19.28 110.59 C 52.68 75.01 83.07 36.9 106.54 10.21 M 20.69 110.49 C 42.77 86.1 65.11 57.46 107.95 10.12 M 20.69 110.49 C 54.48 72.62 87.56 33.48 107.95 10.12 M 22.1 110.39 C 53.93 71.93 86.21 37.16 109.36 10.02 M 22.1 110.39 C 57.56 71.72 90.29 31.89 109.36 10.02 M 23.52 110.3 C 45.96 85.34 62.89 62.89 110.77 9.92 M 23.52 110.3 C 58.52 71.52 92.29 29.57 110.77 9.92 M 24.93 110.2 C 49.77 84.09 72.74 54.99 112.18 9.82 M 24.93 110.2 C 47.87 84.42 70.4 58.46 112.18 9.82 M 26.34 110.1 C 52.46 77.34 80.16 49.34 113.59 9.72 M 26.34 110.1 C 47.98 85.88 71.16 58.84 113.59 9.72 M 27.75 110 C 58.4 75.57 86.33 42.75 115 9.62 M 27.75 110 C 58.92 73.43 90.52 38.68 115 9.62 M 29.16 109.9 C 53.42 85.22 73.44 59.83 115.76 10.28 M 29.16 109.9 C 47.93 89.89 66.81 69.22 115.76 10.28 M 29.91 110.56 C 65.22 70.82 99.95 33.8 117.17 10.18 M 29.91 110.56 C 61.89 74.37 94.19 36.77 117.17 10.18 M 31.32 110.46 C 52.78 84.37 78.66 58.15 118.58 10.08 M 31.32 110.46 C 59.55 78.63 86.71 47.55 118.58 10.08 M 32.73 110.36 C 65.14 72.07 99.86 34.67 119.99 9.98 M 32.73 110.36 C 55.78 83.54 78.58 58.06 119.99 9.98 M 34.15 110.26 C 55.8 84.57 77.56 61.22 121.4 9.88 M 34.15 110.26 C 69.3 70.07 105.03 31.17 121.4 9.88 M 35.56 110.16 C 58.68 82.33 81.64 56.11 122.81 9.79 M 35.56 110.16 C 59.42 83.44 84.52 54.56 122.81 9.79 M 36.97 110.06 C 61.74 85.48 83.04 60.39 124.22 9.69 M 36.97 110.06 C 59.89 81.29 84.32 54.42 124.22 9.69 M 38.38 109.96 C 61.86 80.77 89.33 52.56 124.98 10.34 M 38.38 109.96 C 69.53 73.51 101.91 36.17 124.98 10.34 M 39.13 110.62 C 73.56 73.13 106.52 35.04 126.39 10.24 M 39.13 110.62 C 71.89 74.95 102.86 37.76 126.39 10.24 M 40.54 110.52 C 73.47 72.39 107.34 35 127.8 10.15 M 40.54 110.52 C 70.01 78.4 97.76 45.49 127.8 10.15 M 41.95 110.42 C 59.1 87.37 80.4 67.99 129.21 10.05 M 41.95 110.42 C 61.63 88.91 80.53 65.72 129.21 10.05 M 43.36 110.33 C 69.22 83.82 94.16 52.83 130.62 9.95 M 43.36 110.33 C 67.14 83.62 89.77 56.11 130.62 9.95 M 44.78 110.23 C 75.37 74.38 108.5 33.46 132.03 9.85 M 44.78 110.23 C 64.97 87.19 84.17 65.22 132.03 9.85 M 46.19 110.13 C 68.1 84.19 90.92 56.34 133.44 9.75 M 46.19 110.13 C 78.52 71.58 110.35 33.95 133.44 9.75 M 47.6 110.03 C 78.59 71.41 113.61 34.53 134.85 9.65 M 47.6 110.03 C 77.1 75.87 106.7 41.99 134.85 9.65 M 49.01 109.93 C 70.12 89.48 88.25 66.61 135.61 10.31 M 49.01 109.93 C 78.01 77.71 105.66 45.19 135.61 10.31 M 49.76 110.59 C 82.55 74.92 111.42 38.75 137.02 10.21 M 49.76 110.59 C 74.79 81.03 100.79 50.42 137.02 10.21 M 51.17 110.49 C 82.19 76.93 109.48 40.65 138.43 10.11 M 51.17 110.49 C 74.87 85.3 97.42 59.33 138.43 10.11 M 52.58 110.39 C 84.82 71.04 116.42 36.78 139.84 10.01 M 52.58 110.39 C 71.29 89.51 88.12 68.02 139.84 10.01 M 54 110.29 C 73.54 87.51 94.73 59.87 141.25 9.91 M 54 110.29 C 74 87.97 92.6 66.21 141.25 9.91 M 55.41 110.19 C 79.41 80.17 105.1 51.09 142.66 9.82 M 55.41 110.19 C 90.98 70.52 124.62 31.23 142.66 9.82 M 56.82 110.09 C 75.97 86.61 99.34 60.58 144.07 9.72 M 56.82 110.09 C 85.54 76.35 116.64 42.28 144.07 9.72 M 58.23 109.99 C 85.56 78.51 112.84 49.45 144.83 10.37 M 58.23 109.99 C 88.48 76.49 118.04 42.78 144.83 10.37 M 59.64 109.9 C 84.22 80.67 110.11 52.1 146.24 10.27 M 59.64 109.9 C 79.93 88.24 98.93 64.31 146.24 10.27 M 60.39 110.55 C 81.55 90.15 99.01 68.23 147.65 10.18 M 60.39 110.55 C 88.13 78.45 116.21 45.28 147.65 10.18 M 61.8 110.45 C 85.3 87.09 105.12 61.36 149.06 10.08 M 61.8 110.45 C 93.72 73.2 125.7 38.39 149.06 10.08 M 63.21 110.35 C 94.66 78.02 122.09 41.21 150.47 9.98 M 63.21 110.35 C 81.61 89.03 99.67 69.18 150.47 9.98 M 64.63 110.26 C 99.47 73.24 133.21 33.76 151.88 9.88 M 64.63 110.26 C 91.63 76.72 121.59 44.45 151.88 9.88 M 66.04 110.16 C 85.02 91.12 103.44 69.14 153.29 9.78 M 66.04 110.16 C 86.06 88.63 103.85 66.1 153.29 9.78 M 67.45 110.06 C 93.61 81.41 120.5 48.54 154.7 9.68 M 67.45 110.06 C 101.75 72.12 135.93 31.91 154.7 9.68 M 68.86 109.96 C 92.14 81.74 117.65 53.48 155.46 10.34 M 68.86 109.96 C 85.66 90.38 103.62 69.49 155.46 10.34 M 69.61 110.62 C 90.28 86.69 108.69 69.08 156.87 10.24 M 69.61 110.62 C 93.97 81.92 119.7 52.26 156.87 10.24 M 71.02 110.52 C 89.66 90.26 107.39 68.76 158.28 10.14 M 71.02 110.52 C 103 73.56 135.32 36.81 158.28 10.14 M 72.43 110.42 C 92.15 88.98 109.87 67.11 159.69 10.04 M 72.43 110.42 C 93.49 85.93 116.44 60.72 159.69 10.04 M 73.84 110.32 C 109.72 72.25 141.51 31.09 161.1 9.94 M 73.84 110.32 C 101.14 79.01 126.24 48.75 161.1 9.94 M 75.26 110.22 C 100.03 83.82 120.53 57.45 162.51 9.85 M 75.26 110.22 C 92.96 89.95 108.6 71.14 162.51 9.85 M 76.67 110.12 C 111.27 70.67 145.61 32.87 163.92 9.75 M 76.67 110.12 C 111.12 69.35 145.64 29.44 163.92 9.75 M 78.08 110.02 C 95.51 87.34 116.25 67.01 165.33 9.65 M 78.08 110.02 C 107.49 76.92 134.94 44.99 165.33 9.65 M 79.49 109.93 C 111.7 74.66 142.67 38.42 166.09 10.3 M 79.49 109.93 C 98.21 87.99 116.56 65 166.09 10.3 M 80.24 110.58 C 108.01 74.8 139.01 41.09 167.5 10.21 M 80.24 110.58 C 107.57 79.27 135.56 47.97 167.5 10.21 M 81.65 110.48 C 116.52 70.75 147.74 33.77 168.91 10.11 M 81.65 110.48 C 110.49 80.21 136.29 48.96 168.91 10.11 M 83.06 110.38 C 116.12 72.68 151.38 31.87 170.32 10.01 M 83.06 110.38 C 112.91 75.8 143.08 42.54 170.32 10.01 M 84.47 110.29 C 112.19 76.81 144.94 39.47 171.73 9.91 M 84.47 110.29 C 103.52 87.62 123.14 67.07 171.73 9.91 M 85.89 110.19 C 104.02 89.28 125.23 64.74 173.14 9.81 M 85.89 110.19 C 106.69 85.98 129.05 60.5 173.14 9.81 M 87.3 110.09 C 111.46 82.53 134.07 56.18 174.55 9.71 M 87.3 110.09 C 108.89 84.74 129.5 59.65 174.55 9.71 M 88.71 109.99 C 116.29 78.65 140.72 50.27 175.31 10.37 M 88.71 109.99 C 121.82 73.13 153.73 36.18 175.31 10.37 M 90.12 109.89 C 122.53 72.74 154.39 37.61 176.72 10.27 M 90.12 109.89 C 117.29 77.35 143.17 47.38 176.72 10.27 M 90.87 110.55 C 123.41 70.02 158.61 28.98 178.13 10.17 M 90.87 110.55 C 120.03 77.59 147.78 44.62 178.13 10.17 M 92.28 110.45 C 124.85 70.77 157.43 36.49 179.54 10.07 M 92.28 110.45 C 119.14 82.71 144.2 54.03 179.54 10.07 M 93.69 110.35 C 122.21 75.26 152.57 44.84 180.95 9.97 M 93.69 110.35 C 114.87 86.9 135.45 62.14 180.95 9.97 M 95.1 110.25 C 115.71 84.95 139.58 61.54 182.36 9.87 M 95.1 110.25 C 118.73 84.82 140.35 58.05 182.36 9.87 M 96.52 110.15 C 130.8 73.94 160.93 31.87 183.77 9.78 M 96.52 110.15 C 121.21 82.56 145.67 54.41 183.77 9.78 M 97.93 110.05 C 124.13 79.32 147.84 53.43 185.18 9.68 M 97.93 110.05 C 120.83 80.94 146.3 54.74 185.18 9.68 M 99.34 109.96 C 126.78 79.38 156.52 45.94 185.94 10.33 M 99.34 109.96 C 125.61 78.2 154.07 46.46 185.94 10.33 M 100.09 110.61 C 131.82 75.5 157.74 44.28 187.35 10.23 M 100.09 110.61 C 133.63 72.72 165.6 34.62 187.35 10.23 M 101.5 110.51 C 130.39 76.78 162.25 41.11 188.76 10.14 M 101.5 110.51 C 129.18 78.31 157.99 45.71 188.76 10.14 M 102.91 110.41 C 122.31 89.84 141.65 66.34 190.17 10.04 M 102.91 110.41 C 137.49 71.07 172.15 30.09 190.17 10.04 M 104.32 110.32 C 135.24 72.49 165.98 37.57 191.58 9.94 M 104.32 110.32 C 136.1 75.03 164.99 39.23 191.58 9.94 M 105.73 110.22 C 135.37 74.36 167.52 40.83 192.99 9.84 M 105.73 110.22 C 135.88 76.98 166.05 44.15 192.99 9.84 M 107.15 110.12 C 131.39 80.65 160.58 49.78 194.4 9.74 M 107.15 110.12 C 132.31 79.63 160.11 50.89 194.4 9.74 M 108.56 110.02 C 133.45 82.86 155.17 52.45 195.81 9.64 M 108.56 110.02 C 142.01 69.82 176.22 30.66 195.81 9.64 M 109.97 109.92 C 144.13 70.13 178.84 30.79 196.57 10.3 M 109.97 109.92 C 143.78 70.39 177.78 32.48 196.57 10.3 M 110.72 110.58 C 138.02 77.5 168.25 47.44 197.98 10.2 M 110.72 110.58 C 141.18 77.5 170.42 42.74 197.98 10.2 M 112.13 110.48 C 138.3 77.68 169.54 43.98 199.39 10.1 M 112.13 110.48 C 140.83 77.88 167.84 45.74 199.39 10.1 M 113.54 110.38 C 147.42 73.04 179.39 38.2 200.8 10 M 113.54 110.38 C 143.19 75.23 173.43 41.23 200.8 10 M 114.95 110.28 C 131.67 88.86 151.44 66.6 202.21 9.9 M 114.95 110.28 C 139.52 82.27 163.53 54.12 202.21 9.9 M 116.36 110.18 C 139.89 81.93 164.12 52.31 203.62 9.81 M 116.36 110.18 C 148.06 74.2 178.43 37.58 203.62 9.81 M 117.78 110.08 C 146.62 78.89 172.7 47.76 205.03 9.71 M 117.78 110.08 C 145.83 77.67 174 44.44 205.03 9.71 M 119.19 109.98 C 144.9 82.63 166.89 52.86 205.79 10.36 M 119.19 109.98 C 145.89 79.77 172.17 50.22 205.79 10.36 M 120.6 109.89 C 144.97 83.22 167.82 56.97 207.2 10.26 M 120.6 109.89 C 154.81 70.1 189.86 30.64 207.2 10.26 M 121.35 110.54 C 152.37 74.71 182.92 40.73 208.61 10.17 M 121.35 110.54 C 146.03 80.48 172.46 50.35 208.61 10.17 M 122.76 110.44 C 147.08 86.36 169.22 59.2 210.02 10.07 M 122.76 110.44 C 152.81 78.25 180.96 44.72 210.02 10.07 M 124.17 110.35 C 145.48 84.12 169.12 57.95 211.43 9.97 M 124.17 110.35 C 144.78 85.22 167.1 61.51 211.43 9.97 M 125.58 110.25 C 148.31 82.88 169.49 58.26 212.84 9.87 M 125.58 110.25 C 148.4 85 169.61 59.15 212.84 9.87 M 126.99 110.15 C 154.39 81.34 177.48 51.51 214.25 9.77 M 126.99 110.15 C 148.36 88.09 167.68 64.04 214.25 9.77 M 128.41 110.05 C 158.37 71.85 192.02 36.97 215.66 9.67 M 128.41 110.05 C 159.58 74.34 190.97 36.81 215.66 9.67 M 129.82 109.95 C 160.42 75.49 190.82 37.06 216.42 10.33 M 129.82 109.95 C 156.85 78.57 184.88 46.7 216.42 10.33 M 130.57 110.61 C 159.42 79.68 185.31 49.35 217.83 10.23 M 130.57 110.61 C 160.1 77.25 189.72 44.66 217.83 10.23 M 131.98 110.51 C 157.05 82.23 184.04 53.22 219.24 10.13 M 131.98 110.51 C 164.73 74.95 196.81 36.73 219.24 10.13 M 133.39 110.41 C 158.07 79.67 184.92 51.5 220.65 10.03 M 133.39 110.41 C 162.93 75.35 194.97 40.65 220.65 10.03 M 134.8 110.31 C 163.03 80.17 189.84 48.46 222.06 9.93 M 134.8 110.31 C 152.81 89.33 172.27 67.23 222.06 9.93 M 136.21 110.21 C 153.64 90.56 171.96 68.56 223.47 9.84 M 136.21 110.21 C 158.55 84.92 182.86 58.09 223.47 9.84 M 137.63 110.11 C 155.03 89.94 175.88 69.75 224.88 9.74 M 137.63 110.11 C 160.77 83.11 183.78 55.92 224.88 9.74 M 139.04 110.01 C 174.58 73.19 207.28 35.02 226.29 9.64 M 139.04 110.01 C 157.93 87.92 175.77 66.41 226.29 9.64 M 140.45 109.92 C 168.15 78.86 195.12 44.55 227.05 10.29 M 140.45 109.92 C 169.78 74.58 202.17 38.76 227.05 10.29 M 141.2 110.57 C 160.98 88.58 179.86 65.35 228.46 10.2 M 141.2 110.57 C 160.23 87.65 179.25 65.01 228.46 10.2 M 142.61 110.47 C 173.15 75.46 203.69 38.2 229.87 10.1 M 142.61 110.47 C 164.91 85.83 186.75 59 229.87 10.1 M 144.02 110.37 C 175.19 71.79 209.37 35.01 231.28 10 M 144.02 110.37 C 179 69.65 213.54 30.04 231.28 10 M 145.43 110.28 C 182.24 72.28 215.82 30.81 232.69 9.9 M 145.43 110.28 C 175.82 75.34 206.03 42.2 232.69 9.9 M 146.84 110.18 C 165.01 88.72 186.48 66.24 234.1 9.8 M 146.84 110.18 C 175.81 76.48 204.94 43.43 234.1 9.8 M 148.26 110.08 C 170.91 80.88 195.39 54.06 235.51 9.7 M 148.26 110.08 C 180.39 71.12 214.91 33.2 235.51 9.7 M 149.67 109.98 C 176.94 76.07 204.79 47.28 236.27 10.36 M 149.67 109.98 C 175.39 80.69 201.44 49.65 236.27 10.36 M 151.08 109.88 C 169.68 88.28 190.89 64.82 237.68 10.26 M 151.08 109.88 C 177.82 79.28 206.31 47.93 237.68 10.26 M 151.83 110.54 C 179.99 74.72 213.75 37.39 239.09 10.16 M 151.83 110.54 C 174.09 83.36 198.86 55.44 239.09 10.16 M 153.24 110.44 C 186.86 70.01 224.14 29.24 240.5 10.06 M 153.24 110.44 C 176.56 84.6 200.28 56.55 240.5 10.06 M 154.65 110.34 C 176.92 85.45 200.42 60.51 241.91 9.96 M 154.65 110.34 C 179.39 82.65 203.37 54.54 241.91 9.96 M 156.06 110.24 C 183.32 76.53 215.34 43.08 243.32 9.87 M 156.06 110.24 C 187.44 75.44 217.64 38.77 243.32 9.87 M 157.47 110.14 C 178.33 87.04 193.78 64.93 244.73 9.77 M 157.47 110.14 C 180.51 83.44 202.55 57.09 244.73 9.77 M 158.89 110.04 C 190.21 75.51 220.31 39.77 246.14 9.67 M 158.89 110.04 C 182.86 82.29 208.38 54.21 246.14 9.67 M 160.3 109.95 C 187.24 79.83 213.04 48.49 246.9 10.32 M 160.3 109.95 C 181.33 86.24 200.67 63.82 246.9 10.32 M 161.05 110.6 C 187.49 81.63 215.67 49.57 248.31 10.23 M 161.05 110.6 C 189.01 79.85 216.03 49.27 248.31 10.23 M 162.46 110.5 C 183.47 82.68 207.88 58.15 249.72 10.13 M 162.46 110.5 C 186.05 82.41 211.29 54.11 249.72 10.13 M 163.87 110.4 C 184.36 84.94 207.7 59.42 251.13 10.03 M 163.87 110.4 C 190.79 77.6 219.57 45.85 251.13 10.03 M 165.28 110.31 C 188.04 86.17 206.58 61.31 252.54 9.93 M 165.28 110.31 C 183.38 90.73 201.01 70.51 252.54 9.93 M 166.69 110.21 C 199.34 71.33 232.48 33.53 253.95 9.83 M 166.69 110.21 C 198.23 73.9 230.21 37.25 253.95 9.83 M 168.1 110.11 C 200.98 74.36 231.5 37.34 255.36 9.73 M 168.1 110.11 C 189.95 83.92 214.25 57.17 255.36 9.73 M 169.52 110.01 C 191.14 85.4 212.92 60.46 256.77 9.63 M 169.52 110.01 C 192.17 82.6 214.15 56.87 256.77 9.63 M 170.93 109.91 C 195.19 79.4 222.33 49.76 257.53 10.29 M 170.93 109.91 C 188.75 90.74 205.49 69.4 257.53 10.29 M 171.68 110.57 C 191.41 89.33 209.67 67.53 258.94 10.19 M 171.68 110.57 C 193.36 85.08 216.03 60.08 258.94 10.19 M 173.09 110.47 C 196.22 82.46 218.79 57.45 260.35 10.09 M 173.09 110.47 C 197.93 83.25 220.17 55.53 260.35 10.09 M 174.5 110.37 C 204.19 73.36 237.32 39.6 261.76 9.99 M 174.5 110.37 C 200.68 78.69 228.82 46.85 261.76 9.99 M 175.91 110.27 C 204.49 77.12 232.6 44.56 263.17 9.89 M 175.91 110.27 C 208.24 71.76 243.01 33.79 263.17 9.89 M 177.32 110.17 C 210.51 72.79 239.55 40.26 264.58 9.8 M 177.32 110.17 C 199.27 84.33 221.91 59.34 264.58 9.8 M 178.73 110.07 C 213.4 71.17 243.47 32.02 265.99 9.7 M 178.73 110.07 C 207.94 75.87 237.67 41.67 265.99 9.7 M 180.15 109.98 C 202.61 87.91 220.99 63.5 266.75 10.35 M 180.15 109.98 C 201.25 84.32 222.09 59.76 266.75 10.35 M 180.9 110.63 C 202.22 87.74 219.11 63.82 268.16 10.25 M 180.9 110.63 C 202.96 85.25 223.15 63.32 268.16 10.25 M 182.31 110.53 C 215.46 70.81 251.53 31.74 269.57 10.16 M 182.31 110.53 C 202.95 85.5 223.15 62.71 269.57 10.16 M 183.72 110.43 C 214.15 76.75 243.22 45.93 270.98 10.06 M 183.72 110.43 C 205.53 85.57 227.13 61.45 270.98 10.06 M 185.13 110.34 C 217.11 73.17 250.42 37.78 272.39 9.96 M 185.13 110.34 C 216.78 74.16 249.1 35.85 272.39 9.96 M 186.54 110.24 C 222.18 70.21 255.21 30.11 273.8 9.86 M 186.54 110.24 C 205.42 88.16 224.29 65.11 273.8 9.86 M 187.95 110.14 C 216.45 79.89 245.7 48.18 275.21 9.76 M 187.95 110.14 C 220.56 73.2 252.74 37.46 275.21 9.76 M 189.36 110.04 C 209.51 89.38 228.41 68.82 276.62 9.66 M 189.36 110.04 C 216.84 79.57 243.54 48.99 276.62 9.66 M 190.78 109.94 C 218.51 76.01 248.19 43.5 277.38 10.32 M 190.78 109.94 C 220.91 75.2 251.81 42.32 277.38 10.32 M 191.53 110.6 C 210.63 85.86 231.56 63.99 278.79 10.22 M 191.53 110.6 C 220.81 77.97 252.09 44.14 278.79 10.22 M 192.94 110.5 C 214.92 85.81 237.72 60.09 280.2 10.12 M 192.94 110.5 C 228.35 71.17 262.5 31.2 280.2 10.12 M 194.35 110.4 C 227.19 73.96 259.9 35.95 281.61 10.02 M 194.35 110.4 C 212.68 87.81 231.82 66.37 281.61 10.02 M 195.76 110.3 C 224.73 79.38 250.15 46.87 283.02 9.92 M 195.76 110.3 C 228.18 71.87 262.61 32.81 283.02 9.92 M 197.17 110.2 C 213.56 89.94 234.22 66.51 284.43 9.83 M 197.17 110.2 C 225.1 77.65 255.19 44 284.43 9.83 M 198.58 110.1 C 224.81 80.14 252.13 46.73 285.84 9.73 M 198.58 110.1 C 233.75 70.43 267.97 31.69 285.84 9.73 M 199.99 110 C 216.13 89.27 236.87 67.83 287.25 9.63 M 199.99 110 C 233.93 71.12 268.41 33.25 287.25 9.63 M 201.41 109.91 C 234.97 71.09 266.68 35.94 288.01 10.28 M 201.41 109.91 C 222.81 83.4 244.64 58.88 288.01 10.28 M 202.16 110.56 C 225.87 84.46 246.14 60.72 289.42 10.19 M 202.16 110.56 C 228.17 78.28 256.67 47.22 289.42 10.19 M 203.57 110.46 C 224.35 83.42 251.23 59.45 290.83 10.09 M 203.57 110.46 C 221.73 88.33 240.44 68.07 290.83 10.09 M 204.98 110.37 C 235.24 76.24 265.56 37.64 292.24 9.99 M 204.98 110.37 C 238.65 71.6 272.78 31.9 292.24 9.99 M 206.39 110.27 C 226.7 87.49 249.71 60.31 293.65 9.89 M 206.39 110.27 C 229.97 82.18 255.53 54.19 293.65 9.89 M 207.8 110.17 C 236.91 76.49 265.1 45.68 295.06 9.79 M 207.8 110.17 C 236.19 76.58 265.54 43.03 295.06 9.79 M 209.21 110.07 C 239.21 74.8 272.01 39.07 296.47 9.69 M 209.21 110.07 C 231.91 84.14 251.8 60.25 296.47 9.69 M 210.62 109.97 C 236.99 79.98 261.2 50.39 297.22 10.35 M 210.62 109.97 C 243.32 74.58 274.52 38.88 297.22 10.35 M 211.38 110.63 C 231.78 87.47 252.6 60.82 298.64 10.25 M 211.38 110.63 C 238.29 79.63 263.89 48.08 298.64 10.25 M 212.79 110.53 C 235.85 84.46 255.59 62.88 300.05 10.15 M 212.79 110.53 C 246.32 71.79 279.43 32.16 300.05 10.15 M 214.2 110.43 C 235.93 83.23 260.35 59.4 301.46 10.05 M 214.2 110.43 C 232.54 88.86 251.87 65.07 301.46 10.05 M 215.61 110.33 C 249.67 69.7 285.83 32.98 302.87 9.95 M 215.61 110.33 C 248.36 71.29 281.82 34.59 302.87 9.95 M 217.02 110.23 C 248.1 70.69 281.18 33.11 304.28 9.86 M 217.02 110.23 C 246.15 74.78 277.84 39.63 304.28 9.86 M 218.43 110.13 C 243.23 84.18 264.76 58.03 305.69 9.76 M 218.43 110.13 C 238.52 88.64 256.99 67.95 305.69 9.76 M 219.84 110.03 C 245.86 78.95 271.64 50.29 307.1 9.66 M 219.84 110.03 C 241.06 88.03 262.21 62.78 307.1 9.66 M 221.25 109.94 C 242.96 86.73 260.08 65.24 307.85 10.31 M 221.25 109.94 C 243.4 83.77 264.62 57.17 307.85 10.31 M 222.01 110.59 C 248.26 76.83 277.18 44.22 309.27 10.22 M 222.01 110.59 C 255.45 72.57 290.5 33.04 309.27 10.22 M 223.42 110.49 C 249.94 77.69 279.54 46.19 310.68 10.12 M 223.42 110.49 C 253.6 76.54 283.1 41.12 310.68 10.12 M 224.83 110.39 C 249.28 82.49 274.24 55.11 312.09 10.02 M 224.83 110.39 C 251.88 78.89 280.98 46.4 312.09 10.02 M 226.24 110.3 C 246.95 85.08 272.55 60.75 313.5 9.92 M 226.24 110.3 C 261.07 72.73 295.5 32.3 313.5 9.92 M 227.65 110.2 C 259.69 70.37 293.94 32.76 314.91 9.82 M 227.65 110.2 C 256.36 77.87 284.85 45.49 314.91 9.82 M 229.06 110.1 C 263.34 71.54 295.74 33.91 316.32 9.72 M 229.06 110.1 C 247.35 88.46 266.06 67.37 316.32 9.72 M 230.47 110 C 246.38 88.58 266.2 66.31 317.73 9.62 M 230.47 110 C 254.27 82.71 277.38 56.01 317.73 9.62 M 231.89 109.9 C 260.52 74.73 291.33 41.82 318.48 10.28 M 231.89 109.9 C 257.02 82.75 280.44 52.58 318.48 10.28 M 232.64 110.56 C 258.73 81.56 285.65 50.31 319.9 10.18 M 232.64 110.56 C 251.47 87.46 271.43 66.98 319.9 10.18 M 234.05 110.46 C 254.59 86.91 275.83 61.44 321.31 10.08 M 234.05 110.46 C 251.84 88.96 271.31 68.6 321.31 10.08 M 235.46 110.36 C 266.07 74.45 300.1 37.76 322.72 9.98 M 235.46 110.36 C 253.38 88.58 273.05 66.42 322.72 9.98 M 236.87 110.26 C 261.87 82.64 284.25 57.02 324.13 9.89 M 236.87 110.26 C 257.15 86.46 278.54 63.69 324.13 9.89 M 238.28 110.16 C 265.09 83.79 289.17 54.42 325.54 9.79 M 238.28 110.16 C 263.13 79.73 289.61 52.08 325.54 9.79 M 239.69 110.06 C 258.25 91.13 272.96 69.99 326.95 9.69 M 239.69 110.06 C 266.5 81.21 292.4 50.52 326.95 9.69 M 241.1 109.97 C 263.7 80.61 289.39 50.1 327.7 10.34 M 241.1 109.97 C 264.48 85.97 287.17 60 327.7 10.34 M 241.86 110.62 C 275.87 70.48 308.98 34.18 329.11 10.25 M 241.86 110.62 C 262.19 84.48 284.64 59.89 329.11 10.25 M 243.27 110.52 C 274.27 70.83 308.07 34.1 330.53 10.15 M 243.27 110.52 C 269.78 79.69 295.57 49.15 330.53 10.15 M 244.68 110.42 C 274.63 74.13 304.98 38.45 331.94 10.05 M 244.68 110.42 C 277.76 72.6 311.51 32.06 331.94 10.05 M 246.09 110.33 C 278.46 76.45 306.21 38.67 333.35 9.95 M 246.09 110.33 C 265.05 87.9 284.06 65.03 333.35 9.95 M 247.5 110.23 C 278.37 76.54 309.66 39.92 334.76 9.85 M 247.5 110.23 C 275.32 78.02 304.39 46.21 334.76 9.85 M 248.91 110.13 C 277.39 76.63 302.96 45.64 336.17 9.75 M 248.91 110.13 C 283.03 72.14 315.23 33.2 336.17 9.75 M 250.32 110.03 C 274.22 82.63 295.87 53.69 337.58 9.65 M 250.32 110.03 C 278.33 77.94 304.73 44.59 337.58 9.65 M 251.73 109.93 C 286.28 70.24 318.1 30.52 338.33 10.31 M 251.73 109.93 C 278.54 78.03 305.28 48.66 338.33 10.31 M 252.49 110.59 C 275.74 83.24 300.01 56.14 339.75 10.21 M 252.49 110.59 C 285.12 73.5 316.31 38.08 339.75 10.21 M 253.9 110.49 C 275.65 87.79 295.85 64.83 341.16 10.11 M 253.9 110.49 C 286.03 73.68 316.22 38.15 341.16 10.11 M 255.31 110.39 C 290.53 71.84 322.83 33.75 342.57 10.01 M 255.31 110.39 C 280.83 80.14 306.62 50.45 342.57 10.01 M 256.72 110.29 C 282.1 79.98 305.75 51.28 343.98 9.91 M 256.72 110.29 C 277.97 84.96 300.2 58.44 343.98 9.91 M 258.13 110.19 C 280.89 83.29 308.61 53.98 345.39 9.82 M 258.13 110.19 C 280.49 85.5 302.86 60.15 345.39 9.82 M 259.54 110.09 C 288.78 77.72 319.59 41.23 346.8 9.72 M 259.54 110.09 C 283.67 81.28 308.99 53.21 346.8 9.72 M 260.95 110 C 289.5 75.31 321.85 42.56 347.55 10.37 M 260.95 110 C 284.5 84.29 306.36 57.47 347.55 10.37 M 262.36 109.9 C 294.28 74.85 324.56 34.95 348.96 10.27 M 262.36 109.9 C 291.4 76.6 321.63 41.91 348.96 10.27 M 263.12 110.55 C 296.49 72.03 328.75 34.27 350.38 10.18 M 263.12 110.55 C 284.23 88.71 302.97 66.02 350.38 10.18 M 264.53 110.45 C 291.38 82.06 313.96 53.88 351.79 10.08 M 264.53 110.45 C 289.3 81.3 315.54 51.94 351.79 10.08 M 265.94 110.36 C 288.17 80.45 312.11 55.71 353.2 9.98 M 265.94 110.36 C 295.76 77.11 324.09 43.23 353.2 9.98 M 267.35 110.26 C 286.63 90.31 301.91 66.77 354.61 9.88 M 267.35 110.26 C 285.24 89.61 303.66 68.6 354.61 9.88 M 268.76 110.16 C 302.26 71.15 337.65 31.27 356.02 9.78 M 268.76 110.16 C 289.94 85.29 312.52 59.89 356.02 9.78 M 270.17 110.06 C 302.9 71.06 340.25 31.13 357.43 9.68 M 270.17 110.06 C 299.07 77.12 326.88 46.01 357.43 9.68 M 271.58 109.96 C 300.45 76.54 332.52 43.43 358.18 10.34 M 271.58 109.96 C 300.56 76.02 332.39 40.58 358.18 10.34 M 272.34 110.62 C 294.84 86.54 313.56 61.3 359.59 10.24 M 272.34 110.62 C 293.74 86.55 314.21 60.47 359.59 10.24 M 273.75 110.52 C 291.14 87.16 310.14 67 361.01 10.14 M 273.75 110.52 C 296.24 84.15 318.08 57.69 361.01 10.14 M 275.16 110.42 C 309.66 70.96 342.68 32.57 362.42 10.04 M 275.16 110.42 C 294.15 90.83 312.64 68.82 362.42 10.04 M 276.57 110.32 C 310.39 73.99 339.36 38.16 363.83 9.94 M 276.57 110.32 C 302.92 77.79 330.64 46.79 363.83 9.94 M 277.98 110.22 C 307.13 76.61 340.76 40.14 365.24 9.85 M 277.98 110.22 C 312.84 70.07 348.43 29.67 365.24 9.85 M 279.39 110.12 C 297.49 88.68 313.69 68.47 366.65 9.75 M 279.39 110.12 C 307.48 77.31 334.99 45.41 366.65 9.75 M 280.8 110.02 C 305.93 83.23 331.2 51.9 368.06 9.65 M 280.8 110.02 C 314.31 69.76 349.08 31.8 368.06 9.65 M 282.21 109.93 C 302.83 89.19 320.34 67.27 368.81 10.3 M 282.21 109.93 C 314.8 73.53 347.41 34.53 368.81 10.3 M 282.97 110.58 C 307.89 81.51 331.59 56.12 370.22 10.21 M 282.97 110.58 C 312.41 76.6 343.41 41.54 370.22 10.21 M 284.38 110.48 C 311.96 76.81 345.6 42.25 371.64 10.11 M 284.38 110.48 C 307.54 83.59 330.37 56.96 371.64 10.11 M 285.79 110.39 C 318.68 71.82 350.3 36.22 373.05 10.01 M 285.79 110.39 C 305.11 88.31 324.59 66.85 373.05 10.01 M 287.2 110.29 C 306.2 91.27 323.51 68.02 374.46 9.91 M 287.2 110.29 C 308.13 86.12 329.92 61.15 374.46 9.91 M 288.61 110.19 C 322.35 74.54 351.69 37.14 375.87 9.81 M 288.61 110.19 C 318.97 76.58 346.88 42.15 375.87 9.81 M 290.02 110.09 C 312.84 81.83 340.18 55.25 377.28 9.71 M 290.02 110.09 C 313.49 83.6 337.01 56.89 377.28 9.71 M 291.43 109.99 C 318.77 82.39 344.16 49.77 378.03 10.37 M 291.43 109.99 C 308.9 89.54 328.59 67.27 378.03 10.37 M 292.84 109.89 C 319.24 79.5 343.4 48.41 379.44 10.27 M 292.84 109.89 C 325.02 73.02 357.01 37.6 379.44 10.27 M 293.6 110.55 C 319.2 79.83 344.73 53.22 380.85 10.17 M 293.6 110.55 C 324.6 73.95 356.29 38.23 380.85 10.17 M 295.01 110.45 C 321.96 81.57 348.08 52.7 382.27 10.07 M 295.01 110.45 C 315.93 85.48 339.47 60.37 382.27 10.07 M 296.42 110.35 C 318.06 83.64 341.99 57.76 383.68 9.97 M 296.42 110.35 C 317.28 87.58 337.58 63.99 383.68 9.97 M 297.83 110.25 C 323.85 78.23 353.98 42.98 385.09 9.88 M 297.83 110.25 C 328.67 76.23 358.46 42.41 385.09 9.88 M 299.24 110.15 C 325.93 81.35 349.89 48.94 386.5 9.78 M 299.24 110.15 C 327.63 76.86 357.01 43.7 386.5 9.78 M 300.65 110.05 C 328.76 73.34 360.95 42.4 387.91 9.68 M 300.65 110.05 C 327.22 80.01 355.11 50.16 387.91 9.68 M 302.06 109.96 C 324.04 85.39 346.24 59.12 388.66 10.33 M 302.06 109.96 C 326.51 80.09 352.77 51.64 388.66 10.33 M 302.82 110.61 C 333.88 76.28 361.66 43.22 390.07 10.24 M 302.82 110.61 C 330.6 78.69 358.61 45.81 390.07 10.24 M 304.23 110.51 C 334.4 78.24 364.18 43.24 391.48 10.14 M 304.23 110.51 C 336.87 73.87 367.94 37.83 391.48 10.14 M 305.64 110.41 C 324.49 89.78 343.19 70.57 392.9 10.04 M 305.64 110.41 C 327.24 85.76 347.03 61.9 392.9 10.04 M 307.05 110.32 C 336.92 80.1 361.85 44.73 394.31 9.94 M 307.05 110.32 C 339.21 72.94 370.7 36.53 394.31 9.94 M 308.46 110.22 C 332.37 83.44 353.73 55.71 395.72 9.84 M 308.46 110.22 C 325.43 88.46 344.1 69.13 395.72 9.84 M 309.87 110.12 C 342.95 74.21 375.44 34.56 397.13 9.74 M 309.87 110.12 C 335.91 81.28 360.99 50.77 397.13 9.74 M 311.28 110.02 C 341.2 75.12 372.73 41.78 398.54 9.64 M 311.28 110.02 C 333.05 85.09 354.03 61.89 398.54 9.64 M 312.69 109.92 C 346.48 71.54 376.84 33.49 399.29 10.3 M 312.69 109.92 C 342.71 75.67 372.75 41.42 399.29 10.3 M 313.45 110.58 C 335.52 82.95 360.25 55.62 400.7 10.2 M 313.45 110.58 C 334.18 85.77 356.19 61 400.7 10.2 M 314.86 110.48 C 337.69 84.83 358.21 60.28 402.11 10.1 M 314.86 110.48 C 340.3 79.22 366.54 49.32 402.11 10.1 M 316.27 110.38 C 336.93 85.77 354.58 64.1 403.53 10 M 316.27 110.38 C 337.27 88.38 356.67 65.56 403.53 10 M 317.68 110.28 C 353.42 70.54 388.16 32.44 404.94 9.91 M 317.68 110.28 C 344.52 78.32 373.23 46.58 404.94 9.91 M 319.09 110.18 C 352.57 71.17 387.26 34.29 406.35 9.81 M 319.09 110.18 C 341.16 86.36 362.27 60.76 406.35 9.81 M 320.5 110.08 C 340.14 86.54 361.7 65.49 407.76 9.71 M 320.5 110.08 C 350.36 75.85 377.93 43.41 407.76 9.71 M 321.91 109.99 C 339.89 88.26 361.95 66.61 408.51 10.36 M 321.91 109.99 C 346.06 82.64 369.93 54.1 408.51 10.36 M 323.32 109.89 C 351.04 76.24 383.8 42.08 409.92 10.27 M 323.32 109.89 C 346.65 82.32 370.85 54.69 409.92 10.27 M 324.08 110.54 C 345.08 84.39 366.57 58.13 411.33 10.17 M 324.08 110.54 C 354.63 74.61 386.13 39.22 411.33 10.17 M 325.49 110.44 C 348.15 82.52 372.91 57.12 412.74 10.07 M 325.49 110.44 C 349.43 83.53 371.18 56.23 412.74 10.07 M 326.9 110.35 C 353.19 81.45 376.98 53.15 414.16 9.97 M 326.9 110.35 C 347.86 87.54 366.03 65.62 414.16 9.97 M 328.31 110.25 C 353.76 78.54 383.19 46.47 415.57 9.87 M 328.31 110.25 C 363.22 71.67 397.16 30.05 415.57 9.87 M 329.72 110.15 C 349.46 91.72 365.53 69.13 416.98 9.77 M 329.72 110.15 C 356.2 82.44 379.71 53.95 416.98 9.77 M 331.13 110.05 C 358.05 75.94 389.69 45.1 418.39 9.67 M 331.13 110.05 C 362.05 74.44 392 39.59 418.39 9.67 M 332.54 109.95 C 359.9 80.26 387.63 47.94 419.14 10.33 M 332.54 109.95 C 353.02 86.5 372.35 62.29 419.14 10.33 M 333.3 110.61 C 368.26 73.3 400.73 36.46 420.55 10.23 M 333.3 110.61 C 367.73 70.69 400.5 31.97 420.55 10.23 M 334.71 110.51 C 352.45 90.75 371.33 68.87 421.96 10.13 M 334.71 110.51 C 356.86 83.81 380.26 55.29 421.96 10.13 M 336.12 110.41 C 355.97 88.64 378.57 61.06 423.37 10.03 M 336.12 110.41 C 368.82 72.84 400.95 36.62 423.37 10.03 M 337.53 110.31 C 367.18 73.75 397.12 38.61 424.79 9.93 M 337.53 110.31 C 360.81 85.43 380.76 60.32 424.79 9.93 M 338.94 110.21 C 363.03 80.75 391.04 49.35 426.2 9.84 M 338.94 110.21 C 366.95 77.43 393.77 45.54 426.2 9.84 M 340.35 110.11 C 365.3 83.56 387.96 54.43 427.61 9.74 M 340.35 110.11 C 368.39 76.66 396.05 44.71 427.61 9.74 M 341.76 110.02 C 365.42 79.31 390.76 52.36 429.02 9.64 M 341.76 110.02 C 364.08 83.15 387.38 57.5 429.02 9.64 M 343.17 109.92 C 371.62 75.67 403.46 38.41 429.77 10.29 M 343.17 109.92 C 370.89 77.13 399.23 45.25 429.77 10.29 M 343.93 110.57 C 371.2 79.05 396.36 51.46 431.18 10.2 M 343.93 110.57 C 363.14 89.88 380.78 68.99 431.18 10.2 M 345.34 110.47 C 369.01 84.63 392.16 54.33 432.59 10.1 M 345.34 110.47 C 377.58 70.92 412 32.65 432.59 10.1 M 346.75 110.38 C 364.8 90.7 384.37 69.56 434.01 10 M 346.75 110.38 C 376.1 79.33 403.12 46.84 434.01 10 M 348.16 110.28 C 376.81 78.59 405.73 44.35 435.42 9.9 M 348.16 110.28 C 373.94 81.49 400.47 51.16 435.42 9.9 M 349.57 110.18 C 369.42 87.03 387.97 64.91 436.83 9.8 M 349.57 110.18 C 385.71 69.31 419.06 30.71 436.83 9.8 M 350.98 110.08 C 378.55 76.91 408.39 44.45 438.24 9.7 M 350.98 110.08 C 381.52 74.7 412.94 38.79 438.24 9.7 M 352.39 109.98 C 383.09 74.62 416.53 35.36 438.99 10.36 M 352.39 109.98 C 384.22 70.5 417.57 33.88 438.99 10.36 M 353.8 109.88 C 379.01 81.14 406.27 48.59 440.4 10.26 M 353.8 109.88 C 384.16 76.13 413.55 42.57 440.4 10.26 M 354.56 110.54 C 386.52 71.68 420.58 34.82 441.81 10.16 M 354.56 110.54 C 373.84 88.09 392.27 65.58 441.81 10.16 M 355.97 110.44 C 390.66 68.21 425.8 28.62 443.22 10.06 M 355.97 110.44 C 381.73 78.28 409.21 47.87 443.22 10.06 M 357.38 110.34 C 376.26 89.95 393.47 69.77 444.64 9.96 M 357.38 110.34 C 377.82 85.54 398.8 63.47 444.64 9.96 M 358.79 110.24 C 389.45 74.55 424.46 36.85 446.05 9.87 M 358.79 110.24 C 393.08 72.43 426.81 32.9 446.05 9.87 M 360.2 110.14 C 390.02 78.55 418.1 48.17 447.46 9.77 M 360.2 110.14 C 389.13 77.49 418.3 43.9 447.46 9.77 M 361.61 110.04 C 387.14 80.19 413.54 47.57 448.87 9.67 M 361.61 110.04 C 381.99 89.1 401.1 66.85 448.87 9.67 M 363.02 109.95 C 395.72 72.38 432.22 34.09 449.62 10.32 M 363.02 109.95 C 383.23 87.76 400.17 67.57 449.62 10.32 M 363.78 110.6 C 390.87 83.38 415.23 52.97 451.03 10.23 M 363.78 110.6 C 390.22 80.51 418.7 49.09 451.03 10.23 M 365.19 110.5 C 384.98 86.32 406.76 59.78 452.44 10.13 M 365.19 110.5 C 394.93 75.66 425.16 40.21 452.44 10.13 M 366.6 110.4 C 395.88 79.7 422.1 46.03 453.85 10.03 M 366.6 110.4 C 388.56 83.76 410.41 58.79 453.85 10.03 M 368.01 110.31 C 391.99 81.9 413.08 55.13 455.27 9.93 M 368.01 110.31 C 386.51 88.74 405.05 67.78 455.27 9.93 M 369.42 110.21 C 389.55 86.13 409.12 64.64 456.68 9.83 M 369.42 110.21 C 396.58 76.26 426.52 43.7 456.68 9.83 M 370.83 110.11 C 391.55 86.97 410.77 64.86 458.09 9.73 M 370.83 110.11 C 391.76 86 412.58 63.18 458.09 9.73 M 372.24 110.01 C 404.41 73.75 435.05 40.03 459.5 9.63 M 372.24 110.01 C 398.5 77.89 425.98 46.84 459.5 9.63 M 373.65 109.91 C 393.4 86.57 411.9 68.62 460.25 10.29 M 373.65 109.91 C 398.09 83.42 421.06 57.48 460.25 10.29 M 374.41 110.57 C 398.06 85.71 417.64 59.24 461.66 10.19 M 374.41 110.57 C 393.71 87.21 414.68 64.36 461.66 10.19 M 375.82 110.47 C 405.09 76.08 433.9 41.19 463.07 10.09 M 375.82 110.47 C 402.05 78.78 428.73 47.23 463.07 10.09 M 377.23 110.37 C 409.47 73.65 445.56 32.88 464.48 9.99 M 377.23 110.37 C 395.89 87.56 417.24 63.67 464.48 9.99 M 378.64 110.27 C 398.2 85.62 421.48 58.72 465.9 9.9 M 378.64 110.27 C 408.72 75.22 440.98 38.1 465.9 9.9 M 380.05 110.17 C 403.95 87.35 422.26 61.54 467.31 9.8 M 380.05 110.17 C 407.73 76.85 438.14 43.42 467.31 9.8 M 381.46 110.07 C 412.56 75.13 444.99 35.6 468.72 9.7 M 381.46 110.07 C 400.14 87.13 420.99 64.86 468.72 9.7 M 382.87 109.98 C 402.7 87.98 420.47 68.41 469.47 10.35 M 382.87 109.98 C 403.82 87.1 423.09 63.18 469.47 10.35 M 383.63 110.63 C 405.91 84.9 429.71 56.55 470.88 10.26 M 383.63 110.63 C 406.12 84.25 427.58 60.18 470.88 10.26 M 385.04 110.53 C 413.49 78.76 444.9 41.69 472.29 10.16 M 385.04 110.53 C 411.46 78.62 439.83 46.46 472.29 10.16 M 386.45 110.43 C 411.6 82.36 437.37 50.55 473.7 10.06 M 386.45 110.43 C 421.19 69.15 454.98 30.28 473.7 10.06 M 387.86 110.34 C 415.89 78.53 444.03 45.71 475.11 9.96 M 387.86 110.34 C 409.55 85.62 431.34 60.51 475.11 9.96 M 389.27 110.24 C 421.96 72.55 456.75 33.8 476.53 9.86 M 389.27 110.24 C 408.66 89.5 426.97 69.18 476.53 9.86 M 390.68 110.14 C 420.54 74.61 448.6 43.92 477.94 9.76 M 390.68 110.14 C 408.89 90.23 426.39 70.2 477.94 9.76 M 392.09 110.04 C 410.34 90.77 427.22 70.28 479.35 9.66 M 392.09 110.04 C 426.82 68.66 460.62 28.73 479.35 9.66 M 393.5 109.94 C 413.1 89.1 432.89 66.42 480.1 10.32 M 393.5 109.94 C 426.87 70.28 462.28 31.09 480.1 10.32 M 394.26 110.6 C 426.58 71.37 462.9 32.09 481.51 10.22 M 394.26 110.6 C 418.79 82.72 443.35 56.58 481.51 10.22 M 395.67 110.5 C 421.63 81.28 444.83 55.09 482.92 10.12 M 395.67 110.5 C 427.87 72.99 460.9 35.8 482.92 10.12 M 397.08 110.4 C 431.61 74.85 463.26 35.38 484.33 10.02 M 397.08 110.4 C 426 77.23 455.19 43.99 484.33 10.02 M 398.49 110.3 C 422.52 80.44 447.15 54.48 485.74 9.93 M 398.49 110.3 C 427.35 78.15 456.35 45.58 485.74 9.93 M 399.9 110.2 C 428 80.09 454.26 47.87 487.16 9.83 M 399.9 110.2 C 421.75 87.19 443.9 62.51 487.16 9.83 M 401.31 110.1 C 423.8 84.42 447.98 56.32 488.57 9.73 M 401.31 110.1 C 432.76 74.44 462.72 40 488.57 9.73 M 402.72 110.01 C 432.89 74.92 467.38 35.61 489.98 9.63 M 402.72 110.01 C 425.98 82.6 449.85 57.04 489.98 9.63 M 404.13 109.91 C 431.32 79.48 460.65 44.62 490.73 10.29 M 404.13 109.91 C 425.28 86.18 442.84 65.41 490.73 10.29 M 404.89 110.56 C 425.34 86.59 443.87 66.09 490.83 11.7 M 404.89 110.56 C 426.39 86.36 447.6 62.5 490.83 11.7 M 406.3 110.46 C 425.08 86.49 445.56 65.43 490.27 13.86 M 406.3 110.46 C 422.6 90.87 441.23 69.86 490.27 13.86 M 407.71 110.37 C 441.48 72.98 474.25 35.19 490.37 15.27 M 407.71 110.37 C 425.97 89.92 444.38 68.45 490.37 15.27 M 409.12 110.27 C 426.05 93.18 443.19 70.37 490.47 16.68 M 409.12 110.27 C 430.15 86.85 450 62.44 490.47 16.68 M 410.53 110.17 C 435.37 85.99 454.04 58.81 490.57 18.09 M 410.53 110.17 C 442.31 75.55 472.39 40.64 490.57 18.09 M 411.94 110.07 C 441.5 78.31 468.79 43.66 490.67 19.5 M 411.94 110.07 C 442.92 75.28 472.32 40.6 490.67 19.5 M 413.35 109.97 C 436.48 82.79 459.97 56.38 490.77 20.92 M 413.35 109.97 C 441.59 79.32 466.67 47.97 490.77 20.92 M 414.11 110.63 C 434.85 87.07 454.25 65.7 490.86 22.33 M 414.11 110.63 C 437.21 82.8 461.6 53.98 490.86 22.33 M 415.52 110.53 C 430.89 89.8 447.85 69.8 490.31 24.49 M 415.52 110.53 C 436.75 85.84 458.14 61.56 490.31 24.49 M 416.93 110.43 C 439.04 84.61 462.46 57.22 490.41 25.9 M 416.93 110.43 C 435.15 90.4 451.77 70.13 490.41 25.9 M 418.34 110.33 C 433.75 94.65 449.31 79.14 490.5 27.31 M 418.34 110.33 C 444.84 80.42 469.79 49.68 490.5 27.31 M 419.75 110.23 C 437.73 93.25 453.54 73.94 490.6 28.72 M 419.75 110.23 C 437.69 89.55 455.61 68.52 490.6 28.72 M 421.16 110.13 C 444.24 84.58 466.21 58.44 490.7 30.13 M 421.16 110.13 C 444.23 82.67 468.29 55.18 490.7 30.13 M 422.57 110.04 C 450.01 80.56 472.98 51.71 490.8 31.55 M 422.57 110.04 C 445.17 85.12 466.66 60.01 490.8 31.55 M 423.98 109.94 C 439.99 92.85 458.57 72.6 490.24 33.71 M 423.98 109.94 C 446.69 84.69 468.84 58.04 490.24 33.71 M 424.74 110.59 C 447.39 82.99 472.89 56.84 490.34 35.12 M 424.74 110.59 C 444.05 90.48 462.57 69.06 490.34 35.12 M 426.15 110.49 C 439.88 93.8 454.12 79.07 490.44 36.53 M 426.15 110.49 C 444.38 89.79 463.62 69 490.44 36.53 M 427.56 110.4 C 444.07 89.9 463.34 68.26 490.54 37.94 M 427.56 110.4 C 445.2 91.23 461.84 70.96 490.54 37.94 M 428.97 110.3 C 446.36 94.97 460.34 75 490.64 39.35 M 428.97 110.3 C 446.54 89.3 463.8 69.3 490.64 39.35 M 430.38 110.2 C 449.11 89.62 466.27 66.44 490.74 40.76 M 430.38 110.2 C 450.58 87.3 470.68 64.02 490.74 40.76 M 431.79 110.1 C 447.81 90.54 463.22 71.79 490.84 42.18 M 431.79 110.1 C 444.01 95.48 458.22 80.98 490.84 42.18 M 433.2 110 C 446.2 95.56 459.11 79.21 490.28 44.34 M 433.2 110 C 452.41 87.4 473.43 64.51 490.28 44.34 M 434.61 109.9 C 448.28 93.69 460.55 80.01 490.38 45.75 M 434.61 109.9 C 454.87 86.09 476.35 62.79 490.38 45.75 M 435.37 110.56 C 456.26 85.93 478.71 64.82 490.48 47.16 M 435.37 110.56 C 452.91 90.69 472 70.59 490.48 47.16 M 436.78 110.46 C 448.34 93.58 462.91 80.39 490.57 48.57 M 436.78 110.46 C 456.38 86.44 476.84 64.34 490.57 48.57 M 438.19 110.36 C 452.26 92.27 465.41 77.72 490.67 49.98 M 438.19 110.36 C 455.36 90.64 471.5 72.1 490.67 49.98 M 439.6 110.26 C 456.69 90.52 475.31 67.08 490.77 51.39 M 439.6 110.26 C 453.99 93.84 467.37 77.08 490.77 51.39 M 441.01 110.16 C 460.53 91.03 475.44 71.56 490.87 52.81 M 441.01 110.16 C 456.09 92.39 469.51 76 490.87 52.81 M 442.42 110.06 C 462.05 90.3 481.1 67.1 490.31 54.97 M 442.42 110.06 C 458.78 91.62 473.49 72.87 490.31 54.97 M 443.83 109.97 C 458.8 92.68 470.94 77.34 490.41 56.38 M 443.83 109.97 C 457.6 92.66 472.74 77.26 490.41 56.38 M 444.59 110.62 C 460.34 93.94 475.15 76.92 490.51 57.79 M 444.59 110.62 C 458.82 93.54 473.96 76.91 490.51 57.79 M 446 110.52 C 457.17 97.35 469.33 85.16 490.61 59.2 M 446 110.52 C 457.83 96.21 469.58 83.39 490.61 59.2 M 447.41 110.42 C 462.82 93.65 479.37 75.56 490.71 60.61 M 447.41 110.42 C 457.38 98.52 468.38 86.6 490.71 60.61 M 448.82 110.33 C 456.99 99.13 468.81 86.7 490.81 62.02 M 448.82 110.33 C 464.73 91.34 480.9 73.19 490.81 62.02 M 450.23 110.23 C 464.37 92.55 482.85 74.96 490.25 64.19 M 450.23 110.23 C 460.57 97.67 472.47 85.02 490.25 64.19 M 451.64 110.13 C 464.37 93.38 477.4 81.51 490.35 65.6 M 451.64 110.13 C 464.63 94.88 479.01 78.27 490.35 65.6 M 453.05 110.03 C 461.99 96.63 474.86 83.93 490.45 67.01 M 453.05 110.03 C 467.19 92.84 481.79 76.32 490.45 67.01 M 454.46 109.93 C 465.19 98.67 476.18 84.9 490.54 68.42 M 454.46 109.93 C 469.25 94.01 482.12 78.86 490.54 68.42 M 455.22 110.59 C 465.52 96.4 480.88 82.33 490.64 69.83 M 455.22 110.59 C 466.87 97.1 478.43 85.24 490.64 69.83 M 456.63 110.49 C 468.21 98.3 477.09 86.24 490.74 71.24 M 456.63 110.49 C 467.19 98.49 477.22 87.8 490.74 71.24 M 458.04 110.39 C 468.89 95.78 483.42 81.15 490.84 72.66 M 458.04 110.39 C 463.81 102.47 470.51 93.87 490.84 72.66 M 459.45 110.29 C 466.34 98.67 477.04 91.18 490.28 74.82 M 459.45 110.29 C 468.47 100.92 477.38 90.67 490.28 74.82 M 460.86 110.19 C 469.89 99.35 481.96 85.77 490.38 76.23 M 460.86 110.19 C 472.15 97.14 481.89 85.97 490.38 76.23 M 462.27 110.09 C 473.36 97.06 481.77 86.76 490.48 77.64 M 462.27 110.09 C 470.68 99.87 480.61 88.22 490.48 77.64 M 463.68 110 C 471.67 104.13 475.18 96.26 490.58 79.05 M 463.68 110 C 471.8 101.15 479.88 91.2 490.58 79.05 M 465.09 109.9 C 472.29 101.16 481.41 88.97 490.68 80.46 M 465.09 109.9 C 476.2 98.12 484.59 87.11 490.68 80.46 M 465.85 110.55 C 473.48 101.57 484.69 90.95 490.78 81.87 M 465.85 110.55 C 473.12 102.68 479.42 94.63 490.78 81.87 M 467.26 110.45 C 475.95 101.47 482.34 92.81 490.87 83.29 M 467.26 110.45 C 472.79 103.34 480 95.5 490.87 83.29 M 468.67 110.36 C 477.07 100.93 482.83 92.39 490.32 85.45 M 468.67 110.36 C 477.63 100.83 485.32 92.69 490.32 85.45 M 470.08 110.26 C 478.19 101.91 485.75 93.02 490.42 86.86 M 470.08 110.26 C 474.69 104.73 478.23 101.18 490.42 86.86 M 471.49 110.16 C 478.99 103.03 482.41 95.28 490.51 88.27 M 471.49 110.16 C 475.89 105.32 480.95 98.17 490.51 88.27 M 472.9 110.06 C 476.27 107.64 480.48 102.78 490.61 89.68 M 472.9 110.06 C 477.02 104.63 480.97 100.76 490.61 89.68 M 474.31 109.96 C 476.96 106.29 481.43 100.2 490.71 91.09 M 474.31 109.96 C 480.77 102.48 486.69 97.25 490.71 91.09 M 475.06 110.62 C 479.76 105.69 482.2 104.11 490.81 92.5 M 475.06 110.62 C 480.53 105.08 485.69 98.28 490.81 92.5 M 476.48 110.52 C 482.89 105.93 484.44 99.87 490.25 94.67 M 476.48 110.52 C 480.4 106.53 483.6 101.06 490.25 94.67 M 477.89 110.42 C 481.33 105.66 487.61 101.4 490.35 96.08 M 477.89 110.42 C 482.42 105.89 486.06 100.56 490.35 96.08 M 479.3 110.32 C 483.6 106.41 486.32 101.95 490.45 97.49 M 479.3 110.32 C 481.5 107.14 484.72 103.18 490.45 97.49 M 480.71 110.22 C 483.13 105.77 487.06 103.54 490.55 98.9 M 480.71 110.22 C 485.22 105.45 488.92 101.57 490.55 98.9 M 482.12 110.12 C 485.17 106.79 488.17 103.86 490.65 100.31 M 482.12 110.12 C 485.01 107.15 486.81 105.18 490.65 100.31 M 483.53 110.03 C 487.02 107.71 488.55 103.41 490.75 101.72 M 483.53 110.03 C 484.81 108.36 486.45 105.83 490.75 101.72 M 484.94 109.93 C 486.82 108.06 486.75 106.63 490.84 103.13 M 484.94 109.93 C 486.91 107.86 488.01 106.06 490.84 103.13 M 485.7 110.58 C 486.33 109.77 488.46 107.52 490.29 105.3 M 485.7 110.58 C 486.59 109.09 487.8 107.92 490.29 105.3 M 487.11 110.48 C 487.84 109.91 488.35 108.84 490.39 106.71 M 487.11 110.48 C 487.95 109.46 488.96 108.45 490.39 106.71 M 488.52 110.39 C 489.09 109.53 489.59 109.34 490.48 108.12 M 488.52 110.39 C 489.08 109.64 489.99 109.03 490.48 108.12" fill="none" stroke="#eeeeee" stroke-width="0.5" stroke-linejoin="round" stroke-linecap="round" stroke-miterlimit="10" pointer-events="all"/></g><g><g fill="rgb(0, 0, 0)" font-family="&quot;Helvetica&quot;" text-anchor="middle" font-size="18px"><text x="249.5" y="33.5">CPU</text></g></g></g><g data-cell-id="Dz_opyrQ9mkDWGh6BsnE-3"><g style="filter: drop-shadow(rgb(0, 0, 0) 3px -3px 0px);"><rect x="37" y="50" width="100" height="40" rx="6" ry="6" fill="rgb(255, 255, 255)" stroke="rgb(0, 0, 0)" pointer-events="all"/></g><g><g fill="rgb(0, 0, 0)" font-family="&quot;Helvetica&quot;" text-anchor="middle" font-size="18px"><text x="86.5" y="77.5">运算单元</text></g></g></g><g data-cell-id="Dz_opyrQ9mkDWGh6BsnE-18"><g><path d="M 190.63 70 L 143.37 70" fill="none" stroke="rgb(0, 0, 0)" stroke-miterlimit="10" pointer-events="stroke"/><path d="M 195.88 70 L 188.88 73.5 L 190.63 70 L 188.88 66.5 Z" fill="rgb(0, 0, 0)" stroke="rgb(0, 0, 0)" stroke-miterlimit="10" pointer-events="all"/><path d="M 138.12 70 L 145.12 66.5 L 143.37 70 L 145.12 73.5 Z" fill="rgb(0, 0, 0)" stroke="rgb(0, 0, 0)" stroke-miterlimit="10" pointer-events="all"/></g></g><g data-cell-id="Dz_opyrQ9mkDWGh6BsnE-19"><g><path d="M 247 96.37 L 247 120 L 567 120 L 567 96.37" fill="none" stroke="rgb(0, 0, 0)" stroke-miterlimit="10" pointer-events="stroke"/><path d="M 247 91.12 L 250.5 98.12 L 247 96.37 L 243.5 98.12 Z" fill="rgb(0, 0, 0)" stroke="rgb(0, 0, 0)" stroke-miterlimit="10" pointer-events="all"/><path d="M 567 91.12 L 570.5 98.12 L 567 96.37 L 563.5 98.12 Z" fill="rgb(0, 0, 0)" stroke="rgb(0, 0, 0)" stroke-miterlimit="10" pointer-events="all"/></g></g><g data-cell-id="Dz_opyrQ9mkDWGh6BsnE-4"><g style="filter: drop-shadow(rgb(0, 0, 0) 3px -3px 0px);"><rect x="197" y="50" width="100" height="40" rx="6" ry="6" fill="rgb(255, 255, 255)" stroke="rgb(0, 0, 0)" pointer-events="all"/></g><g><g fill="rgb(0, 0, 0)" font-family="&quot;Helvetica&quot;" text-anchor="middle" font-size="18px"><text x="246.5" y="77.5">寄存器</text></g></g></g><g data-cell-id="Dz_opyrQ9mkDWGh6BsnE-17"><g><path d="M 357 70 L 303.37 70" fill="none" stroke="rgb(0, 0, 0)" stroke-miterlimit="10" pointer-events="stroke"/><path d="M 298.12 70 L 305.12 66.5 L 303.37 70 L 305.12 73.5 Z" fill="rgb(0, 0, 0)" stroke="rgb(0, 0, 0)" stroke-miterlimit="10" pointer-events="all"/></g></g><g data-cell-id="Dz_opyrQ9mkDWGh6BsnE-8"><g style="filter: drop-shadow(rgb(0, 0, 0) 3px -3px 0px);"><rect x="357" y="50" width="100" height="40" rx="6" ry="6" fill="rgb(255, 255, 255)" stroke="rgb(0, 0, 0)" pointer-events="all"/></g><g><g fill="rgb(0, 0, 0)" font-family="&quot;Helvetica&quot;" text-anchor="middle" font-size="18px"><text x="406.5" y="77.5">缓存</text></g></g></g><g data-cell-id="Dz_opyrQ9mkDWGh6BsnE-15"><g><path d="M 517 70 L 463.37 70" fill="none" stroke="rgb(0, 0, 0)" stroke-miterlimit="10" pointer-events="stroke"/><path d="M 458.12 70 L 465.12 66.5 L 463.37 70 L 465.12 73.5 Z" fill="rgb(0, 0, 0)" stroke="rgb(0, 0, 0)" stroke-miterlimit="10" pointer-events="all"/></g></g><g data-cell-id="Dz_opyrQ9mkDWGh6BsnE-10"><g style="filter: drop-shadow(rgb(0, 0, 0) 3px -3px 0px);"><rect x="517" y="50" width="100" height="40" rx="6" ry="6" fill="rgb(255, 255, 255)" stroke="rgb(0, 0, 0)" pointer-events="all"/></g><g><g fill="rgb(0, 0, 0)" font-family="&quot;Helvetica&quot;" text-anchor="middle" font-size="18px"><text x="566.5" y="77.5">内存</text></g></g></g><g data-cell-id="Dz_opyrQ9mkDWGh6BsnE-16"><g><path d="M 670.63 70 L 623.37 70" fill="none" stroke="rgb(0, 0, 0)" stroke-miterlimit="10" pointer-events="stroke"/><path d="M 675.88 70 L 668.88 73.5 L 670.63 70 L 668.88 66.5 Z" fill="rgb(0, 0, 0)" stroke="rgb(0, 0, 0)" stroke-miterlimit="10" pointer-events="all"/><path d="M 618.12 70 L 625.12 66.5 L 623.37 70 L 625.12 73.5 Z" fill="rgb(0, 0, 0)" stroke="rgb(0, 0, 0)" stroke-miterlimit="10" pointer-events="all"/></g></g><g data-cell-id="Dz_opyrQ9mkDWGh6BsnE-12"><g style="filter: drop-shadow(rgb(0, 0, 0) 3px -3px 0px);"><rect x="677" y="50" width="100" height="40" rx="6" ry="6" fill="rgb(255, 255, 255)" stroke="rgb(0, 0, 0)" pointer-events="all"/></g><g><g fill="rgb(0, 0, 0)" font-family="&quot;Helvetica&quot;" text-anchor="middle" font-size="18px"><text x="726.5" y="77.5">硬盘</text></g></g></g></g></g></g></svg>