<?xml version="1.0" encoding="UTF-8"?>
<!DOCTYPE svg PUBLIC "-//W3C//DTD SVG 1.1//EN" "http://www.w3.org/Graphics/SVG/1.1/DTD/svg11.dtd">
<svg xmlns="http://www.w3.org/2000/svg" xmlns:xlink="http://www.w3.org/1999/xlink" version="1.1" width="749px" height="234px" viewBox="-0.5 -0.5 749 234" style="background-color: rgb(255, 255, 255);"><defs/><rect fill="#ffffff" width="100%" height="100%" x="0" y="0"/><g><g data-cell-id="0"><g data-cell-id="1"><g data-cell-id="4VUjTJUvURT9p3w9m_YW-3"><g><path d="M 115 93 L 168.63 93" fill="none" stroke="rgb(0, 0, 0)" stroke-miterlimit="10" pointer-events="stroke"/><path d="M 173.88 93 L 166.88 96.5 L 168.63 93 L 166.88 89.5 Z" fill="rgb(0, 0, 0)" stroke="rgb(0, 0, 0)" stroke-miterlimit="10" pointer-events="all"/></g></g><g data-cell-id="4VUjTJUvURT9p3w9m_YW-1"><g style="filter: drop-shadow(rgb(0, 0, 0) 3px -3px 0px);"><rect x="15" y="68" width="100" height="50" rx="7.5" ry="7.5" fill="rgb(255, 255, 255)" stroke="rgb(0, 0, 0)" pointer-events="all"/></g><g><g fill="rgb(0, 0, 0)" font-family="&quot;Helvetica&quot;" text-anchor="middle" font-size="18px"><text x="64.5" y="100.5">机器语言</text></g></g></g><g data-cell-id="4VUjTJUvURT9p3w9m_YW-5"><g><path d="M 275 93 L 328.63 93" fill="none" stroke="rgb(0, 0, 0)" stroke-miterlimit="10" pointer-events="stroke"/><path d="M 333.88 93 L 326.88 96.5 L 328.63 93 L 326.88 89.5 Z" fill="rgb(0, 0, 0)" stroke="rgb(0, 0, 0)" stroke-miterlimit="10" pointer-events="all"/></g></g><g data-cell-id="4VUjTJUvURT9p3w9m_YW-2"><g style="filter: drop-shadow(rgb(0, 0, 0) 3px -3px 0px);"><rect x="175" y="68" width="100" height="50" rx="7.5" ry="7.5" fill="rgb(255, 255, 255)" stroke="rgb(0, 0, 0)" pointer-events="all"/></g><g><g fill="rgb(0, 0, 0)" font-family="&quot;Helvetica&quot;" text-anchor="middle" font-size="18px"><text x="224.5" y="100.5">汇编语言</text></g></g></g><g data-cell-id="4VUjTJUvURT9p3w9m_YW-7"><g><path d="M 435 93 L 465 93 L 465 38 L 488.63 38" fill="none" stroke="rgb(0, 0, 0)" stroke-miterlimit="10" pointer-events="stroke"/><path d="M 493.88 38 L 486.88 41.5 L 488.63 38 L 486.88 34.5 Z" fill="rgb(0, 0, 0)" stroke="rgb(0, 0, 0)" stroke-miterlimit="10" pointer-events="all"/></g></g><g data-cell-id="4VUjTJUvURT9p3w9m_YW-9"><g><path d="M 435 93 L 465 93 L 465 148 L 488.63 148" fill="none" stroke="rgb(0, 0, 0)" stroke-miterlimit="10" pointer-events="stroke"/><path d="M 493.88 148 L 486.88 151.5 L 488.63 148 L 486.88 144.5 Z" fill="rgb(0, 0, 0)" stroke="rgb(0, 0, 0)" stroke-miterlimit="10" pointer-events="all"/></g></g><g data-cell-id="4VUjTJUvURT9p3w9m_YW-4"><g style="filter: drop-shadow(rgb(0, 0, 0) 3px -3px 0px);"><rect x="335" y="68" width="100" height="50" rx="7.5" ry="7.5" fill="rgb(255, 255, 255)" stroke="rgb(0, 0, 0)" pointer-events="all"/></g><g><g fill="rgb(0, 0, 0)" font-family="&quot;Helvetica&quot;" text-anchor="middle" font-size="18px"><text x="384.5" y="100.5">高级语言</text></g></g></g><g data-cell-id="4VUjTJUvURT9p3w9m_YW-11"><g><path d="M 595 38 L 648.63 38" fill="none" stroke="rgb(0, 0, 0)" stroke-miterlimit="10" pointer-events="stroke"/><path d="M 653.88 38 L 646.88 41.5 L 648.63 38 L 646.88 34.5 Z" fill="rgb(0, 0, 0)" stroke="rgb(0, 0, 0)" stroke-miterlimit="10" pointer-events="all"/></g></g><g data-cell-id="4VUjTJUvURT9p3w9m_YW-6"><g style="filter: drop-shadow(rgb(0, 0, 0) 0px -3px 0px);"><rect x="495" y="13" width="100" height="50" rx="7.5" ry="7.5" fill="rgb(255, 255, 255)" stroke="rgb(0, 0, 0)" pointer-events="all"/></g><g><g fill="rgb(0, 0, 0)" font-family="&quot;Helvetica&quot;" text-anchor="middle" font-size="18px"><text x="544.5" y="45.5">面向过程</text></g></g></g><g data-cell-id="4VUjTJUvURT9p3w9m_YW-13"><g><path d="M 595 148 L 625 148 L 625 93 L 648.63 93" fill="none" stroke="rgb(0, 0, 0)" stroke-miterlimit="10" pointer-events="stroke"/><path d="M 653.88 93 L 646.88 96.5 L 648.63 93 L 646.88 89.5 Z" fill="rgb(0, 0, 0)" stroke="rgb(0, 0, 0)" stroke-miterlimit="10" pointer-events="all"/></g></g><g data-cell-id="4VUjTJUvURT9p3w9m_YW-16"><g><path d="M 595 148 L 648.63 148" fill="none" stroke="rgb(0, 0, 0)" stroke-miterlimit="10" pointer-events="stroke"/><path d="M 653.88 148 L 646.88 151.5 L 648.63 148 L 646.88 144.5 Z" fill="rgb(0, 0, 0)" stroke="rgb(0, 0, 0)" stroke-miterlimit="10" pointer-events="all"/></g></g><g data-cell-id="4VUjTJUvURT9p3w9m_YW-17"><g><path d="M 595 148 L 625 148 L 625 203 L 648.63 203" fill="none" stroke="rgb(0, 0, 0)" stroke-miterlimit="10" pointer-events="stroke"/><path d="M 653.88 203 L 646.88 206.5 L 648.63 203 L 646.88 199.5 Z" fill="rgb(0, 0, 0)" stroke="rgb(0, 0, 0)" stroke-miterlimit="10" pointer-events="all"/></g></g><g data-cell-id="4VUjTJUvURT9p3w9m_YW-8"><g style="filter: drop-shadow(rgb(0, 0, 0) 0px -3px 0px);"><rect x="495" y="123" width="100" height="50" rx="7.5" ry="7.5" fill="rgb(255, 255, 255)" stroke="rgb(0, 0, 0)" pointer-events="all"/></g><g><g fill="rgb(0, 0, 0)" font-family="&quot;Helvetica&quot;" text-anchor="middle" font-size="18px"><text x="544.5" y="155.5">面向对象</text></g></g></g><g data-cell-id="4VUjTJUvURT9p3w9m_YW-10"><g style="filter: drop-shadow(rgb(0, 0, 0) 3px 0px 0px);"><rect x="655" y="18" width="40" height="40" rx="6" ry="6" fill="rgb(255, 255, 255)" stroke="rgb(0, 0, 0)" pointer-events="all"/></g><g><g fill="rgb(0, 0, 0)" font-family="&quot;Helvetica&quot;" text-anchor="middle" font-size="18px"><text x="674.5" y="45.5">C</text></g></g></g><g data-cell-id="4VUjTJUvURT9p3w9m_YW-12"><g style="filter: drop-shadow(rgb(0, 0, 0) 3px 0px 0px);"><rect x="655" y="73" width="60" height="40" rx="6" ry="6" fill="rgb(255, 255, 255)" stroke="rgb(0, 0, 0)" pointer-events="all"/></g><g><g fill="rgb(0, 0, 0)" font-family="&quot;Helvetica&quot;" text-anchor="middle" font-size="18px"><text x="684.5" y="100.5">C++</text></g></g></g><g data-cell-id="4VUjTJUvURT9p3w9m_YW-14"><g style="filter: drop-shadow(rgb(0, 0, 0) 3px 0px 0px);"><rect x="655" y="128" width="60" height="40" rx="6" ry="6" fill="rgb(255, 255, 255)" stroke="rgb(0, 0, 0)" pointer-events="all"/></g><g><g fill="rgb(0, 0, 0)" font-family="&quot;Helvetica&quot;" text-anchor="middle" font-size="18px"><text x="684.5" y="155.5">Java</text></g></g></g><g data-cell-id="4VUjTJUvURT9p3w9m_YW-15"><g style="filter: drop-shadow(rgb(0, 0, 0) 3px 0px 0px);"><rect x="655" y="183" width="80" height="40" rx="6" ry="6" fill="rgb(255, 255, 255)" stroke="rgb(0, 0, 0)" pointer-events="all"/></g><g><g fill="rgb(0, 0, 0)" font-family="&quot;Helvetica&quot;" text-anchor="middle" font-size="18px"><text x="694.5" y="210.5">Python</text></g></g></g><g data-cell-id="4VUjTJUvURT9p3w9m_YW-23"><g><path d="M 15 118 L 115 118 C 117.76 118 120 120.24 120 123 L 120 138 C 120 140.76 117.76 143 115 143 L 70 143 L 65 148 L 60 143 L 15 143 C 12.24 143 10 140.76 10 138 L 10 123 C 10 120.24 12.24 118 15 118 Z" fill="#1a1a1a" stroke="none" transform="rotate(180,65,133)" pointer-events="all"/></g><g><g fill="#FFFFFF" font-family="&quot;Helvetica&quot;" text-anchor="middle" font-size="14px"><text x="64.5" y="140.5">第一代</text></g></g></g><g data-cell-id="4VUjTJUvURT9p3w9m_YW-25"><g><path d="M 175 118 L 275 118 C 277.76 118 280 120.24 280 123 L 280 138 C 280 140.76 277.76 143 275 143 L 230 143 L 225 148 L 220 143 L 175 143 C 172.24 143 170 140.76 170 138 L 170 123 C 170 120.24 172.24 118 175 118 Z" fill="#1a1a1a" stroke="none" transform="rotate(180,225,133)" pointer-events="all"/></g><g><g fill="#FFFFFF" font-family="&quot;Helvetica&quot;" text-anchor="middle" font-size="14px"><text x="224.5" y="140.5">第二代</text></g></g></g><g data-cell-id="4VUjTJUvURT9p3w9m_YW-26"><g><path d="M 335 118 L 435 118 C 437.76 118 440 120.24 440 123 L 440 138 C 440 140.76 437.76 143 435 143 L 390 143 L 385 148 L 380 143 L 335 143 C 332.24 143 330 140.76 330 138 L 330 123 C 330 120.24 332.24 118 335 118 Z" fill="#1a1a1a" stroke="none" transform="rotate(180,385,133)" pointer-events="all"/></g><g><g fill="#FFFFFF" font-family="&quot;Helvetica&quot;" text-anchor="middle" font-size="14px"><text x="384.5" y="140.5">第三代</text></g></g></g></g></g></g></svg>