<?xml version="1.0" encoding="UTF-8"?>
<!DOCTYPE svg PUBLIC "-//W3C//DTD SVG 1.1//EN" "http://www.w3.org/Graphics/SVG/1.1/DTD/svg11.dtd">
<svg xmlns="http://www.w3.org/2000/svg" xmlns:xlink="http://www.w3.org/1999/xlink" version="1.1" width="464px" height="124px" viewBox="-0.5 -0.5 464 124" style="background-color: rgb(255, 255, 255);"><defs/><rect fill="#ffffff" width="100%" height="100%" x="0" y="0"/><g><g data-cell-id="0"><g data-cell-id="1"><g data-cell-id="ICwCYZRlLC1K_XWsh7Jr-3"><g><path d="M 44.5 54.3 L 59.5 54.3 M 44.5 51.1 L 44.5 57.5 M -15.5 54.3 L 2.5 54.3 L 44.5 54.3" fill="none" stroke="rgb(0, 0, 0)" stroke-miterlimit="10" transform="rotate(90,22,47.5)" pointer-events="all"/><ellipse cx="41.5" cy="54.3" rx="3" ry="3.2" fill="rgb(255, 255, 255)" stroke="rgb(0, 0, 0)" transform="rotate(90,22,47.5)" pointer-events="all"/></g><g><g fill="rgb(0, 0, 0)" font-family="&quot;Helvetica&quot;" text-anchor="middle" font-size="18px"><text x="14" y="108.5">1</text></g></g></g><g data-cell-id="ICwCYZRlLC1K_XWsh7Jr-4"><g><path d="M 104.5 54.3 L 119.5 54.3 M 104.5 51.1 L 104.5 57.5 M 44.5 54.3 L 62.5 54.3 L 101.5 37.5" fill="none" stroke="rgb(0, 0, 0)" stroke-miterlimit="10" transform="rotate(90,82,47.5)" pointer-events="all"/><ellipse cx="101.5" cy="54.3" rx="3" ry="3.2" fill="rgb(255, 255, 255)" stroke="rgb(0, 0, 0)" transform="rotate(90,82,47.5)" pointer-events="all"/></g><g><g fill="rgb(0, 0, 0)" font-family="&quot;Helvetica&quot;" text-anchor="middle" font-size="18px"><text x="76.5" y="108.5">0</text></g></g></g><g data-cell-id="ICwCYZRlLC1K_XWsh7Jr-5"><g><path d="M 164.5 54.3 L 179.5 54.3 M 164.5 51.1 L 164.5 57.5 M 104.5 54.3 L 122.5 54.3 L 164.5 54.3" fill="none" stroke="rgb(0, 0, 0)" stroke-miterlimit="10" transform="rotate(90,142,47.5)" pointer-events="all"/><ellipse cx="161.5" cy="54.3" rx="3" ry="3.2" fill="rgb(255, 255, 255)" stroke="rgb(0, 0, 0)" transform="rotate(90,142,47.5)" pointer-events="all"/></g><g><g fill="rgb(0, 0, 0)" font-family="&quot;Helvetica&quot;" text-anchor="middle" font-size="18px"><text x="134" y="108.5">1</text></g></g></g><g data-cell-id="ICwCYZRlLC1K_XWsh7Jr-6"><g><path d="M 224.5 54.3 L 239.5 54.3 M 224.5 51.1 L 224.5 57.5 M 164.5 54.3 L 182.5 54.3 L 224.5 54.3" fill="none" stroke="rgb(0, 0, 0)" stroke-miterlimit="10" transform="rotate(90,202,47.5)" pointer-events="all"/><ellipse cx="221.5" cy="54.3" rx="3" ry="3.2" fill="rgb(255, 255, 255)" stroke="rgb(0, 0, 0)" transform="rotate(90,202,47.5)" pointer-events="all"/></g><g><g fill="rgb(0, 0, 0)" font-family="&quot;Helvetica&quot;" text-anchor="middle" font-size="18px"><text x="194" y="108.5">1</text></g></g></g><g data-cell-id="ICwCYZRlLC1K_XWsh7Jr-7"><g><path d="M 284.5 54.3 L 299.5 54.3 M 284.5 51.1 L 284.5 57.5 M 224.5 54.3 L 242.5 54.3 L 281.5 37.5" fill="none" stroke="rgb(0, 0, 0)" stroke-miterlimit="10" transform="rotate(90,262,47.5)" pointer-events="all"/><ellipse cx="281.5" cy="54.3" rx="3" ry="3.2" fill="rgb(255, 255, 255)" stroke="rgb(0, 0, 0)" transform="rotate(90,262,47.5)" pointer-events="all"/></g><g><g fill="rgb(0, 0, 0)" font-family="&quot;Helvetica&quot;" text-anchor="middle" font-size="18px"><text x="256.5" y="108.5">0</text></g></g></g><g data-cell-id="ICwCYZRlLC1K_XWsh7Jr-8"><g><path d="M 344.5 54.3 L 359.5 54.3 M 344.5 51.1 L 344.5 57.5 M 284.5 54.3 L 302.5 54.3 L 344.5 54.3" fill="none" stroke="rgb(0, 0, 0)" stroke-miterlimit="10" transform="rotate(90,322,47.5)" pointer-events="all"/><ellipse cx="341.5" cy="54.3" rx="3" ry="3.2" fill="rgb(255, 255, 255)" stroke="rgb(0, 0, 0)" transform="rotate(90,322,47.5)" pointer-events="all"/></g><g><g fill="rgb(0, 0, 0)" font-family="&quot;Helvetica&quot;" text-anchor="middle" font-size="18px"><text x="314" y="108.5">1</text></g></g></g><g data-cell-id="ICwCYZRlLC1K_XWsh7Jr-9"><g><path d="M 404.5 54.3 L 419.5 54.3 M 404.5 51.1 L 404.5 57.5 M 344.5 54.3 L 362.5 54.3 L 404.5 54.3" fill="none" stroke="rgb(0, 0, 0)" stroke-miterlimit="10" transform="rotate(90,382,47.5)" pointer-events="all"/><ellipse cx="401.5" cy="54.3" rx="3" ry="3.2" fill="rgb(255, 255, 255)" stroke="rgb(0, 0, 0)" transform="rotate(90,382,47.5)" pointer-events="all"/></g><g><g fill="rgb(0, 0, 0)" font-family="&quot;Helvetica&quot;" text-anchor="middle" font-size="18px"><text x="374" y="108.5">1</text></g></g></g><g data-cell-id="ICwCYZRlLC1K_XWsh7Jr-10"><g><path d="M 464.5 54.3 L 479.5 54.3 M 464.5 51.1 L 464.5 57.5 M 404.5 54.3 L 422.5 54.3 L 461.5 37.5" fill="none" stroke="rgb(0, 0, 0)" stroke-miterlimit="10" transform="rotate(90,442,47.5)" pointer-events="all"/><ellipse cx="461.5" cy="54.3" rx="3" ry="3.2" fill="rgb(255, 255, 255)" stroke="rgb(0, 0, 0)" transform="rotate(90,442,47.5)" pointer-events="all"/></g><g><g fill="rgb(0, 0, 0)" font-family="&quot;Helvetica&quot;" text-anchor="middle" font-size="18px"><text x="436.5" y="108.5">0</text></g></g></g></g></g></g></svg>