<?xml version="1.0" encoding="UTF-8"?>
<!DOCTYPE svg PUBLIC "-//W3C//DTD SVG 1.1//EN" "http://www.w3.org/Graphics/SVG/1.1/DTD/svg11.dtd">
<svg xmlns="http://www.w3.org/2000/svg" xmlns:xlink="http://www.w3.org/1999/xlink" version="1.1" width="914px" height="424px" viewBox="-0.5 -0.5 914 424" style="background-color: rgb(255, 255, 255);"><defs/><rect fill="#ffffff" width="100%" height="100%" x="0" y="0"/><g><g><path d="M 110 240 L 140 240 L 140 150 L 170 150" fill="none" stroke="rgb(0, 0, 0)" stroke-miterlimit="10" pointer-events="stroke"/></g><g><path d="M 110 240 L 140 240 L 140 330 L 170 330" fill="none" stroke="rgb(0, 0, 0)" stroke-miterlimit="10" pointer-events="stroke"/></g><g style="filter: drop-shadow(rgb(0, 0, 0) 3px -3px 0px);"><rect x="10" y="215" width="100" height="50" rx="7.5" ry="7.5" fill="rgb(255, 255, 255)" stroke="rgb(0, 0, 0)" pointer-events="all"/></g><g><g fill="rgb(0, 0, 0)" font-family="Helvetica" text-anchor="middle" font-size="18px"><text x="59.5" y="247.5">数据类型</text></g></g><g><path d="M 300 150 L 360 150" fill="none" stroke="rgb(0, 0, 0)" stroke-miterlimit="10" pointer-events="stroke"/></g><g><path d="M 300 150 L 330 150 L 330 210 L 360 210" fill="none" stroke="rgb(0, 0, 0)" stroke-miterlimit="10" pointer-events="stroke"/></g><g><path d="M 300 150 L 330 150 L 330 60 L 360 60" fill="none" stroke="rgb(0, 0, 0)" stroke-miterlimit="10" pointer-events="stroke"/></g><g style="filter: drop-shadow(rgb(0, 0, 0) 0px -3px 0px);"><rect x="170" y="125" width="130" height="50" rx="7.5" ry="7.5" fill="rgb(255, 255, 255)" stroke="rgb(0, 0, 0)" pointer-events="all"/></g><g><g fill="rgb(0, 0, 0)" font-family="Helvetica" text-anchor="middle" font-size="18px"><text x="234.5" y="157.5">基本数据类型</text></g></g><g><path d="M 300 330 L 330 330 L 330 270 L 360 270" fill="none" stroke="rgb(0, 0, 0)" stroke-miterlimit="10" pointer-events="stroke"/></g><g><path d="M 300 330 L 360 330" fill="none" stroke="rgb(0, 0, 0)" stroke-miterlimit="10" pointer-events="stroke"/></g><g><path d="M 300 330 L 330 330 L 330 390 L 360 390" fill="none" stroke="rgb(0, 0, 0)" stroke-miterlimit="10" pointer-events="stroke"/></g><g style="filter: drop-shadow(rgb(0, 0, 0) 0px -3px 0px);"><rect x="170" y="305" width="130" height="50" rx="7.5" ry="7.5" fill="rgb(255, 255, 255)" stroke="rgb(0, 0, 0)" pointer-events="all"/></g><g><g fill="rgb(0, 0, 0)" font-family="Helvetica" text-anchor="middle" font-size="18px"><text x="234.5" y="337.5">引用数据类型</text></g></g><g><path d="M 440 60 L 465 60 L 465 30 L 490 30" fill="none" stroke="rgb(0, 0, 0)" stroke-miterlimit="10" pointer-events="stroke"/></g><g><path d="M 440 60 L 465 60 L 465 90 L 490 90" fill="none" stroke="rgb(0, 0, 0)" stroke-miterlimit="10" pointer-events="stroke"/></g><g style="filter: drop-shadow(rgb(0, 0, 0) 0px 3px 0px);"><rect x="360" y="40" width="80" height="40" rx="6" ry="6" fill="rgb(255, 255, 255)" stroke="rgb(0, 0, 0)" pointer-events="all"/></g><g><g fill="rgb(0, 0, 0)" font-family="Helvetica" text-anchor="middle" font-size="18px"><text x="399.5" y="67.5">数值型</text></g></g><g><path d="M 440 150 L 490 150" fill="none" stroke="rgb(0, 0, 0)" stroke-miterlimit="10" pointer-events="stroke"/></g><g style="filter: drop-shadow(rgb(0, 0, 0) 0px 3px 0px);"><rect x="360" y="130" width="80" height="40" rx="6" ry="6" fill="rgb(255, 255, 255)" stroke="rgb(0, 0, 0)" pointer-events="all"/></g><g><g fill="rgb(0, 0, 0)" font-family="Helvetica" text-anchor="middle" font-size="18px"><text x="399.5" y="157.5">字符型</text></g></g><g><path d="M 440 210 L 490 210" fill="none" stroke="rgb(0, 0, 0)" stroke-miterlimit="10" pointer-events="stroke"/></g><g style="filter: drop-shadow(rgb(0, 0, 0) 0px 3px 0px);"><rect x="360" y="190" width="80" height="40" rx="6" ry="6" fill="rgb(255, 255, 255)" stroke="rgb(0, 0, 0)" pointer-events="all"/></g><g><g fill="rgb(0, 0, 0)" font-family="Helvetica" text-anchor="middle" font-size="18px"><text x="399.5" y="217.5">布尔型</text></g></g><g><path d="M 590 30 L 630 30" fill="none" stroke="rgb(0, 0, 0)" stroke-miterlimit="10" pointer-events="stroke"/></g><g style="filter: drop-shadow(rgb(0, 0, 0) -3px 0px 0px);"><rect x="490" y="10" width="100" height="40" rx="6" ry="6" fill="rgb(255, 255, 255)" stroke="rgb(0, 0, 0)" pointer-events="all"/></g><g><g fill="rgb(0, 0, 0)" font-family="Helvetica" text-anchor="middle" font-size="18px"><text x="539.5" y="37.5">整数类型</text></g></g><g><path d="M 590 90 L 630 90" fill="none" stroke="rgb(0, 0, 0)" stroke-miterlimit="10" pointer-events="stroke"/></g><g style="filter: drop-shadow(rgb(0, 0, 0) -3px 0px 0px);"><rect x="490" y="70" width="100" height="40" rx="6" ry="6" fill="rgb(255, 255, 255)" stroke="rgb(0, 0, 0)" pointer-events="all"/></g><g><g fill="rgb(0, 0, 0)" font-family="Helvetica" text-anchor="middle" font-size="18px"><text x="539.5" y="97.5">浮点类型</text></g></g><g><path d="M 440 270 L 490 270" fill="none" stroke="rgb(0, 0, 0)" stroke-miterlimit="10" pointer-events="stroke"/></g><g style="filter: drop-shadow(rgb(0, 0, 0) 0px 3px 0px);"><rect x="360" y="250" width="80" height="40" rx="6" ry="6" fill="rgb(255, 255, 255)" stroke="rgb(0, 0, 0)" pointer-events="all"/></g><g><g fill="rgb(0, 0, 0)" font-family="Helvetica" text-anchor="middle" font-size="18px"><text x="399.5" y="277.5">类</text></g></g><g><path d="M 440 330 L 490 330" fill="none" stroke="rgb(0, 0, 0)" stroke-miterlimit="10" pointer-events="stroke"/></g><g style="filter: drop-shadow(rgb(0, 0, 0) 0px 3px 0px);"><rect x="360" y="310" width="80" height="40" rx="6" ry="6" fill="rgb(255, 255, 255)" stroke="rgb(0, 0, 0)" pointer-events="all"/></g><g><g fill="rgb(0, 0, 0)" font-family="Helvetica" text-anchor="middle" font-size="18px"><text x="399.5" y="337.5">接口</text></g></g><g style="filter: drop-shadow(rgb(0, 0, 0) 0px 3px 0px);"><rect x="360" y="370" width="80" height="40" rx="6" ry="6" fill="rgb(255, 255, 255)" stroke="rgb(0, 0, 0)" pointer-events="all"/></g><g><g fill="rgb(0, 0, 0)" font-family="Helvetica" text-anchor="middle" font-size="18px"><text x="399.5" y="397.5">数组</text></g></g><g style="filter: drop-shadow(rgb(0, 0, 0) 3px 0px 0px);"><rect x="630" y="10" width="60" height="40" rx="6" ry="6" fill="rgb(255, 255, 255)" stroke="rgb(0, 0, 0)" pointer-events="all"/></g><g><g fill="rgb(0, 0, 0)" font-family="Helvetica" text-anchor="middle" font-size="18px"><text x="659.5" y="37.5">byte</text></g></g><g style="filter: drop-shadow(rgb(0, 0, 0) 3px 0px 0px);"><rect x="700" y="10" width="60" height="40" rx="6" ry="6" fill="rgb(255, 255, 255)" stroke="rgb(0, 0, 0)" pointer-events="all"/></g><g><g fill="rgb(0, 0, 0)" font-family="Helvetica" text-anchor="middle" font-size="18px"><text x="729.5" y="37.5">short</text></g></g><g style="filter: drop-shadow(rgb(0, 0, 0) 3px 0px 0px);"><rect x="770" y="10" width="60" height="40" rx="6" ry="6" fill="rgb(255, 255, 255)" stroke="rgb(0, 0, 0)" pointer-events="all"/></g><g><g fill="rgb(0, 0, 0)" font-family="Helvetica" text-anchor="middle" font-size="18px"><text x="799.5" y="37.5">int</text></g></g><g style="filter: drop-shadow(rgb(0, 0, 0) 3px 0px 0px);"><rect x="840" y="10" width="60" height="40" rx="6" ry="6" fill="rgb(255, 255, 255)" stroke="rgb(0, 0, 0)" pointer-events="all"/></g><g><g fill="rgb(0, 0, 0)" font-family="Helvetica" text-anchor="middle" font-size="18px"><text x="869.5" y="37.5">long</text></g></g><g style="filter: drop-shadow(rgb(0, 0, 0) 3px 0px 0px);"><rect x="630" y="70" width="60" height="40" rx="6" ry="6" fill="rgb(255, 255, 255)" stroke="rgb(0, 0, 0)" pointer-events="all"/></g><g><g fill="rgb(0, 0, 0)" font-family="Helvetica" text-anchor="middle" font-size="18px"><text x="659.5" y="97.5">float</text></g></g><g style="filter: drop-shadow(rgb(0, 0, 0) 3px 0px 0px);"><rect x="700" y="70" width="60" height="40" rx="6" ry="6" fill="rgb(255, 255, 255)" stroke="rgb(0, 0, 0)" pointer-events="all"/></g><g><g fill="rgb(0, 0, 0)" font-family="Helvetica" text-anchor="middle" font-size="18px"><text x="729.5" y="97.5">double</text></g></g><g style="filter: drop-shadow(rgb(0, 0, 0) 3px 0px 0px);"><rect x="490" y="130" width="60" height="40" rx="6" ry="6" fill="rgb(255, 255, 255)" stroke="rgb(0, 0, 0)" pointer-events="all"/></g><g><g fill="rgb(0, 0, 0)" font-family="Helvetica" text-anchor="middle" font-size="18px"><text x="519.5" y="157.5">char</text></g></g><g style="filter: drop-shadow(rgb(0, 0, 0) 3px 0px 0px);"><rect x="490" y="190" width="90" height="40" rx="6" ry="6" fill="rgb(255, 255, 255)" stroke="rgb(0, 0, 0)" pointer-events="all"/></g><g><g fill="rgb(0, 0, 0)" font-family="Helvetica" text-anchor="middle" font-size="18px"><text x="534.5" y="217.5">boolean</text></g></g><g style="filter: drop-shadow(rgb(0, 0, 0) 3px 0px 0px);"><rect x="490" y="250" width="60" height="40" rx="6" ry="6" fill="rgb(255, 255, 255)" stroke="rgb(0, 0, 0)" pointer-events="all"/></g><g><g fill="rgb(0, 0, 0)" font-family="Helvetica" text-anchor="middle" font-size="18px"><text x="519.5" y="277.5">class</text></g></g><g style="filter: drop-shadow(rgb(0, 0, 0) 3px 0px 0px);"><rect x="490" y="310" width="90" height="40" rx="6" ry="6" fill="rgb(255, 255, 255)" stroke="rgb(0, 0, 0)" pointer-events="all"/></g><g><g fill="rgb(0, 0, 0)" font-family="Helvetica" text-anchor="middle" font-size="18px"><text x="534.5" y="337.5">interface</text></g></g><g style="filter: drop-shadow(rgb(0, 0, 0) 3px 0px 0px);"><rect x="490" y="370" width="60" height="40" rx="6" ry="6" fill="rgb(255, 255, 255)" stroke="rgb(0, 0, 0)" pointer-events="all"/></g><g><g fill="rgb(0, 0, 0)" font-family="Helvetica" text-anchor="middle" font-size="18px"><text x="519.5" y="397.5">[]</text></g></g><g><path d="M 440 390 L 490 390" fill="none" stroke="rgb(0, 0, 0)" stroke-miterlimit="10" pointer-events="stroke"/></g></g></svg>