<?xml version="1.0" encoding="UTF-8"?>
<!DOCTYPE svg PUBLIC "-//W3C//DTD SVG 1.1//EN" "http://www.w3.org/Graphics/SVG/1.1/DTD/svg11.dtd">
<svg xmlns="http://www.w3.org/2000/svg" xmlns:xlink="http://www.w3.org/1999/xlink" version="1.1" width="620px" height="290px" viewBox="-0.5 -0.5 620 290" style="background-color: rgb(255, 255, 255);"><defs/><rect fill="#ffffff" width="100%" height="100%" x="0" y="0"/><g><g><path d="M 0 0 L 0 0 L 620 0 L 620 0" fill="rgb(255, 255, 255)" stroke="none" pointer-events="all"><title>实线表示无数据丢失的自动类型转换；虚线表示在转换时可能会有精度损失。</title></path><path d="M 0 0 L 0 290 L 620 290 L 620 0" fill="rgb(255, 255, 255)" stroke="none" pointer-events="all"><title>实线表示无数据丢失的自动类型转换；虚线表示在转换时可能会有精度损失。</title></path></g><g><path d="M 120 145 L 173.63 145" fill="none" stroke="rgb(0, 0, 0)" stroke-miterlimit="10" pointer-events="stroke"/><path d="M 178.88 145 L 171.88 148.5 L 173.63 145 L 171.88 141.5 Z" fill="rgb(0, 0, 0)" stroke="rgb(0, 0, 0)" stroke-miterlimit="10" pointer-events="all"/></g><g style="filter: drop-shadow(rgb(0, 0, 0) 3px -3px 0px);"><rect x="20" y="120" width="100" height="50" rx="7.5" ry="7.5" fill="rgb(255, 255, 255)" stroke="rgb(0, 0, 0)" pointer-events="all"/></g><g><g fill="rgb(0, 0, 0)" font-family="Helvetica" text-anchor="middle" font-size="18px"><text x="69.5" y="152.5">byte</text></g></g><g><path d="M 280 145 L 333.63 145" fill="none" stroke="rgb(0, 0, 0)" stroke-miterlimit="10" pointer-events="stroke"/><path d="M 338.88 145 L 331.88 148.5 L 333.63 145 L 331.88 141.5 Z" fill="rgb(0, 0, 0)" stroke="rgb(0, 0, 0)" stroke-miterlimit="10" pointer-events="all"/></g><g style="filter: drop-shadow(rgb(0, 0, 0) 3px -3px 0px);"><rect x="180" y="120" width="100" height="50" rx="7.5" ry="7.5" fill="rgb(255, 255, 255)" stroke="rgb(0, 0, 0)" pointer-events="all"/></g><g><g fill="rgb(0, 0, 0)" font-family="Helvetica" text-anchor="middle" font-size="18px"><text x="229.5" y="152.5">short</text></g></g><g><path d="M 440 145 L 493.63 145" fill="none" stroke="rgb(0, 0, 0)" stroke-miterlimit="10" pointer-events="stroke"/><path d="M 498.88 145 L 491.88 148.5 L 493.63 145 L 491.88 141.5 Z" fill="rgb(0, 0, 0)" stroke="rgb(0, 0, 0)" stroke-miterlimit="10" pointer-events="all"/></g><g><path d="M 390 170 L 390 213.63" fill="none" stroke="rgb(0, 0, 0)" stroke-miterlimit="10" stroke-dasharray="3 3" pointer-events="stroke"/><path d="M 390 218.88 L 386.5 211.88 L 390 213.63 L 393.5 211.88 Z" fill="rgb(0, 0, 0)" stroke="rgb(0, 0, 0)" stroke-miterlimit="10" pointer-events="all"/></g><g style="filter: drop-shadow(rgb(0, 0, 0) 3px -3px 0px);"><rect x="340" y="120" width="100" height="50" rx="7.5" ry="7.5" fill="rgb(255, 255, 255)" stroke="rgb(0, 0, 0)" pointer-events="all"/></g><g><g fill="rgb(0, 0, 0)" font-family="Helvetica" text-anchor="middle" font-size="18px"><text x="389.5" y="152.5">int</text></g></g><g><path d="M 550 170 L 550 213.63" fill="none" stroke="rgb(0, 0, 0)" stroke-miterlimit="10" stroke-dasharray="3 3" pointer-events="stroke"/><path d="M 550 218.88 L 546.5 211.88 L 550 213.63 L 553.5 211.88 Z" fill="rgb(0, 0, 0)" stroke="rgb(0, 0, 0)" stroke-miterlimit="10" pointer-events="all"/></g><g><path d="M 500 170 L 444.89 215.92" fill="none" stroke="rgb(0, 0, 0)" stroke-miterlimit="10" stroke-dasharray="3 3" pointer-events="stroke"/><path d="M 440.86 219.28 L 444 212.11 L 444.89 215.92 L 448.48 217.49 Z" fill="rgb(0, 0, 0)" stroke="rgb(0, 0, 0)" stroke-miterlimit="10" pointer-events="all"/></g><g style="filter: drop-shadow(rgb(0, 0, 0) 3px -3px 0px);"><rect x="500" y="120" width="100" height="50" rx="7.5" ry="7.5" fill="rgb(255, 255, 255)" stroke="rgb(0, 0, 0)" pointer-events="all"/></g><g><g fill="rgb(0, 0, 0)" font-family="Helvetica" text-anchor="middle" font-size="18px"><text x="549.5" y="152.5">long</text></g></g><g><path d="M 440 245 L 493.63 245" fill="none" stroke="rgb(0, 0, 0)" stroke-miterlimit="10" pointer-events="stroke"/><path d="M 498.88 245 L 491.88 248.5 L 493.63 245 L 491.88 241.5 Z" fill="rgb(0, 0, 0)" stroke="rgb(0, 0, 0)" stroke-miterlimit="10" pointer-events="all"/></g><g style="filter: drop-shadow(rgb(0, 0, 0) 3px -3px 0px);"><rect x="340" y="220" width="100" height="50" rx="7.5" ry="7.5" fill="rgb(255, 255, 255)" stroke="rgb(0, 0, 0)" pointer-events="all"/></g><g><g fill="rgb(0, 0, 0)" font-family="Helvetica" text-anchor="middle" font-size="18px"><text x="389.5" y="252.5">float</text></g></g><g style="filter: drop-shadow(rgb(0, 0, 0) 3px -3px 0px);"><rect x="500" y="220" width="100" height="50" rx="7.5" ry="7.5" fill="rgb(255, 255, 255)" stroke="rgb(0, 0, 0)" pointer-events="all"/></g><g><g fill="rgb(0, 0, 0)" font-family="Helvetica" text-anchor="middle" font-size="18px"><text x="549.5" y="252.5">double</text></g></g><g><path d="M 390 70 L 390 113.63" fill="none" stroke="rgb(0, 0, 0)" stroke-miterlimit="10" pointer-events="stroke"/><path d="M 390 118.88 L 386.5 111.88 L 390 113.63 L 393.5 111.88 Z" fill="rgb(0, 0, 0)" stroke="rgb(0, 0, 0)" stroke-miterlimit="10" pointer-events="all"/></g><g style="filter: drop-shadow(rgb(0, 0, 0) 3px -3px 0px);"><rect x="340" y="20" width="100" height="50" rx="7.5" ry="7.5" fill="rgb(255, 255, 255)" stroke="rgb(0, 0, 0)" pointer-events="all"/></g><g><g fill="rgb(0, 0, 0)" font-family="Helvetica" text-anchor="middle" font-size="18px"><text x="389.5" y="52.5">char</text></g></g><g><path d="M 440 170 L 495.11 215.92" fill="none" stroke="rgb(0, 0, 0)" stroke-miterlimit="10" pointer-events="stroke"/><path d="M 499.14 219.28 L 491.52 217.49 L 495.11 215.92 L 496 212.11 Z" fill="rgb(0, 0, 0)" stroke="rgb(0, 0, 0)" stroke-miterlimit="10" pointer-events="all"/></g></g></svg>