<?xml version="1.0" encoding="UTF-8"?>
<!DOCTYPE svg PUBLIC "-//W3C//DTD SVG 1.1//EN" "http://www.w3.org/Graphics/SVG/1.1/DTD/svg11.dtd">
<svg xmlns="http://www.w3.org/2000/svg" xmlns:xlink="http://www.w3.org/1999/xlink" version="1.1" width="640px" height="310px" viewBox="-0.5 -0.5 640 310" style="background-color: rgb(255, 255, 255);"><defs/><rect fill="#ffffff" width="100%" height="100%" x="0" y="0"/><g><g data-cell-id="0"><g data-cell-id="1"><g data-cell-id="Q2dZrIyihSpCJHTNgfPx-53"><g><path d="M 10 10 L 10 10 L 630 10 L 630 10" fill="rgb(255, 255, 255)" stroke="none" pointer-events="all"><title>实线表示无数据丢失的自动类型转换；虚线表示在转换时可能会有精度损失。</title></path><path d="M 10 10 L 10 300 L 630 300 L 630 10" fill="rgb(255, 255, 255)" stroke="none" pointer-events="all"><title>实线表示无数据丢失的自动类型转换；虚线表示在转换时可能会有精度损失。</title></path></g><g data-cell-id="Q2dZrIyihSpCJHTNgfPx-38"><g><path d="M 130 155 L 183.63 155" fill="none" stroke="rgb(0, 0, 0)" stroke-miterlimit="10" pointer-events="stroke"/><path d="M 188.88 155 L 181.88 158.5 L 183.63 155 L 181.88 151.5 Z" fill="rgb(0, 0, 0)" stroke="rgb(0, 0, 0)" stroke-miterlimit="10" pointer-events="all"/></g></g><g data-cell-id="Q2dZrIyihSpCJHTNgfPx-36"><g style="filter: drop-shadow(rgb(0, 0, 0) 3px -3px 0px);"><rect x="30" y="130" width="100" height="50" rx="7.5" ry="7.5" fill="rgb(255, 255, 255)" stroke="rgb(0, 0, 0)" pointer-events="all"/></g><g><g fill="rgb(0, 0, 0)" font-family="&quot;Helvetica&quot;" text-anchor="middle" font-size="18px"><text x="79.5" y="162.5">byte</text></g></g></g><g data-cell-id="Q2dZrIyihSpCJHTNgfPx-44"><g><path d="M 290 155 L 343.63 155" fill="none" stroke="rgb(0, 0, 0)" stroke-miterlimit="10" pointer-events="stroke"/><path d="M 348.88 155 L 341.88 158.5 L 343.63 155 L 341.88 151.5 Z" fill="rgb(0, 0, 0)" stroke="rgb(0, 0, 0)" stroke-miterlimit="10" pointer-events="all"/></g></g><g data-cell-id="Q2dZrIyihSpCJHTNgfPx-37"><g style="filter: drop-shadow(rgb(0, 0, 0) 3px -3px 0px);"><rect x="190" y="130" width="100" height="50" rx="7.5" ry="7.5" fill="rgb(255, 255, 255)" stroke="rgb(0, 0, 0)" pointer-events="all"/></g><g><g fill="rgb(0, 0, 0)" font-family="&quot;Helvetica&quot;" text-anchor="middle" font-size="18px"><text x="239.5" y="162.5">short</text></g></g></g><g data-cell-id="Q2dZrIyihSpCJHTNgfPx-45"><g><path d="M 450 155 L 503.63 155" fill="none" stroke="rgb(0, 0, 0)" stroke-miterlimit="10" pointer-events="stroke"/><path d="M 508.88 155 L 501.88 158.5 L 503.63 155 L 501.88 151.5 Z" fill="rgb(0, 0, 0)" stroke="rgb(0, 0, 0)" stroke-miterlimit="10" pointer-events="all"/></g></g><g data-cell-id="Q2dZrIyihSpCJHTNgfPx-48"><g><path d="M 400 180 L 400 223.63" fill="none" stroke="rgb(0, 0, 0)" stroke-miterlimit="10" stroke-dasharray="3 3" pointer-events="stroke"/><path d="M 400 228.88 L 396.5 221.88 L 400 223.63 L 403.5 221.88 Z" fill="rgb(0, 0, 0)" stroke="rgb(0, 0, 0)" stroke-miterlimit="10" pointer-events="all"/></g></g><g data-cell-id="Q2dZrIyihSpCJHTNgfPx-39"><g style="filter: drop-shadow(rgb(0, 0, 0) 3px -3px 0px);"><rect x="350" y="130" width="100" height="50" rx="7.5" ry="7.5" fill="rgb(255, 255, 255)" stroke="rgb(0, 0, 0)" pointer-events="all"/></g><g><g fill="rgb(0, 0, 0)" font-family="&quot;Helvetica&quot;" text-anchor="middle" font-size="18px"><text x="399.5" y="162.5">int</text></g></g></g><g data-cell-id="Q2dZrIyihSpCJHTNgfPx-50"><g><path d="M 560 180 L 560 223.63" fill="none" stroke="rgb(0, 0, 0)" stroke-miterlimit="10" stroke-dasharray="3 3" pointer-events="stroke"/><path d="M 560 228.88 L 556.5 221.88 L 560 223.63 L 563.5 221.88 Z" fill="rgb(0, 0, 0)" stroke="rgb(0, 0, 0)" stroke-miterlimit="10" pointer-events="all"/></g></g><g data-cell-id="Q2dZrIyihSpCJHTNgfPx-52"><g><path d="M 510 180 L 454.89 225.92" fill="none" stroke="rgb(0, 0, 0)" stroke-miterlimit="10" stroke-dasharray="3 3" pointer-events="stroke"/><path d="M 450.86 229.28 L 454 222.11 L 454.89 225.92 L 458.48 227.49 Z" fill="rgb(0, 0, 0)" stroke="rgb(0, 0, 0)" stroke-miterlimit="10" pointer-events="all"/></g></g><g data-cell-id="Q2dZrIyihSpCJHTNgfPx-40"><g style="filter: drop-shadow(rgb(0, 0, 0) 3px -3px 0px);"><rect x="510" y="130" width="100" height="50" rx="7.5" ry="7.5" fill="rgb(255, 255, 255)" stroke="rgb(0, 0, 0)" pointer-events="all"/></g><g><g fill="rgb(0, 0, 0)" font-family="&quot;Helvetica&quot;" text-anchor="middle" font-size="18px"><text x="559.5" y="162.5">long</text></g></g></g><g data-cell-id="Q2dZrIyihSpCJHTNgfPx-49"><g><path d="M 450 255 L 503.63 255" fill="none" stroke="rgb(0, 0, 0)" stroke-miterlimit="10" pointer-events="stroke"/><path d="M 508.88 255 L 501.88 258.5 L 503.63 255 L 501.88 251.5 Z" fill="rgb(0, 0, 0)" stroke="rgb(0, 0, 0)" stroke-miterlimit="10" pointer-events="all"/></g></g><g data-cell-id="Q2dZrIyihSpCJHTNgfPx-41"><g style="filter: drop-shadow(rgb(0, 0, 0) 3px -3px 0px);"><rect x="350" y="230" width="100" height="50" rx="7.5" ry="7.5" fill="rgb(255, 255, 255)" stroke="rgb(0, 0, 0)" pointer-events="all"/></g><g><g fill="rgb(0, 0, 0)" font-family="&quot;Helvetica&quot;" text-anchor="middle" font-size="18px"><text x="399.5" y="262.5">float</text></g></g></g><g data-cell-id="Q2dZrIyihSpCJHTNgfPx-42"><g style="filter: drop-shadow(rgb(0, 0, 0) 3px -3px 0px);"><rect x="510" y="230" width="100" height="50" rx="7.5" ry="7.5" fill="rgb(255, 255, 255)" stroke="rgb(0, 0, 0)" pointer-events="all"/></g><g><g fill="rgb(0, 0, 0)" font-family="&quot;Helvetica&quot;" text-anchor="middle" font-size="18px"><text x="559.5" y="262.5">double</text></g></g></g><g data-cell-id="Q2dZrIyihSpCJHTNgfPx-47"><g><path d="M 400 80 L 400 123.63" fill="none" stroke="rgb(0, 0, 0)" stroke-miterlimit="10" pointer-events="stroke"/><path d="M 400 128.88 L 396.5 121.88 L 400 123.63 L 403.5 121.88 Z" fill="rgb(0, 0, 0)" stroke="rgb(0, 0, 0)" stroke-miterlimit="10" pointer-events="all"/></g></g><g data-cell-id="Q2dZrIyihSpCJHTNgfPx-43"><g style="filter: drop-shadow(rgb(0, 0, 0) 3px -3px 0px);"><rect x="350" y="30" width="100" height="50" rx="7.5" ry="7.5" fill="rgb(255, 255, 255)" stroke="rgb(0, 0, 0)" pointer-events="all"/></g><g><g fill="rgb(0, 0, 0)" font-family="&quot;Helvetica&quot;" text-anchor="middle" font-size="18px"><text x="399.5" y="62.5">char</text></g></g></g><g data-cell-id="Q2dZrIyihSpCJHTNgfPx-51"><g><path d="M 450 180 L 505.11 225.92" fill="none" stroke="rgb(0, 0, 0)" stroke-miterlimit="10" pointer-events="stroke"/><path d="M 509.14 229.28 L 501.52 227.49 L 505.11 225.92 L 506 222.11 Z" fill="rgb(0, 0, 0)" stroke="rgb(0, 0, 0)" stroke-miterlimit="10" pointer-events="all"/></g></g></g></g></g></g></svg>